<svg width="16" height="16" viewBox="0 0 16 16" fill="none" xmlns="http://www.w3.org/2000/svg">
<path fill-rule="evenodd" clip-rule="evenodd" d="M7.80957 1.04032C7.6845 1.0946 7.62247 1.1532 7.5596 1.27646C7.51251 1.3687 7.50778 1.44589 7.50778 2.11902C7.50778 2.92486 7.51522 2.97268 7.66174 3.10973C7.8534 3.28901 8.14714 3.28901 8.3388 3.10973C8.48532 2.97268 8.49276 2.92486 8.49276 2.11902C8.49276 1.44589 8.48802 1.3687 8.44094 1.27646C8.37694 1.15101 8.31481 1.09342 8.18484 1.03909C8.05915 0.986563 7.93252 0.986973 7.80957 1.04032ZM3.02524 2.80754C2.88464 2.87718 2.77563 3.02928 2.75476 3.18503C2.72581 3.40094 2.78579 3.48765 3.35581 4.05431C3.80456 4.50036 3.90004 4.58251 4.00109 4.60933C4.37305 4.70809 4.72283 4.35083 4.6072 3.9902C4.56343 3.85356 3.60969 2.87794 3.44474 2.80103C3.30041 2.73375 3.1702 2.73574 3.02524 2.80754ZM12.5558 2.79941C12.3894 2.87947 11.4365 3.85559 11.3933 3.9902C11.2777 4.35083 11.6275 4.70809 11.9994 4.60933C12.1005 4.58251 12.196 4.50036 12.6447 4.05431C13.2204 3.48207 13.277 3.39941 13.2422 3.18158C13.1895 2.85197 12.8451 2.66022 12.5558 2.79941ZM7.59468 4.77449C6.8627 4.87741 6.23677 5.18715 5.71104 5.70659C5.23795 6.17402 4.91441 6.79293 4.79613 7.45679C4.74529 7.74206 4.75112 8.31985 4.8077 8.60835C4.93115 9.23764 5.18771 9.73244 5.66329 10.2585C6.00106 10.6321 6.10109 10.7713 6.23951 11.0602C6.4107 11.4176 6.47018 11.6688 6.49131 12.1237L6.50912 12.5069H8.00027H9.49142L9.50855 12.1237C9.5428 11.3579 9.7279 10.9284 10.2885 10.3142C10.8095 9.7432 11.0885 9.20586 11.2035 8.55167C11.2483 8.2967 11.2499 7.72744 11.2065 7.46486C11.098 6.80766 10.786 6.21317 10.2883 5.71524C9.80462 5.23136 9.25987 4.93665 8.62721 4.81656C8.35481 4.76489 7.81857 4.74302 7.59468 4.77449ZM1.25671 7.57399C1.19696 7.60785 1.12029 7.67675 1.08637 7.72714C0.922368 7.97059 0.998923 8.2884 1.25671 8.43446C1.36192 8.49408 1.38878 8.49605 2.10913 8.49648C2.56925 8.49676 2.88229 8.48581 2.92995 8.4678C3.24796 8.34761 3.34331 7.91751 3.10782 7.66555C2.97061 7.51873 2.92366 7.5115 2.11179 7.51197C1.38867 7.51241 1.36194 7.51435 1.25671 7.57399ZM13.0483 7.55032C12.8748 7.62781 12.761 7.80753 12.761 8.00423C12.761 8.14139 12.8014 8.24515 12.8927 8.3429C13.0299 8.48972 13.0769 8.49695 13.8888 8.49648C14.6119 8.49605 14.6386 8.4941 14.7438 8.43446C15.0854 8.24094 15.0854 7.76751 14.7438 7.57399C14.6384 7.51424 14.6131 7.51246 13.8828 7.51306C13.3144 7.51353 13.1103 7.52264 13.0483 7.55032ZM6.74606 13.44L6.75536 13.8667L6.83214 13.9327L6.90891 13.9987H8.00027H9.09163L9.1684 13.9327L9.24517 13.8667L9.25448 13.44L9.26375 13.0133H8.00027H6.73679L6.74606 13.44ZM7.3487 14.6315C7.42088 14.7601 7.52012 14.8509 7.68245 14.9369C7.84141 15.021 8.15912 15.021 8.31809 14.9369C8.48042 14.8509 8.57966 14.7601 8.65183 14.6315L8.71514 14.5188H8.00027H7.28539L7.3487 14.6315Z" fill="#272B33"/>
</svg>
