<svg width="362" height="156" viewBox="0 0 362 156" fill="none" xmlns="http://www.w3.org/2000/svg">
<rect width="362" height="156" rx="12" fill="#4A5566"/>
<path d="M4 14C4 8.47715 8.47715 4 14 4H348C353.523 4 358 8.47715 358 14V76H4V14Z" fill="#4A5566"/>
<path d="M4 14C4 8.47715 8.47715 4 14 4H348C353.523 4 358 8.47715 358 14V76H4V14Z" fill="white" fill-opacity="0.2"/>
<path d="M24 14C24 8.47715 28.4772 4 34 4H348C353.523 4 358 8.47715 358 14V76H24V14Z" fill="#4A5566"/>
<path d="M24 14C24 8.47715 28.4772 4 34 4H348C353.523 4 358 8.47715 358 14V76H24V14Z" fill="white" fill-opacity="0.1"/>
<path d="M166.953 23.828L166.005 23.684V23.084H169.269V23.684L168.237 23.828V27.056H172.461V23.828L171.489 23.684V23.084H174.705V23.684L173.757 23.828V31.292L174.705 31.412V32H171.477V31.412L172.461 31.292V27.8H168.237V31.292L169.281 31.412V32H165.981V31.412L166.953 31.292V23.828ZM178.931 32.132C177.963 32.132 177.223 31.816 176.711 31.184C176.207 30.552 175.955 29.708 175.955 28.652C175.955 27.956 176.087 27.344 176.351 26.816C176.615 26.288 176.983 25.88 177.455 25.592C177.935 25.304 178.479 25.16 179.087 25.16C179.831 25.16 180.407 25.368 180.815 25.784C181.231 26.192 181.451 26.78 181.475 27.548C181.475 28.036 181.447 28.408 181.391 28.664H177.263C177.279 29.456 177.463 30.096 177.815 30.584C178.167 31.064 178.667 31.304 179.315 31.304C179.635 31.304 179.967 31.248 180.311 31.136C180.663 31.016 180.935 30.876 181.127 30.716L181.355 31.244C181.123 31.484 180.779 31.692 180.323 31.868C179.867 32.044 179.403 32.132 178.931 32.132ZM180.155 28.028C180.179 27.86 180.191 27.688 180.191 27.512C180.183 26.992 180.071 26.584 179.855 26.288C179.647 25.984 179.315 25.832 178.859 25.832C178.395 25.832 178.023 26 177.743 26.336C177.471 26.672 177.315 27.236 177.275 28.028H180.155ZM183.502 23.048L182.53 22.916V22.4L184.462 22.172H184.486L184.75 22.352V31.316L185.77 31.412V32H182.53V31.412L183.502 31.304V23.048ZM187.618 23.048L186.646 22.916V22.4L188.578 22.172H188.602L188.866 22.352V31.316L189.886 31.412V32H186.646V31.412L187.618 31.304V23.048ZM190.858 28.652C190.858 27.932 191.006 27.308 191.302 26.78C191.598 26.252 191.986 25.852 192.466 25.58C192.954 25.3 193.474 25.16 194.026 25.16C195.034 25.16 195.79 25.48 196.294 26.12C196.806 26.76 197.062 27.6 197.062 28.64C197.062 29.368 196.914 29.996 196.618 30.524C196.322 31.052 195.93 31.452 195.442 31.724C194.962 31.996 194.446 32.132 193.894 32.132C192.886 32.132 192.126 31.812 191.614 31.172C191.11 30.532 190.858 29.692 190.858 28.652ZM193.966 31.448C194.518 31.448 194.942 31.22 195.238 30.764C195.534 30.308 195.682 29.632 195.682 28.736C195.682 27.848 195.546 27.144 195.274 26.624C195.002 26.104 194.566 25.844 193.966 25.844C193.414 25.844 192.986 26.072 192.682 26.528C192.386 26.984 192.238 27.66 192.238 28.556C192.238 29.444 192.378 30.148 192.658 30.668C192.938 31.188 193.374 31.448 193.966 31.448Z" fill="white"/>
<path d="M122.542 45.104L121.23 44.912V44.112H123.39C123.752 44.112 124.211 44.0907 124.766 44.048C125.278 44.0053 125.656 43.984 125.902 43.984C127.374 43.984 128.424 44.2133 129.054 44.672C129.694 45.1307 130.014 45.8027 130.014 46.688C130.014 47.4453 129.795 48.096 129.358 48.64C128.92 49.184 128.323 49.5253 127.566 49.664C128.59 49.6427 129.395 49.8827 129.982 50.384C130.568 50.8853 130.862 51.568 130.862 52.432C130.862 53.5093 130.478 54.3893 129.71 55.072C128.952 55.7547 127.694 56.096 125.934 56.096C125.55 56.096 125.182 56.08 124.83 56.048C123.998 56.016 123.502 56 123.342 56H121.214V55.216L122.542 55.056V45.104ZM124.238 49.36C124.387 49.3707 124.691 49.376 125.15 49.376H126.03C126.776 49.376 127.342 49.168 127.726 48.752C128.11 48.336 128.302 47.744 128.302 46.976C128.302 46.2293 128.11 45.6853 127.726 45.344C127.342 44.992 126.686 44.816 125.758 44.816C125.374 44.816 124.979 44.8373 124.574 44.88L124.238 44.912V49.36ZM124.238 55.104C124.483 55.1893 125.038 55.232 125.902 55.232C126.979 55.232 127.758 55.0133 128.238 54.576C128.728 54.128 128.974 53.488 128.974 52.656C128.974 51.8347 128.76 51.2373 128.334 50.864C127.918 50.4907 127.24 50.304 126.302 50.304C125.214 50.304 124.526 50.3147 124.238 50.336V55.104ZM139.591 56.144C139.292 56.144 139.068 56.0853 138.919 55.968C138.78 55.8507 138.711 55.6587 138.711 55.392V54.848C138.359 55.2 137.916 55.5093 137.383 55.776C136.86 56.0427 136.332 56.176 135.799 56.176C134.807 56.176 134.103 55.9093 133.687 55.376C133.271 54.8427 133.063 53.9627 133.063 52.736V48.096L132.167 47.84V47.136L134.407 46.928H134.423L134.727 47.12V52.608C134.727 53.2267 134.769 53.712 134.855 54.064C134.951 54.4053 135.111 54.6613 135.335 54.832C135.569 54.992 135.905 55.072 136.343 55.072C136.769 55.072 137.169 54.9813 137.543 54.8C137.916 54.6187 138.241 54.4053 138.519 54.16V48.096L137.367 47.84V47.136L139.799 46.928H139.815L140.183 47.12V55.184H141.143L141.127 55.904C140.828 55.9787 140.567 56.0373 140.343 56.08C140.129 56.1227 139.879 56.144 139.591 56.144ZM144.068 54.72C144.175 54.88 144.399 55.024 144.74 55.152C145.092 55.28 145.46 55.344 145.844 55.344C146.452 55.344 146.9 55.2267 147.188 54.992C147.476 54.7573 147.62 54.432 147.62 54.016C147.62 53.728 147.529 53.4773 147.348 53.264C147.167 53.0507 146.911 52.864 146.58 52.704C146.26 52.5333 145.796 52.3307 145.188 52.096C144.367 51.7867 143.764 51.4187 143.38 50.992C143.007 50.5547 142.82 49.984 142.82 49.28C142.82 48.8107 142.959 48.4 143.236 48.048C143.524 47.696 143.913 47.424 144.404 47.232C144.905 47.0293 145.46 46.928 146.068 46.928C146.559 46.928 146.985 46.9653 147.348 47.04C147.721 47.1147 148.02 47.1893 148.244 47.264C148.468 47.3387 148.617 47.3867 148.692 47.408V49.392H147.716L147.396 48.208C147.332 48.08 147.161 47.9733 146.884 47.888C146.607 47.792 146.297 47.744 145.956 47.744C145.476 47.744 145.087 47.8507 144.788 48.064C144.5 48.2773 144.356 48.5653 144.356 48.928C144.356 49.248 144.431 49.5147 144.58 49.728C144.74 49.9307 144.937 50.096 145.172 50.224C145.407 50.352 145.727 50.5013 146.132 50.672L146.452 50.8C147.049 51.0347 147.535 51.2587 147.908 51.472C148.281 51.6853 148.591 51.968 148.836 52.32C149.092 52.6613 149.22 53.0827 149.22 53.584C149.22 54.3733 148.911 55.0027 148.292 55.472C147.684 55.9413 146.847 56.176 145.78 56.176C145.257 56.176 144.708 56.1067 144.132 55.968C143.567 55.8187 143.103 55.6693 142.74 55.52V53.472H143.78L144.068 54.72ZM152.706 45.52C152.365 45.52 152.109 45.424 151.938 45.232C151.767 45.04 151.682 44.7947 151.682 44.496C151.682 44.1547 151.783 43.872 151.986 43.648C152.199 43.424 152.487 43.312 152.85 43.312C153.213 43.312 153.479 43.408 153.65 43.6C153.821 43.792 153.906 44.0373 153.906 44.336C153.906 44.6987 153.799 44.9867 153.586 45.2C153.383 45.4133 153.095 45.52 152.722 45.52H152.706ZM152.066 48.352L150.85 48.064V47.216L153.33 46.912H153.362L153.73 47.2V55.088L155.01 55.216V56H150.77V55.216L152.066 55.072V48.352ZM157.266 48.352L156.114 48.064V47.2L158.402 46.912H158.45L158.786 47.2V47.872L158.77 48.256C159.154 47.9147 159.661 47.6053 160.29 47.328C160.92 47.0507 161.522 46.912 162.098 46.912C162.77 46.912 163.288 47.04 163.65 47.296C164.024 47.552 164.285 47.9467 164.434 48.48C164.584 49.0027 164.658 49.712 164.658 50.608V55.088L165.778 55.2V56H161.986V55.216L162.978 55.088V50.592C162.978 49.9627 162.936 49.472 162.85 49.12C162.765 48.7573 162.605 48.4907 162.37 48.32C162.136 48.1387 161.794 48.048 161.346 48.048C160.962 48.048 160.552 48.144 160.114 48.336C159.677 48.528 159.288 48.752 158.946 49.008V55.072L160.034 55.216V56H156.258V55.216L157.266 55.072V48.352ZM171.027 56.176C169.737 56.176 168.75 55.7547 168.067 54.912C167.395 54.0693 167.059 52.944 167.059 51.536C167.059 50.608 167.235 49.792 167.587 49.088C167.939 48.384 168.43 47.84 169.059 47.456C169.699 47.072 170.425 46.88 171.235 46.88C172.227 46.88 172.995 47.1573 173.539 47.712C174.094 48.256 174.387 49.04 174.419 50.064C174.419 50.7147 174.382 51.2107 174.307 51.552H168.803C168.825 52.608 169.07 53.4613 169.539 54.112C170.009 54.752 170.675 55.072 171.539 55.072C171.966 55.072 172.409 54.9973 172.867 54.848C173.337 54.688 173.699 54.5013 173.955 54.288L174.259 54.992C173.95 55.312 173.491 55.5893 172.883 55.824C172.275 56.0587 171.657 56.176 171.027 56.176ZM172.659 50.704C172.691 50.48 172.707 50.2507 172.707 50.016C172.697 49.3227 172.547 48.7787 172.259 48.384C171.982 47.9787 171.539 47.776 170.931 47.776C170.313 47.776 169.817 48 169.443 48.448C169.081 48.896 168.873 49.648 168.819 50.704H172.659ZM177.442 54.72C177.549 54.88 177.773 55.024 178.114 55.152C178.466 55.28 178.834 55.344 179.218 55.344C179.826 55.344 180.274 55.2267 180.562 54.992C180.85 54.7573 180.994 54.432 180.994 54.016C180.994 53.728 180.904 53.4773 180.722 53.264C180.541 53.0507 180.285 52.864 179.954 52.704C179.634 52.5333 179.17 52.3307 178.562 52.096C177.741 51.7867 177.138 51.4187 176.754 50.992C176.381 50.5547 176.194 49.984 176.194 49.28C176.194 48.8107 176.333 48.4 176.61 48.048C176.898 47.696 177.288 47.424 177.778 47.232C178.28 47.0293 178.834 46.928 179.442 46.928C179.933 46.928 180.36 46.9653 180.722 47.04C181.096 47.1147 181.394 47.1893 181.618 47.264C181.842 47.3387 181.992 47.3867 182.066 47.408V49.392H181.09L180.77 48.208C180.706 48.08 180.536 47.9733 180.258 47.888C179.981 47.792 179.672 47.744 179.33 47.744C178.85 47.744 178.461 47.8507 178.162 48.064C177.874 48.2773 177.73 48.5653 177.73 48.928C177.73 49.248 177.805 49.5147 177.954 49.728C178.114 49.9307 178.312 50.096 178.546 50.224C178.781 50.352 179.101 50.5013 179.506 50.672L179.826 50.8C180.424 51.0347 180.909 51.2587 181.282 51.472C181.656 51.6853 181.965 51.968 182.21 52.32C182.466 52.6613 182.594 53.0827 182.594 53.584C182.594 54.3733 182.285 55.0027 181.666 55.472C181.058 55.9413 180.221 56.176 179.154 56.176C178.632 56.176 178.082 56.1067 177.506 55.968C176.941 55.8187 176.477 55.6693 176.114 55.52V53.472H177.154L177.442 54.72ZM185.681 54.72C185.787 54.88 186.011 55.024 186.352 55.152C186.705 55.28 187.073 55.344 187.457 55.344C188.065 55.344 188.513 55.2267 188.8 54.992C189.089 54.7573 189.233 54.432 189.233 54.016C189.233 53.728 189.142 53.4773 188.961 53.264C188.779 53.0507 188.523 52.864 188.193 52.704C187.873 52.5333 187.409 52.3307 186.8 52.096C185.979 51.7867 185.377 51.4187 184.992 50.992C184.619 50.5547 184.432 49.984 184.432 49.28C184.432 48.8107 184.571 48.4 184.848 48.048C185.136 47.696 185.526 47.424 186.016 47.232C186.518 47.0293 187.073 46.928 187.681 46.928C188.171 46.928 188.598 46.9653 188.961 47.04C189.334 47.1147 189.633 47.1893 189.857 47.264C190.081 47.3387 190.23 47.3867 190.305 47.408V49.392H189.329L189.009 48.208C188.944 48.08 188.774 47.9733 188.497 47.888C188.219 47.792 187.91 47.744 187.569 47.744C187.089 47.744 186.699 47.8507 186.401 48.064C186.112 48.2773 185.968 48.5653 185.968 48.928C185.968 49.248 186.043 49.5147 186.192 49.728C186.352 49.9307 186.55 50.096 186.785 50.224C187.019 50.352 187.339 50.5013 187.745 50.672L188.064 50.8C188.662 51.0347 189.147 51.2587 189.521 51.472C189.894 51.6853 190.203 51.968 190.449 52.32C190.705 52.6613 190.832 53.0827 190.832 53.584C190.832 54.3733 190.523 55.0027 189.905 55.472C189.297 55.9413 188.459 56.176 187.392 56.176C186.87 56.176 186.32 56.1067 185.744 55.968C185.179 55.8187 184.715 55.6693 184.352 55.52V53.472H185.392L185.681 54.72ZM197.748 45.104L196.468 44.912V44.112H199.444L204.772 51.92L205.668 53.616V45.104L204.276 44.912V44.112H208.052V44.912L206.772 45.104V56H205.508L200.068 48.016L198.836 45.904V55.056L200.356 55.216V56H196.468V55.216L197.748 55.04V45.104ZM209.329 53.6C209.329 52.5973 209.83 51.8613 210.833 51.392C211.835 50.912 213.105 50.656 214.641 50.624V50.176C214.641 49.6747 214.587 49.28 214.481 48.992C214.374 48.704 214.187 48.496 213.921 48.368C213.665 48.2293 213.297 48.16 212.817 48.16C212.273 48.16 211.782 48.24 211.345 48.4C210.918 48.5493 210.491 48.736 210.065 48.96L209.665 48.128C209.803 48.0107 210.059 47.856 210.433 47.664C210.806 47.472 211.238 47.3013 211.729 47.152C212.219 47.0027 212.71 46.928 213.201 46.928C213.958 46.928 214.555 47.0347 214.993 47.248C215.441 47.4507 215.761 47.7813 215.953 48.24C216.145 48.6987 216.241 49.312 216.241 50.08V55.216H217.185V55.92C216.971 55.9733 216.699 56.0267 216.369 56.08C216.049 56.1333 215.766 56.16 215.521 56.16C215.222 56.16 215.019 56.112 214.913 56.016C214.806 55.9307 214.753 55.7333 214.753 55.424V54.896C214.433 55.216 214.038 55.5093 213.569 55.776C213.11 56.0427 212.587 56.176 212.001 56.176C211.233 56.176 210.593 55.9573 210.081 55.52C209.579 55.072 209.329 54.432 209.329 53.6ZM212.689 55.088C212.966 55.088 213.286 55.0027 213.649 54.832C214.011 54.6613 214.342 54.4587 214.641 54.224V51.472C213.478 51.472 212.598 51.6533 212.001 52.016C211.414 52.368 211.121 52.832 211.121 53.408C211.121 53.984 211.259 54.4107 211.537 54.688C211.825 54.9547 212.209 55.088 212.689 55.088ZM218.442 55.216L219.418 55.072V48.352L218.266 48.064V47.2L220.554 46.912L220.842 47.12L220.938 47.76L220.922 48.272C221.295 47.9307 221.802 47.6213 222.442 47.344C223.092 47.056 223.674 46.912 224.186 46.912C224.762 46.912 225.226 47.008 225.578 47.2C225.93 47.392 226.196 47.6907 226.378 48.096C226.719 47.808 227.194 47.5413 227.802 47.296C228.42 47.04 228.996 46.912 229.53 46.912C230.191 46.912 230.708 47.04 231.082 47.296C231.455 47.5413 231.716 47.9307 231.866 48.464C232.026 48.9867 232.106 49.6907 232.106 50.576V55.072L233.258 55.216V56H229.45V55.216L230.442 55.072V50.624C230.442 50.0053 230.394 49.5147 230.298 49.152C230.212 48.7787 230.042 48.5013 229.786 48.32C229.54 48.1387 229.183 48.048 228.714 48.048C228.362 48.048 227.988 48.128 227.594 48.288C227.199 48.4373 226.863 48.6187 226.586 48.832C226.682 49.248 226.73 49.84 226.73 50.608V55.072L227.866 55.216V56H223.994V55.216L225.05 55.072V50.592C225.05 49.952 225.007 49.456 224.922 49.104C224.847 48.752 224.698 48.4907 224.474 48.32C224.25 48.1387 223.908 48.048 223.45 48.048C223.066 48.048 222.655 48.144 222.218 48.336C221.791 48.528 221.418 48.752 221.098 49.008V55.072L222.17 55.216V56H218.442V55.216ZM238.475 56.176C237.185 56.176 236.198 55.7547 235.515 54.912C234.843 54.0693 234.507 52.944 234.507 51.536C234.507 50.608 234.683 49.792 235.035 49.088C235.387 48.384 235.878 47.84 236.507 47.456C237.147 47.072 237.873 46.88 238.683 46.88C239.675 46.88 240.443 47.1573 240.987 47.712C241.542 48.256 241.835 49.04 241.867 50.064C241.867 50.7147 241.83 51.2107 241.755 51.552H236.251C236.273 52.608 236.518 53.4613 236.987 54.112C237.457 54.752 238.123 55.072 238.987 55.072C239.414 55.072 239.857 54.9973 240.315 54.848C240.785 54.688 241.147 54.5013 241.403 54.288L241.707 54.992C241.398 55.312 240.939 55.5893 240.331 55.824C239.723 56.0587 239.105 56.176 238.475 56.176ZM240.107 50.704C240.139 50.48 240.155 50.2507 240.155 50.016C240.145 49.3227 239.995 48.7787 239.707 48.384C239.43 47.9787 238.987 47.776 238.379 47.776C237.761 47.776 237.265 48 236.891 48.448C236.529 48.896 236.321 49.648 236.267 50.704H240.107Z" fill="white"/>
<path d="M4 142C4 147.523 8.47715 152 14 152H250C255.523 152 260 147.523 260 142V80H4V142Z" fill="white"/>
<path d="M4 142C4 147.523 8.47715 152 14 152H250C255.523 152 260 147.523 260 142V80H4V142Z" fill="#4A5566" fill-opacity="0.16"/>
<path d="M24 142C24 147.523 28.4772 152 34 152H348C353.523 152 358 147.523 358 142V80H24V142Z" fill="white"/>
<path d="M24 142C24 147.523 28.4772 152 34 152H348C353.523 152 358 147.523 358 142V80H24V142Z" fill="#4A5566" fill-opacity="0.04"/>
</svg>
