<svg width="136" height="138" viewBox="0 0 136 138" fill="none" xmlns="http://www.w3.org/2000/svg">
<rect x="0.699707" y="107.578" width="23.2573" height="29.6729" rx="2" fill="#F3F3F3"/>
<path opacity="0.4" d="M0.699707 109.578C0.699707 108.474 1.59514 107.578 2.69971 107.578H16.5929V137.251H2.69971C1.59514 137.251 0.699707 136.356 0.699707 135.251V109.578Z" fill="#D9D9D9"/>
<rect x="31.2837" y="98.3125" width="23.2573" height="38.938" rx="2" fill="#F3F3F3"/>
<path opacity="0.4" d="M31.2837 100.313C31.2837 99.2079 32.1791 98.3125 33.2837 98.3125H47.2588V137.251H33.2837C32.1791 137.251 31.2837 136.355 31.2837 135.251V100.313Z" fill="#D9D9D9"/>
<rect x="62.2534" y="79.8477" width="23.2573" height="57.4013" rx="2" fill="#F3F3F3"/>
<path opacity="0.4" d="M62.2534 81.8477C62.2534 80.7431 63.1488 79.8477 64.2534 79.8477H78.4844V137.249H64.2534C63.1488 137.249 62.2534 136.354 62.2534 135.249V81.8477Z" fill="#D9D9D9"/>
<rect x="92.8374" y="52.9453" width="23.2573" height="84.3054" rx="2" fill="#F3F3F3"/>
<path opacity="0.4" d="M92.8374 54.9453C92.8374 53.8407 93.7328 52.9453 94.8374 52.9453H110.031V137.251H94.8374C93.7328 137.251 92.8374 136.355 92.8374 135.251V54.9453Z" fill="#D9D9D9"/>
<path fill-rule="evenodd" clip-rule="evenodd" d="M2.42505 100.767C-0.961289 101.624 0.172678 106.373 3.95115 105.348C44.4574 95.3402 72.7186 73.4087 103.925 38.5631L107.666 42.3114L105.294 46.5838L108.175 49.4647L117.509 40.9054V33.7013C127.321 26.7521 130.781 22.0091 134.164 12.4581L124.131 3.125C114.136 8.24267 110.032 12.499 104.304 21.5619H97.911L89.4321 31.9477L92.7388 35.0475L96.659 32.1172L100.282 35.7999C73.9777 66.6269 35.4161 95.4369 2.42505 100.767ZM121.633 19.3633C123.487 19.3633 124.99 17.8604 124.99 16.0064C124.99 14.1525 123.487 12.6496 121.633 12.6496C119.779 12.6496 118.276 14.1525 118.276 16.0064C118.276 17.8604 119.779 19.3633 121.633 19.3633Z" fill="#D9D9D9"/>
<path d="M122.706 3.85938L133.629 13.9293C133.429 14.5219 133.311 14.7934 133.059 15.3845L121.322 4.62526C121.858 4.3213 122.149 4.16241 122.706 3.85938Z" fill="#4A4A4A"/>
<path d="M134.411 11.3741L125.191 2.7295C129.059 1.43932 131.368 1.01483 135.59 0.75C135.577 5.06105 135.276 7.39656 134.411 11.3741Z" fill="#4A4A4A"/>
</svg>
