<svg width="20" height="20" viewBox="0 0 20 20" fill="none" xmlns="http://www.w3.org/2000/svg">
<path fill-rule="evenodd" clip-rule="evenodd" d="M10.9488 2.36684C10.9105 2.38297 10.8401 2.43824 10.7923 2.48966C10.7068 2.58175 10.7054 2.59211 10.7054 3.17069V3.75825L10.8191 3.87189L10.9327 3.98554H12.4958H14.0589L14.1725 3.87189L14.2862 3.75825V3.16857V2.5789L14.1726 2.46526L14.0589 2.35161L12.5386 2.34459C11.7024 2.34069 10.987 2.35074 10.9488 2.36684ZM11.6612 4.79381L11.661 5.16753L11.2701 5.2438C10.3641 5.42058 9.45586 5.82913 8.70728 6.39659L8.51691 6.54089L8.23466 6.2601C7.99652 6.02322 7.93036 5.97635 7.81157 5.96043C7.54444 5.92459 7.32553 6.14347 7.36138 6.41056C7.37719 6.52862 7.42367 6.59502 7.64947 6.82217C7.8941 7.06823 7.9142 7.09869 7.86935 7.15546C7.8422 7.18984 7.74142 7.31197 7.64537 7.42686C7.2235 7.93161 6.77476 8.74895 6.55727 9.40878C5.67986 12.0708 6.68562 15.0021 9.01258 16.5646C10.2182 17.3743 11.7274 17.7497 13.149 17.5935C13.9323 17.5074 14.54 17.3258 15.2943 16.9524C18.0655 15.5805 19.4066 12.3585 18.4343 9.40878C18.2168 8.74895 17.7681 7.93161 17.3462 7.42686C17.2502 7.31197 17.1494 7.18984 17.1222 7.15546C17.0774 7.09869 17.0975 7.06823 17.3421 6.82217C17.5679 6.59502 17.6144 6.52862 17.6302 6.41056C17.6661 6.14347 17.4472 5.92459 17.18 5.96043C17.0612 5.97635 16.9951 6.02318 16.7573 6.25975L16.4753 6.54023L16.1977 6.333C15.4948 5.80837 14.6062 5.4162 13.7363 5.24662L13.3306 5.16753L13.3304 4.79381L13.3301 4.42009H12.4958H11.6615L11.6612 4.79381ZM13.508 6.33057C15.5978 6.77204 17.1372 8.33863 17.559 10.453C17.6456 10.887 17.6456 11.8589 17.559 12.293C17.1361 14.413 15.6057 15.966 13.4917 16.4202C13.0176 16.5221 12.0447 16.5303 11.5758 16.4364C9.45311 16.0113 7.90464 14.4849 7.44797 12.3674C7.33878 11.861 7.33892 10.8843 7.44829 10.377C7.92783 8.15288 9.62266 6.57608 11.87 6.2632C12.2319 6.21282 13.1244 6.24953 13.508 6.33057ZM11.8874 6.68454C11.3267 6.75535 10.6632 6.97896 10.1611 7.26625C8.01637 8.49337 7.17803 11.1323 8.21974 13.3774C8.65739 14.3207 9.44797 15.1311 10.3948 15.6071C10.6885 15.7547 11.2378 15.94 11.6093 16.0169C12.0294 16.1037 12.942 16.1063 13.3649 16.0218C15.4994 15.5951 17.0493 13.8509 17.2098 11.6945L17.2337 11.373H14.8647H12.4958V9.00899V6.64501L12.3133 6.64939C12.2129 6.65183 12.0213 6.66764 11.8874 6.68454Z" fill="#001C4B"/>
<path d="M2.64058 8.87217C2.64058 8.6931 2.73051 8.55015 2.88393 8.48549C2.92217 8.46939 3.63758 8.45935 4.47377 8.46324L5.99405 8.47026L6.1077 8.58391C6.20545 8.68173 6.22131 8.72161 6.22131 8.87005C6.22131 9.0185 6.20549 9.05837 6.10766 9.1562L5.99402 9.26984H4.43094H2.86786L2.75422 9.1562C2.65678 9.05875 2.64058 9.01822 2.64058 8.87217Z" fill="#009CDC"/>
<path d="M1.25 10.5409C1.25 10.3618 1.34007 10.2187 1.49335 10.1543C1.53159 10.1382 2.43474 10.1282 3.50033 10.132L5.43782 10.139L5.55143 10.2526C5.64923 10.3504 5.66508 10.3903 5.66508 10.5387C5.66508 10.6872 5.64926 10.7271 5.55143 10.8249L5.43779 10.9385H3.45754H1.47729L1.36364 10.8249C1.2662 10.7274 1.25 10.6869 1.25 10.5409Z" fill="#009CDC"/>
<path d="M2.08435 12.2096C2.08435 12.0305 2.17428 11.8875 2.3277 11.8229C2.36594 11.8068 3.08135 11.7967 3.91754 11.8006L5.43782 11.8076L5.55147 11.9213C5.64922 12.0191 5.66508 12.059 5.66508 12.2074C5.66508 12.3559 5.64926 12.3958 5.55143 12.4936L5.43779 12.6072H3.87471H2.31164L2.19799 12.4936C2.10055 12.3961 2.08435 12.3556 2.08435 12.2096Z" fill="#009CDC"/>
<path d="M3.19681 13.8782C3.19681 13.6992 3.28657 13.5565 3.44016 13.4914C3.4784 13.4752 4.00609 13.4652 4.61283 13.4691L5.71597 13.4763L5.82958 13.59C5.92734 13.6878 5.94319 13.7277 5.94319 13.8761C5.94319 14.0246 5.92737 14.0644 5.82955 14.1623L5.7159 14.2759H4.57H3.4241L3.31045 14.1623C3.21301 14.0648 3.19681 14.0243 3.19681 13.8782Z" fill="#009CDC"/>
</svg>
