<svg width="20" height="20" viewBox="0 0 20 20" fill="none" xmlns="http://www.w3.org/2000/svg">
<path fill-rule="evenodd" clip-rule="evenodd" d="M2.17466 1.28866C1.79408 1.41056 1.52247 1.64462 1.35599 1.99419L1.25 2.21668V4.16854V6.12043L1.36212 6.34806C1.50103 6.63005 1.77164 6.88709 2.04634 6.99796L2.24315 7.07741L5.11986 7.08788C7.18524 7.09545 8.05421 7.0873 8.20092 7.05906C8.75075 6.95319 9.14034 6.5644 9.24579 6.01627C9.27346 5.87257 9.28205 5.27644 9.27442 4.0309C9.26363 2.26108 9.26308 2.24978 9.18414 2.05419C9.07332 1.77966 8.8162 1.50917 8.53404 1.3703L8.3063 1.25823L5.30897 1.25149C2.95038 1.24622 2.28247 1.25412 2.17466 1.28866ZM11.6756 1.28753C11.3115 1.38656 10.9582 1.70196 10.8152 2.05573L10.7363 2.25091L10.726 6.22165C10.7185 9.09126 10.7264 10.2493 10.7547 10.3978C10.8587 10.9449 11.249 11.3346 11.7991 11.4406C11.9458 11.4688 12.8148 11.4769 14.8801 11.4694L17.7568 11.4589L17.9537 11.3795C18.2284 11.2686 18.499 11.0116 18.6379 10.7296L18.75 10.5019V6.35929V2.21668L18.6439 1.99419C18.5061 1.70511 18.3024 1.50038 18.0191 1.36623L17.7911 1.25823L14.8116 1.25162C12.5261 1.24652 11.7957 1.25491 11.6756 1.28753ZM2.26182 8.56958C1.87839 8.64472 1.51853 8.9351 1.34178 9.31204L1.25 9.50777V13.6497V17.7915L1.35599 18.014C1.49065 18.2968 1.70339 18.5095 1.9863 18.6441L2.2089 18.75H5.25757H8.30623L8.53401 18.6379C8.81613 18.4991 9.07329 18.2286 9.18421 17.954L9.2637 17.7573L9.27404 13.7866C9.28151 10.917 9.27356 9.75889 9.24534 9.61047C9.14336 9.07421 8.76096 8.68412 8.22606 8.57068C8.00627 8.52409 2.49928 8.52307 2.26182 8.56958ZM11.7295 12.9606C11.2153 13.0872 10.8565 13.4671 10.7543 13.9931C10.7265 14.1366 10.7179 14.7271 10.7256 15.9773C10.7364 17.7471 10.7369 17.7584 10.8159 17.954C10.9267 18.2286 11.1838 18.4991 11.466 18.6379L11.6938 18.75H14.7424H17.7911L18.0191 18.642C18.3024 18.5079 18.5061 18.3031 18.6439 18.014L18.75 17.7915V15.8397V13.8878L18.6379 13.6602C18.499 13.3782 18.2284 13.1211 17.9537 13.0103L17.7568 12.9308L14.8288 12.9246C12.6066 12.9199 11.8594 12.9286 11.7295 12.9606Z" fill="#009CDC"/>
</svg>
