<svg width="132" height="78" viewBox="0 0 132 78" fill="none" xmlns="http://www.w3.org/2000/svg">
<rect x="0.5" y="0.5" width="131" height="77" rx="5.5" fill="#A5D5F2"/>
<rect x="0.5" y="0.5" width="131" height="77" rx="5.5" fill="white" fill-opacity="0.6"/>
<path fill-rule="evenodd" clip-rule="evenodd" d="M72.8406 18.0447C70.7014 18.4024 69.0462 20.3681 69.0514 22.5446C69.0542 23.7508 69.5059 24.8073 70.4006 25.7007C72.2505 27.5478 75.1679 27.4828 76.912 25.5556C78.5507 23.7447 78.4835 21.0721 76.7557 19.3475C76.4379 19.0302 75.986 18.6679 75.7515 18.5422C74.9531 18.1146 73.7017 17.9007 72.8406 18.0447ZM83.8335 23.3247C83.2945 23.5174 82.7796 23.9269 82.5299 24.3612C82.4216 24.5495 81.8631 26.0015 81.2889 27.5877C80.7147 29.174 80.2171 30.5005 80.1831 30.5355C80.1491 30.5704 79.1986 30.2626 78.0707 29.8512L76.0201 29.1033L75.3575 29.291C74.8047 29.4475 74.5032 29.4777 73.5411 29.4733C72.5359 29.4688 72.2941 29.4398 71.6617 29.248C70.0506 28.7591 68.7127 27.7985 67.8276 26.4952C67.4952 26.0057 67.4855 25.9992 66.6438 25.7011C64.8275 25.058 63.8544 25.021 60.0276 25.4497C57.1444 25.7727 56.8346 25.8487 56.0532 26.4239C55.2548 27.0116 55.0656 27.3753 53.8804 30.6001C52.694 33.8285 52.6133 34.1744 52.8539 35.0018C53.0353 35.6258 53.723 36.3469 54.3353 36.5551C54.7899 36.7097 55.4301 36.7332 55.8686 36.6114C56.2921 36.4937 56.8808 36.0965 57.1448 35.7504C57.2815 35.5713 57.7195 34.5108 58.2278 33.1287C58.6971 31.8523 59.1086 30.7841 59.1421 30.7551C59.2069 30.699 64.0223 30.2336 64.0599 30.2797C64.0721 30.2947 62.739 33.9966 61.0975 38.506L58.1129 46.7051L54.6203 46.7463L51.1276 46.7875L50.6654 47.0145C48.4698 48.0928 48.4855 51.2152 50.6916 52.2339L51.21 52.4733L55.53 52.4967C58.4383 52.5125 59.9926 52.4906 60.2863 52.4296C61.2478 52.2299 62.2377 51.5236 62.7232 50.6905C62.8384 50.4926 63.2576 49.4339 63.6546 48.3377L64.3764 46.3444L64.8798 46.533C65.1567 46.6366 66.1898 47.0134 67.1755 47.3702C68.1612 47.727 68.9677 48.058 68.9677 48.1056C68.9677 48.1533 68.2937 50.027 67.4699 52.2692L65.972 56.3462L65.966 57.129C65.9606 57.8317 65.9838 57.9582 66.1921 58.3651C67.0133 59.969 68.97 60.4899 70.4206 59.4906C71.1651 58.9777 71.2298 58.8355 73.3007 53.1585C74.3626 50.2473 75.2718 47.6335 75.3213 47.3501C75.5532 46.0178 74.8531 44.4595 73.6866 43.7117C73.4706 43.5732 72.8118 43.2856 72.2226 43.0724C71.6334 42.8591 71.1217 42.6586 71.0854 42.6265C71.027 42.5751 74.1035 33.9386 74.2323 33.7923C74.2604 33.7603 75.5506 34.1949 77.0994 34.758C78.6481 35.321 80.1508 35.8193 80.4386 35.8653C81.9235 36.1025 83.5088 35.2821 84.1994 33.919C84.295 33.7302 84.9746 31.9317 85.7094 29.9225C86.9855 26.4336 87.0458 26.2415 87.0486 25.6513C87.0523 24.9016 86.8627 24.4289 86.3546 23.9208C85.6971 23.2632 84.6785 23.0224 83.8335 23.3247Z" fill="#A5D5F2"/>
<rect x="0.5" y="0.5" width="131" height="77" rx="5.5" stroke="#A5D5F2"/>
</svg>
