<svg width="30" height="28" viewBox="0 0 30 28" fill="none" xmlns="http://www.w3.org/2000/svg">
<path d="M18.4668 10.6672H27.0002C27.7074 10.6672 28.3857 10.9481 28.8858 11.4482C29.3859 11.9483 29.6668 12.6266 29.6668 13.3339V16.1392C29.6672 16.4877 29.5992 16.8328 29.4668 17.1552L25.3402 27.1752C25.2395 27.4195 25.0685 27.6284 24.8489 27.7753C24.6293 27.9222 24.371 28.0006 24.1068 28.0005H1.66683C1.31321 28.0005 0.974069 27.8601 0.72402 27.61C0.473972 27.36 0.333496 27.0208 0.333496 26.6672V13.3339C0.333496 12.9802 0.473972 12.6411 0.72402 12.391C0.974069 12.141 1.31321 12.0005 1.66683 12.0005H6.3095C6.52296 12.0006 6.73331 11.9494 6.92287 11.8512C7.11244 11.7531 7.27566 11.6109 7.39883 11.4365L14.6695 1.13386C14.7614 1.00361 14.8969 0.910603 15.0515 0.87171C15.2061 0.832816 15.3696 0.850607 15.5122 0.921856L17.9308 2.13119C18.6115 2.47141 19.1553 3.03427 19.4718 3.72628C19.7883 4.41828 19.8586 5.19775 19.6708 5.93519L18.4668 10.6672ZM8.3335 14.1179V25.3339H23.2135L27.0002 16.1392V13.3339H18.4668C18.0607 13.3338 17.6599 13.241 17.2951 13.0625C16.9303 12.884 16.6111 12.6245 16.3619 12.3038C16.1126 11.9832 15.9399 11.6098 15.8569 11.2123C15.7738 10.8147 15.7827 10.4035 15.8828 10.0099L17.0868 5.27919C17.1245 5.13163 17.1105 4.97561 17.0472 4.83709C16.9839 4.69858 16.8751 4.58592 16.7388 4.51786L15.8575 4.07786L9.5775 12.9739C9.24416 13.4459 8.8175 13.8325 8.3335 14.1179ZM5.66683 14.6672H3.00016V25.3339H5.66683V14.6672Z" fill="#009CDC"/>
</svg>
