<svg width="1440" height="340" viewBox="0 0 1440 340" fill="none" xmlns="http://www.w3.org/2000/svg">
<path d="M1386 233.983C1386 232.879 1385.1 231.983 1384 231.983H1345C1343.9 231.983 1343 232.879 1343 233.983V339.976H1386V233.983Z" fill="#F0F2F3"/>
<path d="M1260 188.986C1260 187.882 1260.9 186.986 1262 186.986H1344V339.976H1260V188.986Z" fill="#F0F2F3"/>
<rect x="1268.67" y="196.681" width="13.8667" height="13.8129" fill="white" fill-opacity="0.5"/>
<rect x="1268.67" y="220.855" width="13.8667" height="13.8129" fill="white" fill-opacity="0.5"/>
<rect x="1268.67" y="245.025" width="13.8667" height="13.8129" fill="white" fill-opacity="0.5"/>
<rect x="1268.67" y="269.198" width="13.8667" height="13.8129" fill="white" fill-opacity="0.5"/>
<rect x="1268.67" y="293.368" width="13.8667" height="13.8129" fill="white" fill-opacity="0.5"/>
<rect x="1268.67" y="317.536" width="13.8667" height="13.8129" fill="white" fill-opacity="0.5"/>
<rect x="1286" y="196.681" width="13.8667" height="13.8129" fill="white" fill-opacity="0.5"/>
<rect x="1286" y="220.855" width="13.8667" height="13.8129" fill="white" fill-opacity="0.5"/>
<rect x="1286" y="245.025" width="13.8667" height="13.8129" fill="white" fill-opacity="0.5"/>
<rect x="1286" y="269.198" width="13.8667" height="13.8129" fill="white" fill-opacity="0.5"/>
<rect x="1286" y="293.368" width="13.8667" height="13.8129" fill="white" fill-opacity="0.5"/>
<rect x="1286" y="317.536" width="13.8667" height="13.8129" fill="white" fill-opacity="0.5"/>
<rect x="1303.33" y="196.681" width="13.8667" height="13.8129" fill="white" fill-opacity="0.5"/>
<rect x="1303.33" y="220.855" width="13.8667" height="13.8129" fill="white" fill-opacity="0.5"/>
<rect x="1303.33" y="245.025" width="13.8667" height="13.8129" fill="white" fill-opacity="0.5"/>
<rect x="1303.33" y="269.198" width="13.8667" height="13.8129" fill="white" fill-opacity="0.5"/>
<rect x="1303.33" y="293.368" width="13.8667" height="13.8129" fill="white" fill-opacity="0.5"/>
<rect x="1303.33" y="317.536" width="13.8667" height="13.8129" fill="white" fill-opacity="0.5"/>
<rect x="1320.67" y="196.681" width="13.8667" height="13.8129" fill="white" fill-opacity="0.5"/>
<rect x="1320.67" y="220.855" width="13.8667" height="13.8129" fill="white" fill-opacity="0.5"/>
<rect x="1320.67" y="245.025" width="13.8667" height="13.8129" fill="white" fill-opacity="0.5"/>
<path d="M1320.67 269.198H1334.53V283.011H1320.67V269.198Z" fill="white" fill-opacity="0.5"/>
<rect x="1320.67" y="293.368" width="13.8667" height="13.8129" fill="white" fill-opacity="0.5"/>
<rect x="1320.67" y="317.536" width="13.8667" height="13.8129" fill="white" fill-opacity="0.5"/>
<rect x="1349.6" y="283.002" width="7.51111" height="13.8129" fill="white"/>
<rect x="1350" y="243.983" width="7.51111" height="13.8129" fill="white"/>
<rect x="1349.6" y="303.718" width="7.51111" height="13.8129" fill="white"/>
<rect x="1350" y="264.698" width="7.51111" height="13.8129" fill="white"/>
<rect x="1360.58" y="283.002" width="7.51111" height="13.8129" fill="white"/>
<rect x="1360.98" y="243.983" width="7.51111" height="13.8129" fill="white"/>
<rect x="1360.58" y="303.718" width="7.51111" height="13.8129" fill="white"/>
<rect x="1360.98" y="264.698" width="7.51111" height="13.8129" fill="white"/>
<rect x="1371.56" y="283.002" width="7.51111" height="13.8129" fill="white"/>
<rect x="1371.96" y="243.983" width="7.51111" height="13.8129" fill="white"/>
<rect x="1371.56" y="303.718" width="7.51111" height="13.8129" fill="white"/>
<rect x="1371.96" y="264.698" width="7.51111" height="13.8129" fill="white"/>
<path d="M1393.5 136.268V339.477H1385.5V130.016L1393.5 136.268Z" fill="#F0F2F3" stroke="#E8EEF1"/>
<path d="M1432.5 136.268V339.477H1440.5V130.016L1432.5 136.268Z" fill="#F0F2F3" stroke="#E8EEF1"/>
<path fill-rule="evenodd" clip-rule="evenodd" d="M1409.57 55.5029C1409.57 53.8461 1410.91 52.5029 1412.57 52.5029H1413.56C1415.21 52.5029 1416.56 53.8461 1416.56 55.5029V64.8717H1417.05C1418.71 64.8717 1420.05 66.2149 1420.05 67.8717V77.2406H1420.55C1422.2 77.2406 1423.55 78.5838 1423.55 80.2406V89.8401C1425.57 90.4788 1427.04 92.3726 1427.04 94.6095V107.295C1428.03 107.419 1428.79 108.26 1428.79 109.279V123.905C1431.73 128.455 1432.2 133.593 1432.27 135.108H1432.35V339.517H1393.65V135.108H1393.86C1393.93 133.593 1394.4 128.455 1397.34 123.905V109.279C1397.34 108.26 1398.1 107.419 1399.08 107.295V94.6095C1399.08 92.3726 1400.55 90.4788 1402.58 89.8401V80.2406C1402.58 78.5838 1403.92 77.2406 1405.58 77.2406H1406.07V67.8717C1406.07 66.2149 1407.42 64.8717 1409.07 64.8717H1409.57V55.5029Z" fill="#F0F2F3"/>
<path d="M1416.56 64.8717H1416.06V65.3717H1416.56V64.8717ZM1420.05 77.2406H1419.55V77.7406H1420.05V77.2406ZM1423.55 89.8401H1423.05V90.2067L1423.4 90.3169L1423.55 89.8401ZM1427.04 107.295H1426.54V107.736L1426.98 107.791L1427.04 107.295ZM1428.79 123.905H1428.29V124.052L1428.37 124.176L1428.79 123.905ZM1432.27 135.108L1431.77 135.133L1431.79 135.608H1432.27V135.108ZM1432.35 135.108H1432.85V134.608H1432.35V135.108ZM1432.35 339.517V340.017H1432.85V339.517H1432.35ZM1393.65 339.517H1393.15V340.017H1393.65V339.517ZM1393.65 135.108V134.608H1393.15V135.108H1393.65ZM1393.86 135.108V135.608H1394.33L1394.35 135.133L1393.86 135.108ZM1397.34 123.905L1397.76 124.176L1397.84 124.052V123.905H1397.34ZM1399.08 107.295L1399.15 107.791L1399.58 107.736V107.295H1399.08ZM1402.58 89.8401L1402.73 90.3169L1403.08 90.2067V89.8401H1402.58ZM1406.07 77.2406V77.7406H1406.57V77.2406H1406.07ZM1409.57 64.8717V65.3717H1410.07V64.8717H1409.57ZM1412.57 52.0029C1410.64 52.0029 1409.07 53.5699 1409.07 55.5029H1410.07C1410.07 54.1222 1411.19 53.0029 1412.57 53.0029V52.0029ZM1413.56 52.0029H1412.57V53.0029H1413.56V52.0029ZM1417.06 55.5029C1417.06 53.5699 1415.49 52.0029 1413.56 52.0029V53.0029C1414.94 53.0029 1416.06 54.1222 1416.06 55.5029H1417.06ZM1417.06 64.8717V55.5029H1416.06V64.8717H1417.06ZM1417.05 64.3717H1416.56V65.3717H1417.05V64.3717ZM1420.55 67.8717C1420.55 65.9387 1418.99 64.3717 1417.05 64.3717V65.3717C1418.43 65.3717 1419.55 66.491 1419.55 67.8717H1420.55ZM1420.55 77.2406V67.8717H1419.55V77.2406H1420.55ZM1420.55 76.7406H1420.05V77.7406H1420.55V76.7406ZM1424.05 80.2406C1424.05 78.3076 1422.48 76.7406 1420.55 76.7406V77.7406C1421.93 77.7406 1423.05 78.8599 1423.05 80.2406H1424.05ZM1424.05 89.8401V80.2406H1423.05V89.8401H1424.05ZM1427.54 94.6095C1427.54 92.1482 1425.93 90.0657 1423.7 89.3632L1423.4 90.3169C1425.22 90.8919 1426.54 92.5971 1426.54 94.6095H1427.54ZM1427.54 107.295V94.6095H1426.54V107.295H1427.54ZM1429.29 109.279C1429.29 108.005 1428.34 106.954 1427.1 106.799L1426.98 107.791C1427.72 107.884 1428.29 108.516 1428.29 109.279H1429.29ZM1429.29 123.905V109.279H1428.29V123.905H1429.29ZM1428.37 124.176C1431.24 128.616 1431.7 133.647 1431.77 135.133L1432.77 135.084C1432.69 133.539 1432.22 128.295 1429.21 123.634L1428.37 124.176ZM1432.27 135.608H1432.35V134.608H1432.27V135.608ZM1431.85 135.108V339.517H1432.85V135.108H1431.85ZM1432.35 339.017H1393.65V340.017H1432.35V339.017ZM1394.15 339.517V135.108H1393.15V339.517H1394.15ZM1393.65 135.608H1393.86V134.608H1393.65V135.608ZM1394.35 135.133C1394.43 133.647 1394.89 128.615 1397.76 124.176L1396.92 123.633C1393.9 128.295 1393.43 133.539 1393.36 135.084L1394.35 135.133ZM1396.84 109.279V123.905H1397.84V109.279H1396.84ZM1399.02 106.799C1397.79 106.954 1396.84 108.005 1396.84 109.279H1397.84C1397.84 108.516 1398.41 107.884 1399.15 107.791L1399.02 106.799ZM1398.58 94.6095V107.295H1399.58V94.6095H1398.58ZM1402.43 89.3632C1400.2 90.0656 1398.58 92.1482 1398.58 94.6095H1399.58C1399.58 92.597 1400.9 90.8919 1402.73 90.3169L1402.43 89.3632ZM1402.08 80.2406V89.8401H1403.08V80.2406H1402.08ZM1405.58 76.7406C1403.65 76.7406 1402.08 78.3076 1402.08 80.2406H1403.08C1403.08 78.8599 1404.2 77.7406 1405.58 77.7406V76.7406ZM1406.07 76.7406H1405.58V77.7406H1406.07V76.7406ZM1405.57 67.8717V77.2406H1406.57V67.8717H1405.57ZM1409.07 64.3717C1407.14 64.3717 1405.57 65.9387 1405.57 67.8717H1406.57C1406.57 66.491 1407.69 65.3717 1409.07 65.3717V64.3717ZM1409.57 64.3717H1409.07V65.3717H1409.57V64.3717ZM1409.07 55.5029V64.8717H1410.07V55.5029H1409.07Z" fill="#E8EEF1"/>
<rect x="1399.08" y="140.852" width="6.9897" height="7.0684" fill="white"/>
<rect x="1409.57" y="140.852" width="6.9897" height="7.0684" fill="white"/>
<rect x="1420.05" y="140.852" width="6.9897" height="7.0684" fill="white"/>
<rect x="1399.08" y="153.221" width="6.9897" height="7.0684" fill="white"/>
<rect x="1409.57" y="153.221" width="6.9897" height="7.0684" fill="white"/>
<rect x="1420.05" y="153.221" width="6.9897" height="7.0684" fill="white"/>
<rect x="1399.08" y="165.59" width="6.9897" height="7.0684" fill="white"/>
<rect x="1409.57" y="165.59" width="6.9897" height="7.0684" fill="white"/>
<rect x="1420.05" y="165.59" width="6.9897" height="7.0684" fill="white"/>
<rect x="1399.08" y="177.959" width="6.9897" height="7.0684" fill="white"/>
<rect x="1409.57" y="177.959" width="6.9897" height="7.0684" fill="white"/>
<rect x="1420.05" y="177.959" width="6.9897" height="7.0684" fill="white"/>
<rect x="1399.08" y="190.327" width="6.9897" height="7.0684" fill="white"/>
<rect x="1409.57" y="190.327" width="6.9897" height="7.0684" fill="white"/>
<rect x="1420.05" y="190.327" width="6.9897" height="7.0684" fill="white"/>
<rect x="1399.08" y="202.696" width="6.9897" height="7.0684" fill="white"/>
<rect x="1409.57" y="202.696" width="6.9897" height="7.0684" fill="white"/>
<rect x="1420.05" y="202.696" width="6.9897" height="7.0684" fill="white"/>
<rect x="1399.08" y="215.065" width="6.9897" height="7.0684" fill="white"/>
<rect x="1409.57" y="215.065" width="6.9897" height="7.0684" fill="white"/>
<rect x="1420.05" y="215.065" width="6.9897" height="7.0684" fill="white"/>
<rect x="1399.08" y="227.435" width="6.9897" height="7.0684" fill="white"/>
<rect x="1409.57" y="227.435" width="6.9897" height="7.0684" fill="white"/>
<rect x="1420.05" y="227.435" width="6.9897" height="7.0684" fill="white"/>
<rect x="1399.08" y="239.803" width="6.9897" height="7.0684" fill="white"/>
<rect x="1409.57" y="239.803" width="6.9897" height="7.0684" fill="white"/>
<rect x="1420.05" y="239.803" width="6.9897" height="7.0684" fill="white"/>
<rect x="1399.08" y="252.172" width="6.9897" height="7.0684" fill="white"/>
<rect x="1409.57" y="252.172" width="6.9897" height="7.0684" fill="white"/>
<rect x="1420.05" y="252.172" width="6.9897" height="7.0684" fill="white"/>
<rect x="1399.08" y="264.541" width="6.9897" height="7.0684" fill="white"/>
<rect x="1409.57" y="264.541" width="6.9897" height="7.0684" fill="white"/>
<rect x="1420.05" y="264.541" width="6.9897" height="7.0684" fill="white"/>
<rect x="1399.08" y="276.91" width="6.9897" height="7.0684" fill="white"/>
<rect x="1409.57" y="276.91" width="6.9897" height="7.0684" fill="white"/>
<rect x="1420.05" y="276.91" width="6.9897" height="7.0684" fill="white"/>
<rect x="1399.08" y="289.278" width="6.9897" height="7.0684" fill="white"/>
<rect x="1409.57" y="289.278" width="6.9897" height="7.0684" fill="white"/>
<rect x="1420.05" y="289.278" width="6.9897" height="7.0684" fill="white"/>
<rect x="1399.08" y="301.647" width="6.9897" height="7.0684" fill="white"/>
<rect x="1409.57" y="301.647" width="6.9897" height="7.0684" fill="white"/>
<rect x="1420.05" y="301.647" width="6.9897" height="7.0684" fill="white"/>
<rect x="1399.08" y="314.017" width="6.9897" height="7.0684" fill="white"/>
<rect x="1409.57" y="314.017" width="6.9897" height="7.0684" fill="white"/>
<rect x="1420.05" y="314.017" width="6.9897" height="7.0684" fill="white"/>
<rect x="1399.08" y="326.386" width="6.9897" height="7.0684" fill="white"/>
<rect x="1409.57" y="326.386" width="6.9897" height="7.0684" fill="white"/>
<rect x="1420.05" y="326.386" width="6.9897" height="7.0684" fill="white"/>
<path d="M1411.32 52.4283L1413.06 25.998L1414.81 52.4283H1411.32Z" fill="#E8EEF1"/>
<path d="M1411.32 64.8726L1413.06 56.0371L1414.81 64.8726H1411.32Z" fill="white"/>
<path d="M1411.32 75.4737L1413.06 68.4053L1414.81 75.4737H1411.32Z" fill="white"/>
<path d="M1407.82 77.2408V71.9395L1409.57 76.3572L1407.82 77.2408Z" fill="white"/>
<path d="M1418.31 77.2408L1416.56 76.3572L1419.18 71.9395L1418.31 77.2408Z" fill="white"/>
<path d="M1411.32 86.0762L1413.06 79.0078L1414.81 86.0762H1411.32Z" fill="white"/>
<path d="M1406.07 88.7269V80.7749L1409.57 87.8433L1406.07 88.7269Z" fill="white"/>
<path d="M1420.05 88.7269L1416.56 87.8433L1420.93 80.7749L1420.05 88.7269Z" fill="white"/>
<path d="M1411.32 100.212L1413.06 87.8428L1414.81 100.212H1411.32Z" fill="white"/>
<path d="M1409.57 100.212L1406.07 102.863L1405.2 92.2605L1409.57 100.212Z" fill="white"/>
<path d="M1420.05 102.863L1416.56 100.212L1422.67 92.2605L1420.05 102.863Z" fill="white"/>
<path d="M1411.32 130.251L1413.06 117.881L1415.68 130.251H1411.32Z" fill="white"/>
<path d="M1406.41 132.601L1402.79 121.311L1410.14 130.753L1406.41 132.601Z" fill="white"/>
<path d="M1420.28 132.601L1423.91 121.311L1416.56 130.753L1420.28 132.601Z" fill="white"/>
<path d="M1401.43 136.121L1396.62 127.981L1404.01 134.012L1401.43 136.121Z" fill="white"/>
<path d="M1424.38 136.121L1429.19 127.981L1421.8 134.012L1424.38 136.121Z" fill="white"/>
<path d="M1411.61 113.752L1413.03 103.65L1415.17 113.752H1411.61Z" fill="white"/>
<path d="M1407.6 115.673L1404.64 106.453L1410.65 114.163L1407.6 115.673Z" fill="white"/>
<path d="M1418.93 115.672L1421.89 106.452L1415.89 114.162L1418.93 115.672Z" fill="white"/>
<path d="M1403.53 118.547L1399.6 111.899L1405.64 116.825L1403.53 118.547Z" fill="white"/>
<path d="M1422.27 118.547L1426.2 111.899L1420.17 116.825L1422.27 118.547Z" fill="white"/>
<rect x="455" y="323.979" width="541" height="7" fill="#F0F2F3"/>
<rect x="555.704" y="249.327" width="8.35338" height="90.6507" fill="#F0F2F3"/>
<path d="M559.697 265.123C533.401 295.574 510.241 302.651 458.006 302.207" stroke="#F0F2F3" stroke-width="2"/>
<path d="M897.533 264.418C923.83 294.869 946.99 301.946 999.225 301.502" stroke="#F0F2F3" stroke-width="2"/>
<path d="M577.23 261.688C555.69 295.338 515.113 308.73 459.008 308.73" stroke="#F0F2F3" stroke-width="2"/>
<path d="M880 260.982C901.541 294.633 942.117 308.025 998.223 308.025" stroke="#F0F2F3" stroke-width="2"/>
<rect x="878.888" y="249.327" width="8.35338" height="90.6507" fill="#F0F2F3"/>
<rect x="564.058" y="258.506" width="6.68271" height="4.5902" fill="#F0F2F3"/>
<rect x="887.241" y="258.506" width="6.68271" height="4.5902" fill="#F0F2F3"/>
<rect x="564.058" y="273.423" width="6.68271" height="4.5902" fill="#F0F2F3"/>
<rect x="887.241" y="273.423" width="6.68271" height="4.5902" fill="#F0F2F3"/>
<rect x="570.74" y="249.327" width="8.35338" height="90.6507" fill="#F0F2F3"/>
<rect x="893.924" y="249.327" width="8.35338" height="90.6507" fill="#F0F2F3"/>
<rect x="644" y="289.98" width="2" height="33.9978" fill="#F0F2F3"/>
<rect width="2" height="21.9986" transform="matrix(-1 0 0 1 489 301.979)" fill="#F0F2F3"/>
<rect x="968" y="300.98" width="2" height="24.9984" fill="#F0F2F3"/>
<rect width="2" height="21.9986" transform="matrix(-1 0 0 1 475 301.979)" fill="#F0F2F3"/>
<rect x="982" y="302.979" width="2" height="22.9985" fill="#F0F2F3"/>
<rect x="590.255" y="269.242" width="2.00377" height="54.2531" fill="#F0F2F3"/>
<rect width="2" height="41.9973" transform="matrix(-1 0 0 1 543 281.981)" fill="#F0F2F3"/>
<rect x="914" y="280.981" width="2" height="44.9971" fill="#F0F2F3"/>
<rect x="656" y="292.98" width="2" height="30.998" fill="#F0F2F3"/>
<rect x="605" y="276.981" width="2" height="46.9969" fill="#F0F2F3"/>
<rect width="2" height="32.9979" transform="matrix(-1 0 0 1 528 290.98)" fill="#F0F2F3"/>
<rect x="929" y="290.98" width="2" height="34.9977" fill="#F0F2F3"/>
<rect x="669" y="295.98" width="2" height="27.9982" fill="#F0F2F3"/>
<rect x="618" y="281.981" width="2" height="41.9973" fill="#F0F2F3"/>
<rect width="2" height="26.9982" transform="matrix(-1 0 0 1 515 296.98)" fill="#F0F2F3"/>
<rect x="942" y="296.98" width="2" height="28.9981" fill="#F0F2F3"/>
<rect x="682" y="297.98" width="2" height="25.9983" fill="#F0F2F3"/>
<rect x="631" y="286.98" width="2" height="36.9976" fill="#F0F2F3"/>
<rect width="2" height="24.9984" transform="matrix(-1 0 0 1 502 298.98)" fill="#F0F2F3"/>
<rect x="955" y="298.98" width="2" height="26.9982" fill="#F0F2F3"/>
<rect x="695" y="298.98" width="2" height="24.9984" fill="#F0F2F3"/>
<rect x="709" y="299.98" width="2" height="23.9984" fill="#F0F2F3"/>
<rect x="723" y="300.98" width="2" height="22.9985" fill="#F0F2F3"/>
<rect x="737" y="300.98" width="2" height="22.9985" fill="#F0F2F3"/>
<rect x="750" y="299.98" width="2" height="23.9984" fill="#F0F2F3"/>
<rect x="763" y="299.98" width="2" height="23.9984" fill="#F0F2F3"/>
<rect x="777" y="298.98" width="2" height="24.9984" fill="#F0F2F3"/>
<rect x="790" y="296.98" width="2" height="26.9982" fill="#F0F2F3"/>
<rect x="803" y="294.98" width="2" height="28.9981" fill="#F0F2F3"/>
<rect x="817" y="290.98" width="2" height="32.9979" fill="#F0F2F3"/>
<rect x="830" y="287.98" width="2" height="35.9977" fill="#F0F2F3"/>
<rect x="843" y="282.981" width="2" height="40.9973" fill="#F0F2F3"/>
<rect x="858" y="276.981" width="2" height="46.9969" fill="#F0F2F3"/>
<rect x="873" y="268.982" width="2" height="54.9964" fill="#F0F2F3"/>
<path d="M576.729 259.971C659.916 317.851 821 310.479 883.5 261.982" stroke="#F0F2F3" stroke-width="2"/>
<path d="M561.2 263.406C655.01 323.128 825.5 321.979 897 263.982" stroke="#F0F2F3" stroke-width="2"/>
<rect x="149" y="283.98" width="112" height="55.9964" fill="#F2F5F7"/>
<path d="M390 229.984C390 227.775 391.791 225.984 394 225.984H455C457.209 225.984 459 227.775 459 229.984V339.977H390V229.984Z" fill="#F2F5F6"/>
<rect x="398.196" y="249.145" width="10.0135" height="10.0135" fill="white"/>
<rect x="398.196" y="309.938" width="10.0135" height="10.0135" fill="white"/>
<rect x="398.196" y="234.841" width="10.0135" height="10.0135" fill="white"/>
<rect x="398.196" y="263.448" width="10.0135" height="10.0135" fill="white"/>
<rect x="398.196" y="324.241" width="10.0135" height="10.0135" fill="white"/>
<rect x="398.196" y="277.754" width="10.0135" height="26.4627" fill="white"/>
<rect x="412.502" y="249.145" width="10.0135" height="10.0135" fill="white"/>
<rect x="412.502" y="309.938" width="10.0135" height="10.0135" fill="white"/>
<rect x="412.502" y="234.841" width="10.0135" height="10.0135" fill="white"/>
<rect x="412.502" y="263.448" width="10.0135" height="10.0135" fill="white"/>
<rect x="412.502" y="324.241" width="10.0135" height="10.0135" fill="white"/>
<rect x="412.502" y="277.754" width="10.0135" height="26.4627" fill="white"/>
<rect x="441.112" y="249.145" width="10.0135" height="10.0135" fill="white"/>
<rect x="441.112" y="309.938" width="10.0135" height="10.0135" fill="white"/>
<rect x="426.807" y="249.145" width="10.0135" height="10.0135" fill="white"/>
<rect x="426.807" y="309.938" width="10.0135" height="10.0135" fill="white"/>
<rect x="441.112" y="234.841" width="10.0135" height="10.0135" fill="white"/>
<rect x="426.807" y="234.841" width="10.0135" height="10.0135" fill="white"/>
<rect x="441.112" y="263.448" width="10.0135" height="10.0135" fill="white"/>
<rect x="441.112" y="324.241" width="10.0135" height="10.0135" fill="white"/>
<rect x="441.112" y="277.754" width="10.0135" height="26.4627" fill="white"/>
<rect x="426.807" y="263.448" width="10.0135" height="10.0135" fill="white"/>
<rect x="426.807" y="324.241" width="10.0135" height="10.0135" fill="white"/>
<rect x="426.807" y="277.754" width="10.0135" height="26.4627" fill="white"/>
<path d="M260.868 128.99L325.241 150.446V339.976H260.868V128.99Z" fill="#F2F5F7"/>
<rect x="220.099" y="309.938" width="10.0135" height="10.0135" fill="white"/>
<rect x="204.099" y="309.938" width="10.0135" height="10.0135" fill="white"/>
<rect x="188.099" y="309.938" width="10.0135" height="10.0135" fill="white"/>
<rect x="172.099" y="309.938" width="10.0135" height="10.0135" fill="white"/>
<rect x="156.099" y="309.938" width="10.0135" height="10.0135" fill="white"/>
<rect x="266.59" y="171.188" width="10.0135" height="10.0135" fill="white"/>
<rect x="220.099" y="295.634" width="10.0135" height="10.0135" fill="white"/>
<rect x="204.099" y="295.634" width="10.0135" height="10.0135" fill="white"/>
<rect x="188.099" y="295.634" width="10.0135" height="10.0135" fill="white"/>
<rect x="172.099" y="295.634" width="10.0135" height="10.0135" fill="white"/>
<rect x="156.099" y="295.634" width="10.0135" height="10.0135" fill="white"/>
<rect x="266.59" y="156.883" width="10.0135" height="10.0135" fill="white"/>
<rect x="220.099" y="324.241" width="10.0135" height="10.0135" fill="white"/>
<rect x="204.099" y="324.241" width="10.0135" height="10.0135" fill="white"/>
<rect x="188.099" y="324.241" width="10.0135" height="10.0135" fill="white"/>
<rect x="172.099" y="324.241" width="10.0135" height="10.0135" fill="white"/>
<rect x="156.099" y="324.241" width="10.0135" height="10.0135" fill="white"/>
<rect x="266.59" y="185.492" width="10.0135" height="10.0135" fill="white"/>
<rect x="266.59" y="199.796" width="10.0135" height="10.0135" fill="white"/>
<rect x="266.59" y="218.393" width="52.9288" height="5.72203" fill="white"/>
<rect x="266.59" y="228.403" width="52.9288" height="5.72203" fill="white"/>
<rect x="266.59" y="238.417" width="52.9288" height="5.72203" fill="white"/>
<rect x="266.59" y="248.43" width="52.9288" height="5.72203" fill="white"/>
<rect x="266.59" y="258.442" width="52.9288" height="5.72203" fill="white"/>
<rect x="266.59" y="268.456" width="52.9288" height="5.72203" fill="white"/>
<rect x="266.59" y="278.469" width="52.9288" height="5.72203" fill="white"/>
<rect x="266.59" y="288.479" width="52.9288" height="5.72203" fill="white"/>
<rect x="266.59" y="298.495" width="52.9288" height="5.72203" fill="white"/>
<rect x="266.59" y="308.508" width="52.9288" height="5.72203" fill="white"/>
<rect x="266.59" y="318.521" width="52.9288" height="5.72203" fill="white"/>
<rect x="266.59" y="328.534" width="52.9288" height="5.72203" fill="white"/>
<rect x="232.973" y="309.938" width="10.0135" height="10.0135" fill="white"/>
<rect x="280.896" y="171.188" width="10.0135" height="10.0135" fill="white"/>
<rect x="232.973" y="295.634" width="10.0135" height="10.0135" fill="white"/>
<rect x="280.896" y="156.883" width="10.0135" height="10.0135" fill="white"/>
<rect x="232.973" y="324.241" width="10.0135" height="10.0135" fill="white"/>
<rect x="280.896" y="185.492" width="10.0135" height="10.0135" fill="white"/>
<rect x="280.896" y="199.796" width="10.0135" height="10.0135" fill="white"/>
<rect x="245.848" y="309.938" width="10.0135" height="10.0135" fill="white"/>
<rect x="309.505" y="171.188" width="10.0135" height="10.0135" fill="white"/>
<rect x="295.2" y="171.188" width="10.0135" height="10.0135" fill="white"/>
<rect x="245.848" y="295.634" width="10.0135" height="10.0135" fill="white"/>
<rect x="309.505" y="156.883" width="10.0135" height="10.0135" fill="white"/>
<rect x="295.2" y="156.883" width="10.0135" height="10.0135" fill="white"/>
<rect x="245.848" y="324.241" width="10.0135" height="10.0135" fill="white"/>
<rect x="309.505" y="185.492" width="10.0135" height="10.0135" fill="white"/>
<rect x="309.505" y="199.796" width="10.0135" height="10.0135" fill="white"/>
<rect x="295.2" y="185.492" width="10.0135" height="10.0135" fill="white"/>
<rect x="295.2" y="199.796" width="10.0135" height="10.0135" fill="white"/>
<rect x="325.241" y="300.64" width="64.3728" height="8.58304" fill="#F2F5F7"/>
<rect x="325.241" y="278.469" width="64.3728" height="1.43051" fill="#F2F5F7"/>
<rect x="333.824" y="279.898" width="1.43051" height="20.741" fill="#F2F5F7"/>
<rect x="343.122" y="279.898" width="1.43051" height="20.741" fill="#F2F5F7"/>
<rect x="352.421" y="279.898" width="1.43051" height="20.741" fill="#F2F5F7"/>
<rect x="361.719" y="279.898" width="1.43051" height="20.741" fill="#F2F5F7"/>
<rect x="371.017" y="279.898" width="1.43051" height="20.741" fill="#F2F5F7"/>
<rect x="380.315" y="279.898" width="1.43051" height="20.741" fill="#F2F5F7"/>
<rect width="66" height="55.9964" transform="matrix(-1 0 0 1 1260 283.982)" fill="#F2F5F6"/>
<path d="M1065 228.986C1065 226.777 1063.21 224.986 1061 224.986H1000C997.791 224.986 996 226.777 996 228.986V338.979H1065V228.986Z" fill="#F2F5F6"/>
<rect width="10.0135" height="10.0135" transform="matrix(-1 0 0 1 1056.8 248.146)" fill="white"/>
<rect width="10.0135" height="10.0135" transform="matrix(-1 0 0 1 1056.8 308.939)" fill="white"/>
<rect width="10.0135" height="10.0135" transform="matrix(-1 0 0 1 1056.8 233.843)" fill="white"/>
<rect width="10.0135" height="10.0135" transform="matrix(-1 0 0 1 1056.8 262.45)" fill="white"/>
<rect width="10.0135" height="10.0135" transform="matrix(-1 0 0 1 1056.8 323.243)" fill="white"/>
<rect width="10.0135" height="26.4627" transform="matrix(-1 0 0 1 1056.8 276.756)" fill="white"/>
<rect width="10.0135" height="10.0135" transform="matrix(-1 0 0 1 1042.5 248.146)" fill="white"/>
<rect width="10.0135" height="10.0135" transform="matrix(-1 0 0 1 1042.5 308.939)" fill="white"/>
<rect width="10.0135" height="10.0135" transform="matrix(-1 0 0 1 1042.5 233.843)" fill="white"/>
<rect width="10.0135" height="10.0135" transform="matrix(-1 0 0 1 1042.5 262.45)" fill="white"/>
<rect width="10.0135" height="10.0135" transform="matrix(-1 0 0 1 1042.5 323.243)" fill="white"/>
<rect width="10.0135" height="26.4627" transform="matrix(-1 0 0 1 1042.5 276.756)" fill="white"/>
<rect width="10.0135" height="10.0135" transform="matrix(-1 0 0 1 1013.89 248.146)" fill="white"/>
<rect width="10.0135" height="10.0135" transform="matrix(-1 0 0 1 1013.89 308.939)" fill="white"/>
<rect width="10.0135" height="10.0135" transform="matrix(-1 0 0 1 1028.19 248.146)" fill="white"/>
<rect width="10.0135" height="10.0135" transform="matrix(-1 0 0 1 1028.19 308.939)" fill="white"/>
<rect width="10.0135" height="10.0135" transform="matrix(-1 0 0 1 1013.89 233.843)" fill="white"/>
<rect width="10.0135" height="10.0135" transform="matrix(-1 0 0 1 1028.19 233.843)" fill="white"/>
<rect width="10.0135" height="10.0135" transform="matrix(-1 0 0 1 1013.89 262.45)" fill="white"/>
<rect width="10.0135" height="10.0135" transform="matrix(-1 0 0 1 1013.89 323.243)" fill="white"/>
<rect width="10.0135" height="26.4627" transform="matrix(-1 0 0 1 1013.89 276.756)" fill="white"/>
<rect width="10.0135" height="10.0135" transform="matrix(-1 0 0 1 1028.19 262.45)" fill="white"/>
<rect width="10.0135" height="10.0135" transform="matrix(-1 0 0 1 1028.19 323.243)" fill="white"/>
<rect width="10.0135" height="26.4627" transform="matrix(-1 0 0 1 1028.19 276.756)" fill="white"/>
<rect width="10.0135" height="10.0135" transform="matrix(-1 0 0 1 1237.9 309.939)" fill="white" fill-opacity="0.5"/>
<rect width="10.0135" height="10.0135" transform="matrix(-1 0 0 1 1254.01 310.285)" fill="white" fill-opacity="0.5"/>
<rect width="10.0135" height="10.0135" transform="matrix(-1 0 0 1 1237.9 295.636)" fill="white" fill-opacity="0.5"/>
<rect width="10.0135" height="10.0135" transform="matrix(-1 0 0 1 1254.01 295.981)" fill="white" fill-opacity="0.5"/>
<rect width="10.0135" height="10.0135" transform="matrix(-1 0 0 1 1237.9 324.243)" fill="white" fill-opacity="0.5"/>
<rect width="10.0135" height="10.0135" transform="matrix(-1 0 0 1 1254.01 324.589)" fill="white" fill-opacity="0.5"/>
<rect width="10.0135" height="10.0135" transform="matrix(-1 0 0 1 1225.03 309.939)" fill="white" fill-opacity="0.5"/>
<rect width="10.0135" height="10.0135" transform="matrix(-1 0 0 1 1225.03 295.636)" fill="white" fill-opacity="0.5"/>
<rect width="10.0135" height="10.0135" transform="matrix(-1 0 0 1 1225.03 324.243)" fill="white" fill-opacity="0.5"/>
<rect width="10.0135" height="10.0135" transform="matrix(-1 0 0 1 1212.15 309.939)" fill="white" fill-opacity="0.5"/>
<rect width="10.0135" height="10.0135" transform="matrix(-1 0 0 1 1212.15 295.636)" fill="white" fill-opacity="0.5"/>
<rect width="10.0135" height="10.0135" transform="matrix(-1 0 0 1 1212.15 324.243)" fill="white" fill-opacity="0.5"/>
<rect width="68" height="8" transform="matrix(-1 0 0 1 1133 298.981)" fill="#F2F5F6"/>
<rect width="68" height="2" transform="matrix(-1 0 0 1 1133 276.982)" fill="#F2F5F6"/>
<rect width="1.43051" height="20.741" transform="matrix(-1 0 0 1 1121.18 278.9)" fill="#F2F5F6"/>
<rect width="1.43051" height="20.741" transform="matrix(-1 0 0 1 1111.88 278.9)" fill="#F2F5F6"/>
<rect width="1.43051" height="20.741" transform="matrix(-1 0 0 1 1102.58 278.9)" fill="#F2F5F6"/>
<rect width="1.43051" height="20.741" transform="matrix(-1 0 0 1 1093.28 278.9)" fill="#F2F5F6"/>
<rect width="1.43051" height="20.741" transform="matrix(-1 0 0 1 1083.98 278.9)" fill="#F2F5F6"/>
<rect width="1.43051" height="20.741" transform="matrix(-1 0 0 1 1074.68 278.9)" fill="#F2F5F6"/>
<rect x="1132" y="211.415" width="64.2974" height="128.587" fill="#F2F5F6"/>
<path d="M1132 203.988C1132 202.331 1133.34 200.988 1135 200.988H1193.3C1194.95 200.988 1196.3 202.331 1196.3 203.988V211.415H1132V203.988Z" fill="#ECF2F5"/>
<rect opacity="0.6" x="1142.43" y="221.839" width="15.6399" height="13.9022" fill="white"/>
<rect opacity="0.6" x="1156.33" y="296.559" width="15.6399" height="13.9022" fill="white"/>
<rect opacity="0.6" x="1170.23" y="221.839" width="15.6399" height="13.9022" fill="white"/>
<rect opacity="0.6" x="1137.21" y="235.742" width="6.95108" height="10.4266" fill="white"/>
<rect opacity="0.6" x="1144.16" y="310.462" width="6.95108" height="10.4266" fill="white"/>
<rect opacity="0.6" x="1165.02" y="235.742" width="6.95108" height="10.4266" fill="white"/>
<rect opacity="0.6" x="1145.9" y="235.742" width="8.68884" height="10.4266" fill="white"/>
<rect opacity="0.6" x="1154.59" y="310.462" width="8.68884" height="10.4266" fill="white"/>
<rect opacity="0.6" x="1173.71" y="235.742" width="8.68884" height="10.4266" fill="white"/>
<rect opacity="0.6" x="1156.33" y="235.742" width="6.95108" height="10.4266" fill="white"/>
<rect opacity="0.6" x="1166.76" y="310.462" width="6.95108" height="10.4266" fill="white"/>
<rect opacity="0.6" x="1177.18" y="310.462" width="6.95108" height="10.4266" fill="white"/>
<rect opacity="0.6" x="1184.13" y="235.742" width="6.95108" height="10.4266" fill="white"/>
<g opacity="0.6">
<rect x="1144.79" y="263.543" width="12.2885" height="10.9231" fill="white"/>
<rect x="1140.69" y="274.464" width="5.46156" height="8.19234" fill="white"/>
<rect x="1147.52" y="274.464" width="6.82695" height="8.19234" fill="white"/>
<rect x="1155.71" y="274.464" width="5.46156" height="8.19234" fill="white"/>
</g>
<g opacity="0.6">
<rect x="1167.38" y="263.543" width="12.2885" height="10.9231" fill="white"/>
<rect x="1163.28" y="274.464" width="5.46156" height="8.19234" fill="white"/>
<rect x="1170.11" y="274.464" width="6.82695" height="8.19234" fill="white"/>
<rect x="1178.3" y="274.464" width="5.46156" height="8.19234" fill="white"/>
</g>
<rect x="73.5801" width="1.83951" height="29.3834" rx="0.919753" fill="#F0F2F3"/>
<path d="M21.4941 125.869C21.4941 125.317 21.9419 124.869 22.4941 124.869H59.9291V282.682H21.4941V125.869Z" fill="white" stroke="#4A4A4A" stroke-width="2"/>
<path d="M127.506 125.869C127.506 125.317 127.058 124.869 126.506 124.869H89.0709V282.682H127.506V125.869Z" fill="#EBEBEB" stroke="#4A4A4A" stroke-width="2"/>
<path fill-rule="evenodd" clip-rule="evenodd" d="M69.7918 29.6445C69.7918 28.54 70.6872 27.6445 71.7918 27.6445H77.2081C78.3127 27.6445 79.2081 28.54 79.2081 29.6445V47.7429H95.4935C96.5981 47.7429 97.4935 48.6383 97.4935 49.7429V78.9635H113.889C114.994 78.9635 115.889 79.859 115.889 80.9635V123.865H126.505C127.61 123.865 128.505 124.76 128.505 125.865V282.812H147C148.105 282.812 149 283.707 149 284.812V339.742H0V284.812C0 283.707 0.895431 282.812 2 282.812H20.4941V125.865C20.4941 124.76 21.3896 123.865 22.4941 123.865H33.1113V80.9635C33.1113 79.859 34.0068 78.9635 35.1113 78.9635H51.5059V49.7429C51.5059 48.6383 52.4013 47.7429 53.5059 47.7429H69.7918V29.6445Z" fill="#F0F2F3"/>
<rect x="9.19727" y="293.832" width="3.67901" height="34.8927" fill="white"/>
<rect x="91.9756" y="293.832" width="3.67901" height="34.8927" fill="white"/>
<rect x="16.5557" y="293.832" width="3.67901" height="34.8927" fill="white"/>
<rect x="99.333" y="293.832" width="3.67901" height="34.8927" fill="white"/>
<rect x="23.9141" y="293.832" width="3.67901" height="34.8927" fill="white"/>
<rect x="106.691" y="293.832" width="3.67901" height="34.8927" fill="white"/>
<rect x="31.2715" y="293.832" width="3.67901" height="34.8927" fill="white"/>
<rect x="114.05" y="293.832" width="3.67901" height="34.8927" fill="white"/>
<rect x="38.6299" y="293.832" width="3.67901" height="34.8927" fill="white"/>
<rect x="121.407" y="293.832" width="3.67901" height="34.8927" fill="white"/>
<rect x="45.9873" y="293.832" width="3.67901" height="34.8927" fill="white"/>
<rect x="128.766" y="293.832" width="3.67901" height="34.8927" fill="white"/>
<rect x="53.3457" y="293.832" width="3.67901" height="34.8927" fill="white"/>
<path d="M67 314.479C67 311.994 69.0147 309.979 71.5 309.979H77.5C79.9853 309.979 82 311.994 82 314.479V339.978H67V314.479Z" fill="white"/>
<path d="M69.9014 317.71H79.0989V339.747H69.9014V317.71Z" fill="#F0F2F3"/>
<rect x="136.123" y="293.832" width="3.67901" height="34.8927" fill="white"/>
<rect x="55.1855" y="53.2559" width="1.83951" height="20.2011" fill="white"/>
<rect x="58.8643" y="53.2559" width="1.83951" height="20.2011" fill="white"/>
<rect x="62.543" y="53.2559" width="1.83951" height="20.2011" fill="white"/>
<rect x="66.2227" y="53.2559" width="1.83951" height="20.2011" fill="white"/>
<rect x="69.9014" y="53.2559" width="1.83951" height="20.2011" fill="white"/>
<rect x="73.5801" y="53.2559" width="1.83951" height="20.2011" fill="white"/>
<rect x="77.2588" y="53.2559" width="1.83951" height="20.2011" fill="white"/>
<rect x="80.9385" y="53.2559" width="1.83951" height="20.2011" fill="white"/>
<rect x="84.6172" y="53.2559" width="1.83951" height="20.2011" fill="white"/>
<rect x="88.2959" y="53.2559" width="1.83951" height="20.2011" fill="white"/>
<rect x="91.9756" y="53.2559" width="1.83951" height="20.2011" fill="white"/>
<rect x="40.4688" y="88.1504" width="8.27778" height="27.5469" fill="white"/>
<rect x="52.4258" y="88.1504" width="8.27778" height="27.5469" fill="white"/>
<rect x="64.3828" y="88.1504" width="8.27778" height="27.5469" fill="white"/>
<rect x="76.3398" y="88.1504" width="8.27778" height="27.5469" fill="white"/>
<rect x="88.2959" y="88.1504" width="8.27778" height="27.5469" fill="white"/>
<rect x="100.253" y="88.1504" width="8.27778" height="27.5469" fill="white"/>
<rect x="27.5928" y="139.573" width="6.13169" height="128.552" fill="white"/>
<rect x="95.6543" y="139.573" width="6.13169" height="128.552" fill="white"/>
<rect x="37.4033" y="139.573" width="6.13169" height="128.552" fill="white"/>
<rect x="105.465" y="139.573" width="6.13169" height="128.552" fill="white"/>
<rect x="47.2139" y="139.573" width="6.13169" height="128.552" fill="white"/>
<rect x="115.275" y="139.573" width="6.13169" height="128.552" fill="white"/>
<rect x="67.6016" y="139.569" width="2.75926" height="159.772" fill="white"/>
<rect x="73.1201" y="139.569" width="2.75926" height="159.772" fill="white"/>
<rect x="78.6387" y="139.569" width="2.75926" height="159.772" fill="white"/>
<g clip-path="url(#clip0_716_14290)">
<path d="M159.036 104.097C158.392 106.094 157.425 105.657 157.425 105.657C158.279 103.255 157.425 102.334 157.425 102.334C156.942 103.972 155.943 103.894 155.943 103.894C156.177 103.217 156.204 102.489 156.021 101.797C155.838 101.105 155.453 100.479 154.912 99.9941C155.047 100.509 155.035 101.05 154.876 101.559C154.717 102.067 154.417 102.524 154.01 102.88C153.559 103.317 153.043 101.227 153.043 101.227C152.523 102.11 152.222 103.098 152.163 104.113C152.104 105.128 152.29 106.143 152.705 107.077C152.421 106.81 152.209 106.48 152.085 106.116C151.962 105.752 151.931 105.364 151.996 104.986C151.255 105.742 150.689 106.642 150.336 107.627C149.983 108.612 149.852 109.658 149.95 110.696C150.157 111.743 150.742 112.685 151.602 113.351C152.461 114.017 153.538 114.365 154.638 114.331C156.974 114.331 159.471 113.067 159.874 110.837C160.663 106.234 159.036 104.097 159.036 104.097Z" fill="#E9EDF1"/>
<path d="M209.045 188.81L209.125 188.967L209.285 189.04C209.544 189.157 209.769 189.329 209.945 189.542C210.121 189.755 210.243 190.003 210.304 190.267C210.364 190.53 210.361 190.804 210.295 191.066C210.228 191.328 210.1 191.574 209.919 191.783L209.871 191.839L209.841 191.906L210.297 192.11L209.841 191.906L209.841 191.906L209.841 191.906L209.841 191.907L209.839 191.911L209.831 191.928L209.802 191.993C209.776 192.05 209.739 192.132 209.693 192.233C209.601 192.436 209.473 192.717 209.33 193.028C209.042 193.652 208.696 194.388 208.452 194.86L208.452 194.86L208.448 194.867C208.174 195.416 208.004 195.56 207.752 195.774C207.629 195.877 207.487 195.998 207.304 196.189C206.778 196.739 206.169 197.701 205.206 200.248C204.963 200.891 204.757 201.495 204.572 202.051C204.538 202.152 204.504 202.252 204.472 202.35C204.325 202.79 204.191 203.193 204.056 203.563C203.723 204.482 203.42 205.101 203.033 205.477C202.683 205.815 202.22 205.996 201.424 205.906C200.645 205.817 199.587 205.471 198.108 204.782C198.102 204.623 198.094 204.405 198.083 204.134C198.06 203.521 198.024 202.637 197.977 201.548C197.882 199.37 197.74 196.375 197.55 193.105C197.262 188.129 196.863 182.496 196.352 178.14C196.618 178.678 196.916 179.247 197.243 179.821C197.977 181.111 198.865 182.444 199.871 183.508C200.869 184.564 202.033 185.406 203.323 185.615L203.325 185.615C205.958 186.03 208.16 187.053 209.045 188.81Z" fill="#F6F8FA" stroke="#E9EDF1"/>
<path d="M196.298 178.117C196.574 178.989 196.918 179.839 197.329 180.66C197.716 181.478 198.186 182.256 198.73 182.985C199.284 183.701 199.94 184.336 200.68 184.872C201.445 185.39 202.295 185.78 203.193 186.027C202.238 185.933 201.318 185.629 200.502 185.137C199.692 184.63 198.983 183.985 198.408 183.234C197.272 181.732 196.561 179.968 196.346 178.117H196.298Z" fill="#E9EDF1"/>
<path d="M194.977 180.488C195.163 181.021 195.383 181.543 195.638 182.048C195.872 182.534 196.158 182.994 196.491 183.421C196.813 183.853 197.199 184.236 197.635 184.56C198.092 184.883 198.597 185.135 199.133 185.309C198.564 185.277 198.011 185.111 197.522 184.825C197.015 184.525 196.572 184.133 196.217 183.671C195.865 183.194 195.588 182.668 195.396 182.111C195.17 181.594 195.029 181.047 194.977 180.488Z" fill="#E9EDF1"/>
<path d="M199.842 205.011C200.239 205.153 200.659 205.222 201.082 205.214C201.465 205.19 201.828 205.041 202.113 204.793C202.406 204.522 202.642 204.199 202.806 203.841C202.995 203.466 203.161 203.08 203.305 202.687C203.323 203.116 203.257 203.544 203.112 203.95C202.988 204.385 202.743 204.779 202.403 205.089C202.22 205.247 202.006 205.369 201.775 205.448C201.545 205.513 201.305 205.539 201.066 205.526C200.613 205.48 200.186 205.3 199.842 205.011Z" fill="#E9EDF1"/>
<path d="M203.821 201.657L193.672 198.023L203.402 177.649L212.955 181.378L203.821 201.657Z" fill="#F6F8FA"/>
<path d="M188.146 143.86L198.94 144.094L188.388 145.467L188.146 143.86Z" fill="#E9EDF1"/>
<path d="M187.051 141.661L194.155 135.593L185.794 140.273L187.051 141.661Z" fill="#E9EDF1"/>
<path d="M183.749 138.822L188.646 132.113L181.767 138.244L183.749 138.822Z" fill="#E9EDF1"/>
<path d="M170.49 144.048L159.697 144.266L170.249 145.655L170.49 144.048Z" fill="#E9EDF1"/>
<path d="M171.183 142.363L163.112 137.573L172.165 140.787L171.183 142.363Z" fill="#E9EDF1"/>
<path d="M174.244 139.243L168.557 133.159L176.145 138.448L174.244 139.243Z" fill="#E9EDF1"/>
<path d="M178.223 138.136L179.415 129.634L180.478 138.136H178.223Z" fill="#E9EDF1"/>
<path d="M190.596 162.439C190.584 162.434 190.57 162.427 190.554 162.419C190.537 162.407 190.514 162.391 190.486 162.371C190.425 162.329 190.338 162.27 190.235 162.206C190.033 162.08 189.747 161.919 189.454 161.814C189.307 161.762 189.14 161.717 188.968 161.706C188.798 161.694 188.588 161.713 188.392 161.827C187.953 162.084 187.895 162.597 187.957 163.067C188.023 163.562 188.221 164.111 188.444 164.635C188.608 165.021 188.798 165.421 188.978 165.798C189.043 165.935 189.107 166.069 189.168 166.199C189.403 166.701 189.587 167.125 189.673 167.448C189.69 167.515 189.702 167.571 189.709 167.618H168.697C168.705 167.574 168.717 167.523 168.735 167.463C168.829 167.141 169.026 166.718 169.278 166.217C169.345 166.083 169.415 165.945 169.487 165.804C169.677 165.431 169.879 165.036 170.054 164.654C170.296 164.13 170.513 163.581 170.597 163.084C170.675 162.62 170.642 162.091 170.196 161.824C169.998 161.705 169.785 161.687 169.616 161.699C169.444 161.711 169.275 161.756 169.127 161.808C168.831 161.913 168.54 162.075 168.334 162.202C168.228 162.267 168.139 162.325 168.076 162.368C168.049 162.387 168.026 162.403 168.009 162.415C167.966 162.435 167.934 162.446 167.912 162.452C167.893 162.409 167.869 162.331 167.855 162.209C167.838 162.063 167.836 161.883 167.852 161.677C167.883 161.266 167.978 160.794 168.107 160.371C168.239 159.937 168.39 159.605 168.509 159.444C168.56 159.375 168.619 159.299 168.679 159.221C168.781 159.088 168.888 158.95 168.967 158.831C169.116 158.609 169.241 158.36 169.297 158.037C169.405 157.424 169.246 156.634 168.804 155.35L168.805 155.35L168.8 155.338C168.067 153.373 168.649 151.352 169.476 149.764C169.886 148.976 170.345 148.317 170.703 147.853C170.881 147.622 171.033 147.441 171.14 147.319C171.147 147.311 171.154 147.303 171.161 147.295L186.985 147.416C186.996 147.428 187.008 147.44 187.02 147.453C187.132 147.572 187.293 147.749 187.482 147.974C187.861 148.426 188.349 149.071 188.792 149.844C189.686 151.404 190.343 153.392 189.671 155.351C189.229 156.636 189.075 157.426 189.185 158.039C189.243 158.361 189.368 158.609 189.515 158.83C189.585 158.936 189.662 159.039 189.736 159.136C189.747 159.15 189.757 159.164 189.768 159.178C189.833 159.263 189.897 159.347 189.963 159.439C190.08 159.602 190.231 159.936 190.364 160.372C190.493 160.796 190.592 161.27 190.629 161.684C190.647 161.891 190.649 162.073 190.635 162.221C190.626 162.321 190.61 162.391 190.596 162.439Z" fill="#F6F8FA" stroke="#E9EDF1"/>
<path d="M171.135 146.997C171.135 146.997 170.506 141.49 179.431 141.661C179.431 141.661 187.147 140.897 187.115 146.95L188.63 145.858C188.63 145.858 188.758 138.057 179.657 137.855C179.657 137.855 170.571 137.137 169.991 146.045L171.135 146.997Z" fill="#E9EDF1"/>
<path d="M176.224 161.193L176.253 160.89L175.997 160.725C174.87 159.996 173.939 159.02 173.279 157.877C172.619 156.735 172.249 155.459 172.198 154.153C172.137 152.385 172.104 150.822 172.077 149.525C172.072 149.298 172.068 149.079 172.063 148.869C172.034 147.472 172.005 146.417 171.938 145.848C171.859 145.112 172.227 144.191 173.405 143.421C174.593 142.647 176.58 142.052 179.608 142.052C182.585 142.052 184.316 142.836 185.297 143.811C186.276 144.785 186.579 146.022 186.551 147.082C186.502 147.829 186.373 148.399 186.206 149.142C186.165 149.324 186.122 149.516 186.077 149.723C185.849 150.775 185.596 152.152 185.425 154.447L185.423 154.466L185.423 154.484C185.425 155.766 185.085 157.027 184.435 158.145C183.784 159.264 182.845 160.203 181.708 160.869L181.437 161.028L181.462 161.34L181.838 166.089H175.745L176.224 161.193Z" fill="white" stroke="#E9EDF1"/>
<path d="M170.835 164.862L170.893 165.207L171.237 165.271C175.311 166.027 179.436 166.504 183.58 166.699L183.592 166.699H183.603C184.612 166.699 185.976 166.727 187.371 167.009C188.766 167.291 190.157 167.822 191.243 168.801C194.026 171.318 195.995 176.333 196.185 181.49L196.185 181.491C196.37 186.241 196.624 192.016 197.19 197.386C197.754 202.74 198.633 207.758 200.096 210.96C200.777 212.449 201.241 214.577 201.545 216.967C201.847 219.347 201.987 221.949 202.038 224.365C202.089 226.78 202.052 229.001 202.001 230.62C201.976 231.429 201.948 232.086 201.926 232.541C201.915 232.765 201.906 232.94 201.899 233.059L200.696 234.266L200.532 234.431L200.552 234.662L201.05 234.619C200.552 234.662 200.552 234.662 200.552 234.663L200.552 234.663L200.552 234.666L200.553 234.679L200.558 234.728C200.561 234.772 200.567 234.837 200.574 234.922C200.588 235.094 200.608 235.347 200.632 235.673C200.682 236.325 200.749 237.27 200.821 238.437C200.965 240.773 201.127 244 201.201 247.565C201.348 254.717 201.135 263.162 199.729 268.531L199.694 268.662L199.731 268.792L199.731 268.792L199.731 268.793L199.732 268.797L199.737 268.814L199.756 268.884C199.772 268.945 199.797 269.037 199.828 269.155C199.889 269.391 199.976 269.735 200.078 270.163C200.28 271.018 200.54 272.205 200.769 273.531C201.23 276.209 201.545 279.371 201.061 281.543L201.035 281.663L201.066 281.781C201.629 283.883 202.865 285.744 204.578 287.106C204.186 287.197 203.693 287.305 203.119 287.419C201.566 287.727 199.424 288.076 197.064 288.245C194.701 288.414 192.136 288.4 189.731 287.989C187.325 287.577 185.112 286.772 183.422 285.385C183.007 285.041 182.495 284.926 181.96 284.936C181.431 284.945 180.838 285.075 180.207 285.264C179.485 285.48 178.641 285.798 177.719 286.144C177.06 286.392 176.363 286.654 175.642 286.905C172.232 288.091 167.958 289.159 163.11 288.021C163.18 287.742 163.261 287.342 163.337 286.775C163.523 285.407 163.692 283.042 163.644 279.013C163.644 278.289 163.499 277.507 163.329 276.711C163.287 276.513 163.243 276.313 163.198 276.111C163.061 275.49 162.921 274.853 162.814 274.185C162.535 272.433 162.504 270.554 163.435 268.591L163.516 268.42L163.464 268.239C162.044 263.296 162.388 258.034 164.44 253.304L164.477 253.22L164.481 253.129L163.982 253.105C164.481 253.129 164.481 253.129 164.481 253.128L164.481 253.127L164.481 253.124L164.482 253.108L164.485 253.049L164.496 252.816C164.505 252.612 164.519 252.312 164.535 251.93C164.568 251.165 164.612 250.07 164.659 248.745C164.753 246.096 164.857 242.529 164.899 238.86C164.94 235.192 164.918 231.415 164.76 228.347C164.68 226.814 164.567 225.449 164.407 224.359C164.327 223.814 164.235 223.33 164.128 222.925C164.028 222.548 163.908 222.211 163.756 221.951C163.749 221.932 163.74 221.907 163.728 221.875C163.699 221.797 163.657 221.682 163.605 221.532C163.5 221.233 163.354 220.796 163.19 220.253C162.862 219.165 162.465 217.653 162.188 215.954C161.628 212.524 161.576 208.46 163.407 205.542L163.748 204.998L163.138 204.801L163.138 204.801L163.137 204.801L163.137 204.801L163.136 204.8L163.127 204.797C163.123 204.796 163.119 204.794 163.113 204.792C163.105 204.789 163.094 204.786 163.082 204.781C163.041 204.766 162.978 204.742 162.899 204.709C162.739 204.643 162.51 204.539 162.243 204.393C161.707 204.099 161.027 203.641 160.434 202.977C159.844 202.317 159.341 201.457 159.146 200.346C158.952 199.241 159.057 197.853 159.733 196.125L159.758 196.077C159.783 196.029 159.82 195.959 159.866 195.869C159.958 195.69 160.089 195.433 160.244 195.118C160.555 194.488 160.964 193.627 161.359 192.702C161.752 191.78 162.135 190.783 162.389 189.886C162.516 189.437 162.613 189.004 162.662 188.61C162.709 188.223 162.714 187.84 162.63 187.509C162.481 186.929 162.118 186.454 161.776 186.005C161.761 185.986 161.746 185.967 161.732 185.948C161.362 185.463 160.963 184.934 160.632 184.179C159.972 182.68 159.538 180.191 160.446 175.371L160.492 175.126L160.325 174.942L160.325 174.942L160.324 174.942L160.324 174.942L160.323 174.941L160.316 174.932C160.308 174.923 160.296 174.909 160.28 174.89C160.247 174.852 160.198 174.793 160.136 174.713C160.01 174.553 159.83 174.311 159.618 173.989C159.195 173.344 158.647 172.381 158.159 171.12C157.193 168.622 156.458 164.945 157.408 160.239C157.449 160.188 157.507 160.116 157.58 160.027C157.74 159.833 157.972 159.556 158.263 159.226C158.845 158.566 159.654 157.699 160.569 156.868C161.486 156.034 162.492 155.253 163.466 154.746C164.39 154.266 165.21 154.073 165.877 154.225C168.469 157.286 170.179 160.956 170.835 164.862Z" fill="#F6F8FA" stroke="#E9EDF1"/>
<path d="M165.383 153.91C165.666 153.916 165.814 153.998 165.901 154.1C165.985 154.204 166.045 154.382 165.995 154.695C165.945 155.012 165.789 155.414 165.514 155.878C164.964 156.803 164 157.878 162.754 158.865C161.511 159.849 160.217 160.536 159.154 160.862C158.621 161.025 158.17 161.09 157.825 161.07C157.48 161.051 157.299 160.952 157.21 160.851C157.21 160.851 157.21 160.851 157.21 160.851C157.211 160.851 157.153 160.762 157.235 160.455C157.315 160.154 157.504 159.756 157.809 159.292C158.416 158.368 159.427 157.269 160.71 156.284C162.013 155.284 163.234 154.544 164.207 154.172C164.695 153.986 165.089 153.905 165.383 153.91Z" fill="#F2F2F2" stroke="#E9EDF1"/>
<path d="M157.06 127.544H153.285L152.479 114.158L157.651 114.143L157.06 127.544Z" fill="#E9EDF1"/>
<path d="M161.014 139.278L161.013 139.275C160.798 138.319 160.55 137.196 160.288 136.008C159.947 134.468 159.582 132.817 159.233 131.277C158.926 129.917 158.632 128.652 158.383 127.641C158.131 126.617 157.932 125.885 157.812 125.568L157.779 125.482V125.391C157.779 124.967 157.814 124.598 157.848 124.334C157.865 124.201 157.882 124.095 157.896 124.02C157.902 123.982 157.908 123.953 157.912 123.932L157.917 123.907L157.919 123.9L157.919 123.898L157.919 123.897L157.92 123.896L157.92 123.896C157.92 123.896 157.92 123.896 158.408 124.002L157.92 123.896L157.921 123.892C158.422 121.684 158.202 120.206 157.877 119.291L157.555 127.532L157.536 128.012H157.055H154.605C154.697 129.096 154.77 130.277 154.846 131.495C154.995 133.914 155.154 136.481 155.488 138.733L161.014 139.278ZM161.014 139.278C161.519 141.452 162.42 145.928 163.196 149.869C163.583 151.838 163.939 153.671 164.198 155.011C164.327 155.681 164.432 156.228 164.505 156.607L164.569 156.941M161.014 139.278L164.569 156.941M159.745 160.553C159.739 160.525 159.732 160.495 159.726 160.464C159.637 160.065 159.51 159.484 159.353 158.762C159.04 157.316 158.608 155.302 158.139 153.028C157.199 148.476 156.106 142.891 155.488 138.733L159.745 160.553ZM159.745 160.553C160.128 160.404 160.547 160.182 160.983 159.907C161.604 159.514 162.23 159.035 162.792 158.566C163.353 158.097 163.843 157.644 164.194 157.308C164.349 157.159 164.476 157.034 164.569 156.941M159.745 160.553L164.569 156.941" fill="#F6F8FA" stroke="#E9EDF1"/>
<path d="M155.444 117.84C155.446 117.907 155.434 117.973 155.409 118.036C155.385 118.098 155.347 118.155 155.299 118.203C155.251 118.251 155.193 118.289 155.13 118.315C155.066 118.341 154.998 118.355 154.928 118.355H152.222C152.084 118.351 151.953 118.295 151.857 118.199C151.76 118.103 151.706 117.974 151.707 117.84C151.706 117.706 151.76 117.578 151.857 117.481C151.953 117.385 152.084 117.329 152.222 117.325H154.961C155.03 117.325 155.098 117.339 155.162 117.365C155.225 117.391 155.283 117.429 155.331 117.477C155.379 117.525 155.417 117.582 155.442 117.644C155.467 117.707 155.478 117.773 155.476 117.84H155.444Z" fill="#F6F8FA"/>
<path d="M155.943 118.932C155.943 119.08 155.885 119.222 155.78 119.329C155.675 119.437 155.532 119.501 155.379 119.509H152.383C152.232 119.501 152.09 119.436 151.988 119.328C151.886 119.22 151.831 119.078 151.835 118.932C151.831 118.785 151.886 118.643 151.988 118.535C152.09 118.427 152.232 118.363 152.383 118.354H155.444C155.596 118.362 155.74 118.427 155.845 118.534C155.949 118.642 156.008 118.784 156.008 118.932H155.943Z" fill="#F6F8FA"/>
<path d="M155.831 120.086C155.835 120.228 155.782 120.367 155.683 120.471C155.583 120.576 155.446 120.64 155.299 120.648H152.48C152.408 120.644 152.337 120.626 152.273 120.596C152.208 120.565 152.15 120.523 152.102 120.47C152.054 120.418 152.017 120.357 151.993 120.292C151.97 120.226 151.96 120.156 151.964 120.086C151.96 120.016 151.97 119.947 151.993 119.881C152.017 119.815 152.054 119.754 152.102 119.702C152.15 119.649 152.208 119.607 152.273 119.576C152.337 119.546 152.408 119.528 152.48 119.524H155.299C155.446 119.532 155.583 119.596 155.683 119.701C155.782 119.805 155.835 119.944 155.831 120.086Z" fill="#F6F8FA"/>
<path d="M155.444 121.195C155.453 121.316 155.416 121.436 155.338 121.531C155.26 121.626 155.149 121.69 155.025 121.709H152.705C152.638 121.707 152.572 121.692 152.511 121.665C152.45 121.638 152.396 121.599 152.351 121.551C152.305 121.503 152.271 121.447 152.249 121.386C152.227 121.324 152.217 121.259 152.222 121.195C152.212 121.073 152.25 120.953 152.327 120.858C152.405 120.763 152.517 120.699 152.641 120.68H154.96C155.084 120.699 155.196 120.763 155.274 120.858C155.351 120.953 155.389 121.073 155.379 121.195H155.444Z" fill="#F6F8FA"/>
<path d="M184.928 143.657L186.796 142.658L185.218 144.062L184.928 143.657Z" fill="#E9EDF1"/>
<path d="M186.729 144.828L188.485 144.438L186.922 145.28L186.729 144.828Z" fill="#E9EDF1"/>
<path d="M182.5 142.45L184.53 140.719L182.871 142.778L182.5 142.45Z" fill="#E9EDF1"/>
<path d="M180.558 142.886L182.362 140.234L180.993 143.12L180.558 142.886Z" fill="#E9EDF1"/>
<path d="M179.102 142.697L180.229 139.265L179.585 142.822L179.102 142.697Z" fill="#E9EDF1"/>
<path d="M173.011 143.671L171.819 142.173L173.365 143.327L173.011 143.671Z" fill="#E9EDF1"/>
<path d="M172.024 144.439L170.848 143.628L172.249 144.002L172.024 144.439Z" fill="#E9EDF1"/>
<path d="M175.033 142.965L173.761 140.719L175.452 142.7L175.033 142.965Z" fill="#E9EDF1"/>
<path d="M176.46 142.822L175.703 139.749L176.944 142.666L176.46 142.822Z" fill="#E9EDF1"/>
<path d="M177.369 142.79L177.159 139.265L177.868 142.728L177.369 142.79Z" fill="#E9EDF1"/>
<path d="M178.13 142.79L178.388 139.265L178.646 142.79H178.13Z" fill="#E9EDF1"/>
<path d="M157.122 161.802C158.169 162.119 159.249 161.917 160.252 161.462C161.443 160.922 162.585 160.002 163.566 159.044C164.235 158.39 164.841 157.706 165.348 157.089C164.308 159.621 162.487 161.273 160.748 162.339C159.617 163.033 158.524 163.475 157.714 163.744C157.433 163.836 157.188 163.908 156.987 163.962C156.987 163.934 156.987 163.905 156.987 163.875C156.987 163.484 156.991 163.063 157.006 162.867L157.006 162.867L157.006 162.856C157.025 162.503 157.063 162.151 157.122 161.802Z" fill="#E9EDF1" stroke="#E9EDF1"/>
<path d="M186.633 147.071L186.633 147.072C186.62 147.265 186.546 147.621 186.445 148.061C186.42 148.172 186.393 148.287 186.366 148.403C186.29 148.725 186.213 149.055 186.158 149.332L186.15 149.372L186.149 149.412C186.116 150.347 185.981 151.275 185.748 152.181C185.197 150.949 184.977 149.595 185.116 148.248L185.148 147.938L184.883 147.773C183.133 146.682 181.632 145.258 180.47 143.59L180.116 143.082L179.694 143.535C178.075 145.273 175.908 146.449 173.527 146.878L173.181 146.94L173.123 147.287C172.895 148.631 172.48 149.937 171.892 151.17C171.854 150.663 171.816 150.11 171.781 149.581C171.74 148.963 171.703 148.383 171.676 147.958C171.663 147.745 171.653 147.571 171.645 147.451L171.637 147.311L171.635 147.275L171.634 147.266L171.634 147.263L171.634 147.263L171.634 147.262L171.135 147.292L171.634 147.262L171.633 147.254L171.633 147.246C171.492 145.735 171.92 144.686 172.607 143.935C173.31 143.166 174.322 142.668 175.403 142.353C176.479 142.039 177.584 141.919 178.426 141.879C178.846 141.859 179.196 141.859 179.441 141.864C179.563 141.866 179.658 141.87 179.722 141.873C179.754 141.875 179.778 141.876 179.794 141.877L179.811 141.878L179.815 141.878L179.815 141.878L179.815 141.878L179.826 141.879C183.17 142.039 184.863 143.027 185.721 144.069C186.585 145.118 186.684 146.321 186.633 147.071Z" fill="#F6F8FA" stroke="#E9EDF1"/>
<path d="M206.237 179.802C205.448 179.568 204.626 179.303 203.918 179.022H204.095C203.805 179.636 203.499 180.244 203.177 180.847C202.854 181.44 202.516 182.033 202.146 182.61C202.387 181.971 202.661 181.347 202.951 180.738C203.241 180.13 203.547 179.506 203.853 178.913V178.804H203.966C204.771 179.1 205.512 179.428 206.237 179.802Z" fill="#E9EDF1"/>
<path d="M200.744 199.52C201.517 199.754 202.355 200.019 203.048 200.3H202.887C203.177 199.692 203.483 199.083 203.805 198.49C204.127 197.898 204.465 197.289 204.836 196.712C204.594 197.352 204.32 197.976 204.031 198.584C203.741 199.192 203.434 199.816 203.112 200.425V200.518H202.999C202.162 200.222 201.469 199.832 200.744 199.52Z" fill="#E9EDF1"/>
<path d="M198.07 192.032C198.279 191.455 198.505 190.909 198.746 190.347C198.988 189.785 199.23 189.239 199.471 188.693C199.713 188.147 200.003 187.601 200.277 187.133L200.696 186.338L201.131 185.542L200.825 186.384L200.47 187.227C200.245 187.773 199.987 188.319 199.729 188.787C199.471 189.255 199.214 189.879 198.94 190.347C198.666 190.815 198.376 191.455 198.07 192.032Z" fill="#E9EDF1"/>
<path d="M207.414 190.472C207.623 189.911 207.849 189.349 208.09 188.803C208.332 188.257 208.573 187.695 208.815 187.149C209.057 186.603 209.347 186.057 209.621 185.589L210.039 184.778L210.474 183.982C210.378 184.279 210.265 184.56 210.168 184.84L209.814 185.667C209.588 186.229 209.331 186.775 209.073 187.321C208.815 187.867 208.557 188.413 208.283 188.881C208.01 189.349 207.72 189.973 207.414 190.472Z" fill="#E9EDF1"/>
<path d="M209.782 194.122C209.825 194.049 209.852 193.967 209.862 193.884C209.872 193.8 209.865 193.715 209.841 193.633C209.817 193.552 209.777 193.476 209.722 193.41C209.668 193.344 209.601 193.289 209.524 193.249L206.399 191.689C206.321 191.651 206.236 191.629 206.149 191.624C206.062 191.619 205.974 191.631 205.892 191.658C205.81 191.686 205.734 191.729 205.669 191.785C205.604 191.841 205.551 191.909 205.513 191.985C205.47 192.059 205.443 192.14 205.433 192.224C205.423 192.308 205.43 192.393 205.454 192.474C205.478 192.555 205.518 192.631 205.572 192.697C205.627 192.763 205.694 192.818 205.771 192.859L208.896 194.419C208.974 194.456 209.059 194.478 209.146 194.483C209.233 194.488 209.32 194.477 209.403 194.449C209.485 194.421 209.561 194.378 209.626 194.322C209.691 194.266 209.744 194.198 209.782 194.122Z" fill="#E9EDF1"/>
<path d="M210.958 193.155C211.051 192.991 211.075 192.798 211.024 192.617C210.973 192.436 210.851 192.282 210.684 192.188L207.301 190.472C207.128 190.391 206.929 190.38 206.747 190.442C206.566 190.503 206.418 190.632 206.334 190.799C206.286 190.879 206.255 190.967 206.242 191.058C206.23 191.15 206.237 191.242 206.262 191.331C206.288 191.42 206.332 191.503 206.391 191.575C206.45 191.647 206.524 191.707 206.608 191.751L209.991 193.467C210.164 193.547 210.363 193.558 210.544 193.497C210.725 193.435 210.874 193.307 210.958 193.139V193.155Z" fill="#E9EDF1"/>
<path d="M211.538 191.829C211.633 191.674 211.66 191.488 211.615 191.313C211.57 191.138 211.455 190.987 211.296 190.893L208.074 189.333C207.991 189.297 207.9 189.277 207.809 189.275C207.717 189.272 207.626 189.287 207.541 189.319C207.456 189.351 207.378 189.399 207.312 189.461C207.245 189.522 207.192 189.595 207.156 189.676C207.109 189.752 207.078 189.836 207.065 189.923C207.052 190.011 207.057 190.1 207.079 190.185C207.102 190.271 207.142 190.351 207.196 190.422C207.251 190.492 207.319 190.552 207.397 190.597L210.619 192.157C210.702 192.196 210.791 192.218 210.882 192.223C210.974 192.227 211.065 192.214 211.151 192.183C211.237 192.153 211.315 192.106 211.382 192.045C211.448 191.984 211.501 191.911 211.538 191.829Z" fill="#E9EDF1"/>
<path d="M211.651 190.331C211.739 190.2 211.771 190.041 211.741 189.886C211.711 189.732 211.621 189.596 211.489 189.504L208.944 188.225C208.792 188.169 208.624 188.174 208.476 188.239C208.328 188.303 208.213 188.422 208.155 188.568C208.07 188.701 208.04 188.859 208.07 189.012C208.1 189.165 208.187 189.302 208.316 189.395L210.861 190.674C211.013 190.726 211.18 190.719 211.327 190.655C211.473 190.592 211.589 190.475 211.651 190.331Z" fill="#E9EDF1"/>
<path d="M159.81 112.817H150.063V115.86H159.81V112.817Z" fill="#E9EDF1"/>
<path d="M160.099 173.844C160.305 173.618 160.493 173.378 160.663 173.126C160.999 172.629 161.296 172.107 161.549 171.566C162.059 170.5 162.49 169.4 162.838 168.274C163.196 167.151 163.492 166.011 163.724 164.858C163.837 164.281 163.934 163.703 164.014 163.111C164.014 162.814 164.014 162.533 164.014 162.237C164.014 161.94 164.014 161.94 164.014 161.784C164.006 161.712 164.006 161.639 164.014 161.566C164.014 161.566 164.014 161.41 164.014 161.348C164.022 161.42 164.022 161.493 164.014 161.566V161.769C164.014 161.909 163.934 162.05 163.885 162.19L163.627 163.033L163.112 164.702L162.58 166.371C162.403 166.917 162.242 167.479 162.049 168.025C161.694 169.132 161.356 170.24 160.953 171.332C160.76 171.878 160.551 172.408 160.309 172.892C160.196 173.159 160.067 173.42 159.922 173.672C159.783 173.922 159.604 174.148 159.391 174.343C159.659 174.224 159.9 174.054 160.099 173.844Z" fill="#E9EDF1"/>
<path d="M162.629 175.388C161.63 176.308 160.567 177.166 159.503 178.055C160.763 177.444 161.955 176.713 163.064 175.871C163.611 175.445 164.148 174.992 164.675 174.514C165.177 174.02 165.65 173.499 166.092 172.954C166.532 172.41 166.93 171.837 167.284 171.238C167.633 170.625 167.924 169.982 168.154 169.319C168.376 168.662 168.512 167.981 168.557 167.291C168.619 166.607 168.543 165.918 168.332 165.263C168.383 165.927 168.329 166.596 168.17 167.244C168.035 167.887 167.83 168.515 167.558 169.116C167.019 170.323 166.308 171.452 165.448 172.47C165.04 173.019 164.593 173.541 164.111 174.03C163.627 174.467 163.128 174.873 162.629 175.388Z" fill="#E9EDF1"/>
<path d="M165.11 185.792C164.171 186.413 163.166 186.936 162.113 187.352C163.247 187.075 164.332 186.639 165.335 186.058C166.355 185.549 167.316 184.937 168.203 184.232C169.084 183.476 169.882 182.634 170.587 181.721C171.303 180.815 171.934 179.849 172.472 178.835C173.019 177.832 173.482 176.789 173.857 175.715C174.24 174.613 174.547 173.487 174.775 172.346C175.233 170.133 175.428 167.877 175.355 165.622C175.105 167.841 174.696 170.041 174.131 172.205C173.85 173.262 173.511 174.303 173.116 175.325C172.73 176.365 172.267 177.376 171.731 178.351C171.215 179.33 170.623 180.269 169.959 181.159C169.294 182.053 168.556 182.893 167.752 183.671C166.935 184.45 166.051 185.159 165.11 185.792Z" fill="#E9EDF1"/>
<path d="M185.069 178.741C184.167 180.567 183.217 182.376 182.202 184.139C181.187 185.902 180.091 187.633 178.899 189.302C177.724 190.939 176.443 192.502 175.065 193.982C173.695 195.548 172.173 196.985 170.522 198.272C168.863 199.482 167.042 200.469 165.109 201.205C164.149 201.585 163.15 201.867 162.129 202.047C161.597 202.148 161.059 202.216 160.518 202.25C159.982 202.3 159.443 202.3 158.907 202.25C159.974 202.421 161.062 202.421 162.129 202.25C163.18 202.114 164.215 201.884 165.222 201.564C167.231 200.872 169.126 199.9 170.844 198.678C174.272 196.212 177.237 193.194 179.608 189.755C180.985 187.802 182.239 185.77 183.362 183.671C183.104 185.746 182.814 187.836 182.411 189.911C181.992 192.22 181.493 194.513 180.913 196.79C180.333 199.068 179.705 201.33 178.98 203.56C178.255 205.791 177.514 208.022 176.676 210.221C175.838 212.421 174.952 214.589 174.002 216.758C173.051 218.926 172.069 221.048 171.038 223.169C170.007 225.291 168.911 227.381 167.816 229.409C166.72 231.437 165.416 233.543 164.143 235.555C166.916 231.696 169.393 227.645 171.553 223.434C173.76 219.234 175.707 214.911 177.385 210.487C178.223 208.256 178.996 206.025 179.673 203.763C180.349 201.501 180.977 199.224 181.493 196.915C182.5 192.522 183.125 188.056 183.362 183.562C184.167 182.002 184.973 180.535 185.617 178.991C187.305 175.256 188.731 171.415 189.886 167.494C189.145 169.397 188.388 171.3 187.566 173.172C186.745 175.044 186.052 176.901 185.069 178.741Z" fill="#E9EDF1"/>
<path d="M163.95 253.105C167.333 252.059 170.7 251.03 174.034 249.907C174.856 249.641 175.645 249.345 176.515 249.049C177.385 248.752 178.126 248.472 178.996 248.16C180.607 247.536 182.218 246.912 183.829 246.178C185.44 245.445 187.051 244.618 188.565 243.87C190.08 243.121 191.642 242.216 193.14 241.296C194.634 240.386 196.07 239.391 197.442 238.316C198.126 237.776 198.777 237.198 199.391 236.585C199.703 236.282 199.999 235.965 200.277 235.633C200.566 235.309 200.814 234.953 201.018 234.572C200.837 234.965 200.61 235.337 200.341 235.68C200.086 236.036 199.811 236.38 199.52 236.709C198.924 237.349 198.295 237.957 197.635 238.55C196.307 239.697 194.908 240.765 193.446 241.748C190.492 243.677 187.409 245.412 184.216 246.943C182.605 247.707 180.994 248.503 179.383 249.127C178.545 249.454 177.772 249.782 176.886 250.063C176 250.343 175.194 250.624 174.34 250.889C173.487 251.155 172.649 251.389 171.779 251.607C170.909 251.825 170.055 252.044 169.185 252.231C167.46 252.622 165.711 252.914 163.95 253.105Z" fill="#E9EDF1"/>
<path d="M164.014 252.418C164.739 251.841 165.416 251.217 166.092 250.562C166.769 249.907 167.413 249.267 168.042 248.596C169.314 247.255 170.506 245.851 171.634 244.4C173.894 241.499 175.934 238.444 177.74 235.259C181.333 228.859 184.077 222.045 185.907 214.979C187.745 207.93 188.824 200.716 189.129 193.452C189.459 186.164 189.206 178.862 188.372 171.612H188.646C189.805 178.835 190.285 186.145 190.08 193.452C189.885 200.791 188.837 208.086 186.954 215.198C185.078 222.299 182.217 229.12 178.448 235.477C176.556 238.657 174.401 241.683 172.005 244.525C170.796 245.944 169.54 247.317 168.219 248.612C166.916 249.979 165.511 251.252 164.014 252.418Z" fill="#E9EDF1"/>
<path d="M201.05 248.19C200.76 248.58 200.47 248.939 200.164 249.298C199.568 250 198.924 250.702 198.263 251.357C197.603 252.012 196.91 252.667 196.201 253.291L194.107 255.007C192.625 256.162 191.126 257.285 189.548 258.33C187.969 259.375 186.326 260.405 184.715 261.341C183.068 262.261 181.362 263.079 179.608 263.79C177.878 264.546 176.102 265.202 174.292 265.756C172.483 266.319 170.643 266.787 168.782 267.16C166.908 267.547 165.008 267.803 163.096 267.924C164.708 268.006 166.324 267.959 167.929 267.784L168.476 284.803L169.024 267.643C170.905 267.398 172.767 267.033 174.598 266.551C175.532 266.317 176.451 266.036 177.353 265.724L177.884 284.787L178.448 265.35C178.996 265.147 179.544 264.944 180.059 264.71C181.858 263.994 183.607 263.166 185.295 262.23L186.777 261.341L187.308 284.491L187.872 260.67C188.629 260.187 189.371 259.687 190.112 259.11C191.679 258.014 193.185 256.837 194.622 255.585C195.154 255.117 195.686 254.649 196.233 254.165L196.781 284.459L197.329 253.213C197.828 252.699 198.311 252.168 198.795 251.654C199.278 251.139 199.987 250.187 200.535 249.407C201.085 248.644 201.555 247.829 201.936 246.974C201.669 247.398 201.373 247.804 201.05 248.19Z" fill="#E9EDF1"/>
<path d="M205 292.981H160V300.981H205V292.981Z" fill="#F6F8FA"/>
<path d="M187.148 301.12V298.733L182.492 294.271L177.853 298.733V301.12H187.148Z" fill="white"/>
<path d="M204.368 320.963V321.463H204.868H207.461V329.947H157.539V321.463H160.132H160.632V320.963V303.414H204.368V320.963Z" fill="white" stroke="#E9EDF1"/>
<path d="M189.532 330.448V326.844L182.492 320.073L175.468 326.844V330.448H189.532Z" fill="#E9EDF1"/>
<path d="M207.261 281.801H157.739V289.074H207.261V281.801Z" fill="#E9EDF1"/>
<path d="M207.261 289.073H157.739V293.437H207.261V289.073Z" fill="#E9EDF1"/>
<path d="M207.397 300.808H157.586V305.004H207.397V300.808Z" fill="#E9EDF1"/>
<path d="M169.298 307.11H166.173V318.951H169.298V307.11Z" fill="#E9EDF1"/>
<path d="M178.964 307.11H175.839V318.951H178.964V307.11Z" fill="#E9EDF1"/>
<path d="M188.646 307.11H185.504V318.951H188.646V307.11Z" fill="#E9EDF1"/>
<path d="M198.296 307.11H195.154V318.951H198.296V307.11Z" fill="#E9EDF1"/>
<path d="M185.408 300.309V298.811L182.492 296.019L179.592 298.811V300.309H185.408Z" fill="#E9EDF1"/>
<path d="M186.906 329.122V326.86L182.492 322.632L178.094 326.86V329.122H186.906Z" fill="white"/>
<path d="M211.844 329.573H153.14V334.987H211.844V329.573Z" fill="#F6F8FA"/>
<path d="M216 334.646H149V339.979H216V334.646Z" fill="#E9EDF1"/>
</g>
<rect x="1269" y="161.99" width="66" height="24.9984" fill="#F0F2F3"/>
<path d="M1344 161.989H1260L1302.5 120.492L1344 161.989Z" fill="#F0F2F3"/>
<rect x="1278" y="167.988" width="13.8667" height="13.8129" fill="white" fill-opacity="0.5"/>
<rect x="1295.33" y="167.988" width="13.8667" height="13.8129" fill="white" fill-opacity="0.5"/>
<rect x="1312.67" y="167.988" width="13.8667" height="13.8129" fill="white" fill-opacity="0.5"/>
<defs>
<clipPath id="clip0_716_14290">
<rect width="67" height="239.984" fill="white" transform="translate(149 99.9941)"/>
</clipPath>
</defs>
</svg>
