<svg width="1440" height="340" viewBox="0 0 1440 340" fill="none" xmlns="http://www.w3.org/2000/svg">
<g clip-path="url(#clip0_716_18085)">
<path d="M-7.5 136.268V339.477H0.5V130.016L-7.5 136.268Z" fill="#F0F2F3" stroke="#E8EEF1"/>
<rect width="112" height="55.9964" transform="matrix(-1 0 0 1 1291 283.98)" fill="#F2F5F7"/>
<path d="M1050 229.984C1050 227.775 1048.21 225.984 1046 225.984H985C982.791 225.984 981 227.775 981 229.984V339.977H1050V229.984Z" fill="#F2F5F6"/>
<rect width="10.0135" height="10.0135" transform="matrix(-1 0 0 1 1041.8 249.145)" fill="white"/>
<rect width="10.0135" height="10.0135" transform="matrix(-1 0 0 1 1041.8 309.938)" fill="white"/>
<rect width="10.0135" height="10.0135" transform="matrix(-1 0 0 1 1041.8 234.841)" fill="white"/>
<rect width="10.0135" height="10.0135" transform="matrix(-1 0 0 1 1041.8 263.448)" fill="white"/>
<rect width="10.0135" height="10.0135" transform="matrix(-1 0 0 1 1041.8 324.241)" fill="white"/>
<rect width="10.0135" height="26.4627" transform="matrix(-1 0 0 1 1041.8 277.754)" fill="white"/>
<rect width="10.0135" height="10.0135" transform="matrix(-1 0 0 1 1027.5 249.145)" fill="white"/>
<rect width="10.0135" height="10.0135" transform="matrix(-1 0 0 1 1027.5 309.938)" fill="white"/>
<rect width="10.0135" height="10.0135" transform="matrix(-1 0 0 1 1027.5 234.841)" fill="white"/>
<rect width="10.0135" height="10.0135" transform="matrix(-1 0 0 1 1027.5 263.448)" fill="white"/>
<rect width="10.0135" height="10.0135" transform="matrix(-1 0 0 1 1027.5 324.241)" fill="white"/>
<rect width="10.0135" height="26.4627" transform="matrix(-1 0 0 1 1027.5 277.754)" fill="white"/>
<rect width="10.0135" height="10.0135" transform="matrix(-1 0 0 1 998.888 249.145)" fill="white"/>
<rect width="10.0135" height="10.0135" transform="matrix(-1 0 0 1 998.888 309.938)" fill="white"/>
<rect width="10.0135" height="10.0135" transform="matrix(-1 0 0 1 1013.19 249.145)" fill="white"/>
<rect width="10.0135" height="10.0135" transform="matrix(-1 0 0 1 1013.19 309.938)" fill="white"/>
<rect width="10.0135" height="10.0135" transform="matrix(-1 0 0 1 998.888 234.841)" fill="white"/>
<rect width="10.0135" height="10.0135" transform="matrix(-1 0 0 1 1013.19 234.841)" fill="white"/>
<rect width="10.0135" height="10.0135" transform="matrix(-1 0 0 1 998.888 263.448)" fill="white"/>
<rect width="10.0135" height="10.0135" transform="matrix(-1 0 0 1 998.888 324.241)" fill="white"/>
<rect width="10.0135" height="26.4627" transform="matrix(-1 0 0 1 998.888 277.754)" fill="white"/>
<rect width="10.0135" height="10.0135" transform="matrix(-1 0 0 1 1013.19 263.448)" fill="white"/>
<rect width="10.0135" height="10.0135" transform="matrix(-1 0 0 1 1013.19 324.241)" fill="white"/>
<rect width="10.0135" height="26.4627" transform="matrix(-1 0 0 1 1013.19 277.754)" fill="white"/>
<path d="M1179.13 128.99L1114.76 150.446V339.976H1179.13V128.99Z" fill="#F2F5F7"/>
<rect width="10.0135" height="10.0135" transform="matrix(-1 0 0 1 1219.9 309.938)" fill="white"/>
<rect width="10.0135" height="10.0135" transform="matrix(-1 0 0 1 1235.9 309.938)" fill="white"/>
<rect width="10.0135" height="10.0135" transform="matrix(-1 0 0 1 1251.9 309.938)" fill="white"/>
<rect width="10.0135" height="10.0135" transform="matrix(-1 0 0 1 1267.9 309.938)" fill="white"/>
<rect width="10.0135" height="10.0135" transform="matrix(-1 0 0 1 1283.9 309.938)" fill="white"/>
<rect width="10.0135" height="10.0135" transform="matrix(-1 0 0 1 1173.41 171.188)" fill="white"/>
<rect width="10.0135" height="10.0135" transform="matrix(-1 0 0 1 1219.9 295.634)" fill="white"/>
<rect width="10.0135" height="10.0135" transform="matrix(-1 0 0 1 1235.9 295.634)" fill="white"/>
<rect width="10.0135" height="10.0135" transform="matrix(-1 0 0 1 1251.9 295.634)" fill="white"/>
<rect width="10.0135" height="10.0135" transform="matrix(-1 0 0 1 1267.9 295.634)" fill="white"/>
<rect width="10.0135" height="10.0135" transform="matrix(-1 0 0 1 1283.9 295.634)" fill="white"/>
<rect width="10.0135" height="10.0135" transform="matrix(-1 0 0 1 1173.41 156.883)" fill="white"/>
<rect width="10.0135" height="10.0135" transform="matrix(-1 0 0 1 1219.9 324.241)" fill="white"/>
<rect width="10.0135" height="10.0135" transform="matrix(-1 0 0 1 1235.9 324.241)" fill="white"/>
<rect width="10.0135" height="10.0135" transform="matrix(-1 0 0 1 1251.9 324.241)" fill="white"/>
<rect width="10.0135" height="10.0135" transform="matrix(-1 0 0 1 1267.9 324.241)" fill="white"/>
<rect width="10.0135" height="10.0135" transform="matrix(-1 0 0 1 1283.9 324.241)" fill="white"/>
<rect width="10.0135" height="10.0135" transform="matrix(-1 0 0 1 1173.41 185.492)" fill="white"/>
<rect width="10.0135" height="10.0135" transform="matrix(-1 0 0 1 1173.41 199.796)" fill="white"/>
<rect width="52.9288" height="5.72203" transform="matrix(-1 0 0 1 1173.41 218.393)" fill="white"/>
<rect width="52.9288" height="5.72203" transform="matrix(-1 0 0 1 1173.41 228.403)" fill="white"/>
<rect width="52.9288" height="5.72203" transform="matrix(-1 0 0 1 1173.41 238.417)" fill="white"/>
<rect width="52.9288" height="5.72203" transform="matrix(-1 0 0 1 1173.41 248.43)" fill="white"/>
<rect width="52.9288" height="5.72203" transform="matrix(-1 0 0 1 1173.41 258.442)" fill="white"/>
<rect width="52.9288" height="5.72203" transform="matrix(-1 0 0 1 1173.41 268.456)" fill="white"/>
<rect width="52.9288" height="5.72203" transform="matrix(-1 0 0 1 1173.41 278.469)" fill="white"/>
<rect width="52.9288" height="5.72203" transform="matrix(-1 0 0 1 1173.41 288.479)" fill="white"/>
<rect width="52.9288" height="5.72203" transform="matrix(-1 0 0 1 1173.41 298.495)" fill="white"/>
<rect width="52.9288" height="5.72203" transform="matrix(-1 0 0 1 1173.41 308.508)" fill="white"/>
<rect width="52.9288" height="5.72203" transform="matrix(-1 0 0 1 1173.41 318.521)" fill="white"/>
<rect width="52.9288" height="5.72203" transform="matrix(-1 0 0 1 1173.41 328.534)" fill="white"/>
<rect width="10.0135" height="10.0135" transform="matrix(-1 0 0 1 1207.03 309.938)" fill="white"/>
<rect width="10.0135" height="10.0135" transform="matrix(-1 0 0 1 1159.1 171.188)" fill="white"/>
<rect width="10.0135" height="10.0135" transform="matrix(-1 0 0 1 1207.03 295.634)" fill="white"/>
<rect width="10.0135" height="10.0135" transform="matrix(-1 0 0 1 1159.1 156.883)" fill="white"/>
<rect width="10.0135" height="10.0135" transform="matrix(-1 0 0 1 1207.03 324.241)" fill="white"/>
<rect width="10.0135" height="10.0135" transform="matrix(-1 0 0 1 1159.1 185.492)" fill="white"/>
<rect width="10.0135" height="10.0135" transform="matrix(-1 0 0 1 1159.1 199.796)" fill="white"/>
<rect width="10.0135" height="10.0135" transform="matrix(-1 0 0 1 1194.15 309.938)" fill="white"/>
<rect width="10.0135" height="10.0135" transform="matrix(-1 0 0 1 1130.5 171.188)" fill="white"/>
<rect width="10.0135" height="10.0135" transform="matrix(-1 0 0 1 1144.8 171.188)" fill="white"/>
<rect width="10.0135" height="10.0135" transform="matrix(-1 0 0 1 1194.15 295.634)" fill="white"/>
<rect width="10.0135" height="10.0135" transform="matrix(-1 0 0 1 1130.5 156.883)" fill="white"/>
<rect width="10.0135" height="10.0135" transform="matrix(-1 0 0 1 1144.8 156.883)" fill="white"/>
<rect width="10.0135" height="10.0135" transform="matrix(-1 0 0 1 1194.15 324.241)" fill="white"/>
<rect width="10.0135" height="10.0135" transform="matrix(-1 0 0 1 1130.5 185.492)" fill="white"/>
<rect width="10.0135" height="10.0135" transform="matrix(-1 0 0 1 1130.5 199.796)" fill="white"/>
<rect width="10.0135" height="10.0135" transform="matrix(-1 0 0 1 1144.8 185.492)" fill="white"/>
<rect width="10.0135" height="10.0135" transform="matrix(-1 0 0 1 1144.8 199.796)" fill="white"/>
<rect width="64.3728" height="8.58304" transform="matrix(-1 0 0 1 1114.76 300.64)" fill="#F2F5F7"/>
<rect width="64.3728" height="1.43051" transform="matrix(-1 0 0 1 1114.76 278.469)" fill="#F2F5F7"/>
<rect width="1.43051" height="20.741" transform="matrix(-1 0 0 1 1106.18 279.898)" fill="#F2F5F7"/>
<rect width="1.43051" height="20.741" transform="matrix(-1 0 0 1 1096.88 279.898)" fill="#F2F5F7"/>
<rect width="1.43051" height="20.741" transform="matrix(-1 0 0 1 1087.58 279.898)" fill="#F2F5F7"/>
<rect width="1.43051" height="20.741" transform="matrix(-1 0 0 1 1078.28 279.898)" fill="#F2F5F7"/>
<rect width="1.43051" height="20.741" transform="matrix(-1 0 0 1 1068.98 279.898)" fill="#F2F5F7"/>
<rect width="1.43051" height="20.741" transform="matrix(-1 0 0 1 1059.68 279.898)" fill="#F2F5F7"/>
<rect width="1.83951" height="29.3834" rx="0.919753" transform="matrix(-1 0 0 1 1366.42 0)" fill="#F0F2F3"/>
<path d="M1418.51 125.869C1418.51 125.317 1418.06 124.869 1417.51 124.869H1380.07V282.682H1418.51V125.869Z" fill="white" stroke="#4A4A4A" stroke-width="2"/>
<path d="M1312.49 125.869C1312.49 125.317 1312.94 124.869 1313.49 124.869H1350.93V282.682H1312.49V125.869Z" fill="#EBEBEB" stroke="#4A4A4A" stroke-width="2"/>
<path fill-rule="evenodd" clip-rule="evenodd" d="M1370.21 29.6445C1370.21 28.54 1369.31 27.6445 1368.21 27.6445H1362.79C1361.69 27.6445 1360.79 28.54 1360.79 29.6445V47.7429H1344.51C1343.4 47.7429 1342.51 48.6383 1342.51 49.7429V78.9635H1326.11C1325.01 78.9635 1324.11 79.859 1324.11 80.9635V123.865H1313.49C1312.39 123.865 1311.49 124.76 1311.49 125.865V282.812H1293C1291.9 282.812 1291 283.707 1291 284.812V339.742H1440V284.812C1440 283.707 1439.1 282.812 1438 282.812H1419.51V125.865C1419.51 124.76 1418.61 123.865 1417.51 123.865H1406.89V80.9635C1406.89 79.859 1405.99 78.9635 1404.89 78.9635H1388.49V49.7429C1388.49 48.6383 1387.6 47.7429 1386.49 47.7429H1370.21V29.6445Z" fill="#F0F2F3"/>
<rect width="3.67901" height="34.8927" transform="matrix(-1 0 0 1 1430.8 293.832)" fill="white"/>
<rect width="3.67901" height="34.8927" transform="matrix(-1 0 0 1 1348.02 293.832)" fill="white"/>
<rect width="3.67901" height="34.8927" transform="matrix(-1 0 0 1 1423.44 293.832)" fill="white"/>
<rect width="3.67901" height="34.8927" transform="matrix(-1 0 0 1 1340.67 293.832)" fill="white"/>
<rect width="3.67901" height="34.8927" transform="matrix(-1 0 0 1 1416.09 293.832)" fill="white"/>
<rect width="3.67901" height="34.8927" transform="matrix(-1 0 0 1 1333.31 293.832)" fill="white"/>
<rect width="3.67901" height="34.8927" transform="matrix(-1 0 0 1 1408.73 293.832)" fill="white"/>
<rect width="3.67901" height="34.8927" transform="matrix(-1 0 0 1 1325.95 293.832)" fill="white"/>
<rect width="3.67901" height="34.8927" transform="matrix(-1 0 0 1 1401.37 293.832)" fill="white"/>
<rect width="3.67901" height="34.8927" transform="matrix(-1 0 0 1 1318.59 293.832)" fill="white"/>
<rect width="3.67901" height="34.8927" transform="matrix(-1 0 0 1 1394.01 293.832)" fill="white"/>
<rect width="3.67901" height="34.8927" transform="matrix(-1 0 0 1 1311.23 293.832)" fill="white"/>
<rect width="3.67901" height="34.8927" transform="matrix(-1 0 0 1 1386.65 293.832)" fill="white"/>
<path d="M1373 314.479C1373 311.994 1370.99 309.979 1368.5 309.979H1362.5C1360.01 309.979 1358 311.994 1358 314.479V339.978H1373V314.479Z" fill="white"/>
<path d="M1370.1 317.71H1360.9V339.747H1370.1V317.71Z" fill="#F0F2F3"/>
<rect width="3.67901" height="34.8927" transform="matrix(-1 0 0 1 1303.88 293.832)" fill="white"/>
<rect width="1.83951" height="20.2011" transform="matrix(-1 0 0 1 1384.81 53.2559)" fill="white"/>
<rect width="1.83951" height="20.2011" transform="matrix(-1 0 0 1 1381.14 53.2559)" fill="white"/>
<rect width="1.83951" height="20.2011" transform="matrix(-1 0 0 1 1377.46 53.2559)" fill="white"/>
<rect width="1.83951" height="20.2011" transform="matrix(-1 0 0 1 1373.78 53.2559)" fill="white"/>
<rect width="1.83951" height="20.2011" transform="matrix(-1 0 0 1 1370.1 53.2559)" fill="white"/>
<rect width="1.83951" height="20.2011" transform="matrix(-1 0 0 1 1366.42 53.2559)" fill="white"/>
<rect width="1.83951" height="20.2011" transform="matrix(-1 0 0 1 1362.74 53.2559)" fill="white"/>
<rect width="1.83951" height="20.2011" transform="matrix(-1 0 0 1 1359.06 53.2559)" fill="white"/>
<rect width="1.83951" height="20.2011" transform="matrix(-1 0 0 1 1355.38 53.2559)" fill="white"/>
<rect width="1.83951" height="20.2011" transform="matrix(-1 0 0 1 1351.7 53.2559)" fill="white"/>
<rect width="1.83951" height="20.2011" transform="matrix(-1 0 0 1 1348.02 53.2559)" fill="white"/>
<rect width="8.27778" height="27.5469" transform="matrix(-1 0 0 1 1399.53 88.1504)" fill="white"/>
<rect width="8.27778" height="27.5469" transform="matrix(-1 0 0 1 1387.57 88.1504)" fill="white"/>
<rect width="8.27778" height="27.5469" transform="matrix(-1 0 0 1 1375.62 88.1504)" fill="white"/>
<rect width="8.27778" height="27.5469" transform="matrix(-1 0 0 1 1363.66 88.1504)" fill="white"/>
<rect width="8.27778" height="27.5469" transform="matrix(-1 0 0 1 1351.7 88.1504)" fill="white"/>
<rect width="8.27778" height="27.5469" transform="matrix(-1 0 0 1 1339.75 88.1504)" fill="white"/>
<rect width="6.13169" height="128.552" transform="matrix(-1 0 0 1 1412.41 139.573)" fill="white"/>
<rect width="6.13169" height="128.552" transform="matrix(-1 0 0 1 1344.35 139.573)" fill="white"/>
<rect width="6.13169" height="128.552" transform="matrix(-1 0 0 1 1402.6 139.573)" fill="white"/>
<rect width="6.13169" height="128.552" transform="matrix(-1 0 0 1 1334.54 139.573)" fill="white"/>
<rect width="6.13169" height="128.552" transform="matrix(-1 0 0 1 1392.79 139.573)" fill="white"/>
<rect width="6.13169" height="128.552" transform="matrix(-1 0 0 1 1324.72 139.573)" fill="white"/>
<rect width="2.75926" height="159.772" transform="matrix(-1 0 0 1 1372.4 139.569)" fill="white"/>
<rect width="2.75926" height="159.772" transform="matrix(-1 0 0 1 1366.88 139.569)" fill="white"/>
<rect width="2.75926" height="159.772" transform="matrix(-1 0 0 1 1361.36 139.569)" fill="white"/>
<g clip-path="url(#clip1_716_18085)">
<path d="M1234.04 104.097C1233.39 106.094 1232.43 105.657 1232.43 105.657C1233.28 103.255 1232.43 102.334 1232.43 102.334C1231.94 103.972 1230.94 103.894 1230.94 103.894C1231.18 103.217 1231.2 102.489 1231.02 101.797C1230.84 101.105 1230.45 100.479 1229.91 99.9941C1230.05 100.509 1230.04 101.05 1229.88 101.559C1229.72 102.067 1229.42 102.524 1229.01 102.88C1228.56 103.317 1228.04 101.227 1228.04 101.227C1227.52 102.11 1227.22 103.098 1227.16 104.113C1227.1 105.128 1227.29 106.143 1227.71 107.077C1227.42 106.81 1227.21 106.48 1227.09 106.116C1226.96 105.752 1226.93 105.364 1227 104.986C1226.26 105.742 1225.69 106.642 1225.34 107.627C1224.98 108.612 1224.85 109.658 1224.95 110.696C1225.16 111.743 1225.74 112.685 1226.6 113.351C1227.46 114.017 1228.54 114.365 1229.64 114.331C1231.97 114.331 1234.47 113.067 1234.87 110.837C1235.66 106.234 1234.04 104.097 1234.04 104.097Z" fill="#E9EDF1"/>
<path d="M1284.05 188.81L1284.12 188.967L1284.29 189.04C1284.54 189.157 1284.77 189.329 1284.94 189.542C1285.12 189.755 1285.24 190.003 1285.3 190.267C1285.36 190.53 1285.36 190.804 1285.29 191.066C1285.23 191.328 1285.1 191.574 1284.92 191.783L1284.87 191.839L1284.84 191.906L1285.3 192.11L1284.84 191.906L1284.84 191.906L1284.84 191.906L1284.84 191.907L1284.84 191.911L1284.83 191.928L1284.8 191.993C1284.78 192.05 1284.74 192.132 1284.69 192.233C1284.6 192.436 1284.47 192.717 1284.33 193.028C1284.04 193.652 1283.7 194.388 1283.45 194.86L1283.45 194.86L1283.45 194.867C1283.17 195.416 1283 195.56 1282.75 195.774C1282.63 195.877 1282.49 195.998 1282.3 196.189C1281.78 196.739 1281.17 197.701 1280.21 200.248C1279.96 200.891 1279.76 201.495 1279.57 202.051C1279.54 202.152 1279.5 202.252 1279.47 202.35C1279.32 202.79 1279.19 203.193 1279.06 203.563C1278.72 204.482 1278.42 205.101 1278.03 205.477C1277.68 205.815 1277.22 205.996 1276.42 205.906C1275.64 205.817 1274.59 205.471 1273.11 204.782C1273.1 204.623 1273.09 204.405 1273.08 204.134C1273.06 203.521 1273.02 202.637 1272.98 201.548C1272.88 199.37 1272.74 196.375 1272.55 193.105C1272.26 188.129 1271.86 182.496 1271.35 178.14C1271.62 178.678 1271.92 179.247 1272.24 179.821C1272.98 181.111 1273.86 182.444 1274.87 183.508C1275.87 184.564 1277.03 185.406 1278.32 185.615L1278.32 185.615C1280.96 186.03 1283.16 187.053 1284.05 188.81Z" fill="#F6F8FA" stroke="#E9EDF1"/>
<path d="M1271.3 178.117C1271.57 178.989 1271.92 179.839 1272.33 180.66C1272.72 181.478 1273.19 182.256 1273.73 182.985C1274.28 183.701 1274.94 184.336 1275.68 184.872C1276.45 185.39 1277.29 185.78 1278.19 186.027C1277.24 185.933 1276.32 185.629 1275.5 185.137C1274.69 184.63 1273.98 183.985 1273.41 183.234C1272.27 181.732 1271.56 179.968 1271.35 178.117H1271.3Z" fill="#E9EDF1"/>
<path d="M1269.98 180.488C1270.16 181.021 1270.38 181.543 1270.64 182.048C1270.87 182.534 1271.16 182.994 1271.49 183.421C1271.81 183.853 1272.2 184.236 1272.64 184.56C1273.09 184.883 1273.6 185.135 1274.13 185.309C1273.56 185.277 1273.01 185.111 1272.52 184.825C1272.01 184.525 1271.57 184.133 1271.22 183.671C1270.86 183.194 1270.59 182.668 1270.4 182.111C1270.17 181.594 1270.03 181.047 1269.98 180.488Z" fill="#E9EDF1"/>
<path d="M1274.84 205.011C1275.24 205.153 1275.66 205.222 1276.08 205.214C1276.47 205.19 1276.83 205.041 1277.11 204.793C1277.41 204.522 1277.64 204.199 1277.81 203.841C1277.99 203.466 1278.16 203.08 1278.31 202.687C1278.32 203.116 1278.26 203.544 1278.11 203.95C1277.99 204.385 1277.74 204.779 1277.4 205.089C1277.22 205.247 1277.01 205.369 1276.78 205.448C1276.55 205.513 1276.31 205.539 1276.07 205.526C1275.61 205.48 1275.19 205.3 1274.84 205.011Z" fill="#E9EDF1"/>
<path d="M1278.82 201.657L1268.67 198.023L1278.4 177.649L1287.96 181.378L1278.82 201.657Z" fill="#F6F8FA"/>
<path d="M1263.15 143.86L1273.94 144.094L1263.39 145.467L1263.15 143.86Z" fill="#E9EDF1"/>
<path d="M1262.05 141.661L1269.16 135.593L1260.79 140.273L1262.05 141.661Z" fill="#E9EDF1"/>
<path d="M1258.75 138.822L1263.65 132.113L1256.77 138.244L1258.75 138.822Z" fill="#E9EDF1"/>
<path d="M1245.49 144.048L1234.7 144.266L1245.25 145.655L1245.49 144.048Z" fill="#E9EDF1"/>
<path d="M1246.18 142.363L1238.11 137.573L1247.17 140.787L1246.18 142.363Z" fill="#E9EDF1"/>
<path d="M1249.24 139.243L1243.56 133.159L1251.14 138.448L1249.24 139.243Z" fill="#E9EDF1"/>
<path d="M1253.22 138.136L1254.42 129.634L1255.48 138.136H1253.22Z" fill="#E9EDF1"/>
<path d="M1265.6 162.439C1265.58 162.434 1265.57 162.427 1265.55 162.419C1265.54 162.407 1265.51 162.391 1265.49 162.371C1265.42 162.329 1265.34 162.27 1265.23 162.206C1265.03 162.08 1264.75 161.919 1264.45 161.814C1264.31 161.762 1264.14 161.717 1263.97 161.706C1263.8 161.694 1263.59 161.713 1263.39 161.827C1262.95 162.084 1262.89 162.597 1262.96 163.067C1263.02 163.562 1263.22 164.111 1263.44 164.635C1263.61 165.021 1263.8 165.421 1263.98 165.798C1264.04 165.935 1264.11 166.069 1264.17 166.199C1264.4 166.701 1264.59 167.125 1264.67 167.448C1264.69 167.515 1264.7 167.571 1264.71 167.618H1243.7C1243.71 167.574 1243.72 167.523 1243.73 167.463C1243.83 167.141 1244.03 166.718 1244.28 166.217C1244.34 166.083 1244.42 165.945 1244.49 165.804C1244.68 165.431 1244.88 165.036 1245.05 164.654C1245.3 164.13 1245.51 163.581 1245.6 163.084C1245.68 162.62 1245.64 162.091 1245.2 161.824C1245 161.705 1244.79 161.687 1244.62 161.699C1244.44 161.711 1244.28 161.756 1244.13 161.808C1243.83 161.913 1243.54 162.075 1243.33 162.202C1243.23 162.267 1243.14 162.325 1243.08 162.368C1243.05 162.387 1243.03 162.403 1243.01 162.415C1242.97 162.435 1242.93 162.446 1242.91 162.452C1242.89 162.409 1242.87 162.331 1242.85 162.209C1242.84 162.063 1242.84 161.883 1242.85 161.677C1242.88 161.266 1242.98 160.794 1243.11 160.371C1243.24 159.937 1243.39 159.605 1243.51 159.444C1243.56 159.375 1243.62 159.299 1243.68 159.221C1243.78 159.088 1243.89 158.95 1243.97 158.831C1244.12 158.609 1244.24 158.36 1244.3 158.037C1244.4 157.424 1244.25 156.634 1243.8 155.35L1243.8 155.35L1243.8 155.338C1243.07 153.373 1243.65 151.352 1244.48 149.764C1244.89 148.976 1245.35 148.317 1245.7 147.853C1245.88 147.622 1246.03 147.441 1246.14 147.319C1246.15 147.311 1246.15 147.303 1246.16 147.295L1261.98 147.416C1262 147.428 1262.01 147.44 1262.02 147.453C1262.13 147.572 1262.29 147.749 1262.48 147.974C1262.86 148.426 1263.35 149.071 1263.79 149.844C1264.69 151.404 1265.34 153.392 1264.67 155.351C1264.23 156.636 1264.07 157.426 1264.18 158.039C1264.24 158.361 1264.37 158.609 1264.51 158.83C1264.59 158.936 1264.66 159.039 1264.74 159.136C1264.75 159.15 1264.76 159.164 1264.77 159.178C1264.83 159.263 1264.9 159.347 1264.96 159.439C1265.08 159.602 1265.23 159.936 1265.36 160.372C1265.49 160.796 1265.59 161.27 1265.63 161.684C1265.65 161.891 1265.65 162.073 1265.64 162.221C1265.63 162.321 1265.61 162.391 1265.6 162.439Z" fill="#F6F8FA" stroke="#E9EDF1"/>
<path d="M1246.13 146.997C1246.13 146.997 1245.51 141.49 1254.43 141.661C1254.43 141.661 1262.15 140.897 1262.12 146.95L1263.63 145.858C1263.63 145.858 1263.76 138.057 1254.66 137.855C1254.66 137.855 1245.57 137.137 1244.99 146.045L1246.13 146.997Z" fill="#E9EDF1"/>
<path d="M1251.22 161.193L1251.25 160.89L1251 160.725C1249.87 159.996 1248.94 159.02 1248.28 157.877C1247.62 156.735 1247.25 155.459 1247.2 154.153C1247.14 152.385 1247.1 150.822 1247.08 149.525C1247.07 149.298 1247.07 149.079 1247.06 148.869C1247.03 147.472 1247.01 146.417 1246.94 145.848C1246.86 145.112 1247.23 144.191 1248.41 143.421C1249.59 142.647 1251.58 142.052 1254.61 142.052C1257.58 142.052 1259.32 142.836 1260.3 143.811C1261.28 144.785 1261.58 146.022 1261.55 147.082C1261.5 147.829 1261.37 148.399 1261.21 149.142C1261.17 149.324 1261.12 149.516 1261.08 149.723C1260.85 150.775 1260.6 152.152 1260.42 154.447L1260.42 154.466L1260.42 154.484C1260.42 155.766 1260.08 157.027 1259.43 158.145C1258.78 159.264 1257.85 160.203 1256.71 160.869L1256.44 161.028L1256.46 161.34L1256.84 166.089H1250.75L1251.22 161.193Z" fill="white" stroke="#E9EDF1"/>
<path d="M1245.83 164.862L1245.89 165.207L1246.24 165.271C1250.31 166.027 1254.44 166.504 1258.58 166.699L1258.59 166.699H1258.6C1259.61 166.699 1260.98 166.727 1262.37 167.009C1263.77 167.291 1265.16 167.822 1266.24 168.801C1269.03 171.318 1270.99 176.333 1271.18 181.49L1271.18 181.491C1271.37 186.241 1271.62 192.016 1272.19 197.386C1272.75 202.74 1273.63 207.758 1275.1 210.96C1275.78 212.449 1276.24 214.577 1276.54 216.967C1276.85 219.347 1276.99 221.949 1277.04 224.365C1277.09 226.78 1277.05 229.001 1277 230.62C1276.98 231.429 1276.95 232.086 1276.93 232.541C1276.92 232.765 1276.91 232.94 1276.9 233.059L1275.7 234.266L1275.53 234.431L1275.55 234.662L1276.05 234.619C1275.55 234.662 1275.55 234.662 1275.55 234.663L1275.55 234.663L1275.55 234.666L1275.55 234.679L1275.56 234.728C1275.56 234.772 1275.57 234.837 1275.57 234.922C1275.59 235.094 1275.61 235.347 1275.63 235.673C1275.68 236.325 1275.75 237.27 1275.82 238.437C1275.97 240.773 1276.13 244 1276.2 247.565C1276.35 254.717 1276.13 263.162 1274.73 268.531L1274.69 268.662L1274.73 268.792L1274.73 268.792L1274.73 268.793L1274.73 268.797L1274.74 268.814L1274.76 268.884C1274.77 268.945 1274.8 269.037 1274.83 269.155C1274.89 269.391 1274.98 269.735 1275.08 270.163C1275.28 271.018 1275.54 272.205 1275.77 273.531C1276.23 276.209 1276.55 279.371 1276.06 281.543L1276.03 281.663L1276.07 281.781C1276.63 283.883 1277.87 285.744 1279.58 287.106C1279.19 287.197 1278.69 287.305 1278.12 287.419C1276.57 287.727 1274.42 288.076 1272.06 288.245C1269.7 288.414 1267.14 288.4 1264.73 287.989C1262.32 287.577 1260.11 286.772 1258.42 285.385C1258.01 285.041 1257.5 284.926 1256.96 284.936C1256.43 284.945 1255.84 285.075 1255.21 285.264C1254.49 285.48 1253.64 285.798 1252.72 286.144C1252.06 286.392 1251.36 286.654 1250.64 286.905C1247.23 288.091 1242.96 289.159 1238.11 288.021C1238.18 287.742 1238.26 287.342 1238.34 286.775C1238.52 285.407 1238.69 283.042 1238.64 279.013C1238.64 278.289 1238.5 277.507 1238.33 276.711C1238.29 276.513 1238.24 276.313 1238.2 276.111C1238.06 275.49 1237.92 274.853 1237.81 274.185C1237.53 272.433 1237.5 270.554 1238.43 268.591L1238.52 268.42L1238.46 268.239C1237.04 263.296 1237.39 258.034 1239.44 253.304L1239.48 253.22L1239.48 253.129L1238.98 253.105C1239.48 253.129 1239.48 253.129 1239.48 253.128L1239.48 253.127L1239.48 253.124L1239.48 253.108L1239.49 253.049L1239.5 252.816C1239.51 252.612 1239.52 252.312 1239.54 251.93C1239.57 251.165 1239.61 250.07 1239.66 248.745C1239.75 246.096 1239.86 242.529 1239.9 238.86C1239.94 235.192 1239.92 231.415 1239.76 228.347C1239.68 226.814 1239.57 225.449 1239.41 224.359C1239.33 223.814 1239.24 223.33 1239.13 222.925C1239.03 222.548 1238.91 222.211 1238.76 221.951C1238.75 221.932 1238.74 221.907 1238.73 221.875C1238.7 221.797 1238.66 221.682 1238.6 221.532C1238.5 221.233 1238.35 220.796 1238.19 220.253C1237.86 219.165 1237.47 217.653 1237.19 215.954C1236.63 212.524 1236.58 208.46 1238.41 205.542L1238.75 204.998L1238.14 204.801L1238.14 204.801L1238.14 204.801L1238.14 204.801L1238.14 204.8L1238.13 204.797C1238.12 204.796 1238.12 204.794 1238.11 204.792C1238.11 204.789 1238.09 204.786 1238.08 204.781C1238.04 204.766 1237.98 204.742 1237.9 204.709C1237.74 204.643 1237.51 204.539 1237.24 204.393C1236.71 204.099 1236.03 203.641 1235.43 202.977C1234.84 202.317 1234.34 201.457 1234.15 200.346C1233.95 199.241 1234.06 197.853 1234.73 196.125L1234.76 196.077C1234.78 196.029 1234.82 195.959 1234.87 195.869C1234.96 195.69 1235.09 195.433 1235.24 195.118C1235.56 194.488 1235.96 193.627 1236.36 192.702C1236.75 191.78 1237.14 190.783 1237.39 189.886C1237.52 189.437 1237.61 189.004 1237.66 188.61C1237.71 188.223 1237.71 187.84 1237.63 187.509C1237.48 186.929 1237.12 186.454 1236.78 186.005C1236.76 185.986 1236.75 185.967 1236.73 185.948C1236.36 185.463 1235.96 184.934 1235.63 184.179C1234.97 182.68 1234.54 180.191 1235.45 175.371L1235.49 175.126L1235.32 174.942L1235.32 174.942L1235.32 174.942L1235.32 174.942L1235.32 174.941L1235.32 174.932C1235.31 174.923 1235.3 174.909 1235.28 174.89C1235.25 174.852 1235.2 174.793 1235.14 174.713C1235.01 174.553 1234.83 174.311 1234.62 173.989C1234.2 173.344 1233.65 172.381 1233.16 171.12C1232.19 168.622 1231.46 164.945 1232.41 160.239C1232.45 160.188 1232.51 160.116 1232.58 160.027C1232.74 159.833 1232.97 159.556 1233.26 159.226C1233.85 158.566 1234.65 157.699 1235.57 156.868C1236.49 156.034 1237.49 155.253 1238.47 154.746C1239.39 154.266 1240.21 154.073 1240.88 154.225C1243.47 157.286 1245.18 160.956 1245.83 164.862Z" fill="#F6F8FA" stroke="#E9EDF1"/>
<path d="M1240.38 153.91C1240.67 153.916 1240.81 153.998 1240.9 154.1C1240.98 154.204 1241.04 154.382 1241 154.695C1240.95 155.012 1240.79 155.414 1240.51 155.878C1239.96 156.803 1239 157.878 1237.75 158.865C1236.51 159.849 1235.22 160.536 1234.15 160.862C1233.62 161.025 1233.17 161.09 1232.82 161.07C1232.48 161.051 1232.3 160.952 1232.21 160.851C1232.21 160.851 1232.21 160.851 1232.21 160.851C1232.21 160.851 1232.15 160.762 1232.23 160.455C1232.31 160.154 1232.5 159.756 1232.81 159.292C1233.42 158.368 1234.43 157.269 1235.71 156.284C1237.01 155.284 1238.23 154.544 1239.21 154.172C1239.69 153.986 1240.09 153.905 1240.38 153.91Z" fill="#F2F2F2" stroke="#E9EDF1"/>
<path d="M1232.06 127.544H1228.29L1227.48 114.158L1232.65 114.143L1232.06 127.544Z" fill="#E9EDF1"/>
<path d="M1236.01 139.278L1236.01 139.275C1235.8 138.319 1235.55 137.196 1235.29 136.008C1234.95 134.468 1234.58 132.817 1234.23 131.277C1233.93 129.917 1233.63 128.652 1233.38 127.641C1233.13 126.617 1232.93 125.885 1232.81 125.568L1232.78 125.482V125.391C1232.78 124.967 1232.81 124.598 1232.85 124.334C1232.86 124.201 1232.88 124.095 1232.9 124.02C1232.9 123.982 1232.91 123.953 1232.91 123.932L1232.92 123.907L1232.92 123.9L1232.92 123.898L1232.92 123.897L1232.92 123.896L1232.92 123.896C1232.92 123.896 1232.92 123.896 1233.41 124.002L1232.92 123.896L1232.92 123.892C1233.42 121.684 1233.2 120.206 1232.88 119.291L1232.55 127.532L1232.54 128.012H1232.05H1229.61C1229.7 129.096 1229.77 130.277 1229.85 131.495C1229.99 133.914 1230.15 136.481 1230.49 138.733L1236.01 139.278ZM1236.01 139.278C1236.52 141.452 1237.42 145.928 1238.2 149.869C1238.58 151.838 1238.94 153.671 1239.2 155.011C1239.33 155.681 1239.43 156.228 1239.51 156.607L1239.57 156.941M1236.01 139.278L1239.57 156.941M1234.75 160.553C1234.74 160.525 1234.73 160.495 1234.73 160.464C1234.64 160.065 1234.51 159.484 1234.35 158.762C1234.04 157.316 1233.61 155.302 1233.14 153.028C1232.2 148.476 1231.11 142.891 1230.49 138.733L1234.75 160.553ZM1234.75 160.553C1235.13 160.404 1235.55 160.182 1235.98 159.907C1236.6 159.514 1237.23 159.035 1237.79 158.566C1238.35 158.097 1238.84 157.644 1239.19 157.308C1239.35 157.159 1239.48 157.034 1239.57 156.941M1234.75 160.553L1239.57 156.941" fill="#F6F8FA" stroke="#E9EDF1"/>
<path d="M1230.44 117.84C1230.45 117.907 1230.43 117.973 1230.41 118.036C1230.38 118.098 1230.35 118.155 1230.3 118.203C1230.25 118.251 1230.19 118.289 1230.13 118.315C1230.07 118.341 1230 118.355 1229.93 118.355H1227.22C1227.08 118.351 1226.95 118.295 1226.86 118.199C1226.76 118.103 1226.71 117.974 1226.71 117.84C1226.71 117.706 1226.76 117.578 1226.86 117.481C1226.95 117.385 1227.08 117.329 1227.22 117.325H1229.96C1230.03 117.325 1230.1 117.339 1230.16 117.365C1230.23 117.391 1230.28 117.429 1230.33 117.477C1230.38 117.525 1230.42 117.582 1230.44 117.644C1230.47 117.707 1230.48 117.773 1230.48 117.84H1230.44Z" fill="#F6F8FA"/>
<path d="M1230.94 118.932C1230.94 119.08 1230.89 119.222 1230.78 119.329C1230.68 119.437 1230.53 119.501 1230.38 119.509H1227.38C1227.23 119.501 1227.09 119.436 1226.99 119.328C1226.89 119.22 1226.83 119.078 1226.84 118.932C1226.83 118.785 1226.89 118.643 1226.99 118.535C1227.09 118.427 1227.23 118.363 1227.38 118.354H1230.44C1230.6 118.362 1230.74 118.427 1230.84 118.534C1230.95 118.642 1231.01 118.784 1231.01 118.932H1230.94Z" fill="#F6F8FA"/>
<path d="M1230.83 120.086C1230.83 120.228 1230.78 120.367 1230.68 120.471C1230.58 120.576 1230.45 120.64 1230.3 120.648H1227.48C1227.41 120.644 1227.34 120.626 1227.27 120.596C1227.21 120.565 1227.15 120.523 1227.1 120.47C1227.05 120.418 1227.02 120.357 1226.99 120.292C1226.97 120.226 1226.96 120.156 1226.96 120.086C1226.96 120.016 1226.97 119.947 1226.99 119.881C1227.02 119.815 1227.05 119.754 1227.1 119.702C1227.15 119.649 1227.21 119.607 1227.27 119.576C1227.34 119.546 1227.41 119.528 1227.48 119.524H1230.3C1230.45 119.532 1230.58 119.596 1230.68 119.701C1230.78 119.805 1230.83 119.944 1230.83 120.086Z" fill="#F6F8FA"/>
<path d="M1230.44 121.195C1230.45 121.316 1230.42 121.436 1230.34 121.531C1230.26 121.626 1230.15 121.69 1230.03 121.709H1227.71C1227.64 121.707 1227.57 121.692 1227.51 121.665C1227.45 121.638 1227.4 121.599 1227.35 121.551C1227.31 121.503 1227.27 121.447 1227.25 121.386C1227.23 121.324 1227.22 121.259 1227.22 121.195C1227.21 121.073 1227.25 120.953 1227.33 120.858C1227.41 120.763 1227.52 120.699 1227.64 120.68H1229.96C1230.08 120.699 1230.2 120.763 1230.27 120.858C1230.35 120.953 1230.39 121.073 1230.38 121.195H1230.44Z" fill="#F6F8FA"/>
<path d="M1259.93 143.657L1261.8 142.658L1260.22 144.062L1259.93 143.657Z" fill="#E9EDF1"/>
<path d="M1261.73 144.828L1263.48 144.438L1261.92 145.28L1261.73 144.828Z" fill="#E9EDF1"/>
<path d="M1257.5 142.45L1259.53 140.719L1257.87 142.778L1257.5 142.45Z" fill="#E9EDF1"/>
<path d="M1255.56 142.886L1257.36 140.234L1255.99 143.12L1255.56 142.886Z" fill="#E9EDF1"/>
<path d="M1254.1 142.697L1255.23 139.265L1254.58 142.822L1254.1 142.697Z" fill="#E9EDF1"/>
<path d="M1248.01 143.671L1246.82 142.173L1248.37 143.327L1248.01 143.671Z" fill="#E9EDF1"/>
<path d="M1247.02 144.439L1245.85 143.628L1247.25 144.002L1247.02 144.439Z" fill="#E9EDF1"/>
<path d="M1250.03 142.965L1248.76 140.719L1250.45 142.7L1250.03 142.965Z" fill="#E9EDF1"/>
<path d="M1251.46 142.822L1250.7 139.749L1251.94 142.666L1251.46 142.822Z" fill="#E9EDF1"/>
<path d="M1252.37 142.79L1252.16 139.265L1252.87 142.728L1252.37 142.79Z" fill="#E9EDF1"/>
<path d="M1253.13 142.79L1253.39 139.265L1253.65 142.79H1253.13Z" fill="#E9EDF1"/>
<path d="M1232.12 161.802C1233.17 162.119 1234.25 161.917 1235.25 161.462C1236.44 160.922 1237.59 160.002 1238.57 159.044C1239.24 158.39 1239.84 157.706 1240.35 157.089C1239.31 159.621 1237.49 161.273 1235.75 162.339C1234.62 163.033 1233.52 163.475 1232.71 163.744C1232.43 163.836 1232.19 163.908 1231.99 163.962C1231.99 163.934 1231.99 163.905 1231.99 163.875C1231.99 163.484 1231.99 163.063 1232.01 162.867L1232.01 162.867L1232.01 162.856C1232.03 162.503 1232.06 162.151 1232.12 161.802Z" fill="#E9EDF1" stroke="#E9EDF1"/>
<path d="M1261.63 147.071L1261.63 147.072C1261.62 147.265 1261.55 147.621 1261.44 148.061C1261.42 148.172 1261.39 148.287 1261.37 148.403C1261.29 148.725 1261.21 149.055 1261.16 149.332L1261.15 149.372L1261.15 149.412C1261.12 150.347 1260.98 151.275 1260.75 152.181C1260.2 150.949 1259.98 149.595 1260.12 148.248L1260.15 147.938L1259.88 147.773C1258.13 146.682 1256.63 145.258 1255.47 143.59L1255.12 143.082L1254.69 143.535C1253.07 145.273 1250.91 146.449 1248.53 146.878L1248.18 146.94L1248.12 147.287C1247.89 148.631 1247.48 149.937 1246.89 151.17C1246.85 150.663 1246.82 150.11 1246.78 149.581C1246.74 148.963 1246.7 148.383 1246.68 147.958C1246.66 147.745 1246.65 147.571 1246.65 147.451L1246.64 147.311L1246.63 147.275L1246.63 147.266L1246.63 147.263L1246.63 147.263L1246.63 147.262L1246.13 147.292L1246.63 147.262L1246.63 147.254L1246.63 147.246C1246.49 145.735 1246.92 144.686 1247.61 143.935C1248.31 143.166 1249.32 142.668 1250.4 142.353C1251.48 142.039 1252.58 141.919 1253.43 141.879C1253.85 141.859 1254.2 141.859 1254.44 141.864C1254.56 141.866 1254.66 141.87 1254.72 141.873C1254.75 141.875 1254.78 141.876 1254.79 141.877L1254.81 141.878L1254.81 141.878L1254.81 141.878L1254.81 141.878L1254.83 141.879C1258.17 142.039 1259.86 143.027 1260.72 144.069C1261.59 145.118 1261.68 146.321 1261.63 147.071Z" fill="#F6F8FA" stroke="#E9EDF1"/>
<path d="M1281.24 179.802C1280.45 179.568 1279.63 179.303 1278.92 179.022H1279.1C1278.81 179.636 1278.5 180.244 1278.18 180.847C1277.85 181.44 1277.52 182.033 1277.15 182.61C1277.39 181.971 1277.66 181.347 1277.95 180.738C1278.24 180.13 1278.55 179.506 1278.85 178.913V178.804H1278.97C1279.77 179.1 1280.51 179.428 1281.24 179.802Z" fill="#E9EDF1"/>
<path d="M1275.74 199.52C1276.52 199.754 1277.36 200.019 1278.05 200.3H1277.89C1278.18 199.692 1278.48 199.083 1278.8 198.49C1279.13 197.898 1279.47 197.289 1279.84 196.712C1279.59 197.352 1279.32 197.976 1279.03 198.584C1278.74 199.192 1278.43 199.816 1278.11 200.425V200.518H1278C1277.16 200.222 1276.47 199.832 1275.74 199.52Z" fill="#E9EDF1"/>
<path d="M1273.07 192.032C1273.28 191.455 1273.5 190.909 1273.75 190.347C1273.99 189.785 1274.23 189.239 1274.47 188.693C1274.71 188.147 1275 187.601 1275.28 187.133L1275.7 186.338L1276.13 185.542L1275.82 186.384L1275.47 187.227C1275.24 187.773 1274.99 188.319 1274.73 188.787C1274.47 189.255 1274.21 189.879 1273.94 190.347C1273.67 190.815 1273.38 191.455 1273.07 192.032Z" fill="#E9EDF1"/>
<path d="M1282.41 190.472C1282.62 189.911 1282.85 189.349 1283.09 188.803C1283.33 188.257 1283.57 187.695 1283.82 187.149C1284.06 186.603 1284.35 186.057 1284.62 185.589L1285.04 184.778L1285.47 183.982C1285.38 184.279 1285.26 184.56 1285.17 184.84L1284.81 185.667C1284.59 186.229 1284.33 186.775 1284.07 187.321C1283.82 187.867 1283.56 188.413 1283.28 188.881C1283.01 189.349 1282.72 189.973 1282.41 190.472Z" fill="#E9EDF1"/>
<path d="M1284.78 194.122C1284.82 194.049 1284.85 193.967 1284.86 193.884C1284.87 193.8 1284.86 193.715 1284.84 193.633C1284.82 193.552 1284.78 193.476 1284.72 193.41C1284.67 193.344 1284.6 193.289 1284.52 193.249L1281.4 191.689C1281.32 191.651 1281.24 191.629 1281.15 191.624C1281.06 191.619 1280.97 191.631 1280.89 191.658C1280.81 191.686 1280.73 191.729 1280.67 191.785C1280.6 191.841 1280.55 191.909 1280.51 191.985C1280.47 192.059 1280.44 192.14 1280.43 192.224C1280.42 192.308 1280.43 192.393 1280.45 192.474C1280.48 192.555 1280.52 192.631 1280.57 192.697C1280.63 192.763 1280.69 192.818 1280.77 192.859L1283.9 194.419C1283.97 194.456 1284.06 194.478 1284.15 194.483C1284.23 194.488 1284.32 194.477 1284.4 194.449C1284.48 194.421 1284.56 194.378 1284.63 194.322C1284.69 194.266 1284.74 194.198 1284.78 194.122Z" fill="#E9EDF1"/>
<path d="M1285.96 193.155C1286.05 192.991 1286.08 192.798 1286.02 192.617C1285.97 192.436 1285.85 192.282 1285.68 192.188L1282.3 190.472C1282.13 190.391 1281.93 190.38 1281.75 190.442C1281.57 190.503 1281.42 190.632 1281.33 190.799C1281.29 190.879 1281.25 190.967 1281.24 191.058C1281.23 191.15 1281.24 191.242 1281.26 191.331C1281.29 191.42 1281.33 191.503 1281.39 191.575C1281.45 191.647 1281.52 191.707 1281.61 191.751L1284.99 193.467C1285.16 193.547 1285.36 193.558 1285.54 193.497C1285.73 193.435 1285.87 193.307 1285.96 193.139V193.155Z" fill="#E9EDF1"/>
<path d="M1286.54 191.829C1286.63 191.674 1286.66 191.488 1286.62 191.313C1286.57 191.138 1286.46 190.987 1286.3 190.893L1283.07 189.333C1282.99 189.297 1282.9 189.277 1282.81 189.275C1282.72 189.272 1282.63 189.287 1282.54 189.319C1282.46 189.351 1282.38 189.399 1282.31 189.461C1282.25 189.522 1282.19 189.595 1282.16 189.676C1282.11 189.752 1282.08 189.836 1282.07 189.923C1282.05 190.011 1282.06 190.1 1282.08 190.185C1282.1 190.271 1282.14 190.351 1282.2 190.422C1282.25 190.492 1282.32 190.552 1282.4 190.597L1285.62 192.157C1285.7 192.196 1285.79 192.218 1285.88 192.223C1285.97 192.227 1286.07 192.214 1286.15 192.183C1286.24 192.153 1286.32 192.106 1286.38 192.045C1286.45 191.984 1286.5 191.911 1286.54 191.829Z" fill="#E9EDF1"/>
<path d="M1286.65 190.331C1286.74 190.2 1286.77 190.041 1286.74 189.886C1286.71 189.732 1286.62 189.596 1286.49 189.504L1283.94 188.225C1283.79 188.169 1283.62 188.174 1283.48 188.239C1283.33 188.303 1283.21 188.422 1283.15 188.568C1283.07 188.701 1283.04 188.859 1283.07 189.012C1283.1 189.165 1283.19 189.302 1283.32 189.395L1285.86 190.674C1286.01 190.726 1286.18 190.719 1286.33 190.655C1286.47 190.592 1286.59 190.475 1286.65 190.331Z" fill="#E9EDF1"/>
<path d="M1234.81 112.817H1225.06V115.86H1234.81V112.817Z" fill="#E9EDF1"/>
<path d="M1235.1 173.844C1235.31 173.618 1235.49 173.378 1235.66 173.126C1236 172.629 1236.3 172.107 1236.55 171.566C1237.06 170.5 1237.49 169.4 1237.84 168.274C1238.2 167.151 1238.49 166.011 1238.72 164.858C1238.84 164.281 1238.93 163.703 1239.01 163.111C1239.01 162.814 1239.01 162.533 1239.01 162.237C1239.01 161.94 1239.01 161.94 1239.01 161.784C1239.01 161.712 1239.01 161.639 1239.01 161.566C1239.01 161.566 1239.01 161.41 1239.01 161.348C1239.02 161.42 1239.02 161.493 1239.01 161.566V161.769C1239.01 161.909 1238.93 162.05 1238.89 162.19L1238.63 163.033L1238.11 164.702L1237.58 166.371C1237.4 166.917 1237.24 167.479 1237.05 168.025C1236.69 169.132 1236.36 170.24 1235.95 171.332C1235.76 171.878 1235.55 172.408 1235.31 172.892C1235.2 173.159 1235.07 173.42 1234.92 173.672C1234.78 173.922 1234.6 174.148 1234.39 174.343C1234.66 174.224 1234.9 174.054 1235.1 173.844Z" fill="#E9EDF1"/>
<path d="M1237.63 175.388C1236.63 176.308 1235.57 177.166 1234.5 178.055C1235.76 177.444 1236.96 176.713 1238.06 175.871C1238.61 175.445 1239.15 174.992 1239.67 174.514C1240.18 174.02 1240.65 173.499 1241.09 172.954C1241.53 172.41 1241.93 171.837 1242.28 171.238C1242.63 170.625 1242.92 169.982 1243.15 169.319C1243.38 168.662 1243.51 167.981 1243.56 167.291C1243.62 166.607 1243.54 165.918 1243.33 165.263C1243.38 165.927 1243.33 166.596 1243.17 167.244C1243.03 167.887 1242.83 168.515 1242.56 169.116C1242.02 170.323 1241.31 171.452 1240.45 172.47C1240.04 173.019 1239.59 173.541 1239.11 174.03C1238.63 174.467 1238.13 174.873 1237.63 175.388Z" fill="#E9EDF1"/>
<path d="M1240.11 185.792C1239.17 186.413 1238.17 186.936 1237.11 187.352C1238.25 187.075 1239.33 186.639 1240.34 186.058C1241.35 185.549 1242.32 184.937 1243.2 184.232C1244.08 183.476 1244.88 182.634 1245.59 181.721C1246.3 180.815 1246.93 179.849 1247.47 178.835C1248.02 177.832 1248.48 176.789 1248.86 175.715C1249.24 174.613 1249.55 173.487 1249.78 172.346C1250.23 170.133 1250.43 167.877 1250.36 165.622C1250.1 167.841 1249.7 170.041 1249.13 172.205C1248.85 173.262 1248.51 174.303 1248.12 175.325C1247.73 176.365 1247.27 177.376 1246.73 178.351C1246.22 179.33 1245.62 180.269 1244.96 181.159C1244.29 182.053 1243.56 182.893 1242.75 183.671C1241.93 184.45 1241.05 185.159 1240.11 185.792Z" fill="#E9EDF1"/>
<path d="M1260.07 178.741C1259.17 180.567 1258.22 182.376 1257.2 184.139C1256.19 185.902 1255.09 187.633 1253.9 189.302C1252.72 190.939 1251.44 192.502 1250.07 193.982C1248.69 195.548 1247.17 196.985 1245.52 198.272C1243.86 199.482 1242.04 200.469 1240.11 201.205C1239.15 201.585 1238.15 201.867 1237.13 202.047C1236.6 202.148 1236.06 202.216 1235.52 202.25C1234.98 202.3 1234.44 202.3 1233.91 202.25C1234.97 202.421 1236.06 202.421 1237.13 202.25C1238.18 202.114 1239.22 201.884 1240.22 201.564C1242.23 200.872 1244.13 199.9 1245.84 198.678C1249.27 196.212 1252.24 193.194 1254.61 189.755C1255.99 187.802 1257.24 185.77 1258.36 183.671C1258.1 185.746 1257.81 187.836 1257.41 189.911C1256.99 192.22 1256.49 194.513 1255.91 196.79C1255.33 199.068 1254.7 201.33 1253.98 203.56C1253.26 205.791 1252.51 208.022 1251.68 210.221C1250.84 212.421 1249.95 214.589 1249 216.758C1248.05 218.926 1247.07 221.048 1246.04 223.169C1245.01 225.291 1243.91 227.381 1242.82 229.409C1241.72 231.437 1240.42 233.543 1239.14 235.555C1241.92 231.696 1244.39 227.645 1246.55 223.434C1248.76 219.234 1250.71 214.911 1252.39 210.487C1253.22 208.256 1254 206.025 1254.67 203.763C1255.35 201.501 1255.98 199.224 1256.49 196.915C1257.5 192.522 1258.13 188.056 1258.36 183.562C1259.17 182.002 1259.97 180.535 1260.62 178.991C1262.3 175.256 1263.73 171.415 1264.89 167.494C1264.15 169.397 1263.39 171.3 1262.57 173.172C1261.74 175.044 1261.05 176.901 1260.07 178.741Z" fill="#E9EDF1"/>
<path d="M1238.95 253.105C1242.33 252.059 1245.7 251.03 1249.03 249.907C1249.86 249.641 1250.65 249.345 1251.52 249.049C1252.39 248.752 1253.13 248.472 1254 248.16C1255.61 247.536 1257.22 246.912 1258.83 246.178C1260.44 245.445 1262.05 244.618 1263.57 243.87C1265.08 243.121 1266.64 242.216 1268.14 241.296C1269.63 240.386 1271.07 239.391 1272.44 238.316C1273.13 237.776 1273.78 237.198 1274.39 236.585C1274.7 236.282 1275 235.965 1275.28 235.633C1275.57 235.309 1275.81 234.953 1276.02 234.572C1275.84 234.965 1275.61 235.337 1275.34 235.68C1275.09 236.036 1274.81 236.38 1274.52 236.709C1273.92 237.349 1273.3 237.957 1272.64 238.55C1271.31 239.697 1269.91 240.765 1268.45 241.748C1265.49 243.677 1262.41 245.412 1259.22 246.943C1257.6 247.707 1255.99 248.503 1254.38 249.127C1253.55 249.454 1252.77 249.782 1251.89 250.063C1251 250.343 1250.19 250.624 1249.34 250.889C1248.49 251.155 1247.65 251.389 1246.78 251.607C1245.91 251.825 1245.06 252.044 1244.19 252.231C1242.46 252.622 1240.71 252.914 1238.95 253.105Z" fill="#E9EDF1"/>
<path d="M1239.01 252.418C1239.74 251.841 1240.42 251.217 1241.09 250.562C1241.77 249.907 1242.41 249.267 1243.04 248.596C1244.31 247.255 1245.51 245.851 1246.63 244.4C1248.89 241.499 1250.93 238.444 1252.74 235.259C1256.33 228.859 1259.08 222.045 1260.91 214.979C1262.74 207.93 1263.82 200.716 1264.13 193.452C1264.46 186.164 1264.21 178.862 1263.37 171.612H1263.65C1264.81 178.835 1265.29 186.145 1265.08 193.452C1264.89 200.791 1263.84 208.086 1261.95 215.198C1260.08 222.299 1257.22 229.12 1253.45 235.477C1251.56 238.657 1249.4 241.683 1247 244.525C1245.8 245.944 1244.54 247.317 1243.22 248.612C1241.92 249.979 1240.51 251.252 1239.01 252.418Z" fill="#E9EDF1"/>
<path d="M1276.05 248.19C1275.76 248.58 1275.47 248.939 1275.16 249.298C1274.57 250 1273.92 250.702 1273.26 251.357C1272.6 252.012 1271.91 252.667 1271.2 253.291L1269.11 255.007C1267.62 256.162 1266.13 257.285 1264.55 258.33C1262.97 259.375 1261.33 260.405 1259.72 261.341C1258.07 262.261 1256.36 263.079 1254.61 263.79C1252.88 264.546 1251.1 265.202 1249.29 265.756C1247.48 266.319 1245.64 266.787 1243.78 267.16C1241.91 267.547 1240.01 267.803 1238.1 267.924C1239.71 268.006 1241.32 267.959 1242.93 267.784L1243.48 284.803L1244.02 267.643C1245.91 267.398 1247.77 267.033 1249.6 266.551C1250.53 266.317 1251.45 266.036 1252.35 265.724L1252.88 284.787L1253.45 265.35C1254 265.147 1254.54 264.944 1255.06 264.71C1256.86 263.994 1258.61 263.166 1260.3 262.23L1261.78 261.341L1262.31 284.491L1262.87 260.67C1263.63 260.187 1264.37 259.687 1265.11 259.11C1266.68 258.014 1268.18 256.837 1269.62 255.585C1270.15 255.117 1270.69 254.649 1271.23 254.165L1271.78 284.459L1272.33 253.213C1272.83 252.699 1273.31 252.168 1273.79 251.654C1274.28 251.139 1274.99 250.187 1275.53 249.407C1276.09 248.644 1276.56 247.829 1276.94 246.974C1276.67 247.398 1276.37 247.804 1276.05 248.19Z" fill="#E9EDF1"/>
<path d="M1280 292.981H1235V300.981H1280V292.981Z" fill="#F6F8FA"/>
<path d="M1262.15 301.12V298.733L1257.49 294.271L1252.85 298.733V301.12H1262.15Z" fill="white"/>
<path d="M1279.37 320.963V321.463H1279.87H1282.46V329.947H1232.54V321.463H1235.13H1235.63V320.963V303.414H1279.37V320.963Z" fill="white" stroke="#E9EDF1"/>
<path d="M1264.53 330.448V326.844L1257.49 320.073L1250.47 326.844V330.448H1264.53Z" fill="#E9EDF1"/>
<path d="M1282.26 281.801H1232.74V289.074H1282.26V281.801Z" fill="#E9EDF1"/>
<path d="M1282.26 289.073H1232.74V293.437H1282.26V289.073Z" fill="#E9EDF1"/>
<path d="M1282.4 300.808H1232.59V305.004H1282.4V300.808Z" fill="#E9EDF1"/>
<path d="M1244.3 307.11H1241.17V318.951H1244.3V307.11Z" fill="#E9EDF1"/>
<path d="M1253.96 307.11H1250.84V318.951H1253.96V307.11Z" fill="#E9EDF1"/>
<path d="M1263.65 307.11H1260.5V318.951H1263.65V307.11Z" fill="#E9EDF1"/>
<path d="M1273.3 307.11H1270.15V318.951H1273.3V307.11Z" fill="#E9EDF1"/>
<path d="M1260.41 300.309V298.811L1257.49 296.019L1254.59 298.811V300.309H1260.41Z" fill="#E9EDF1"/>
<path d="M1261.91 329.122V326.86L1257.49 322.632L1253.09 326.86V329.122H1261.91Z" fill="white"/>
<path d="M1286.84 329.573H1228.14V334.987H1286.84V329.573Z" fill="#F6F8FA"/>
<path d="M1291 334.646H1224V339.979H1291V334.646Z" fill="#E9EDF1"/>
</g>
<path d="M1 234.491C1 233.387 1.89543 232.491 3 232.491H42C43.1046 232.491 44 233.387 44 234.491V340.484H1V234.491Z" fill="#F0F2F3"/>
<path d="M127 189.494C127 188.39 126.105 187.494 125 187.494H43V340.484H127V189.494Z" fill="#F0F2F3"/>
<rect width="13.8667" height="13.8129" transform="matrix(-1 0 0 1 118.334 197.188)" fill="white" fill-opacity="0.5"/>
<rect width="13.8667" height="13.8129" transform="matrix(-1 0 0 1 118.334 221.363)" fill="white" fill-opacity="0.5"/>
<rect width="13.8667" height="13.8129" transform="matrix(-1 0 0 1 118.334 245.533)" fill="white" fill-opacity="0.5"/>
<rect width="13.8667" height="13.8129" transform="matrix(-1 0 0 1 118.334 269.706)" fill="white" fill-opacity="0.5"/>
<rect width="13.8667" height="13.8129" transform="matrix(-1 0 0 1 118.334 293.876)" fill="white" fill-opacity="0.5"/>
<rect width="13.8667" height="13.8129" transform="matrix(-1 0 0 1 118.334 318.044)" fill="white" fill-opacity="0.5"/>
<rect width="13.8667" height="13.8129" transform="matrix(-1 0 0 1 101 197.188)" fill="white" fill-opacity="0.5"/>
<rect width="13.8667" height="13.8129" transform="matrix(-1 0 0 1 101 221.363)" fill="white" fill-opacity="0.5"/>
<rect width="13.8667" height="13.8129" transform="matrix(-1 0 0 1 101 245.533)" fill="white" fill-opacity="0.5"/>
<rect width="13.8667" height="13.8129" transform="matrix(-1 0 0 1 101 269.706)" fill="white" fill-opacity="0.5"/>
<rect width="13.8667" height="13.8129" transform="matrix(-1 0 0 1 101 293.876)" fill="white" fill-opacity="0.5"/>
<rect width="13.8667" height="13.8129" transform="matrix(-1 0 0 1 101 318.044)" fill="white" fill-opacity="0.5"/>
<rect width="13.8667" height="13.8129" transform="matrix(-1 0 0 1 83.666 197.188)" fill="white" fill-opacity="0.5"/>
<rect width="13.8667" height="13.8129" transform="matrix(-1 0 0 1 83.666 221.363)" fill="white" fill-opacity="0.5"/>
<rect width="13.8667" height="13.8129" transform="matrix(-1 0 0 1 83.666 245.533)" fill="white" fill-opacity="0.5"/>
<rect width="13.8667" height="13.8129" transform="matrix(-1 0 0 1 83.666 269.706)" fill="white" fill-opacity="0.5"/>
<rect width="13.8667" height="13.8129" transform="matrix(-1 0 0 1 83.666 293.876)" fill="white" fill-opacity="0.5"/>
<rect width="13.8667" height="13.8129" transform="matrix(-1 0 0 1 83.666 318.044)" fill="white" fill-opacity="0.5"/>
<rect width="13.8667" height="13.8129" transform="matrix(-1 0 0 1 66.334 197.188)" fill="white" fill-opacity="0.5"/>
<rect width="13.8667" height="13.8129" transform="matrix(-1 0 0 1 66.334 221.363)" fill="white" fill-opacity="0.5"/>
<rect width="13.8667" height="13.8129" transform="matrix(-1 0 0 1 66.334 245.533)" fill="white" fill-opacity="0.5"/>
<path d="M66.334 269.706H52.4673V283.519H66.334V269.706Z" fill="white" fill-opacity="0.5"/>
<rect width="13.8667" height="13.8129" transform="matrix(-1 0 0 1 66.334 293.876)" fill="white" fill-opacity="0.5"/>
<rect width="13.8667" height="13.8129" transform="matrix(-1 0 0 1 66.334 318.044)" fill="white" fill-opacity="0.5"/>
<rect width="7.51111" height="13.8129" transform="matrix(-1 0 0 1 37.4004 283.51)" fill="white"/>
<rect width="7.51111" height="13.8129" transform="matrix(-1 0 0 1 37 244.491)" fill="white"/>
<rect width="7.51111" height="13.8129" transform="matrix(-1 0 0 1 37.4004 304.226)" fill="white"/>
<rect width="7.51111" height="13.8129" transform="matrix(-1 0 0 1 37 265.206)" fill="white"/>
<rect width="7.51111" height="13.8129" transform="matrix(-1 0 0 1 26.4219 283.51)" fill="white"/>
<rect width="7.51111" height="13.8129" transform="matrix(-1 0 0 1 26.0215 244.491)" fill="white"/>
<rect width="7.51111" height="13.8129" transform="matrix(-1 0 0 1 26.4219 304.226)" fill="white"/>
<rect width="7.51111" height="13.8129" transform="matrix(-1 0 0 1 26.0215 265.206)" fill="white"/>
<rect width="7.51111" height="13.8129" transform="matrix(-1 0 0 1 15.4443 283.51)" fill="white"/>
<rect width="7.51111" height="13.8129" transform="matrix(-1 0 0 1 15.0449 244.491)" fill="white"/>
<rect width="7.51111" height="13.8129" transform="matrix(-1 0 0 1 15.4443 304.226)" fill="white"/>
<rect width="7.51111" height="13.8129" transform="matrix(-1 0 0 1 15.0449 265.206)" fill="white"/>
<rect x="127" y="284.49" width="66" height="55.9964" fill="#F2F5F6"/>
<path d="M322 229C322 226.791 323.791 225 326 225H387C389.209 225 391 226.791 391 229V340H322V229Z" fill="#F2F5F6"/>
<rect x="330.196" y="248.654" width="10.0135" height="10.0135" fill="white"/>
<rect x="330.196" y="309.447" width="10.0135" height="10.0135" fill="white"/>
<rect x="330.196" y="234.351" width="10.0135" height="10.0135" fill="white"/>
<rect x="330.196" y="262.958" width="10.0135" height="10.0135" fill="white"/>
<rect x="330.196" y="323.751" width="10.0135" height="10.0135" fill="white"/>
<rect x="330.196" y="277.264" width="10.0135" height="26.4627" fill="white"/>
<rect x="344.502" y="248.654" width="10.0135" height="10.0135" fill="white"/>
<rect x="344.502" y="309.447" width="10.0135" height="10.0135" fill="white"/>
<rect x="344.502" y="234.351" width="10.0135" height="10.0135" fill="white"/>
<rect x="344.502" y="262.958" width="10.0135" height="10.0135" fill="white"/>
<rect x="344.502" y="323.751" width="10.0135" height="10.0135" fill="white"/>
<rect x="344.502" y="277.264" width="10.0135" height="26.4627" fill="white"/>
<rect x="373.112" y="248.654" width="10.0135" height="10.0135" fill="white"/>
<rect x="373.112" y="309.447" width="10.0135" height="10.0135" fill="white"/>
<rect x="358.807" y="248.654" width="10.0135" height="10.0135" fill="white"/>
<rect x="358.807" y="309.447" width="10.0135" height="10.0135" fill="white"/>
<rect x="373.112" y="234.351" width="10.0135" height="10.0135" fill="white"/>
<rect x="358.807" y="234.351" width="10.0135" height="10.0135" fill="white"/>
<rect x="373.112" y="262.958" width="10.0135" height="10.0135" fill="white"/>
<rect x="373.112" y="323.751" width="10.0135" height="10.0135" fill="white"/>
<rect x="373.112" y="277.264" width="10.0135" height="26.4627" fill="white"/>
<rect x="358.807" y="262.958" width="10.0135" height="10.0135" fill="white"/>
<rect x="358.807" y="323.751" width="10.0135" height="10.0135" fill="white"/>
<rect x="358.807" y="277.264" width="10.0135" height="26.4627" fill="white"/>
<rect x="149.099" y="310.447" width="10.0135" height="10.0135" fill="white" fill-opacity="0.5"/>
<rect x="132.986" y="310.793" width="10.0135" height="10.0135" fill="white" fill-opacity="0.5"/>
<rect x="149.099" y="296.144" width="10.0135" height="10.0135" fill="white" fill-opacity="0.5"/>
<rect x="132.986" y="296.489" width="10.0135" height="10.0135" fill="white" fill-opacity="0.5"/>
<rect x="149.099" y="324.751" width="10.0135" height="10.0135" fill="white" fill-opacity="0.5"/>
<rect x="132.986" y="325.097" width="10.0135" height="10.0135" fill="white" fill-opacity="0.5"/>
<rect x="161.973" y="310.447" width="10.0135" height="10.0135" fill="white" fill-opacity="0.5"/>
<rect x="161.973" y="296.144" width="10.0135" height="10.0135" fill="white" fill-opacity="0.5"/>
<rect x="161.973" y="324.751" width="10.0135" height="10.0135" fill="white" fill-opacity="0.5"/>
<rect x="174.848" y="310.447" width="10.0135" height="10.0135" fill="white" fill-opacity="0.5"/>
<rect x="174.848" y="296.144" width="10.0135" height="10.0135" fill="white" fill-opacity="0.5"/>
<rect x="174.848" y="324.751" width="10.0135" height="10.0135" fill="white" fill-opacity="0.5"/>
<rect x="254" y="299.489" width="68" height="8" fill="#F2F5F6"/>
<rect x="254" y="277.49" width="68" height="2" fill="#F2F5F6"/>
<rect x="265.824" y="279.408" width="1.43051" height="20.741" fill="#F2F5F6"/>
<rect x="275.122" y="279.408" width="1.43051" height="20.741" fill="#F2F5F6"/>
<rect x="284.421" y="279.408" width="1.43051" height="20.741" fill="#F2F5F6"/>
<rect x="293.719" y="279.408" width="1.43051" height="20.741" fill="#F2F5F6"/>
<rect x="303.018" y="279.408" width="1.43051" height="20.741" fill="#F2F5F6"/>
<rect x="312.315" y="279.408" width="1.43051" height="20.741" fill="#F2F5F6"/>
<rect width="64.2974" height="128.587" transform="matrix(-1 0 0 1 255 211.923)" fill="#F2F5F6"/>
<path d="M255 204.496C255 202.839 253.657 201.496 252 201.496H193.703C192.046 201.496 190.703 202.839 190.703 204.496V211.923H255V204.496Z" fill="#ECF2F5"/>
<rect opacity="0.6" width="15.6399" height="13.9022" transform="matrix(-1 0 0 1 244.573 222.347)" fill="white"/>
<rect opacity="0.6" width="15.6399" height="13.9022" transform="matrix(-1 0 0 1 230.671 297.066)" fill="white"/>
<rect opacity="0.6" width="15.6399" height="13.9022" transform="matrix(-1 0 0 1 216.77 222.347)" fill="white"/>
<rect opacity="0.6" width="6.95108" height="10.4266" transform="matrix(-1 0 0 1 249.787 236.25)" fill="white"/>
<rect opacity="0.6" width="6.95108" height="10.4266" transform="matrix(-1 0 0 1 242.836 310.97)" fill="white"/>
<rect opacity="0.6" width="6.95108" height="10.4266" transform="matrix(-1 0 0 1 221.982 236.25)" fill="white"/>
<rect opacity="0.6" width="8.68884" height="10.4266" transform="matrix(-1 0 0 1 241.098 236.25)" fill="white"/>
<rect opacity="0.6" width="8.68884" height="10.4266" transform="matrix(-1 0 0 1 232.409 310.97)" fill="white"/>
<rect opacity="0.6" width="8.68884" height="10.4266" transform="matrix(-1 0 0 1 213.294 236.25)" fill="white"/>
<rect opacity="0.6" width="6.95108" height="10.4266" transform="matrix(-1 0 0 1 230.671 236.25)" fill="white"/>
<rect opacity="0.6" width="6.95108" height="10.4266" transform="matrix(-1 0 0 1 220.244 310.97)" fill="white"/>
<rect opacity="0.6" width="6.95108" height="10.4266" transform="matrix(-1 0 0 1 209.818 310.97)" fill="white"/>
<rect opacity="0.6" width="6.95108" height="10.4266" transform="matrix(-1 0 0 1 202.867 236.25)" fill="white"/>
<g opacity="0.6">
<rect width="12.2885" height="10.9231" transform="matrix(-1 0 0 1 242.215 264.051)" fill="white"/>
<rect width="5.46156" height="8.19234" transform="matrix(-1 0 0 1 246.312 274.972)" fill="white"/>
<rect width="6.82695" height="8.19234" transform="matrix(-1 0 0 1 239.484 274.972)" fill="white"/>
<rect width="5.46156" height="8.19234" transform="matrix(-1 0 0 1 231.292 274.972)" fill="white"/>
</g>
<g opacity="0.6">
<rect width="12.2885" height="10.9231" transform="matrix(-1 0 0 1 219.624 264.051)" fill="white"/>
<rect width="5.46156" height="8.19234" transform="matrix(-1 0 0 1 223.721 274.972)" fill="white"/>
<rect width="6.82695" height="8.19234" transform="matrix(-1 0 0 1 216.894 274.972)" fill="white"/>
<rect width="5.46156" height="8.19234" transform="matrix(-1 0 0 1 208.701 274.972)" fill="white"/>
</g>
<rect width="66" height="24.9984" transform="matrix(-1 0 0 1 118 162.498)" fill="#F0F2F3"/>
<path d="M43 162.497H127L84.5 121L43 162.497Z" fill="#F0F2F3"/>
<rect width="13.8667" height="13.8129" transform="matrix(-1 0 0 1 109 168.496)" fill="white" fill-opacity="0.5"/>
<rect width="13.8667" height="13.8129" transform="matrix(-1 0 0 1 91.666 168.496)" fill="white" fill-opacity="0.5"/>
<rect width="13.8667" height="13.8129" transform="matrix(-1 0 0 1 74.333 168.496)" fill="white" fill-opacity="0.5"/>
<rect x="451" y="332" width="80" height="8" fill="#F0F2F3"/>
<rect x="451" y="332" width="80" height="8" fill="#E6E9EB"/>
<path fill-rule="evenodd" clip-rule="evenodd" d="M491 240C471.118 240 455 256.118 455 276V332H527V276C527 256.118 510.882 240 491 240Z" fill="#F2F5F6"/>
<path fill-rule="evenodd" clip-rule="evenodd" d="M491 240C471.118 240 455 256.118 455 276V332H527V276C527 256.118 510.882 240 491 240Z" fill="#F0F2F3"/>
<rect x="451" y="276" width="80" height="8" fill="#E6E9EB"/>
<rect x="465" y="317" width="10.0135" height="10.0135" fill="white"/>
<rect x="465" y="302" width="10.0135" height="10.0135" fill="white"/>
<rect x="465" y="287" width="10.0135" height="10.0135" fill="white"/>
<rect x="479" y="317" width="10.0135" height="10.0135" fill="white"/>
<rect x="479" y="302" width="10.0135" height="10.0135" fill="white"/>
<rect x="479" y="287" width="10.0135" height="10.0135" fill="white"/>
<rect x="493" y="317" width="10.0135" height="10.0135" fill="white"/>
<rect x="493" y="302" width="10.0135" height="10.0135" fill="white"/>
<rect x="493" y="287" width="10.0135" height="10.0135" fill="white"/>
<rect x="507" y="317" width="10.0135" height="10.0135" fill="white"/>
<rect x="507" y="302" width="10.0135" height="10.0135" fill="white"/>
<rect x="507" y="287" width="10.0135" height="10.0135" fill="white"/>
<rect x="406.6" y="322.501" width="2.8" height="17.5" fill="#F2F5F6"/>
<path d="M415 316.551C415 321.77 410.706 323.201 408 323.201C405.294 323.201 401 321.77 401 316.551C401 311.332 405.294 304.301 408 304.301C410.706 304.301 415 311.332 415 316.551Z" fill="#ECF2F5"/>
<rect x="573.6" y="322.602" width="2.8" height="17.5" fill="#F2F5F6"/>
<path d="M582 316.65C582 321.869 577.706 323.3 575 323.3C572.294 323.3 568 321.869 568 316.65C568 311.431 572.294 304.4 575 304.4C577.706 304.4 582 311.431 582 316.65Z" fill="#ECF2F5"/>
<rect x="949.6" y="322.602" width="2.8" height="17.5" fill="#F2F5F6"/>
<path d="M958 316.65C958 321.869 953.706 323.3 951 323.3C948.294 323.3 944 321.869 944 316.65C944 311.431 948.294 304.4 951 304.4C953.706 304.4 958 311.431 958 316.65Z" fill="#ECF2F5"/>
<rect x="919.775" y="302.486" width="6.07457" height="37.966" fill="#F2F5F6"/>
<path d="M938 289.576C938 300.899 928.684 304.003 922.813 304.003C916.942 304.003 907.627 300.899 907.627 289.576C907.627 278.253 916.942 263 922.813 263C928.684 263 938 278.253 938 289.576Z" fill="#ECF2F5"/>
<rect x="427.8" y="312.501" width="4.4" height="27.5" fill="#F2F5F6"/>
<path d="M441 303.15C441 311.352 434.253 313.6 430 313.6C425.747 313.6 419 311.352 419 303.15C419 294.949 425.747 283.9 430 283.9C434.253 283.9 441 294.949 441 303.15Z" fill="#ECF2F5"/>
<rect x="550.8" y="312.602" width="4.4" height="27.5" fill="#F2F5F6"/>
<path d="M564 303.25C564 311.451 557.253 313.7 553 313.7C548.747 313.7 542 311.451 542 303.25C542 295.049 548.747 284 553 284C557.253 284 564 295.049 564 303.25Z" fill="#ECF2F5"/>
<rect x="886.427" y="312.602" width="4.4" height="27.5" fill="#F2F5F6"/>
<path d="M899.627 303.25C899.627 311.451 892.88 313.7 888.627 313.7C884.374 313.7 877.627 311.451 877.627 303.25C877.627 295.049 884.374 284 888.627 284C892.88 284 899.627 295.049 899.627 303.25Z" fill="#ECF2F5"/>
<rect x="600.589" y="331.843" width="229.911" height="8.80282" fill="#A5D5F2"/>
<rect x="600.589" y="331.843" width="229.911" height="8.80282" stroke="#A5D5F2"/>
<rect x="600.589" y="331.843" width="229.911" height="8.80282" stroke="black" stroke-opacity="0.2"/>
<rect x="609.303" y="198.96" width="212.484" height="132.972" fill="#A5D5F2"/>
<rect x="609.303" y="198.96" width="212.484" height="132.972" fill="white" fill-opacity="0.2"/>
<rect x="609.303" y="198.96" width="212.484" height="132.972" stroke="#A5D5F2"/>
<rect x="609.303" y="198.96" width="212.484" height="132.972" stroke="black" stroke-opacity="0.2"/>
<rect x="609" y="150.535" width="213.484" height="43.5681" fill="#A5D5F2"/>
<rect x="609" y="150.535" width="213.484" height="43.5681" fill="white" fill-opacity="0.2"/>
<rect x="605.535" y="196.281" width="218.93" height="3.26761" fill="#84AAC2"/>
<rect x="605.535" y="147.268" width="218.93" height="3.26761" fill="#84AAC2"/>
<rect x="605.535" y="193.014" width="218.93" height="3.26761" fill="#A5D5F2"/>
<rect x="605.535" y="193.014" width="218.93" height="3.26761" fill="black" fill-opacity="0.4"/>
<path d="M602.268 144H827.732L824.465 147.268H605.535L602.268 144Z" fill="#A5D5F2"/>
<path d="M602.268 144H827.732L824.465 147.268H605.535L602.268 144Z" fill="black" fill-opacity="0.4"/>
<rect x="609.251" y="257.845" width="6.73333" height="4.37971" fill="#A5D5F2"/>
<rect x="609.251" y="257.845" width="6.73333" height="4.37971" fill="black" fill-opacity="0.04"/>
<rect x="609.251" y="257.845" width="6.73333" height="4.37971" stroke="#A5D5F2"/>
<rect x="609.251" y="257.845" width="6.73333" height="4.37971" stroke="black" stroke-opacity="0.2"/>
<rect x="815.025" y="257.845" width="6.73333" height="4.37971" fill="#A5D5F2"/>
<rect x="815.025" y="257.845" width="6.73333" height="4.37971" fill="black" fill-opacity="0.04"/>
<rect x="815.025" y="257.845" width="6.73333" height="4.37971" stroke="#A5D5F2"/>
<rect x="815.025" y="257.845" width="6.73333" height="4.37971" stroke="black" stroke-opacity="0.2"/>
<rect x="815.162" y="288.274" width="6.62441" height="4.44601" fill="#A5D5F2"/>
<rect x="815.162" y="288.274" width="6.62441" height="4.44601" fill="black" fill-opacity="0.04"/>
<rect x="815.162" y="288.274" width="6.62441" height="4.44601" stroke="#A5D5F2"/>
<rect x="815.162" y="288.274" width="6.62441" height="4.44601" stroke="black" stroke-opacity="0.2"/>
<rect x="609.251" y="276.672" width="6.73333" height="4.37971" fill="#A5D5F2"/>
<rect x="609.251" y="276.672" width="6.73333" height="4.37971" fill="black" fill-opacity="0.04"/>
<rect x="609.251" y="276.672" width="6.73333" height="4.37971" stroke="#A5D5F2"/>
<rect x="609.251" y="276.672" width="6.73333" height="4.37971" stroke="black" stroke-opacity="0.2"/>
<rect x="609.251" y="294.159" width="6.73333" height="4.37971" fill="#A5D5F2"/>
<rect x="609.251" y="294.159" width="6.73333" height="4.37971" fill="black" fill-opacity="0.04"/>
<rect x="609.251" y="294.159" width="6.73333" height="4.37971" stroke="#A5D5F2"/>
<rect x="609.251" y="294.159" width="6.73333" height="4.37971" stroke="black" stroke-opacity="0.2"/>
<rect x="609.303" y="316.594" width="6.62441" height="4.44601" fill="#A5D5F2"/>
<rect x="609.303" y="316.594" width="6.62441" height="4.44601" fill="black" fill-opacity="0.04"/>
<rect x="609.303" y="316.594" width="6.62441" height="4.44601" stroke="#A5D5F2"/>
<rect x="609.303" y="316.594" width="6.62441" height="4.44601" stroke="black" stroke-opacity="0.2"/>
<rect x="662.674" y="316.594" width="12.0704" height="4.44601" fill="#A5D5F2"/>
<rect x="662.674" y="316.594" width="12.0704" height="4.44601" fill="black" fill-opacity="0.04"/>
<rect x="662.674" y="316.594" width="12.0704" height="4.44601" stroke="#A5D5F2"/>
<rect x="662.674" y="316.594" width="12.0704" height="4.44601" stroke="black" stroke-opacity="0.2"/>
<rect x="725.847" y="316.594" width="12.0704" height="4.44601" fill="#A5D5F2"/>
<rect x="725.847" y="316.594" width="12.0704" height="4.44601" fill="black" fill-opacity="0.04"/>
<rect x="725.847" y="316.594" width="12.0704" height="4.44601" stroke="#A5D5F2"/>
<rect x="725.847" y="316.594" width="12.0704" height="4.44601" stroke="black" stroke-opacity="0.2"/>
<rect x="763.969" y="326.396" width="51.2817" height="5.53521" fill="#A5D5F2"/>
<rect x="763.969" y="326.396" width="51.2817" height="5.53521" stroke="#A5D5F2"/>
<rect x="763.969" y="326.396" width="51.2817" height="5.53521" stroke="black" stroke-opacity="0.2"/>
<rect x="769.97" y="233.972" width="39.3478" height="92.4725" fill="#A5D5F2"/>
<rect x="769.97" y="233.972" width="39.3478" height="92.4725" fill="white" fill-opacity="0.6"/>
<rect x="769.97" y="233.972" width="39.3478" height="92.4725" stroke="#A5D5F2"/>
<rect x="769.97" y="233.972" width="39.3478" height="92.4725" stroke="black" stroke-opacity="0.2"/>
<rect x="773.772" y="238.171" width="31.6761" height="50.1925" fill="#A5D5F2"/>
<rect x="773.772" y="238.171" width="31.6761" height="50.1925" stroke="#A5D5F2"/>
<rect x="773.772" y="238.171" width="31.6761" height="50.1925" stroke="black" stroke-opacity="0.2"/>
<mask id="mask0_716_18085" style="mask-type:alpha" maskUnits="userSpaceOnUse" x="774" y="239" width="31" height="49">
<rect x="774.862" y="240.351" width="29.4977" height="46.9249" fill="#A5D5F2"/>
<rect x="774.862" y="240.351" width="29.4977" height="46.9249" stroke="#A5D5F2"/>
<rect x="774.862" y="240.351" width="29.4977" height="46.9249" stroke="black" stroke-opacity="0.2"/>
</mask>
<g mask="url(#mask0_716_18085)">
<path opacity="0.4" d="M772.347 288.865H764.559L788.847 239.851H796.146L772.347 288.865Z" fill="white"/>
<path opacity="0.4" d="M789.105 288.865H775.451L799.026 239.851H812.484L789.105 288.865Z" fill="white"/>
</g>
<rect x="773.772" y="294.81" width="31.6761" height="28.4085" fill="#A5D5F2"/>
<rect x="773.772" y="294.81" width="31.6761" height="28.4085" stroke="#A5D5F2"/>
<rect x="773.772" y="294.81" width="31.6761" height="28.4085" stroke="black" stroke-opacity="0.2"/>
<mask id="mask1_716_18085" style="mask-type:alpha" maskUnits="userSpaceOnUse" x="774" y="295" width="31" height="28">
<rect x="774.862" y="295.898" width="29.4977" height="26.23" fill="#A5D5F2"/>
<rect x="774.862" y="295.898" width="29.4977" height="26.23" stroke="#A5D5F2"/>
<rect x="774.862" y="295.898" width="29.4977" height="26.23" stroke="black" stroke-opacity="0.2"/>
</mask>
<g mask="url(#mask1_716_18085)">
<path opacity="0.4" d="M772.347 323.717H764.559L788.847 274.703H796.146L772.347 323.717Z" fill="white"/>
<path opacity="0.4" d="M789.105 323.717H775.451L799.026 274.703H812.484L789.105 323.717Z" fill="white"/>
</g>
<rect x="621.284" y="320.951" width="12.0704" height="4.44601" fill="#A5D5F2"/>
<rect x="621.284" y="320.951" width="12.0704" height="4.44601" fill="black" fill-opacity="0.04"/>
<rect x="621.284" y="320.951" width="12.0704" height="4.44601" stroke="#A5D5F2"/>
<rect x="621.284" y="320.951" width="12.0704" height="4.44601" stroke="black" stroke-opacity="0.2"/>
<rect x="669.209" y="320.951" width="12.0704" height="4.44601" fill="#A5D5F2"/>
<rect x="669.209" y="320.951" width="12.0704" height="4.44601" fill="black" fill-opacity="0.04"/>
<rect x="669.209" y="320.951" width="12.0704" height="4.44601" stroke="#A5D5F2"/>
<rect x="669.209" y="320.951" width="12.0704" height="4.44601" stroke="black" stroke-opacity="0.2"/>
<rect x="609.303" y="320.951" width="12.0704" height="4.44601" fill="#A5D5F2"/>
<rect x="609.303" y="320.951" width="12.0704" height="4.44601" fill="black" fill-opacity="0.04"/>
<rect x="609.303" y="320.951" width="12.0704" height="4.44601" stroke="#A5D5F2"/>
<rect x="609.303" y="320.951" width="12.0704" height="4.44601" stroke="black" stroke-opacity="0.2"/>
<rect x="657.228" y="320.951" width="12.0704" height="4.44601" fill="#A5D5F2"/>
<rect x="657.228" y="320.951" width="12.0704" height="4.44601" fill="black" fill-opacity="0.04"/>
<rect x="657.228" y="320.951" width="12.0704" height="4.44601" stroke="#A5D5F2"/>
<rect x="657.228" y="320.951" width="12.0704" height="4.44601" stroke="black" stroke-opacity="0.2"/>
<rect x="623.462" y="233.814" width="141.685" height="78.5117" fill="#A5D5F2"/>
<rect x="623.462" y="233.814" width="141.685" height="78.5117" fill="white" fill-opacity="0.6"/>
<rect x="623.462" y="233.814" width="141.685" height="78.5117" stroke="#A5D5F2"/>
<rect x="623.462" y="233.814" width="141.685" height="78.5117" stroke="black" stroke-opacity="0.2"/>
<rect x="627.819" y="238.171" width="131.883" height="69.7981" fill="#A5D5F2"/>
<rect x="627.819" y="238.171" width="131.883" height="69.7981" fill="white" fill-opacity="0.6"/>
<rect x="627.819" y="238.171" width="131.883" height="69.7981" stroke="#A5D5F2"/>
<rect x="627.819" y="238.171" width="131.883" height="69.7981" stroke="black" stroke-opacity="0.2"/>
<path opacity="0.5" d="M671.432 307.38H656.183L703.736 212.624H718.026L671.432 307.38Z" fill="white"/>
<path opacity="0.5" d="M703.861 307.38H677.423L723.069 212.794H749.127L703.861 307.38Z" fill="white"/>
<rect x="775.451" y="291.042" width="6.53521" height="1.0892" fill="#A5D5F2"/>
<rect x="775.451" y="291.042" width="6.53521" height="1.0892" fill="black" fill-opacity="0.2"/>
<path d="M715 248.602C704.516 248.602 702.223 238.851 702.223 238.851V225.57L704.745 209.263H725.087L727.777 226.074V238.851C727.777 238.851 725.483 248.602 715 248.602Z" fill="#A5D5F2"/>
<path d="M715 248.602C704.516 248.602 702.223 238.851 702.223 238.851V225.57L704.745 209.263H725.087L727.777 226.074V238.851C727.777 238.851 725.483 248.602 715 248.602Z" fill="white" fill-opacity="0.6"/>
<path d="M715 248.602C704.516 248.602 702.223 238.851 702.223 238.851V225.57L704.745 209.263H725.087L727.777 226.074V238.851C727.777 238.851 725.483 248.602 715 248.602Z" stroke="#A5D5F2"/>
<path d="M715 248.602C704.516 248.602 702.223 238.851 702.223 238.851V225.57L704.745 209.263H725.087L727.777 226.074V238.851C727.777 238.851 725.483 248.602 715 248.602Z" stroke="black" stroke-opacity="0.2"/>
<path d="M612.113 248.77C601.354 248.77 599 238.683 599 238.683V226.242L621.696 209.263H643.214L625.226 225.906V238.683C625.226 238.683 622.872 248.77 612.113 248.77Z" fill="#A5D5F2"/>
<path d="M612.113 248.77C601.354 248.77 599 238.683 599 238.683V226.242L621.696 209.263H643.214L625.226 225.906V238.683C625.226 238.683 622.872 248.77 612.113 248.77Z" fill="white" fill-opacity="0.6"/>
<path d="M612.113 248.77C601.354 248.77 599 238.683 599 238.683V226.242L621.696 209.263H643.214L625.226 225.906V238.683C625.226 238.683 622.872 248.77 612.113 248.77Z" stroke="#A5D5F2"/>
<path d="M612.113 248.77C601.354 248.77 599 238.683 599 238.683V226.242L621.696 209.263H643.214L625.226 225.906V238.683C625.226 238.683 622.872 248.77 612.113 248.77Z" stroke="black" stroke-opacity="0.2"/>
<path d="M817.719 248.77C828.478 248.77 830.832 238.683 830.832 238.683V226.242L808.136 209.263H786.617L804.606 225.738V238.683C804.606 238.683 806.959 248.77 817.719 248.77Z" fill="#A5D5F2"/>
<path d="M817.719 248.77C828.478 248.77 830.832 238.683 830.832 238.683V226.242L808.136 209.263H786.617L804.606 225.738V238.683C804.606 238.683 806.959 248.77 817.719 248.77Z" fill="white" fill-opacity="0.6"/>
<path d="M817.719 248.77C828.478 248.77 830.832 238.683 830.832 238.683V226.242L808.136 209.263H786.617L804.606 225.738V238.683C804.606 238.683 806.959 248.77 817.719 248.77Z" stroke="#A5D5F2"/>
<path d="M817.719 248.77C828.478 248.77 830.832 238.683 830.832 238.683V226.242L808.136 209.263H786.617L804.606 225.738V238.683C804.606 238.683 806.959 248.77 817.719 248.77Z" stroke="black" stroke-opacity="0.2"/>
<path d="M638.339 248.77C627.58 248.77 625.226 238.683 625.226 238.683V225.906L643.214 209.263H664.061L651.452 225.738V238.683C651.452 238.683 649.098 248.77 638.339 248.77Z" fill="#A5D5F2"/>
<path d="M638.339 248.77C627.58 248.77 625.226 238.683 625.226 238.683V225.906L643.214 209.263H664.061L651.452 225.738V238.683C651.452 238.683 649.098 248.77 638.339 248.77Z" fill="white" fill-opacity="0.6"/>
<path d="M638.339 248.77C627.58 248.77 625.226 238.683 625.226 238.683V225.906L643.214 209.263H664.061L651.452 225.738V238.683C651.452 238.683 649.098 248.77 638.339 248.77Z" stroke="#A5D5F2"/>
<path d="M638.339 248.77C627.58 248.77 625.226 238.683 625.226 238.683V225.906L643.214 209.263H664.061L651.452 225.738V238.683C651.452 238.683 649.098 248.77 638.339 248.77Z" stroke="black" stroke-opacity="0.2"/>
<path d="M791.493 248.77C802.252 248.77 804.606 238.683 804.606 238.683V225.738L786.618 209.263H765.771L778.38 225.738V238.683C778.38 238.683 780.734 248.77 791.493 248.77Z" fill="#A5D5F2"/>
<path d="M791.493 248.77C802.252 248.77 804.606 238.683 804.606 238.683V225.738L786.618 209.263H765.771L778.38 225.738V238.683C778.38 238.683 780.734 248.77 791.493 248.77Z" fill="white" fill-opacity="0.6"/>
<path d="M791.493 248.77C802.252 248.77 804.606 238.683 804.606 238.683V225.738L786.618 209.263H765.771L778.38 225.738V238.683C778.38 238.683 780.734 248.77 791.493 248.77Z" stroke="#A5D5F2"/>
<path d="M791.493 248.77C802.252 248.77 804.606 238.683 804.606 238.683V225.738L786.618 209.263H765.771L778.38 225.738V238.683C778.38 238.683 780.734 248.77 791.493 248.77Z" stroke="black" stroke-opacity="0.2"/>
<path d="M663.556 248.77C652.797 248.77 651.452 238.683 651.452 238.683V225.738L664.061 209.263H684.907L676.669 225.738V238.683C676.669 238.683 674.316 248.77 663.556 248.77Z" fill="#A5D5F2"/>
<path d="M663.556 248.77C652.797 248.77 651.452 238.683 651.452 238.683V225.738L664.061 209.263H684.907L676.669 225.738V238.683C676.669 238.683 674.316 248.77 663.556 248.77Z" fill="white" fill-opacity="0.6"/>
<path d="M663.556 248.77C652.797 248.77 651.452 238.683 651.452 238.683V225.738L664.061 209.263H684.907L676.669 225.738V238.683C676.669 238.683 674.316 248.77 663.556 248.77Z" stroke="#A5D5F2"/>
<path d="M663.556 248.77C652.797 248.77 651.452 238.683 651.452 238.683V225.738L664.061 209.263H684.907L676.669 225.738V238.683C676.669 238.683 674.316 248.77 663.556 248.77Z" stroke="black" stroke-opacity="0.2"/>
<path d="M766.276 248.77C777.035 248.77 778.38 238.683 778.38 238.683V225.738L765.771 209.263H744.925L753.163 225.738V238.683C753.163 238.683 755.516 248.77 766.276 248.77Z" fill="#A5D5F2"/>
<path d="M766.276 248.77C777.035 248.77 778.38 238.683 778.38 238.683V225.738L765.771 209.263H744.925L753.163 225.738V238.683C753.163 238.683 755.516 248.77 766.276 248.77Z" fill="white" fill-opacity="0.6"/>
<path d="M766.276 248.77C777.035 248.77 778.38 238.683 778.38 238.683V225.738L765.771 209.263H744.925L753.163 225.738V238.683C753.163 238.683 755.516 248.77 766.276 248.77Z" stroke="#A5D5F2"/>
<path d="M766.276 248.77C777.035 248.77 778.38 238.683 778.38 238.683V225.738L765.771 209.263H744.925L753.163 225.738V238.683C753.163 238.683 755.516 248.77 766.276 248.77Z" stroke="black" stroke-opacity="0.2"/>
<path d="M689.446 248.602C678.963 248.602 676.669 238.851 676.669 238.851V225.738L684.907 209.263H704.745L702.223 225.738V238.851C702.223 238.851 699.93 248.602 689.446 248.602Z" fill="#A5D5F2"/>
<path d="M689.446 248.602C678.963 248.602 676.669 238.851 676.669 238.851V225.738L684.907 209.263H704.745L702.223 225.738V238.851C702.223 238.851 699.93 248.602 689.446 248.602Z" fill="white" fill-opacity="0.6"/>
<path d="M689.446 248.602C678.963 248.602 676.669 238.851 676.669 238.851V225.738L684.907 209.263H704.745L702.223 225.738V238.851C702.223 238.851 699.93 248.602 689.446 248.602Z" stroke="#A5D5F2"/>
<path d="M689.446 248.602C678.963 248.602 676.669 238.851 676.669 238.851V225.738L684.907 209.263H704.745L702.223 225.738V238.851C702.223 238.851 699.93 248.602 689.446 248.602Z" stroke="black" stroke-opacity="0.2"/>
<path d="M740.386 248.602C750.869 248.602 753.162 238.851 753.162 238.851V225.738L744.925 209.263H725.087L727.609 225.738V238.851C727.609 238.851 729.902 248.602 740.386 248.602Z" fill="#A5D5F2"/>
<path d="M740.386 248.602C750.869 248.602 753.162 238.851 753.162 238.851V225.738L744.925 209.263H725.087L727.609 225.738V238.851C727.609 238.851 729.902 248.602 740.386 248.602Z" fill="white" fill-opacity="0.6"/>
<path d="M740.386 248.602C750.869 248.602 753.162 238.851 753.162 238.851V225.738L744.925 209.263H725.087L727.609 225.738V238.851C727.609 238.851 729.902 248.602 740.386 248.602Z" stroke="#A5D5F2"/>
<path d="M740.386 248.602C750.869 248.602 753.162 238.851 753.162 238.851V225.738L744.925 209.263H725.087L727.609 225.738V238.851C727.609 238.851 729.902 248.602 740.386 248.602Z" stroke="black" stroke-opacity="0.2"/>
<path d="M599 226.077H830.664" stroke="#A5D5F2"/>
<path d="M599 226.077H830.664" stroke="black" stroke-opacity="0.2"/>
 <rect x="608.5" y="179.645" width="6" height="4" fill="#B7DDF5"/>
<rect x="608.5" y="179.645" width="6" height="4" fill="black" fill-opacity="0.04"/>
<rect x="608.5" y="179.645" width="6" height="4" stroke="#A5D5F2"/>
<rect x="608.5" y="179.645" width="6" height="4" stroke="black" stroke-opacity="0.12"/>
 <rect x="-0.5" y="0.5" width="6" height="4" transform="matrix(-1 0 0 1 822 179.145)" fill="#B7DDF5"/>
<rect x="-0.5" y="0.5" width="6" height="4" transform="matrix(-1 0 0 1 822 179.145)" fill="black" fill-opacity="0.04"/>
<rect x="-0.5" y="0.5" width="6" height="4" transform="matrix(-1 0 0 1 822 179.145)" stroke="#A5D5F2"/>
 <rect x="-0.5" y="0.5" width="6" height="4" transform="matrix(-1 0 0 1 822 179.145)" stroke="black" stroke-opacity="0.12"/>
<rect x="0.5" y="-0.5" width="6" height="4" transform="matrix(1 0 0 -1 608 167.145)" fill="#B7DDF5"/>
 <rect x="0.5" y="-0.5" width="6" height="4" transform="matrix(1 0 0 -1 608 167.145)" fill="black" fill-opacity="0.04"/>
<rect x="0.5" y="-0.5" width="6" height="4" transform="matrix(1 0 0 -1 608 167.145)" stroke="#A5D5F2"/>
 <rect x="0.5" y="-0.5" width="6" height="4" transform="matrix(1 0 0 -1 608 167.145)" stroke="black" stroke-opacity="0.12"/> 
<rect x="822.5" y="167.645" width="6" height="4" transform="rotate(-180 822.5 167.645)" fill="#B7DDF5"/>
 <rect x="822.5" y="167.645" width="6" height="4" transform="rotate(-180 822.5 167.645)" fill="black" fill-opacity="0.04"/> 
<rect x="822.5" y="167.645" width="6" height="4" transform="rotate(-180 822.5 167.645)" stroke="#A5D5F2"/>
<rect x="822.5" y="167.645" width="6" height="4" transform="rotate(-180 822.5 167.645)" stroke="black" stroke-opacity="0.12"/>
<rect x="619.5" y="183.645" width="11" height="4" fill="#B7DDF5"/>
<rect x="619.5" y="183.645" width="11" height="4" fill="black" fill-opacity="0.04"/>
<rect x="619.5" y="183.645" width="11" height="4" stroke="#A5D5F2"/>
<rect x="619.5" y="183.645" width="11" height="4" stroke="black" stroke-opacity="0.12"/>
<rect x="-0.5" y="0.5" width="11" height="4" transform="matrix(-1 0 0 1 811 183.145)" fill="#B7DDF5"/>
<rect x="-0.5" y="0.5" width="11" height="4" transform="matrix(-1 0 0 1 811 183.145)" fill="black" fill-opacity="0.04"/>
<rect x="-0.5" y="0.5" width="11" height="4" transform="matrix(-1 0 0 1 811 183.145)" stroke="#A5D5F2"/>
<rect x="-0.5" y="0.5" width="11" height="4" transform="matrix(-1 0 0 1 811 183.145)" stroke="black" stroke-opacity="0.12"/>
<rect x="608.5" y="183.645" width="11" height="4" fill="#B7DDF5"/>
<rect x="608.5" y="183.645" width="11" height="4" fill="black" fill-opacity="0.04"/>
<rect x="608.5" y="183.645" width="11" height="4" stroke="#A5D5F2"/>
<rect x="608.5" y="183.645" width="11" height="4" stroke="black" stroke-opacity="0.12"/>
<rect x="-0.5" y="0.5" width="11" height="4" transform="matrix(-1 0 0 1 822 183.145)" fill="#B7DDF5"/>
<rect x="-0.5" y="0.5" width="11" height="4" transform="matrix(-1 0 0 1 822 183.145)" fill="black" fill-opacity="0.04"/>
<rect x="-0.5" y="0.5" width="11" height="4" transform="matrix(-1 0 0 1 822 183.145)" stroke="#A5D5F2"/>
<rect x="-0.5" y="0.5" width="11" height="4" transform="matrix(-1 0 0 1 822 183.145)" stroke="black" stroke-opacity="0.12"/>
<rect x="0.5" y="-0.5" width="11" height="4" transform="matrix(1 0 0 -1 608 163.145)" fill="#B7DDF5"/>
<rect x="0.5" y="-0.5" width="11" height="4" transform="matrix(1 0 0 -1 608 163.145)" fill="black" fill-opacity="0.04"/>
<rect x="0.5" y="-0.5" width="11" height="4" transform="matrix(1 0 0 -1 608 163.145)" stroke="#A5D5F2"/>
 <rect x="0.5" y="-0.5" width="11" height="4" transform="matrix(1 0 0 -1 608 163.145)" stroke="black" stroke-opacity="0.12"/> 
<rect x="822.5" y="163.645" width="11" height="4" transform="rotate(-180 822.5 163.645)" fill="#B7DDF5"/>
<rect x="822.5" y="163.645" width="11" height="4" transform="rotate(-180 822.5 163.645)" fill="black" fill-opacity="0.04"/> 
<rect x="822.5" y="163.645" width="11" height="4" transform="rotate(-180 822.5 163.645)" stroke="#A5D5F2"/>
<rect x="822.5" y="163.645" width="11" height="4" transform="rotate(-180 822.5 163.645)" stroke="black" stroke-opacity="0.12"/>
</g>
<!-- <defs>
<clipPath id="clip0_716_18085">
<rect width="2880" height="340" fill="white" transform="translate(-1440)"/>
</clipPath>
<clipPath id="clip1_716_18085">
<rect width="67" height="239.984" fill="white" transform="translate(1224 99.9941)"/>
</clipPath>
</defs> -->
</svg>
