<svg width="95" height="45" viewBox="0 0 95 45" fill="none" xmlns="http://www.w3.org/2000/svg">
<g clip-path="url(#clip0_218_39)">
<path d="M0 27H2.83V40.91H0V27Z" fill="black"/>
<path d="M4.48 36.15C4.47282 35.1504 4.76541 34.1716 5.32 33.34C5.72861 32.7129 6.27277 32.1856 6.91234 31.7969C7.55192 31.4083 8.2706 31.1681 9.01536 31.0942C9.76013 31.0203 10.512 31.1145 11.2155 31.37C11.919 31.6254 12.5561 32.0355 13.08 32.57C13.79 33.2709 14.2711 34.1704 14.46 35.15C14.6742 36.2129 14.5407 37.3166 14.079 38.2978C13.6173 39.2789 12.8521 40.0854 11.8966 40.598C10.941 41.1105 9.84588 41.3019 8.77314 41.1438C7.70039 40.9857 6.70703 40.4864 5.94 39.72C5.46746 39.2543 5.09635 38.696 4.85 38.08C4.59787 37.4682 4.47202 36.8117 4.48 36.15ZM11.71 36.15C11.6972 35.7177 11.559 35.2986 11.3122 34.9435C11.0654 34.5884 10.7207 34.3127 10.32 34.15C9.91806 33.9975 9.48097 33.9628 9.06 34.05C8.65384 34.1546 8.28606 34.3732 8 34.68C7.69803 34.9862 7.49583 35.3767 7.42 35.8C7.33767 36.2236 7.38291 36.6621 7.55 37.06C7.71689 37.4651 7.9984 37.8126 8.36 38.06C8.71789 38.3002 9.13896 38.429 9.57 38.43C9.86426 38.4322 10.1562 38.3778 10.43 38.27C10.7034 38.1567 10.9516 37.9901 11.16 37.78C11.3631 37.566 11.5227 37.3147 11.63 37.04C11.7202 36.7525 11.7475 36.449 11.71 36.15Z" fill="black"/>
<path d="M26 31.39V40.39C26 43.59 23.5 44.94 21 44.94C20.109 45.0002 19.2181 44.8206 18.42 44.42C17.6283 44.0064 16.9619 43.3883 16.49 42.63L18.93 41.23C19.1216 41.62 19.4289 41.9412 19.81 42.15C20.1851 42.367 20.6186 42.4614 21.05 42.42C21.333 42.485 21.627 42.485 21.91 42.42C22.1869 42.3365 22.4403 42.1892 22.65 41.99C22.8639 41.7947 23.0285 41.5513 23.13 41.28C23.2308 41.0122 23.2684 40.7247 23.24 40.44V39.56C22.9081 39.9708 22.483 40.2965 22 40.51C21.5189 40.7217 20.9949 40.8176 20.47 40.79C19.2257 40.7334 18.0512 40.1993 17.1907 39.2987C16.3301 38.3982 15.8499 37.2006 15.8499 35.955C15.8499 34.7094 16.3301 33.5118 17.1907 32.6113C18.0512 31.7107 19.2257 31.1766 20.47 31.12C20.9953 31.1009 21.5181 31.2 22 31.41C22.4813 31.6265 22.9057 31.9516 23.24 32.36V31.42L26 31.39ZM23.16 36C23.1782 35.5394 23.0599 35.0836 22.82 34.69C22.5823 34.3007 22.2342 33.9909 21.82 33.8C21.3979 33.6194 20.9338 33.5605 20.48 33.63C20.0281 33.7091 19.6102 33.9215 19.28 34.24C18.9496 34.5605 18.7202 34.9707 18.62 35.42C18.5487 35.7558 18.5531 36.1033 18.6329 36.4371C18.7127 36.771 18.8659 37.0829 19.0814 37.3501C19.2969 37.6173 19.5693 37.8332 19.8787 37.9819C20.1881 38.1307 20.5267 38.2086 20.87 38.21C21.1685 38.2305 21.4679 38.1897 21.75 38.09C22.0308 37.9829 22.2888 37.8234 22.51 37.62C22.7246 37.4097 22.8932 37.1571 23.0051 36.8782C23.117 36.5994 23.1697 36.3003 23.16 36Z" fill="black"/>
<path d="M27.58 36.15C27.5554 35.1417 27.8362 34.1496 28.3857 33.3038C28.9352 32.4581 29.7276 31.7983 30.6589 31.4111C31.5901 31.0239 32.6167 30.9273 33.6039 31.1342C34.591 31.341 35.4925 31.8415 36.19 32.57C36.8942 33.2768 37.3742 34.1757 37.5698 35.154C37.7655 36.1324 37.6682 37.1467 37.29 38.07C36.9052 38.9895 36.2583 39.7755 35.43 40.33C34.6023 40.8862 33.6272 41.1822 32.63 41.18C31.9662 41.1865 31.3078 41.0607 30.6932 40.81C30.0785 40.5593 29.5199 40.1888 29.05 39.72C28.5959 39.2474 28.2391 38.6902 28 38.08C27.7356 37.4702 27.5929 36.8145 27.58 36.15ZM34.82 36.15C34.8094 35.719 34.6701 35.3011 34.42 34.95C34.1723 34.5933 33.8243 34.3184 33.42 34.16C33.0146 34.0072 32.5743 33.9725 32.15 34.06C31.73 34.153 31.3471 34.3689 31.05 34.68C30.7449 34.9853 30.5392 35.3757 30.46 35.8C30.3808 36.2246 30.4295 36.6631 30.6 37.06C30.7661 37.4626 31.0437 37.8095 31.4 38.06C31.761 38.3016 32.1856 38.4304 32.62 38.43C32.9121 38.4336 33.2017 38.3757 33.47 38.26C33.7431 38.1515 33.9889 37.9842 34.19 37.77C34.3908 37.5581 34.5502 37.3105 34.66 37.04C34.7574 36.7641 34.8015 36.4723 34.79 36.18L34.82 36.15Z" fill="black"/>
<path d="M39 28.84C38.9933 28.5063 39.0844 28.1779 39.2621 27.8954C39.4398 27.6129 39.6963 27.3885 40 27.25C40.3167 27.1207 40.664 27.086 41 27.15C41.3333 27.2163 41.6395 27.3798 41.88 27.62C42.1248 27.8584 42.2921 28.1651 42.36 28.5C42.4223 28.8361 42.3876 29.1829 42.26 29.5C42.1283 29.8148 41.9054 30.0829 41.62 30.27C41.3395 30.4596 41.0086 30.5607 40.67 30.56C40.4447 30.5589 40.2218 30.5133 40.0141 30.4258C39.8064 30.3382 39.6181 30.2105 39.46 30.05C39.1559 29.7214 38.991 29.2877 39 28.84ZM39.29 31.39H42.13V40.91H39.27L39.29 31.39Z" fill="black"/>
<path d="M54.46 36.15C54.4911 36.7783 54.3994 37.4067 54.19 38C53.9712 38.5999 53.6308 39.148 53.19 39.61C52.7704 40.0786 52.2615 40.4589 51.6932 40.7285C51.1248 40.998 50.5084 41.1515 49.88 41.18C49.3494 41.2109 48.8189 41.1185 48.33 40.91C47.8523 40.7008 47.4258 40.3903 47.08 40V44.72H44.25V31.39H47.08V32.29C47.4391 31.8993 47.8794 31.5921 48.37 31.39C48.8616 31.1908 49.39 31.0988 49.92 31.12C50.5477 31.1531 51.1627 31.3094 51.73 31.58C52.2973 31.8492 52.8067 32.2262 53.23 32.69C54.0824 33.6347 54.5248 34.8792 54.46 36.15ZM51.63 36.15C51.6132 35.7062 51.4711 35.2763 51.22 34.91C50.966 34.5466 50.6103 34.2664 50.1975 34.1045C49.7847 33.9426 49.3333 33.9062 48.9 34C48.4675 34.0846 48.0703 34.2971 47.76 34.61C47.4436 34.9232 47.2278 35.3236 47.14 35.76C47.0516 36.1949 47.0897 36.6461 47.25 37.06C47.423 37.4614 47.7033 37.8074 48.06 38.06C48.4264 38.3095 48.8568 38.4484 49.3 38.46C49.7659 38.4866 50.2283 38.3643 50.6202 38.1108C51.012 37.8574 51.3132 37.4859 51.48 37.05C51.5831 36.7582 51.6273 36.4489 51.61 36.14L51.63 36.15Z" fill="black"/>
<path d="M63.28 38.06C63.28 40.25 61.39 41.18 59.28 41.18C58.4498 41.2512 57.6173 41.0732 56.8887 40.6689C56.1602 40.2645 55.5688 39.6522 55.19 38.91L57.67 37.51C57.7685 37.8529 57.9844 38.1503 58.28 38.35C58.5686 38.561 58.9238 38.6605 59.28 38.63C59.97 38.63 60.28 38.41 60.28 38.04C60.28 37.04 55.56 37.55 55.56 34.26C55.56 32.18 57.32 31.13 59.34 31.13C60.0808 31.1092 60.814 31.2829 61.4668 31.6338C62.1195 31.9848 62.6688 32.5006 63.06 33.13L60.57 34.44C60.463 34.1913 60.2858 33.9793 60.06 33.83C59.8308 33.6808 59.5635 33.6009 59.29 33.6C58.8 33.6 58.5 33.78 58.5 34.13C58.59 35.26 63.28 34.53 63.28 38.06Z" fill="black"/>
<path d="M73.7 31.39V40.91H70.87V40C70.5366 40.3909 70.1197 40.7018 69.65 40.91C69.1772 41.1123 68.6628 41.198 68.15 41.16C66.26 41.16 64.59 39.79 64.59 37.16V31.39H67.42V36.82C67.4014 37.0497 67.4286 37.2809 67.5 37.5C67.6251 37.8219 67.8522 38.094 68.1465 38.2746C68.4409 38.4552 68.7864 38.5344 69.13 38.5C70.13 38.5 70.9 37.89 70.9 36.5V31.3L73.7 31.39Z" fill="black"/>
<path d="M90.08 35.07V40.91H87.24V35.32C87.24 34.32 86.78 33.75 85.87 33.75C84.96 33.75 84.38 34.42 84.38 35.54V40.91H81.55V35.32C81.55 34.32 81.1 33.75 80.18 33.75C79.26 33.75 78.7 34.42 78.7 35.54V40.91H75.87V31.39H78.7V32.27C78.9931 31.8779 79.3823 31.568 79.83 31.37C80.276 31.1725 80.7634 31.0867 81.25 31.12C81.7379 31.0984 82.2232 31.2017 82.66 31.42C83.1033 31.6502 83.4764 31.9957 83.74 32.42C84.0586 31.9967 84.478 31.6597 84.96 31.4396C85.442 31.2196 85.9714 31.1234 86.5 31.16C88.65 31.12 90.08 32.69 90.08 35.07Z" fill="black"/>
<path d="M92.49 31.33C92.9101 31.332 93.3214 31.2091 93.6716 30.9769C94.0217 30.7447 94.295 30.4137 94.4567 30.0259C94.6184 29.6381 94.6612 29.2111 94.5797 28.7989C94.4982 28.3867 94.2961 28.008 93.999 27.711C93.702 27.4139 93.3233 27.2118 92.9111 27.1303C92.499 27.0488 92.0719 27.0916 91.6841 27.2533C91.2963 27.415 90.9653 27.6883 90.7331 28.0384C90.5009 28.3886 90.378 28.7999 90.38 29.22C90.3826 29.7788 90.6058 30.314 91.0009 30.7091C91.396 31.1042 91.9312 31.3274 92.49 31.33Z" fill="black"/>
<path d="M32.06 19.81C34.0204 19.81 35.9368 19.2285 37.5667 18.1392C39.1966 17.0498 40.4668 15.5015 41.2166 13.6901C41.9664 11.8787 42.162 9.88559 41.7788 7.96297C41.3957 6.04034 40.4508 4.27457 39.0639 2.88903C37.6769 1.50349 35.9102 0.560444 33.9872 0.179195C32.0642 -0.202055 30.0713 -0.00437623 28.2607 0.747222C26.45 1.49882 24.903 2.77057 23.8153 4.40157C22.7276 6.03258 22.148 7.94956 22.15 9.90999C22.15 11.2109 22.4064 12.4991 22.9045 13.7009C23.4027 14.9026 24.1328 15.9945 25.0532 16.9139C25.9735 17.8333 27.0661 18.5623 28.2684 19.0593C29.4706 19.5562 30.7591 19.8113 32.06 19.81Z" fill="#A4BC96"/>
<path d="M54.2 19.81C56.1609 19.812 58.0782 19.2322 59.7095 18.144C61.3407 17.0559 62.6124 15.5082 63.3637 13.697C64.115 11.8858 64.3121 9.89238 63.9301 7.9691C63.548 6.04582 62.604 4.27911 61.2174 2.89257C59.8309 1.50603 58.0642 0.561986 56.1409 0.179925C54.2176 -0.202135 52.2242 -0.00504148 50.413 0.746262C48.6018 1.49757 47.0541 2.76931 45.966 4.40053C44.8778 6.03175 44.298 7.94913 44.3 9.90999C44.3026 12.5348 45.3465 15.0514 47.2026 16.9074C49.0586 18.7635 51.5752 19.8073 54.2 19.81Z" fill="#A4BC96"/>
<path d="M19.82 0H0V19.8H19.8L19.82 0Z" fill="#A4BC96"/>
</g>
<defs>
<clipPath id="clip0_218_39">
<rect width="94.61" height="45" fill="white"/>
</clipPath>
</defs>
</svg>
