<svg width="206" height="72" viewBox="0 0 206 72" fill="none" xmlns="http://www.w3.org/2000/svg">
<path d="M89.0371 49.1608C89.7717 49.6176 90.3756 50.2557 90.7903 51.0133C91.205 51.7708 91.4164 52.6222 91.4042 53.485C91.4042 60.9542 84.8054 62.9929 78.5649 62.9929C76.3696 63.0095 74.1761 62.8661 72.0018 62.564C70.8539 62.3499 70.3521 62.0276 70.3521 61.0275C70.3618 60.7641 70.3861 60.5014 70.4249 60.2407L74.2626 38.5127C74.5495 36.9043 75.1591 36.4035 76.5933 36.1902C78.7719 35.9374 80.9631 35.8063 83.1564 35.7975C89.0735 35.7975 93.1981 37.5125 93.1981 41.9079C93.1974 44.8742 91.906 47.8732 89.0371 49.1608ZM82.0792 51.2656H78.0631L76.8795 57.9487C77.4534 57.9487 79.318 57.985 79.8198 57.985C82.7966 57.985 85.415 57.2693 85.415 53.7318C85.415 52.3405 84.5541 51.2685 82.0828 51.2685L82.0792 51.2656ZM82.6531 40.7946C82.0792 40.7946 80.4302 40.7946 79.9276 40.8301L78.8162 47.0124H82.8323C85.5585 47.0124 87.1718 45.6908 87.1718 42.903C87.1718 41.3331 85.8812 40.7975 82.6531 40.7975V40.7946Z" fill="#001C4B"/>
<path d="M100.947 42.9059L97.5754 61.9543C97.5317 62.1515 97.4235 62.3288 97.2678 62.4581C97.1122 62.5875 96.9178 62.6617 96.7153 62.6692H92.3393C92.2629 62.6732 92.1865 62.6611 92.1151 62.6338C92.0436 62.6064 91.9788 62.5644 91.9246 62.5105C91.8705 62.4566 91.8284 62.392 91.801 62.3208C91.7735 62.2496 91.7614 62.1734 91.7654 62.0973V61.9521L95.1369 42.9037C95.1723 42.7089 95.2733 42.532 95.4232 42.402C95.5731 42.2721 95.7629 42.1969 95.9614 42.1888H100.337C100.418 42.185 100.499 42.1981 100.575 42.2273C100.651 42.2564 100.72 42.301 100.777 42.3582C100.834 42.4154 100.879 42.4839 100.908 42.5594C100.938 42.6348 100.951 42.7155 100.947 42.7963V42.9059ZM102.31 35.8294L101.736 39.1528C101.692 39.3502 101.583 39.5274 101.428 39.6569C101.272 39.7863 101.078 39.8608 100.875 39.8685H96.2134C96.137 39.8724 96.0606 39.8603 95.9892 39.833C95.9177 39.8057 95.8528 39.7637 95.7987 39.7098C95.7446 39.6558 95.7025 39.5912 95.6751 39.52C95.6476 39.4488 95.6355 39.3727 95.6395 39.2965V39.1514L96.2134 35.828C96.2576 35.6309 96.366 35.4539 96.5217 35.3247C96.6775 35.1955 96.8718 35.1213 97.0743 35.1138H101.736C101.812 35.1098 101.888 35.1219 101.96 35.1492C102.031 35.1765 102.096 35.2184 102.15 35.2723C102.204 35.3261 102.246 35.3906 102.274 35.4617C102.301 35.5328 102.314 35.6089 102.31 35.685V35.8294Z" fill="#001C4B"/>
<path d="M119.274 43.4067L118.807 46.0508C118.718 46.5143 118.508 46.9461 118.197 47.302L109.267 57.4159C109.192 57.4809 109.141 57.5686 109.121 57.6656C109.121 57.773 109.194 57.8108 109.34 57.8108H116.154C116.221 57.8017 116.289 57.8069 116.353 57.826C116.418 57.8451 116.477 57.8776 116.528 57.9215C116.579 57.9654 116.62 58.0196 116.648 58.0805C116.676 58.1413 116.691 58.2075 116.692 58.2745V58.382L116.082 61.9558C116.038 62.1531 115.93 62.3303 115.774 62.4597C115.618 62.589 115.424 62.6632 115.221 62.6707H101.772C101.198 62.6707 100.731 62.4921 100.731 61.8128C100.725 61.7043 100.738 61.5957 100.768 61.4913L101.163 59.2043C101.252 58.6796 101.517 58.2006 101.915 57.8456L111.276 47.2694C111.36 47.1969 111.412 47.0945 111.421 46.9841C111.421 46.8767 111.349 46.839 111.207 46.839H104.287C104.222 46.8476 104.156 46.8419 104.094 46.8222C104.032 46.8025 103.975 46.7693 103.927 46.725C103.879 46.6807 103.841 46.6263 103.817 46.5658C103.792 46.5054 103.782 46.4403 103.785 46.3752V46.267L104.395 42.9081C104.43 42.7133 104.531 42.5363 104.681 42.4064C104.831 42.2764 105.021 42.2012 105.22 42.1932H118.31C118.884 42.1932 119.314 42.4436 119.314 43.0866C119.318 43.1948 119.305 43.3029 119.274 43.4067Z" fill="#001C4B"/>
<path d="M140.112 37.0088L139.502 40.3322C139.467 40.5272 139.366 40.7043 139.216 40.8344C139.066 40.9645 138.876 41.0398 138.678 41.0479H131.394C129.709 41.0479 128.991 41.6198 128.669 43.4771L128.095 46.6938H137.386C137.463 46.6897 137.539 46.7017 137.611 46.729C137.682 46.7563 137.747 46.7983 137.801 46.8522C137.855 46.9062 137.897 46.9709 137.925 47.0421C137.952 47.1134 137.964 47.1895 137.96 47.2657V47.4109L137.386 50.8061C137.342 51.0034 137.234 51.1805 137.078 51.3099C136.922 51.4392 136.728 51.5135 136.525 51.521H127.24L125.412 61.9565C125.368 62.1538 125.259 62.331 125.104 62.4604C124.948 62.5898 124.753 62.664 124.551 62.6714H119.889C119.813 62.6755 119.736 62.6635 119.665 62.6362C119.593 62.6089 119.528 62.5669 119.474 62.5129C119.42 62.459 119.378 62.3943 119.351 62.3231C119.323 62.2518 119.311 62.1756 119.315 62.0995V61.9543L122.579 43.4771C123.763 36.7272 127.707 35.7946 132.657 35.7946C134.95 35.7593 137.241 35.9267 139.504 36.2947C139.934 36.3672 140.15 36.5088 140.15 36.8303C140.133 36.889 140.121 36.9486 140.112 37.0088Z" fill="#009CDC"/>
<path d="M149.583 35.9731L144.994 61.9187C144.959 62.1173 144.86 62.2988 144.71 62.4346C144.561 62.5705 144.37 62.653 144.169 62.6692H139.794C139.711 62.6688 139.628 62.6516 139.552 62.6187C139.476 62.5857 139.407 62.5377 139.35 62.4775C139.293 62.4173 139.249 62.3462 139.221 62.2685C139.192 62.1908 139.18 62.1081 139.184 62.0254V61.9187L143.773 35.9731C143.817 35.7758 143.925 35.5986 144.081 35.4691C144.236 35.3396 144.431 35.2652 144.633 35.2575H149.009C149.086 35.2535 149.162 35.2656 149.234 35.2929C149.305 35.3203 149.37 35.3623 149.424 35.4162C149.478 35.4701 149.52 35.5348 149.548 35.606C149.575 35.6771 149.587 35.7533 149.583 35.8294L149.583 35.9731Z" fill="#009CDC"/>
<path d="M168.592 43.8705L165.436 61.9543C165.4 62.1489 165.298 62.3255 165.148 62.4553C164.999 62.5851 164.809 62.6605 164.611 62.6692H160.952C160.872 62.6699 160.792 62.6546 160.718 62.6243C160.644 62.5941 160.576 62.5493 160.52 62.4928C160.463 62.4362 160.418 62.369 160.388 62.295C160.357 62.221 160.342 62.1417 160.343 62.0617V61.9543L160.488 60.9179C158.94 62.2427 156.97 62.9772 154.929 62.9907C150.626 62.9907 148.904 59.7029 148.904 56.1291C148.91 55.4582 148.97 54.7888 149.084 54.1274C149.084 54.1274 149.55 51.4477 149.658 50.7684C150.733 44.5498 154.607 41.905 160.237 41.905C162.737 41.9316 165.226 42.2312 167.661 42.7985C168.271 42.9436 168.629 43.0489 168.629 43.5852C168.632 43.6817 168.619 43.778 168.592 43.8705ZM159.482 46.6582C156.936 46.6582 155.895 48.1599 155.393 51.0544L154.748 54.8067C154.676 55.1958 154.64 55.5905 154.64 55.9861C154.64 57.1655 155.071 58.1635 156.685 58.1635C158.036 58.0645 159.342 57.6347 160.486 56.9122L162.243 46.8702C161.329 46.7318 160.406 46.661 159.482 46.6582Z" fill="#009CDC"/>
<path d="M185.7 43.5489L185.198 46.4434C185.184 46.6252 185.103 46.7955 184.971 46.9211C184.838 47.0467 184.663 47.1186 184.48 47.1227H184.373C182.422 46.8639 180.459 46.7088 178.491 46.6582H178.346C177.413 46.6582 176.373 46.6938 176.373 47.9095C176.373 48.3384 176.66 48.66 177.234 49.0171L181.215 51.5573C183.438 52.9871 184.048 54.5955 184.048 55.989C184.048 61.1712 179.817 62.9936 175.19 62.9936C173.037 62.992 170.894 62.728 168.806 62.2076C168.654 62.182 168.516 62.1031 168.418 61.9851C168.319 61.8672 168.266 61.718 168.268 61.5646V61.3853L168.806 58.4908C168.832 58.2949 168.932 58.116 169.085 57.9902C169.238 57.8643 169.433 57.8008 169.631 57.8122H169.739C171.736 58.0897 173.748 58.2566 175.764 58.3123C176.983 58.3123 178.131 58.2049 178.131 56.7039C178.131 56.2394 177.844 55.7749 177.055 55.2741L172.859 52.5938C172.14 52.1402 171.549 51.5119 171.142 50.768C170.734 50.0241 170.523 49.189 170.528 48.3414C170.528 43.3377 174.616 41.9079 178.92 41.9079C181.028 41.9019 183.127 42.1785 185.161 42.7303C185.313 42.7557 185.451 42.8346 185.549 42.9525C185.648 43.0705 185.701 43.2197 185.699 43.3733L185.7 43.5489Z" fill="#009CDC"/>
<path d="M205.857 49.4467L203.672 61.955C203.628 62.1523 203.52 62.3294 203.364 62.4588C203.209 62.5881 203.014 62.6624 202.811 62.6699H198.436C198.359 62.6739 198.283 62.6618 198.211 62.6345C198.14 62.6071 198.075 62.5651 198.021 62.5112C197.967 62.4573 197.925 62.3926 197.898 62.3214C197.87 62.2502 197.858 62.1741 197.862 62.098V61.9528L200.047 49.4801C200.114 49.1507 200.15 48.8159 200.156 48.48C200.156 47.0857 199.366 46.6212 197.43 46.6212C196.442 46.6136 195.456 46.7094 194.489 46.9072L191.835 61.9173C191.793 62.1184 191.686 62.3004 191.531 62.4357C191.375 62.5711 191.18 62.6525 190.974 62.6677H186.635C186.552 62.6673 186.47 62.65 186.394 62.617C186.317 62.5841 186.249 62.536 186.192 62.4758C186.135 62.4157 186.091 62.3446 186.062 62.2669C186.033 62.1893 186.021 62.1066 186.025 62.024V61.9173L190.614 35.9717C190.649 35.7767 190.75 35.5996 190.9 35.4695C191.05 35.3394 191.24 35.2641 191.438 35.2561H195.814C195.895 35.2523 195.976 35.2655 196.052 35.2948C196.128 35.324 196.196 35.3687 196.254 35.426C196.311 35.4832 196.356 35.5518 196.385 35.6273C196.414 35.7028 196.427 35.7835 196.423 35.8643V35.9717L195.275 42.3681C196.535 42.084 197.821 41.9284 199.113 41.9036C203.774 41.9036 205.999 44.4054 205.999 47.8718C206.003 48.4001 205.956 48.9276 205.857 49.4467Z" fill="#009CDC"/>
<path d="M56.8818 5.5944L28.777 53.8639H3.9768C-0.670062 53.8639 -0.670056 51.4115 1.07361 48.7064L29.3196 0H54.7244C58.1134 0 59.2475 1.82972 56.8818 5.5944Z" fill="#001C4B"/>
<path d="M22.6723 72H34.0345L70.3951 36.0007H39.1555L21.1144 67.1089C19.5907 69.7798 19.0764 72 22.6723 72Z" fill="#009CDC"/>
<g style="mix-blend-mode:multiply" opacity="0.45">
<path style="mix-blend-mode:multiply" opacity="0.45" d="M28.8145 53.8313L70.3929 36H39.1555L28.8145 53.8313Z" fill="url(#paint0_linear_14_3288)"/>
</g>
<defs>
<linearGradient id="paint0_linear_14_3288" x1="70.7671" y1="21.521" x2="60.5101" y2="72.0589" gradientUnits="userSpaceOnUse">
<stop stop-color="white"/>
<stop offset="1" stop-color="#1A1818"/>
</linearGradient>
</defs>
</svg>
