<svg width="264" height="226" viewBox="0 0 264 226" fill="none" xmlns="http://www.w3.org/2000/svg">
<path fill-rule="evenodd" clip-rule="evenodd" d="M187.27 23.2428C191.434 19.2516 200.546 14.0801 210.523 10.8762C215.455 9.29266 220.41 8.25297 224.879 8.04035C229.387 7.82589 233.093 8.46649 235.792 9.92615C238.622 11.457 239.991 13.2802 240.569 15.0302C241.163 16.8295 241.081 19.0416 240.104 21.5647C238.113 26.706 232.658 32.3484 224.887 35.7767C221.254 37.3798 216.035 38.367 209.968 38.8473C203.973 39.3217 197.464 39.2799 191.435 39.0031C185.417 38.7267 179.945 38.2195 176.042 37.7816C175.851 37.7602 175.665 37.739 175.482 37.7181C176.245 36.2642 177.037 34.9284 177.996 33.5494C179.921 30.7795 182.614 27.7042 187.27 23.2428ZM164.052 44.6605C161.533 44.2268 158.609 43.7114 155.367 43.1399L155.367 43.1398C144.603 41.2425 130.335 38.7273 115.731 36.535C104.88 34.906 93.9768 33.4778 84.4211 32.6483C74.7771 31.8112 66.8093 31.6141 61.6808 32.321C40.7861 35.201 24.391 49.3895 22.9844 71.8774L15 71.378C16.6864 44.4157 36.6343 27.6976 60.5885 24.3959C66.6721 23.5574 75.4097 23.836 85.1129 24.6783C94.9043 25.5282 105.991 26.9832 116.919 28.6236C131.588 30.8257 146.217 33.4033 157.046 35.3113L157.046 35.3113C160.855 35.9825 164.194 36.5709 166.899 37.0308C168.222 34.2214 169.554 31.6781 171.427 28.983C173.778 25.6007 176.889 22.1103 181.734 17.467C187.07 12.3536 197.407 6.68564 208.077 3.25924C213.47 1.52758 219.139 0.304388 224.499 0.0493879C229.82 -0.203765 235.149 0.483286 239.598 2.88952C243.915 5.22457 246.846 8.52539 248.165 12.5212C249.469 16.4677 249.047 20.6233 247.564 24.4534C244.635 32.0184 237.346 39.0243 228.117 43.096C223.25 45.2429 216.969 46.3182 210.599 46.8223C204.156 47.3322 197.29 47.2803 191.068 46.9946C184.837 46.7085 179.184 46.1844 175.15 45.7317C174.04 45.6072 173.049 45.4877 172.199 45.3795C168.778 56.0866 168.711 65.189 169.056 71.4031L161.069 71.8473C160.71 65.3966 160.751 55.8775 164.052 44.6605Z" fill="#DEE1E6"/>
<rect y="69.9355" width="264" height="156" rx="12" fill="#4A5566"/>
<path d="M4 83.9355C4 78.4127 8.47715 73.9355 14 73.9355H250C255.523 73.9355 260 78.4127 260 83.9355V145.936H4V83.9355Z" fill="#4A5566"/>
<path d="M4 83.9355C4 78.4127 8.47715 73.9355 14 73.9355H250C255.523 73.9355 260 78.4127 260 83.9355V145.936H4V83.9355Z" fill="white" fill-opacity="0.2"/>
<path d="M24 83.9355C24 78.4127 28.4772 73.9355 34 73.9355H250C255.523 73.9355 260 78.4127 260 83.9355V145.936H24V83.9355Z" fill="#4A5566"/>
<path d="M24 83.9355C24 78.4127 28.4772 73.9355 34 73.9355H250C255.523 73.9355 260 78.4127 260 83.9355V145.936H24V83.9355Z" fill="white" fill-opacity="0.1"/>
<path d="M117.953 93.7635L117.005 93.6195V93.0195H120.269V93.6195L119.237 93.7635V96.9915H123.461V93.7635L122.489 93.6195V93.0195H125.705V93.6195L124.757 93.7635V101.228L125.705 101.348V101.936H122.477V101.348L123.461 101.228V97.7355H119.237V101.228L120.281 101.348V101.936H116.981V101.348L117.953 101.228V93.7635ZM129.931 102.068C128.963 102.068 128.223 101.752 127.711 101.12C127.207 100.488 126.955 99.6435 126.955 98.5875C126.955 97.8915 127.087 97.2795 127.351 96.7515C127.615 96.2235 127.983 95.8155 128.455 95.5275C128.935 95.2395 129.479 95.0955 130.087 95.0955C130.831 95.0955 131.407 95.3035 131.815 95.7195C132.231 96.1275 132.451 96.7155 132.475 97.4835C132.475 97.9715 132.447 98.3435 132.391 98.5995H128.263C128.279 99.3915 128.463 100.032 128.815 100.52C129.167 101 129.667 101.24 130.315 101.24C130.635 101.24 130.967 101.184 131.311 101.072C131.663 100.952 131.935 100.812 132.127 100.652L132.355 101.18C132.123 101.42 131.779 101.628 131.323 101.804C130.867 101.98 130.403 102.068 129.931 102.068ZM131.155 97.9635C131.179 97.7955 131.191 97.6235 131.191 97.4475C131.183 96.9275 131.071 96.5195 130.855 96.2235C130.647 95.9195 130.315 95.7675 129.859 95.7675C129.395 95.7675 129.023 95.9355 128.743 96.2715C128.471 96.6075 128.315 97.1715 128.275 97.9635H131.155ZM134.502 92.9835L133.53 92.8515V92.3355L135.462 92.1075H135.486L135.75 92.2875V101.252L136.77 101.348V101.936H133.53V101.348L134.502 101.24V92.9835ZM138.618 92.9835L137.646 92.8515V92.3355L139.578 92.1075H139.602L139.866 92.2875V101.252L140.886 101.348V101.936H137.646V101.348L138.618 101.24V92.9835ZM141.858 98.5875C141.858 97.8675 142.006 97.2435 142.302 96.7155C142.598 96.1875 142.986 95.7875 143.466 95.5155C143.954 95.2355 144.474 95.0955 145.026 95.0955C146.034 95.0955 146.79 95.4155 147.294 96.0555C147.806 96.6955 148.062 97.5355 148.062 98.5755C148.062 99.3035 147.914 99.9315 147.618 100.46C147.322 100.988 146.93 101.388 146.442 101.66C145.962 101.932 145.446 102.068 144.894 102.068C143.886 102.068 143.126 101.748 142.614 101.108C142.11 100.468 141.858 99.6275 141.858 98.5875ZM144.966 101.384C145.518 101.384 145.942 101.156 146.238 100.7C146.534 100.244 146.682 99.5675 146.682 98.6715C146.682 97.7835 146.546 97.0795 146.274 96.5595C146.002 96.0395 145.566 95.7795 144.966 95.7795C144.414 95.7795 143.986 96.0075 143.682 96.4635C143.386 96.9195 143.238 97.5955 143.238 98.4915C143.238 99.3795 143.378 100.084 143.658 100.604C143.938 101.124 144.374 101.384 144.966 101.384Z" fill="white"/>
<path d="M88.7946 115.04L87.0506 114.848V114.048H91.2906L93.5466 121.248L94.0746 123.28L94.5546 121.248L96.7946 114.048H101.003V114.848L99.2426 115.04L100.523 124.976L101.915 125.152V125.936H97.3066V125.152L98.7626 124.992L98.0426 117.808L97.7066 114.72L97.0346 117.024L94.3626 125.392H93.3226L90.7306 117.728L89.7866 114.704L89.4986 117.808L88.8586 124.992L90.4426 125.152V125.936H86.2666V125.152L87.6266 124.992L88.7946 115.04ZM104.19 129.92C104.009 129.92 103.828 129.909 103.646 129.888C103.476 129.866 103.353 129.834 103.278 129.792V128.4C103.342 128.442 103.465 128.474 103.646 128.496C103.838 128.517 104.02 128.528 104.19 128.528C104.702 128.528 105.15 128.346 105.534 127.984C105.929 127.632 106.308 126.949 106.67 125.936H105.902L102.862 118.016L102.126 117.808V117.056H105.982V117.808L104.75 118L106.318 122.72L107.054 125.056L107.742 122.704L109.166 118L108.094 117.808V117.056H111.31V117.808L110.51 118C108.942 122.8 108.02 125.525 107.742 126.176C107.38 127.093 107.049 127.808 106.75 128.32C106.452 128.842 106.1 129.237 105.694 129.504C105.289 129.781 104.788 129.92 104.19 129.92ZM117.127 118.288L115.975 118V117.136L118.263 116.848H118.311L118.647 117.136V117.808L118.631 118.192C119.015 117.85 119.522 117.541 120.151 117.264C120.781 116.986 121.383 116.848 121.959 116.848C122.631 116.848 123.149 116.976 123.511 117.232C123.885 117.488 124.146 117.882 124.295 118.416C124.445 118.938 124.519 119.648 124.519 120.544V125.024L125.639 125.136V125.936H121.847V125.152L122.839 125.024V120.528C122.839 119.898 122.797 119.408 122.711 119.056C122.626 118.693 122.466 118.426 122.231 118.256C121.997 118.074 121.655 117.984 121.207 117.984C120.823 117.984 120.413 118.08 119.975 118.272C119.538 118.464 119.149 118.688 118.807 118.944V125.008L119.895 125.152V125.936H116.119V125.152L117.127 125.008V118.288ZM126.952 123.536C126.952 122.533 127.454 121.797 128.456 121.328C129.459 120.848 130.728 120.592 132.264 120.56V120.112C132.264 119.61 132.211 119.216 132.104 118.928C131.998 118.64 131.811 118.432 131.544 118.304C131.288 118.165 130.92 118.096 130.44 118.096C129.896 118.096 129.406 118.176 128.968 118.336C128.542 118.485 128.115 118.672 127.688 118.896L127.288 118.064C127.427 117.946 127.683 117.792 128.056 117.6C128.43 117.408 128.862 117.237 129.352 117.088C129.843 116.938 130.334 116.864 130.824 116.864C131.582 116.864 132.179 116.97 132.616 117.184C133.064 117.386 133.384 117.717 133.576 118.176C133.768 118.634 133.864 119.248 133.864 120.016V125.152H134.808V125.856C134.595 125.909 134.323 125.962 133.992 126.016C133.672 126.069 133.39 126.096 133.144 126.096C132.846 126.096 132.643 126.048 132.536 125.952C132.43 125.866 132.376 125.669 132.376 125.36V124.832C132.056 125.152 131.662 125.445 131.192 125.712C130.734 125.978 130.211 126.112 129.624 126.112C128.856 126.112 128.216 125.893 127.704 125.456C127.203 125.008 126.952 124.368 126.952 123.536ZM130.312 125.024C130.59 125.024 130.91 124.938 131.272 124.768C131.635 124.597 131.966 124.394 132.264 124.16V121.408C131.102 121.408 130.222 121.589 129.624 121.952C129.038 122.304 128.744 122.768 128.744 123.344C128.744 123.92 128.883 124.346 129.16 124.624C129.448 124.89 129.832 125.024 130.312 125.024ZM136.065 125.152L137.041 125.008V118.288L135.889 118V117.136L138.177 116.848L138.465 117.056L138.561 117.696L138.545 118.208C138.919 117.866 139.425 117.557 140.065 117.28C140.716 116.992 141.297 116.848 141.809 116.848C142.385 116.848 142.849 116.944 143.201 117.136C143.553 117.328 143.82 117.626 144.001 118.032C144.343 117.744 144.817 117.477 145.425 117.232C146.044 116.976 146.62 116.848 147.153 116.848C147.815 116.848 148.332 116.976 148.705 117.232C149.079 117.477 149.34 117.866 149.489 118.4C149.649 118.922 149.729 119.626 149.729 120.512V125.008L150.881 125.152V125.936H147.073V125.152L148.065 125.008V120.56C148.065 119.941 148.017 119.45 147.921 119.088C147.836 118.714 147.665 118.437 147.409 118.256C147.164 118.074 146.807 117.984 146.337 117.984C145.985 117.984 145.612 118.064 145.217 118.224C144.823 118.373 144.487 118.554 144.209 118.768C144.305 119.184 144.353 119.776 144.353 120.544V125.008L145.489 125.152V125.936H141.617V125.152L142.673 125.008V120.528C142.673 119.888 142.631 119.392 142.545 119.04C142.471 118.688 142.321 118.426 142.097 118.256C141.873 118.074 141.532 117.984 141.073 117.984C140.689 117.984 140.279 118.08 139.841 118.272C139.415 118.464 139.041 118.688 138.721 118.944V125.008L139.793 125.152V125.936H136.065V125.152ZM156.099 126.112C154.808 126.112 153.822 125.69 153.139 124.848C152.467 124.005 152.131 122.88 152.131 121.472C152.131 120.544 152.307 119.728 152.659 119.024C153.011 118.32 153.502 117.776 154.131 117.392C154.771 117.008 155.496 116.816 156.307 116.816C157.299 116.816 158.067 117.093 158.611 117.648C159.166 118.192 159.459 118.976 159.491 120C159.491 120.65 159.454 121.146 159.379 121.488H153.875C153.896 122.544 154.142 123.397 154.611 124.048C155.08 124.688 155.747 125.008 156.611 125.008C157.038 125.008 157.48 124.933 157.939 124.784C158.408 124.624 158.771 124.437 159.027 124.224L159.331 124.928C159.022 125.248 158.563 125.525 157.955 125.76C157.347 125.994 156.728 126.112 156.099 126.112ZM157.731 120.64C157.763 120.416 157.779 120.186 157.779 119.952C157.768 119.258 157.619 118.714 157.331 118.32C157.054 117.914 156.611 117.712 156.003 117.712C155.384 117.712 154.888 117.936 154.515 118.384C154.152 118.832 153.944 119.584 153.891 120.64H157.731ZM166.871 115.456C166.53 115.456 166.274 115.36 166.103 115.168C165.932 114.976 165.847 114.73 165.847 114.432C165.847 114.09 165.948 113.808 166.151 113.584C166.364 113.36 166.652 113.248 167.015 113.248C167.378 113.248 167.644 113.344 167.815 113.536C167.986 113.728 168.071 113.973 168.071 114.272C168.071 114.634 167.964 114.922 167.751 115.136C167.548 115.349 167.26 115.456 166.887 115.456H166.871ZM166.231 118.288L165.015 118V117.152L167.495 116.848H167.527L167.895 117.136V125.024L169.175 125.152V125.936H164.935V125.152L166.231 125.008V118.288ZM171.959 124.656C172.066 124.816 172.29 124.96 172.631 125.088C172.983 125.216 173.351 125.28 173.735 125.28C174.343 125.28 174.791 125.162 175.079 124.928C175.367 124.693 175.511 124.368 175.511 123.952C175.511 123.664 175.421 123.413 175.239 123.2C175.058 122.986 174.802 122.8 174.471 122.64C174.151 122.469 173.687 122.266 173.079 122.032C172.258 121.722 171.655 121.354 171.271 120.928C170.898 120.49 170.711 119.92 170.711 119.216C170.711 118.746 170.85 118.336 171.127 117.984C171.415 117.632 171.805 117.36 172.295 117.168C172.797 116.965 173.351 116.864 173.959 116.864C174.45 116.864 174.877 116.901 175.239 116.976C175.613 117.05 175.911 117.125 176.135 117.2C176.359 117.274 176.509 117.322 176.583 117.344V119.328H175.607L175.287 118.144C175.223 118.016 175.053 117.909 174.775 117.824C174.498 117.728 174.189 117.68 173.847 117.68C173.367 117.68 172.978 117.786 172.679 118C172.391 118.213 172.247 118.501 172.247 118.864C172.247 119.184 172.322 119.45 172.471 119.664C172.631 119.866 172.829 120.032 173.063 120.16C173.298 120.288 173.618 120.437 174.023 120.608L174.343 120.736C174.941 120.97 175.426 121.194 175.799 121.408C176.173 121.621 176.482 121.904 176.727 122.256C176.983 122.597 177.111 123.018 177.111 123.52C177.111 124.309 176.802 124.938 176.183 125.408C175.575 125.877 174.738 126.112 173.671 126.112C173.149 126.112 172.599 126.042 172.023 125.904C171.458 125.754 170.994 125.605 170.631 125.456V123.408H171.671L171.959 124.656Z" fill="white"/>
<path d="M4 211.936C4 217.458 8.47715 221.936 14 221.936H250C255.523 221.936 260 217.458 260 211.936V149.936H4V211.936Z" fill="white"/>
<path d="M4 211.936C4 217.458 8.47715 221.936 14 221.936H250C255.523 221.936 260 217.458 260 211.936V149.936H4V211.936Z" fill="#4A5566" fill-opacity="0.16"/>
<path d="M24 211.936C24 217.458 28.4772 221.936 34 221.936H250C255.523 221.936 260 217.458 260 211.936V149.936H24V211.936Z" fill="white"/>
<path d="M24 211.936C24 217.458 28.4772 221.936 34 221.936H250C255.523 221.936 260 217.458 260 211.936V149.936H24V211.936Z" fill="#4A5566" fill-opacity="0.04"/>
</svg>
