<svg width="362" height="156" viewBox="0 0 362 156" fill="none" xmlns="http://www.w3.org/2000/svg">
<rect width="362" height="156" rx="12" fill="#4A5566"/>
<path d="M4 14C4 8.47715 8.47715 4 14 4H348C353.523 4 358 8.47715 358 14V76H4V14Z" fill="#4A5566"/>
<path d="M4 14C4 8.47715 8.47715 4 14 4H348C353.523 4 358 8.47715 358 14V76H4V14Z" fill="white" fill-opacity="0.2"/>
<path d="M24 14C24 8.47715 28.4772 4 34 4H348C353.523 4 358 8.47715 358 14V76H24V14Z" fill="#4A5566"/>
<path d="M24 14C24 8.47715 28.4772 4 34 4H348C353.523 4 358 8.47715 358 14V76H24V14Z" fill="white" fill-opacity="0.1"/>
<path d="M166.953 23.828L166.005 23.684V23.084H169.269V23.684L168.237 23.828V27.056H172.461V23.828L171.489 23.684V23.084H174.705V23.684L173.757 23.828V31.292L174.705 31.412V32H171.477V31.412L172.461 31.292V27.8H168.237V31.292L169.281 31.412V32H165.981V31.412L166.953 31.292V23.828ZM178.931 32.132C177.963 32.132 177.223 31.816 176.711 31.184C176.207 30.552 175.955 29.708 175.955 28.652C175.955 27.956 176.087 27.344 176.351 26.816C176.615 26.288 176.983 25.88 177.455 25.592C177.935 25.304 178.479 25.16 179.087 25.16C179.831 25.16 180.407 25.368 180.815 25.784C181.231 26.192 181.451 26.78 181.475 27.548C181.475 28.036 181.447 28.408 181.391 28.664H177.263C177.279 29.456 177.463 30.096 177.815 30.584C178.167 31.064 178.667 31.304 179.315 31.304C179.635 31.304 179.967 31.248 180.311 31.136C180.663 31.016 180.935 30.876 181.127 30.716L181.355 31.244C181.123 31.484 180.779 31.692 180.323 31.868C179.867 32.044 179.403 32.132 178.931 32.132ZM180.155 28.028C180.179 27.86 180.191 27.688 180.191 27.512C180.183 26.992 180.071 26.584 179.855 26.288C179.647 25.984 179.315 25.832 178.859 25.832C178.395 25.832 178.023 26 177.743 26.336C177.471 26.672 177.315 27.236 177.275 28.028H180.155ZM183.502 23.048L182.53 22.916V22.4L184.462 22.172H184.486L184.75 22.352V31.316L185.77 31.412V32H182.53V31.412L183.502 31.304V23.048ZM187.618 23.048L186.646 22.916V22.4L188.578 22.172H188.602L188.866 22.352V31.316L189.886 31.412V32H186.646V31.412L187.618 31.304V23.048ZM190.858 28.652C190.858 27.932 191.006 27.308 191.302 26.78C191.598 26.252 191.986 25.852 192.466 25.58C192.954 25.3 193.474 25.16 194.026 25.16C195.034 25.16 195.79 25.48 196.294 26.12C196.806 26.76 197.062 27.6 197.062 28.64C197.062 29.368 196.914 29.996 196.618 30.524C196.322 31.052 195.93 31.452 195.442 31.724C194.962 31.996 194.446 32.132 193.894 32.132C192.886 32.132 192.126 31.812 191.614 31.172C191.11 30.532 190.858 29.692 190.858 28.652ZM193.966 31.448C194.518 31.448 194.942 31.22 195.238 30.764C195.534 30.308 195.682 29.632 195.682 28.736C195.682 27.848 195.546 27.144 195.274 26.624C195.002 26.104 194.566 25.844 193.966 25.844C193.414 25.844 192.986 26.072 192.682 26.528C192.386 26.984 192.238 27.66 192.238 28.556C192.238 29.444 192.378 30.148 192.658 30.668C192.938 31.188 193.374 31.448 193.966 31.448Z" fill="white"/>
<path d="M137.795 45.104L136.051 44.912V44.112H140.291L142.547 51.312L143.075 53.344L143.555 51.312L145.795 44.112H150.003V44.912L148.243 45.104L149.523 55.04L150.915 55.216V56H146.307V55.216L147.763 55.056L147.043 47.872L146.707 44.784L146.035 47.088L143.363 55.456H142.323L139.731 47.792L138.787 44.768L138.499 47.872L137.859 55.056L139.443 55.216V56H135.267V55.216L136.627 55.056L137.795 45.104ZM153.19 59.984C153.009 59.984 152.828 59.9733 152.646 59.952C152.476 59.9307 152.353 59.8987 152.278 59.856V58.464C152.342 58.5067 152.465 58.5387 152.646 58.56C152.838 58.5813 153.02 58.592 153.19 58.592C153.702 58.592 154.15 58.4107 154.534 58.048C154.929 57.696 155.308 57.0133 155.67 56H154.902L151.862 48.08L151.126 47.872V47.12H154.982V47.872L153.75 48.064L155.318 52.784L156.054 55.12L156.742 52.768L158.166 48.064L157.094 47.872V47.12H160.31V47.872L159.51 48.064C157.942 52.864 157.02 55.5893 156.742 56.24C156.38 57.1573 156.049 57.872 155.75 58.384C155.452 58.9067 155.1 59.3013 154.694 59.568C154.289 59.8453 153.788 59.984 153.19 59.984ZM166.127 48.352L164.975 48.064V47.2L167.263 46.912H167.311L167.647 47.2V47.872L167.631 48.256C168.015 47.9147 168.522 47.6053 169.151 47.328C169.781 47.0507 170.383 46.912 170.959 46.912C171.631 46.912 172.149 47.04 172.511 47.296C172.885 47.552 173.146 47.9467 173.295 48.48C173.445 49.0027 173.519 49.712 173.519 50.608V55.088L174.639 55.2V56H170.847V55.216L171.839 55.088V50.592C171.839 49.9627 171.797 49.472 171.711 49.12C171.626 48.7573 171.466 48.4907 171.231 48.32C170.997 48.1387 170.655 48.048 170.207 48.048C169.823 48.048 169.413 48.144 168.975 48.336C168.538 48.528 168.149 48.752 167.807 49.008V55.072L168.895 55.216V56H165.119V55.216L166.127 55.072V48.352ZM175.952 53.6C175.952 52.5973 176.454 51.8613 177.456 51.392C178.459 50.912 179.728 50.656 181.264 50.624V50.176C181.264 49.6747 181.211 49.28 181.104 48.992C180.998 48.704 180.811 48.496 180.544 48.368C180.288 48.2293 179.92 48.16 179.44 48.16C178.896 48.16 178.406 48.24 177.968 48.4C177.542 48.5493 177.115 48.736 176.688 48.96L176.288 48.128C176.427 48.0107 176.683 47.856 177.056 47.664C177.43 47.472 177.862 47.3013 178.352 47.152C178.843 47.0027 179.334 46.928 179.824 46.928C180.582 46.928 181.179 47.0347 181.616 47.248C182.064 47.4507 182.384 47.7813 182.576 48.24C182.768 48.6987 182.864 49.312 182.864 50.08V55.216H183.808V55.92C183.595 55.9733 183.323 56.0267 182.992 56.08C182.672 56.1333 182.39 56.16 182.144 56.16C181.846 56.16 181.643 56.112 181.536 56.016C181.43 55.9307 181.376 55.7333 181.376 55.424V54.896C181.056 55.216 180.662 55.5093 180.192 55.776C179.734 56.0427 179.211 56.176 178.624 56.176C177.856 56.176 177.216 55.9573 176.704 55.52C176.203 55.072 175.952 54.432 175.952 53.6ZM179.312 55.088C179.59 55.088 179.91 55.0027 180.272 54.832C180.635 54.6613 180.966 54.4587 181.264 54.224V51.472C180.102 51.472 179.222 51.6533 178.624 52.016C178.038 52.368 177.744 52.832 177.744 53.408C177.744 53.984 177.883 54.4107 178.16 54.688C178.448 54.9547 178.832 55.088 179.312 55.088ZM185.065 55.216L186.041 55.072V48.352L184.889 48.064V47.2L187.177 46.912L187.465 47.12L187.561 47.76L187.545 48.272C187.919 47.9307 188.425 47.6213 189.065 47.344C189.716 47.056 190.297 46.912 190.809 46.912C191.385 46.912 191.849 47.008 192.201 47.2C192.553 47.392 192.82 47.6907 193.001 48.096C193.343 47.808 193.817 47.5413 194.425 47.296C195.044 47.04 195.62 46.912 196.153 46.912C196.815 46.912 197.332 47.04 197.705 47.296C198.079 47.5413 198.34 47.9307 198.489 48.464C198.649 48.9867 198.729 49.6907 198.729 50.576V55.072L199.881 55.216V56H196.073V55.216L197.065 55.072V50.624C197.065 50.0053 197.017 49.5147 196.921 49.152C196.836 48.7787 196.665 48.5013 196.409 48.32C196.164 48.1387 195.807 48.048 195.337 48.048C194.985 48.048 194.612 48.128 194.217 48.288C193.823 48.4373 193.487 48.6187 193.209 48.832C193.305 49.248 193.353 49.84 193.353 50.608V55.072L194.489 55.216V56H190.617V55.216L191.673 55.072V50.592C191.673 49.952 191.631 49.456 191.545 49.104C191.471 48.752 191.321 48.4907 191.097 48.32C190.873 48.1387 190.532 48.048 190.073 48.048C189.689 48.048 189.279 48.144 188.841 48.336C188.415 48.528 188.041 48.752 187.721 49.008V55.072L188.793 55.216V56H185.065V55.216ZM205.099 56.176C203.808 56.176 202.822 55.7547 202.139 54.912C201.467 54.0693 201.131 52.944 201.131 51.536C201.131 50.608 201.307 49.792 201.659 49.088C202.011 48.384 202.502 47.84 203.131 47.456C203.771 47.072 204.496 46.88 205.307 46.88C206.299 46.88 207.067 47.1573 207.611 47.712C208.166 48.256 208.459 49.04 208.491 50.064C208.491 50.7147 208.454 51.2107 208.379 51.552H202.875C202.896 52.608 203.142 53.4613 203.611 54.112C204.08 54.752 204.747 55.072 205.611 55.072C206.038 55.072 206.48 54.9973 206.939 54.848C207.408 54.688 207.771 54.5013 208.027 54.288L208.331 54.992C208.022 55.312 207.563 55.5893 206.955 55.824C206.347 56.0587 205.728 56.176 205.099 56.176ZM206.731 50.704C206.763 50.48 206.779 50.2507 206.779 50.016C206.768 49.3227 206.619 48.7787 206.331 48.384C206.054 47.9787 205.611 47.776 205.003 47.776C204.384 47.776 203.888 48 203.515 48.448C203.152 48.896 202.944 49.648 202.891 50.704H206.731ZM215.871 45.52C215.53 45.52 215.274 45.424 215.103 45.232C214.932 45.04 214.847 44.7947 214.847 44.496C214.847 44.1547 214.948 43.872 215.151 43.648C215.364 43.424 215.652 43.312 216.015 43.312C216.378 43.312 216.644 43.408 216.815 43.6C216.986 43.792 217.071 44.0373 217.071 44.336C217.071 44.6987 216.964 44.9867 216.751 45.2C216.548 45.4133 216.26 45.52 215.887 45.52H215.871ZM215.231 48.352L214.015 48.064V47.216L216.495 46.912H216.527L216.895 47.2V55.088L218.175 55.216V56H213.935V55.216L215.231 55.072V48.352ZM220.959 54.72C221.066 54.88 221.29 55.024 221.631 55.152C221.983 55.28 222.351 55.344 222.735 55.344C223.343 55.344 223.791 55.2267 224.079 54.992C224.367 54.7573 224.511 54.432 224.511 54.016C224.511 53.728 224.421 53.4773 224.239 53.264C224.058 53.0507 223.802 52.864 223.471 52.704C223.151 52.5333 222.687 52.3307 222.079 52.096C221.258 51.7867 220.655 51.4187 220.271 50.992C219.898 50.5547 219.711 49.984 219.711 49.28C219.711 48.8107 219.85 48.4 220.127 48.048C220.415 47.696 220.805 47.424 221.295 47.232C221.797 47.0293 222.351 46.928 222.959 46.928C223.45 46.928 223.877 46.9653 224.239 47.04C224.613 47.1147 224.911 47.1893 225.135 47.264C225.359 47.3387 225.509 47.3867 225.583 47.408V49.392H224.607L224.287 48.208C224.223 48.08 224.053 47.9733 223.775 47.888C223.498 47.792 223.189 47.744 222.847 47.744C222.367 47.744 221.978 47.8507 221.679 48.064C221.391 48.2773 221.247 48.5653 221.247 48.928C221.247 49.248 221.322 49.5147 221.471 49.728C221.631 49.9307 221.829 50.096 222.063 50.224C222.298 50.352 222.618 50.5013 223.023 50.672L223.343 50.8C223.941 51.0347 224.426 51.2587 224.799 51.472C225.173 51.6853 225.482 51.968 225.727 52.32C225.983 52.6613 226.111 53.0827 226.111 53.584C226.111 54.3733 225.802 55.0027 225.183 55.472C224.575 55.9413 223.738 56.176 222.671 56.176C222.149 56.176 221.599 56.1067 221.023 55.968C220.458 55.8187 219.994 55.6693 219.631 55.52V53.472H220.671L220.959 54.72Z" fill="white"/>
<path d="M4 142C4 147.523 8.47715 152 14 152H250C255.523 152 260 147.523 260 142V80H4V142Z" fill="white"/>
<path d="M4 142C4 147.523 8.47715 152 14 152H250C255.523 152 260 147.523 260 142V80H4V142Z" fill="#4A5566" fill-opacity="0.16"/>
<path d="M24 142C24 147.523 28.4772 152 34 152H348C353.523 152 358 147.523 358 142V80H24V142Z" fill="white"/>
<path d="M24 142C24 147.523 28.4772 152 34 152H348C353.523 152 358 147.523 358 142V80H24V142Z" fill="#4A5566" fill-opacity="0.04"/>
</svg>
