<svg width="362" height="156" viewBox="0 0 362 156" fill="none" xmlns="http://www.w3.org/2000/svg">
<rect width="362" height="156" rx="12" fill="#4A5566"/>
<path d="M4 14C4 8.47715 8.47715 4 14 4H348C353.523 4 358 8.47715 358 14V76H4V14Z" fill="#4A5566"/>
<path d="M4 14C4 8.47715 8.47715 4 14 4H348C353.523 4 358 8.47715 358 14V76H4V14Z" fill="white" fill-opacity="0.2"/>
<path d="M24 14C24 8.47715 28.4772 4 34 4H348C353.523 4 358 8.47715 358 14V76H24V14Z" fill="#4A5566"/>
<path d="M24 14C24 8.47715 28.4772 4 34 4H348C353.523 4 358 8.47715 358 14V76H24V14Z" fill="white" fill-opacity="0.1"/>
<path d="M4 142C4 147.523 8.47715 152 14 152H250C255.523 152 260 147.523 260 142V80H4V142Z" fill="white"/>
<path d="M4 142C4 147.523 8.47715 152 14 152H250C255.523 152 260 147.523 260 142V80H4V142Z" fill="#4A5566" fill-opacity="0.16"/>
<path d="M24 142C24 147.523 28.4772 152 34 152H348C353.523 152 358 147.523 358 142V80H24V142Z" fill="white"/>
<path d="M24 142C24 147.523 28.4772 152 34 152H348C353.523 152 358 147.523 358 142V80H24V142Z" fill="#4A5566" fill-opacity="0.04"/>
</svg>
