<svg width="452" height="208" viewBox="0 0 452 208" fill="none" xmlns="http://www.w3.org/2000/svg">
<path d="M444 208H9C9 208 22.4643 0 220.804 0C419.143 0 444 208 444 208Z" fill="#EBF5FC"/>
<rect y="207" width="452" height="1" fill="#003081"/>
<path d="M67 56.3099C67.0009 55.2663 66.7469 54.2369 66.2582 53.3042C65.7696 52.3714 65.06 51.561 64.186 50.9379C63.3121 50.3148 62.298 49.8961 61.225 49.7154C60.1519 49.5347 59.0496 49.597 58.0062 49.8973C58.1131 49.2172 58.1666 48.5303 58.1665 47.8425C58.1656 45.7608 57.686 43.7049 56.7617 41.8208C55.8375 39.9368 54.4912 38.271 52.8188 36.9418C51.1463 35.6126 49.1887 34.6526 47.085 34.1302C44.9814 33.6077 42.7834 33.5356 40.6474 33.919C39.1837 31.6319 36.985 29.8612 34.3815 28.8726C31.7779 27.8841 28.9099 27.7309 26.2078 28.4362C23.5057 29.1415 21.1153 30.6672 19.3952 32.7843C17.6752 34.9014 16.7183 37.4958 16.6681 40.1781H16.4524C13.3742 40.2943 10.4624 41.5473 8.32745 43.6746C6.19247 45.8019 5 48.6382 5 51.589C5 54.5399 6.19247 57.3762 8.32745 59.5035C10.4624 61.6308 13.3742 62.8838 16.4524 63H60.2192C62.0366 62.9508 63.7621 62.2241 65.0286 60.9746C66.295 59.7251 67.0023 58.0514 67 56.3099Z" fill="white"/>
<path d="M206 40.4125C206.001 39.6969 205.829 38.991 205.498 38.3514C205.167 37.7118 204.686 37.1561 204.094 36.7288C203.502 36.3015 202.815 36.0145 202.088 35.8906C201.361 35.7667 200.614 35.8094 199.907 36.0153C199.98 35.5489 200.016 35.0779 200.016 34.6063C200.015 33.1788 199.691 31.769 199.064 30.4771C198.438 29.1853 197.526 28.043 196.393 27.1315C195.26 26.22 193.934 25.5618 192.509 25.2036C191.084 24.8453 189.595 24.7959 188.148 25.0588C187.157 23.4905 185.667 22.2763 183.904 21.5984C182.14 20.9205 180.197 20.8155 178.367 21.2991C176.536 21.7828 174.917 22.8289 173.752 24.2807C172.586 25.7324 171.938 27.5114 171.904 29.3507H171.758C169.673 29.4304 167.7 30.2896 166.254 31.7483C164.808 33.207 164 35.1519 164 37.1753C164 39.1988 164.808 41.1437 166.254 42.6024C167.7 44.0611 169.673 44.9203 171.758 45H201.407C202.638 44.9662 203.807 44.4679 204.665 43.6111C205.522 42.7543 206.002 41.6067 206 40.4125Z" fill="white"/>
<path d="M115 76.7505C115 76.2436 114.882 75.7437 114.653 75.2906C114.425 74.8375 114.093 74.4439 113.684 74.1413C113.275 73.8386 112.801 73.6353 112.299 73.5475C111.797 73.4597 111.281 73.49 110.793 73.6358C110.843 73.3055 110.868 72.9719 110.868 72.6378C110.868 71.6267 110.643 70.6281 110.211 69.713C109.779 68.7979 109.149 67.9888 108.367 67.3432C107.585 66.6975 106.669 66.2313 105.685 65.9775C104.701 65.7238 103.673 65.6887 102.674 65.875C101.989 64.7641 100.961 63.904 99.743 63.4238C98.5252 62.9437 97.1837 62.8693 95.9198 63.2119C94.6559 63.5545 93.5378 64.2955 92.7332 65.3238C91.9287 66.3521 91.4811 67.6122 91.4577 68.9151H91.3568C89.917 68.9715 88.555 69.5801 87.5564 70.6134C86.5578 71.6466 86 73.0243 86 74.4575C86 75.8908 86.5578 77.2685 87.5564 78.3017C88.555 79.3349 89.917 79.9436 91.3568 80H111.828C112.678 79.9761 113.486 79.6231 114.078 79.0162C114.67 78.4093 115.001 77.5964 115 76.7505Z" fill="white"/>
<path d="M433 38.7505C433 38.2436 432.882 37.7437 432.653 37.2906C432.425 36.8375 432.093 36.4439 431.684 36.1413C431.275 35.8386 430.801 35.6353 430.299 35.5475C429.797 35.4597 429.281 35.49 428.793 35.6358C428.843 35.3055 428.868 34.9719 428.868 34.6378C428.868 33.6267 428.643 32.6281 428.211 31.713C427.779 30.7979 427.149 29.9888 426.367 29.3432C425.585 28.6975 424.669 28.2313 423.685 27.9775C422.701 27.7238 421.673 27.6887 420.674 27.875C419.989 26.7641 418.961 25.904 417.743 25.4238C416.525 24.9437 415.184 24.8693 413.92 25.2119C412.656 25.5545 411.538 26.2955 410.733 27.3238C409.929 28.3521 409.481 29.6122 409.458 30.9151H409.357C407.917 30.9715 406.555 31.5801 405.556 32.6134C404.558 33.6466 404 35.0243 404 36.4575C404 37.8908 404.558 39.2685 405.556 40.3017C406.555 41.3349 407.917 41.9436 409.357 42H429.828C430.678 41.9761 431.486 41.6231 432.078 41.0162C432.67 40.4093 433.001 39.5964 433 38.7505Z" fill="white"/>
<path d="M314 72.9276C314.001 71.8244 313.743 70.7362 313.246 69.7501C312.75 68.764 312.029 67.9074 311.141 67.2486C310.253 66.5899 309.222 66.1473 308.132 65.9563C307.041 65.7653 305.921 65.8312 304.861 66.1486C304.97 65.4296 305.024 64.7034 305.024 63.9763C305.023 61.7757 304.536 59.6023 303.597 57.6106C302.657 55.6189 301.289 53.8579 299.59 52.4527C297.891 51.0476 295.901 50.0328 293.764 49.4805C291.626 48.9282 289.393 48.852 287.222 49.2573C285.735 46.8395 283.501 44.9676 280.855 43.9225C278.21 42.8774 275.296 42.7155 272.55 43.4611C269.804 44.2068 267.375 45.8196 265.627 48.0577C263.88 50.2958 262.907 53.0384 262.856 55.874H262.637C259.509 55.9968 256.551 57.3215 254.381 59.5703C252.212 61.8191 251 64.8175 251 67.937C251 71.0565 252.212 74.0549 254.381 76.3037C256.551 78.5525 259.509 79.8772 262.637 80H307.11C308.957 79.948 310.71 79.1797 311.997 77.8588C313.284 76.5379 314.002 74.7686 314 72.9276Z" fill="white"/>
<g clip-path="url(#clip0_14_4816)">
<path d="M150.068 62.0059C149.497 63.9555 148.642 63.5291 148.642 63.5291C149.398 61.1834 148.642 60.2847 148.642 60.2847C148.214 61.884 147.331 61.8079 147.331 61.8079C147.537 61.1466 147.561 60.4357 147.4 59.7604C147.238 59.085 146.897 58.4738 146.418 58C146.538 58.5028 146.527 59.0311 146.386 59.5277C146.246 60.0243 145.981 60.4704 145.62 60.8178C145.221 61.2443 144.765 59.2033 144.765 59.2033C144.305 60.0656 144.038 61.0304 143.986 62.0216C143.934 63.0127 144.098 64.0033 144.466 64.9151C144.215 64.6544 144.026 64.3325 143.917 63.9771C143.808 63.6216 143.781 63.2431 143.838 62.8741C143.182 63.6119 142.682 64.491 142.369 65.4524C142.057 66.4138 141.941 67.4355 142.028 68.4488C142.211 69.4712 142.729 70.3904 143.489 71.0409C144.25 71.6915 145.203 72.0308 146.176 71.9978C148.243 71.9978 150.452 70.764 150.809 68.5859C151.507 64.0926 150.068 62.0059 150.068 62.0059Z" fill="#009CDC"/>
<path d="M179.114 116.454C178.518 115.269 177.075 114.635 175.479 114.383C172.776 113.945 170.67 108.076 170.67 108.076C171.574 113.329 172.026 126.335 172.026 126.335C175.931 128.201 175.69 126.568 176.835 123.536C177.979 120.503 178.22 121.427 178.758 120.345C179.057 119.766 179.595 118.563 179.595 118.563C179.733 118.403 179.832 118.214 179.883 118.012C179.934 117.809 179.936 117.597 179.89 117.394C179.843 117.19 179.749 116.999 179.615 116.836C179.48 116.674 179.309 116.543 179.114 116.454Z" fill="#08598F"/>
<path d="M171.238 110.194C171.402 110.716 171.608 111.224 171.853 111.715C172.084 112.204 172.365 112.669 172.69 113.105C173.02 113.533 173.412 113.913 173.854 114.234C174.311 114.543 174.818 114.777 175.354 114.924C174.784 114.868 174.234 114.686 173.748 114.392C173.264 114.089 172.841 113.703 172.497 113.254C171.819 112.356 171.394 111.301 171.266 110.194H171.238Z" fill="#003081"/>
<path d="M170.449 111.612C170.56 111.931 170.691 112.243 170.843 112.545C170.983 112.835 171.154 113.11 171.353 113.366C171.545 113.624 171.775 113.854 172.036 114.047C172.309 114.24 172.61 114.391 172.93 114.495C172.59 114.476 172.26 114.377 171.969 114.206C171.666 114.026 171.401 113.792 171.19 113.515C170.979 113.23 170.813 112.915 170.699 112.582C170.564 112.274 170.48 111.946 170.449 111.612Z" fill="#003081"/>
<path d="M173.354 126.279C173.59 126.363 173.842 126.404 174.094 126.4C174.323 126.385 174.539 126.297 174.71 126.148C174.885 125.986 175.025 125.793 175.123 125.579C175.236 125.354 175.335 125.124 175.421 124.888C175.432 125.145 175.393 125.401 175.306 125.644C175.232 125.904 175.085 126.14 174.883 126.325C174.773 126.42 174.646 126.492 174.508 126.54C174.37 126.579 174.227 126.594 174.084 126.586C173.814 126.559 173.559 126.451 173.354 126.279Z" fill="#003081"/>
<path d="M175.729 124.273L169.67 122.099L175.479 109.914L181.182 112.144L175.729 124.273Z" fill="#0C71B4"/>
<path d="M166.371 89.7058L172.815 89.8458L166.515 90.6668L166.371 89.7058Z" fill="#003081"/>
<path d="M165.717 88.3903L169.958 84.761L164.967 87.5599L165.717 88.3903Z" fill="#003081"/>
<path d="M163.745 86.6925L166.669 82.6807L162.562 86.3473L163.745 86.6925Z" fill="#003081"/>
<path d="M155.83 89.8179L149.386 89.9485L155.686 90.7788L155.83 89.8179Z" fill="#003081"/>
<path d="M156.244 88.8103L151.425 85.946L156.83 87.868L156.244 88.8103Z" fill="#003081"/>
<path d="M158.071 86.9443L154.676 83.3057L159.206 86.4685L158.071 86.9443Z" fill="#003081"/>
<path d="M160.447 86.2818L161.158 81.197L161.793 86.2818H160.447Z" fill="#003081"/>
<path d="M167.698 98.8491C167.304 98.2987 167.034 98.2147 167.563 96.6753C168.448 94.091 165.803 91.5346 165.803 91.5346L156.099 91.46C156.099 91.46 153.579 94.091 154.541 96.6753C155.07 98.2147 154.81 98.2987 154.406 98.8491C154.002 99.3996 153.579 101.536 154.503 101.06C154.503 101.06 155.772 100.127 155.599 101.154C155.426 102.18 154.099 103.878 154.541 104.214H167.515C167.958 103.878 166.688 102.171 166.554 101.154C166.419 100.137 167.65 101.06 167.65 101.06C168.525 101.536 168.092 99.3996 167.698 98.8491Z" fill="#003081"/>
<path d="M156.215 91.581C156.215 91.581 155.84 88.2876 161.168 88.3902C161.168 88.3902 165.775 87.933 165.756 91.553L166.66 90.8999C166.66 90.8999 166.737 86.235 161.303 86.1137C161.303 86.1137 155.878 85.6846 155.532 91.0119L156.215 91.581Z" fill="#0C71B4"/>
<path d="M161.274 88.3252C157.59 88.3252 156.273 89.7713 156.398 90.9282C156.475 91.572 156.465 93.3819 156.552 95.873C156.584 96.703 156.819 97.5138 157.237 98.2388C157.655 98.9637 158.244 99.5822 158.956 100.043L158.639 103.299H162.928L162.678 100.137C163.401 99.7124 163.999 99.1141 164.413 98.3997C164.828 97.6854 165.045 96.8793 165.044 96.0596C165.246 93.3446 165.64 92.8222 165.717 91.6466C165.756 90.2565 164.929 88.3252 161.274 88.3252Z" fill="#0C71B4"/>
<path d="M156.33 102.217C158.75 102.666 161.199 102.95 163.659 103.066C164.871 103.066 167.016 103.131 168.42 104.4C170.161 105.977 171.353 109.065 171.469 112.2C171.69 117.882 172.075 125.98 173.777 129.712C175.479 133.444 174.873 143.184 174.873 143.184L174.075 143.987C174.075 143.987 175.277 157.832 173.575 164.344C173.575 164.344 174.979 169.392 174.373 172.116C174.746 173.511 175.641 174.722 176.883 175.512C176.883 175.512 167.612 178.078 163.361 174.579C161.957 173.413 157.254 177.788 151.041 176.137C151.041 176.137 151.502 175.344 151.445 170.539C151.445 168.944 150.165 166.677 151.348 164.176C150.482 161.153 150.692 157.935 151.945 155.042C151.945 155.042 152.743 138.482 151.541 136.541C151.541 136.541 149.04 130.122 151.348 126.437C151.348 126.437 147.434 125.168 149.136 120.839C149.136 120.839 151.146 117.051 150.848 115.885C150.55 114.719 148.444 114.327 149.54 108.496C149.54 108.496 146.54 105.193 147.742 99.3715C147.742 99.3715 151.146 94.9959 153.243 95.6396C154.859 97.5254 155.925 99.7965 156.33 102.217Z" fill="#1C7DBE"/>
<path d="M153.32 95.6394C153.81 96.2365 152.926 97.7013 151.396 98.9142C149.867 100.127 148.174 100.64 147.674 100.062C147.299 99.6232 148.232 98.1118 149.809 96.8989C151.387 95.6861 152.829 95.0516 153.32 95.6394Z" fill="#08598F"/>
<path d="M147.761 79.9282L145.558 79.9469L145.077 71.9419L148.165 71.9326L147.761 79.9282Z" fill="#000017"/>
<path d="M150.463 86.8974C149.876 84.285 148.857 79.4989 148.54 78.6592C148.54 78.1834 148.617 77.8288 148.617 77.8288C149.251 75.0299 148.039 74.0129 148.039 74.0129L147.809 79.928H146.02C146.203 81.8686 146.26 84.5369 146.578 86.6828C147.318 91.6742 149.194 100.071 149.194 100.071C150.579 99.7538 152.618 97.6266 152.618 97.6266C152.618 97.6266 151.069 89.5097 150.463 86.8974Z" fill="#0C71B4"/>
<path d="M146.847 74.1438C146.848 74.1838 146.841 74.2236 146.826 74.2609C146.812 74.2982 146.789 74.3323 146.76 74.361C146.732 74.3897 146.697 74.4125 146.659 74.4281C146.621 74.4437 146.581 74.4517 146.539 74.4517H144.923C144.841 74.4493 144.763 74.4158 144.705 74.3583C144.648 74.3008 144.616 74.2239 144.616 74.1438C144.616 74.0638 144.648 73.9868 144.705 73.9293C144.763 73.8719 144.841 73.8384 144.923 73.8359H146.558C146.6 73.8359 146.641 73.8439 146.679 73.8595C146.717 73.8751 146.751 73.8979 146.78 73.9267C146.808 73.9554 146.831 73.9894 146.846 74.0267C146.861 74.064 146.868 74.1038 146.866 74.1438H146.847Z" fill="#0C71B4"/>
<path d="M147.145 74.7969C147.145 74.8853 147.111 74.9704 147.048 75.0346C146.985 75.0988 146.9 75.1373 146.809 75.1421H145.02C144.93 75.1372 144.845 75.0984 144.784 75.034C144.723 74.9695 144.69 74.8844 144.693 74.7969C144.69 74.7093 144.723 74.6242 144.784 74.5598C144.845 74.4953 144.93 74.4565 145.02 74.4517H146.847C146.938 74.4564 147.024 74.4949 147.086 74.5591C147.149 74.6234 147.184 74.7085 147.184 74.7969H147.145Z" fill="#0C71B4"/>
<path d="M147.078 75.4872C147.081 75.5723 147.049 75.655 146.99 75.7177C146.93 75.7805 146.848 75.8183 146.761 75.8231H145.077C145.034 75.8207 144.992 75.8101 144.954 75.792C144.915 75.7738 144.88 75.7484 144.852 75.7172C144.823 75.686 144.801 75.6496 144.787 75.6101C144.773 75.5707 144.767 75.5289 144.77 75.4872C144.767 75.4456 144.773 75.4038 144.787 75.3644C144.801 75.3249 144.823 75.2885 144.852 75.2573C144.88 75.2261 144.915 75.2007 144.954 75.1825C144.992 75.1643 145.034 75.1537 145.077 75.1514H146.761C146.848 75.1562 146.93 75.194 146.99 75.2567C147.049 75.3195 147.081 75.4022 147.078 75.4872Z" fill="#0C71B4"/>
<path d="M146.847 76.1497C146.853 76.2221 146.83 76.2939 146.784 76.351C146.738 76.408 146.671 76.4461 146.597 76.4576H145.212C145.172 76.4564 145.133 76.4474 145.096 76.4312C145.06 76.4149 145.027 76.3918 145 76.363C144.973 76.3343 144.953 76.3006 144.94 76.2639C144.926 76.2273 144.921 76.1884 144.923 76.1497C144.918 76.0773 144.94 76.0054 144.987 75.9484C145.033 75.8913 145.1 75.8533 145.174 75.8418H146.559C146.632 75.8533 146.699 75.8913 146.745 75.9484C146.792 76.0054 146.814 76.0773 146.809 76.1497H146.847Z" fill="#0C71B4"/>
<path d="M165.121 89.5937L166.236 88.9966L165.294 89.8363L165.121 89.5937Z" fill="#003081"/>
<path d="M165.525 90.2843L166.573 90.051L165.64 90.5548L165.525 90.2843Z" fill="#003081"/>
<path d="M164.409 88.9687L165.621 87.9331L164.63 89.1646L164.409 88.9687Z" fill="#003081"/>
<path d="M163.563 88.6049L164.64 87.0188L163.822 88.7448L163.563 88.6049Z" fill="#003081"/>
<path d="M162.293 88.3716L162.966 86.3191L162.582 88.4463L162.293 88.3716Z" fill="#003081"/>
<path d="M156.849 89.6498L156.138 88.7542L157.061 89.4446L156.849 89.6498Z" fill="#003081"/>
<path d="M156.436 90.303L155.734 89.8179L156.571 90.0418L156.436 90.303Z" fill="#003081"/>
<path d="M157.619 89.0527L156.859 87.7092L157.869 88.8941L157.619 89.0527Z" fill="#003081"/>
<path d="M158.417 88.6795L157.965 86.8416L158.706 88.5862L158.417 88.6795Z" fill="#003081"/>
<path d="M159.639 88.3717L159.514 86.2632L159.937 88.3344L159.639 88.3717Z" fill="#003081"/>
<path d="M161.004 88.2692L161.158 86.1606L161.312 88.2692H161.004Z" fill="#003081"/>
<path d="M147.472 102.105C147.472 102.105 152.666 101.172 153.474 96.1621C153.474 96.1621 150.127 101.303 147.626 100.025C147.548 100.362 147.5 100.705 147.482 101.051C147.463 101.312 147.472 102.105 147.472 102.105Z" fill="#00578E"/>
<path d="M165.765 91.6465C165.832 90.6669 165.515 88.4184 161.418 88.2225C161.418 88.2225 155.849 87.8307 156.214 91.7585C156.214 91.7585 156.368 94.3522 156.455 95.0892C157.078 94.0802 157.499 92.9659 157.696 91.8051C159.18 91.537 160.532 90.8026 161.543 89.7153C162.26 90.7468 163.186 91.626 164.265 92.2996C164.151 93.4022 164.415 94.5103 165.015 95.4531C165.292 94.6744 165.447 93.86 165.476 93.0367C165.563 92.5982 165.746 91.9358 165.765 91.6465Z" fill="#003081"/>
<path d="M177.172 111.202C176.7 111.062 176.21 110.903 175.787 110.735H175.893C175.719 111.102 175.537 111.466 175.344 111.827C175.152 112.181 174.95 112.536 174.729 112.881C174.873 112.498 175.037 112.125 175.21 111.761C175.383 111.398 175.565 111.024 175.748 110.67V110.604H175.816C176.296 110.782 176.739 110.978 177.172 111.202Z" fill="#003081"/>
<path d="M173.892 122.995C174.354 123.134 174.854 123.293 175.267 123.461H175.171C175.344 123.097 175.527 122.733 175.719 122.379C175.912 122.024 176.114 121.66 176.335 121.315C176.191 121.698 176.027 122.071 175.854 122.435C175.681 122.799 175.498 123.172 175.306 123.536V123.592H175.239C174.738 123.414 174.325 123.181 173.892 122.995Z" fill="#003081"/>
<path d="M172.295 118.516C172.42 118.171 172.555 117.844 172.699 117.508C172.844 117.172 172.988 116.846 173.132 116.519C173.276 116.193 173.45 115.866 173.613 115.586L173.863 115.111L174.123 114.635L173.94 115.139L173.728 115.642C173.594 115.969 173.44 116.295 173.286 116.575C173.132 116.855 172.978 117.228 172.815 117.508C172.651 117.788 172.478 118.171 172.295 118.516Z" fill="#003081"/>
<path d="M177.874 117.583C177.999 117.247 178.133 116.911 178.277 116.585C178.422 116.258 178.566 115.922 178.71 115.596C178.855 115.269 179.028 114.943 179.191 114.663L179.441 114.178L179.701 113.702C179.643 113.879 179.576 114.047 179.518 114.215L179.307 114.71C179.172 115.045 179.018 115.372 178.864 115.698C178.71 116.025 178.556 116.352 178.393 116.631C178.229 116.911 178.056 117.285 177.874 117.583Z" fill="#003081"/>
<path d="M179.288 119.766C179.313 119.722 179.329 119.674 179.335 119.624C179.342 119.573 179.337 119.523 179.323 119.474C179.309 119.425 179.285 119.38 179.252 119.341C179.22 119.301 179.179 119.268 179.134 119.244L177.268 118.311C177.221 118.289 177.17 118.276 177.119 118.272C177.067 118.269 177.015 118.276 176.965 118.293C176.916 118.309 176.871 118.335 176.832 118.368C176.793 118.402 176.762 118.443 176.739 118.488C176.713 118.532 176.697 118.581 176.691 118.631C176.685 118.681 176.689 118.732 176.704 118.78C176.718 118.829 176.742 118.874 176.775 118.914C176.807 118.953 176.847 118.986 176.893 119.011L178.759 119.944C178.805 119.966 178.856 119.979 178.908 119.982C178.96 119.985 179.012 119.978 179.061 119.962C179.11 119.945 179.156 119.92 179.195 119.886C179.233 119.852 179.265 119.812 179.288 119.766Z" fill="#08598F"/>
<path d="M179.99 119.188C180.046 119.09 180.06 118.975 180.029 118.867C179.999 118.758 179.926 118.666 179.826 118.61L177.807 117.583C177.703 117.535 177.584 117.529 177.476 117.566C177.368 117.602 177.279 117.679 177.23 117.779C177.201 117.827 177.182 117.879 177.175 117.934C177.167 117.989 177.171 118.044 177.187 118.098C177.202 118.151 177.228 118.2 177.264 118.243C177.299 118.286 177.343 118.322 177.393 118.348L179.413 119.375C179.516 119.423 179.635 119.429 179.743 119.392C179.851 119.356 179.94 119.279 179.99 119.179V119.188Z" fill="#08598F"/>
<path d="M180.336 118.395C180.393 118.302 180.409 118.191 180.382 118.086C180.355 117.981 180.287 117.891 180.192 117.835L178.268 116.902C178.218 116.88 178.165 116.869 178.11 116.867C178.055 116.866 178.001 116.875 177.95 116.894C177.899 116.913 177.852 116.942 177.813 116.978C177.773 117.015 177.742 117.059 177.72 117.107C177.692 117.153 177.674 117.203 177.666 117.255C177.658 117.307 177.661 117.36 177.674 117.412C177.688 117.463 177.711 117.511 177.744 117.553C177.777 117.595 177.817 117.631 177.864 117.658L179.788 118.591C179.837 118.614 179.89 118.628 179.945 118.63C179.999 118.633 180.054 118.625 180.105 118.607C180.156 118.588 180.203 118.56 180.243 118.524C180.283 118.487 180.314 118.443 180.336 118.395Z" fill="#08598F"/>
<path d="M180.403 117.499C180.456 117.421 180.475 117.325 180.457 117.233C180.44 117.141 180.386 117.059 180.307 117.005L178.787 116.24C178.697 116.206 178.596 116.209 178.508 116.248C178.42 116.286 178.351 116.357 178.316 116.445C178.266 116.524 178.248 116.619 178.265 116.71C178.283 116.802 178.336 116.883 178.412 116.939L179.932 117.704C180.023 117.735 180.122 117.731 180.21 117.693C180.298 117.655 180.367 117.585 180.403 117.499Z" fill="#08598F"/>
<path d="M149.453 70.8569H143.277L143.751 73H149L149.453 70.8569Z" fill="#000017"/>
<path d="M149.627 107.638C149.749 107.503 149.862 107.359 149.963 107.209C150.164 106.911 150.341 106.599 150.492 106.276C150.797 105.638 151.054 104.98 151.262 104.307C151.475 103.635 151.652 102.953 151.791 102.264C151.858 101.919 151.916 101.573 151.964 101.219C151.964 101.042 151.964 100.874 151.964 100.696C151.964 100.519 151.964 100.519 151.964 100.426C151.959 100.382 151.959 100.339 151.964 100.295C151.964 100.295 151.964 100.202 151.964 100.165C151.968 100.208 151.968 100.252 151.964 100.295V100.416C151.964 100.5 151.916 100.584 151.887 100.668L151.733 101.172L151.425 102.17L151.108 103.169C151.002 103.495 150.906 103.831 150.79 104.158C150.579 104.82 150.377 105.483 150.136 106.136C150.021 106.462 149.896 106.779 149.752 107.069C149.684 107.228 149.607 107.384 149.521 107.535C149.438 107.684 149.331 107.82 149.203 107.936C149.364 107.865 149.507 107.764 149.627 107.638Z" fill="#003081"/>
<path d="M151.137 108.561C150.54 109.112 149.906 109.625 149.271 110.157C150.022 109.791 150.735 109.354 151.396 108.851C151.723 108.596 152.044 108.325 152.358 108.039C152.658 107.743 152.94 107.432 153.204 107.106C153.467 106.781 153.705 106.438 153.916 106.08C154.124 105.713 154.298 105.329 154.435 104.932C154.568 104.539 154.649 104.132 154.676 103.719C154.713 103.31 154.667 102.898 154.541 102.506C154.572 102.904 154.54 103.303 154.445 103.691C154.364 104.076 154.242 104.451 154.08 104.811C153.757 105.533 153.333 106.208 152.82 106.817C152.576 107.145 152.309 107.457 152.021 107.75C151.733 108.011 151.435 108.253 151.137 108.561Z" fill="#003081"/>
<path d="M152.618 114.784C152.057 115.155 151.457 115.468 150.829 115.717C151.506 115.551 152.154 115.291 152.752 114.943C153.361 114.639 153.935 114.273 154.464 113.851C154.99 113.399 155.467 112.895 155.888 112.349C156.315 111.807 156.692 111.23 157.013 110.623C157.34 110.023 157.616 109.399 157.84 108.757C158.069 108.098 158.252 107.425 158.388 106.742C158.662 105.419 158.778 104.07 158.735 102.721C158.585 104.048 158.341 105.363 158.004 106.658C157.836 107.29 157.633 107.913 157.398 108.524C157.167 109.146 156.891 109.751 156.571 110.334C156.263 110.919 155.909 111.481 155.513 112.013C155.116 112.547 154.675 113.05 154.195 113.515C153.707 113.981 153.18 114.406 152.618 114.784Z" fill="#003081"/>
<path d="M164.534 110.567C163.995 111.659 163.428 112.741 162.822 113.795C162.216 114.849 161.562 115.885 160.85 116.883C160.149 117.862 159.384 118.797 158.561 119.682C157.743 120.619 156.835 121.478 155.849 122.248C154.859 122.972 153.772 123.562 152.618 124.002C152.044 124.229 151.448 124.398 150.838 124.506C150.521 124.566 150.2 124.607 149.877 124.627C149.557 124.657 149.235 124.657 148.915 124.627C149.552 124.729 150.201 124.729 150.838 124.627C151.466 124.546 152.084 124.408 152.685 124.217C153.884 123.803 155.015 123.221 156.042 122.491C158.088 121.016 159.858 119.211 161.274 117.154C162.096 115.986 162.844 114.771 163.514 113.515C163.361 114.756 163.187 116.006 162.947 117.247C162.697 118.628 162.399 120 162.053 121.362C161.706 122.724 161.331 124.077 160.898 125.411C160.466 126.745 160.023 128.079 159.523 129.395C159.023 130.71 158.494 132.007 157.927 133.304C157.359 134.601 156.772 135.869 156.157 137.138C155.541 138.407 154.887 139.657 154.233 140.87C153.579 142.083 152.8 143.343 152.041 144.546C153.696 142.238 155.175 139.815 156.465 137.297C157.782 134.785 158.945 132.199 159.946 129.553C160.446 128.219 160.908 126.885 161.312 125.532C161.716 124.179 162.091 122.817 162.399 121.436C163 118.809 163.373 116.138 163.514 113.45C163.995 112.517 164.476 111.64 164.861 110.716C165.868 108.482 166.72 106.185 167.41 103.84C166.967 104.979 166.515 106.117 166.025 107.236C165.534 108.356 165.121 109.466 164.534 110.567Z" fill="#003081"/>
<path d="M151.925 155.042C153.945 154.417 155.955 153.801 157.946 153.13C158.436 152.971 158.908 152.794 159.427 152.617C159.946 152.439 160.389 152.271 160.908 152.085C161.87 151.712 162.832 151.338 163.794 150.9C164.755 150.461 165.717 149.967 166.621 149.519C167.525 149.071 168.458 148.53 169.353 147.98C170.244 147.436 171.102 146.841 171.92 146.198C172.329 145.875 172.717 145.529 173.084 145.162C173.27 144.981 173.447 144.791 173.613 144.593C173.786 144.399 173.934 144.186 174.056 143.958C173.948 144.194 173.812 144.416 173.652 144.621C173.499 144.834 173.335 145.04 173.161 145.237C172.805 145.619 172.43 145.983 172.036 146.338C171.243 147.024 170.408 147.662 169.535 148.25C167.772 149.404 165.931 150.442 164.024 151.357C163.063 151.814 162.101 152.29 161.139 152.663C160.639 152.859 160.177 153.055 159.648 153.223C159.119 153.391 158.638 153.559 158.129 153.717C157.619 153.876 157.119 154.016 156.599 154.147C156.08 154.277 155.57 154.408 155.051 154.52C154.021 154.754 152.977 154.928 151.925 155.042Z" fill="#003081"/>
<path d="M151.964 154.632C152.396 154.287 152.8 153.914 153.204 153.522C153.608 153.13 153.993 152.747 154.368 152.346C155.128 151.544 155.84 150.704 156.513 149.836C157.862 148.102 159.08 146.274 160.158 144.369C162.303 140.542 163.941 136.466 165.034 132.241C166.131 128.025 166.776 123.71 166.958 119.365C167.155 115.007 167.004 110.64 166.506 106.304H166.669C167.361 110.624 167.648 114.995 167.525 119.365C167.409 123.755 166.783 128.118 165.659 132.371C164.539 136.618 162.831 140.698 160.581 144.5C159.452 146.401 158.165 148.211 156.734 149.911C156.013 150.76 155.262 151.581 154.474 152.356C153.696 153.173 152.857 153.934 151.964 154.632Z" fill="#003081"/>
<path d="M174.075 152.103C173.901 152.337 173.728 152.551 173.546 152.766C173.19 153.186 172.805 153.606 172.411 153.997C172.016 154.389 171.603 154.781 171.18 155.154L169.929 156.181C169.045 156.871 168.15 157.543 167.208 158.168C166.265 158.793 165.284 159.409 164.322 159.968C163.339 160.519 162.321 161.008 161.273 161.433C160.24 161.885 159.18 162.278 158.1 162.609C157.019 162.946 155.921 163.226 154.81 163.448C153.692 163.68 152.557 163.833 151.415 163.906C152.378 163.954 153.343 163.926 154.301 163.822L154.628 174L154.955 163.738C156.077 163.591 157.189 163.373 158.282 163.085C158.84 162.945 159.388 162.777 159.927 162.59L160.244 173.991L160.581 162.366C160.908 162.245 161.235 162.124 161.543 161.984C162.617 161.555 163.661 161.06 164.668 160.5L165.553 159.968L165.871 173.814L166.207 159.567C166.659 159.278 167.102 158.98 167.544 158.634C168.48 157.978 169.379 157.275 170.237 156.526C170.555 156.246 170.872 155.966 171.199 155.677L171.526 173.795L171.853 155.108C172.151 154.8 172.44 154.483 172.728 154.175C173.017 153.867 173.44 153.298 173.767 152.831C174.096 152.375 174.376 151.887 174.604 151.376C174.444 151.629 174.267 151.872 174.075 152.103Z" fill="#003081"/>
<path d="M176.354 179.15H149.646V184.832H176.354V179.15Z" fill="#003081"/>
<path d="M176.354 195.627V184.832H149.646V195.627H147.799V201.299H178.201V195.627H176.354Z" fill="#003081"/>
<path d="M177.864 172.302H148.126V176.641H177.864V172.302Z" fill="#003081"/>
<path d="M177.864 176.641H148.126V179.151H177.864V176.641Z" fill="#0C71B4"/>
<path d="M177.864 183.573H148.126V186.082H177.864V183.573Z" fill="#0C71B4"/>
<path d="M155.118 187.342H153.252V194.423H155.118V187.342Z" fill="#0C71B4"/>
<path d="M160.889 187.342H159.023V194.423H160.889V187.342Z" fill="#0C71B4"/>
<path d="M166.669 187.342H164.794V194.423H166.669V187.342Z" fill="#0C71B4"/>
<path d="M172.43 187.342H170.555V194.423H172.43V187.342Z" fill="#0C71B4"/>
<path d="M165.775 183.759V182.332L162.995 179.664L160.225 182.332V183.759H165.775Z" fill="#0C71B4"/>
<path d="M164.736 183.274V182.379L162.995 180.708L161.264 182.379V183.274H164.736Z" fill="#003081"/>
<path d="M167.198 201.299V199.144L162.995 195.095L158.802 199.144V201.299H167.198Z" fill="#0C71B4"/>
<path d="M165.631 200.506V199.153L162.995 196.625L160.37 199.153V200.506H165.631Z" fill="#003081"/>
<path d="M180.519 200.777H145.472V204.014H180.519V200.777Z" fill="#0C71B4"/>
<path d="M183 203.763H143V207H183V203.763Z" fill="#003081"/>
</g>
<path d="M212 107C212 105.895 212.895 105 214 105H260V207H212V107Z" fill="#A5D5F2"/>
<path d="M317 112C317 110.895 316.105 110 315 110H294C292.895 110 292 110.895 292 112V207H317V112Z" fill="#A5D5F2"/>
<path d="M315 107C315 105.895 314.105 105 313 105H296C294.895 105 294 105.895 294 107V110H315V107Z" fill="#003081"/>
<path d="M308 89H301L304.5 68L308 89Z" fill="#003081"/>
<path d="M312 91C312 89.8954 311.105 89 310 89H299C297.895 89 297 89.8954 297 91V105H312V91Z" fill="#009CDC"/>
<rect x="217" y="113" width="8" height="8" fill="#009CDC"/>
<rect x="217" y="127" width="8" height="8" fill="#009CDC"/>
<rect x="217" y="141" width="8" height="8" fill="#009CDC"/>
<rect x="217" y="155" width="8" height="8" fill="#009CDC"/>
<rect x="217" y="169" width="8" height="8" fill="#009CDC"/>
<rect x="217" y="183" width="8" height="8" fill="#009CDC"/>
<rect x="227" y="113" width="8" height="8" fill="#009CDC"/>
<rect x="227" y="127" width="8" height="8" fill="#009CDC"/>
<rect x="227" y="141" width="8" height="8" fill="#009CDC"/>
<rect x="227" y="155" width="8" height="8" fill="#009CDC"/>
<rect x="227" y="169" width="8" height="8" fill="#009CDC"/>
<rect x="227" y="183" width="8" height="8" fill="#009CDC"/>
<rect x="237" y="113" width="8" height="8" fill="#009CDC"/>
<rect x="237" y="127" width="8" height="8" fill="#009CDC"/>
<rect x="237" y="141" width="8" height="8" fill="#009CDC"/>
<rect x="237" y="155" width="8" height="8" fill="#009CDC"/>
<rect x="237" y="169" width="8" height="8" fill="#009CDC"/>
<rect x="237" y="183" width="8" height="8" fill="#009CDC"/>
<rect x="247" y="113" width="8" height="8" fill="#009CDC"/>
<rect x="247" y="127" width="8" height="8" fill="#009CDC"/>
<rect x="247" y="141" width="8" height="8" fill="#009CDC"/>
<rect x="247" y="155" width="8" height="8" fill="#009CDC"/>
<rect x="247" y="169" width="8" height="8" fill="#009CDC"/>
<rect x="247" y="183" width="8" height="8" fill="#009CDC"/>
<path d="M260 87L265 91V207H260V87Z" fill="#009CDC"/>
<path d="M292 87L287 91V207H292V87Z" fill="#009CDC"/>
<rect x="265" y="91" width="22" height="116" fill="#A5D5F2"/>
<rect x="268" y="94" width="4" height="4" fill="#003081"/>
<rect x="274" y="94" width="4" height="4" fill="#003081"/>
<rect x="280" y="94" width="4" height="4" fill="#003081"/>
<rect x="268" y="101" width="4" height="4" fill="#003081"/>
<rect x="274" y="101" width="4" height="4" fill="#003081"/>
<rect x="280" y="101" width="4" height="4" fill="#003081"/>
<rect x="268" y="108" width="4" height="4" fill="#003081"/>
<rect x="274" y="108" width="4" height="4" fill="#003081"/>
<rect x="280" y="108" width="4" height="4" fill="#003081"/>
<rect x="268" y="115" width="4" height="4" fill="#003081"/>
<rect x="274" y="115" width="4" height="4" fill="#003081"/>
<rect x="280" y="115" width="4" height="4" fill="#003081"/>
<rect x="268" y="122" width="4" height="4" fill="#003081"/>
<rect x="274" y="122" width="4" height="4" fill="#003081"/>
<rect x="280" y="122" width="4" height="4" fill="#003081"/>
<rect x="268" y="129" width="4" height="4" fill="#003081"/>
<rect x="274" y="129" width="4" height="4" fill="#003081"/>
<rect x="280" y="129" width="4" height="4" fill="#003081"/>
<rect x="268" y="136" width="4" height="4" fill="#003081"/>
<rect x="274" y="136" width="4" height="4" fill="#003081"/>
<rect x="280" y="136" width="4" height="4" fill="#003081"/>
<rect x="268" y="143" width="4" height="4" fill="#003081"/>
<rect x="274" y="143" width="4" height="4" fill="#003081"/>
<rect x="280" y="143" width="4" height="4" fill="#003081"/>
<rect x="268" y="150" width="4" height="4" fill="#003081"/>
<rect x="274" y="150" width="4" height="4" fill="#003081"/>
<rect x="280" y="150" width="4" height="4" fill="#003081"/>
<rect x="268" y="157" width="4" height="4" fill="#003081"/>
<rect x="274" y="157" width="4" height="4" fill="#003081"/>
<rect x="280" y="157" width="4" height="4" fill="#003081"/>
<rect x="268" y="164" width="4" height="4" fill="#003081"/>
<rect x="274" y="164" width="4" height="4" fill="#003081"/>
<rect x="280" y="164" width="4" height="4" fill="#003081"/>
<rect x="268" y="171" width="4" height="4" fill="#003081"/>
<rect x="274" y="171" width="4" height="4" fill="#003081"/>
<rect x="280" y="171" width="4" height="4" fill="#003081"/>
<rect x="268" y="178" width="4" height="4" fill="#003081"/>
<rect x="274" y="178" width="4" height="4" fill="#003081"/>
<rect x="280" y="178" width="4" height="4" fill="#003081"/>
<rect x="268" y="185" width="4" height="4" fill="#003081"/>
<rect x="274" y="185" width="4" height="4" fill="#003081"/>
<rect x="280" y="185" width="4" height="4" fill="#003081"/>
<rect x="268" y="192" width="4" height="4" fill="#003081"/>
<rect x="274" y="192" width="4" height="4" fill="#003081"/>
<rect x="280" y="192" width="4" height="4" fill="#003081"/>
<rect x="268" y="199" width="4" height="4" fill="#003081"/>
<rect x="274" y="199" width="4" height="4" fill="#003081"/>
<rect x="280" y="199" width="4" height="4" fill="#003081"/>
<path d="M267 77C267 75.8954 267.895 75 269 75H283C284.105 75 285 75.8954 285 77V86H267V77Z" fill="#A5D5F2"/>
<path d="M268 70C268 67.2386 270.239 65 273 65H279C281.761 65 284 67.2386 284 70V76H268V70Z" fill="#A5D5F2"/>
<path d="M270 61C270 59.3431 271.343 58 273 58H279C280.657 58 282 59.3431 282 61V66H270V61Z" fill="#A5D5F2"/>
<path d="M275 45L276 29L277 45H275Z" fill="#003081"/>
<path d="M272 54C272 52.3431 273.343 51 275 51H277C278.657 51 280 52.3431 280 54V59H272V54Z" fill="#A5D5F2"/>
<path d="M274 46C274 44.8954 274.895 44 276 44C277.105 44 278 44.8954 278 46V52H274V46Z" fill="#A5D5F2"/>
<path d="M275 51L276 46L277 51H275Z" fill="#003081"/>
<path d="M275 57L276 53L277 57H275Z" fill="#003081"/>
<path d="M273 58V55L274 57.5L273 58Z" fill="#003081"/>
<path d="M279 58L278 57.5L279.5 55L279 58Z" fill="#003081"/>
<path d="M275 63L276 59L277 63H275Z" fill="#003081"/>
<path d="M272 64.5V60L274 64L272 64.5Z" fill="#003081"/>
<path d="M280 64.5L278 64L280.5 60L280 64.5Z" fill="#003081"/>
<path d="M275 71L276 64L277 71H275Z" fill="#003081"/>
<path d="M274 71L272 72.5L271.5 66.5L274 71Z" fill="#003081"/>
<path d="M280 72.5L278 71L281.5 66.5L280 72.5Z" fill="#003081"/>
<path d="M287 91H265C265 91 265 80 276 80C287 80 287 91 287 91Z" fill="#A5D5F2"/>
<path d="M275 88L276 81L277.5 88H275Z" fill="#003081"/>
<path d="M272.195 89.3306L270.119 82.9416L274.328 88.2844L272.195 89.3306Z" fill="#003081"/>
<path d="M280.132 89.3305L282.209 82.9415L278 88.2843L280.132 89.3305Z" fill="#003081"/>
<path d="M269.342 91.3229L266.59 86.7161L270.816 90.1294L269.342 91.3229Z" fill="#003081"/>
<path d="M282.475 91.3229L285.226 86.7161L281 90.1294L282.475 91.3229Z" fill="#003081"/>
<path d="M275.167 78.6629L275.983 72.9462L277.208 78.6629H275.167Z" fill="#003081"/>
<path d="M272.876 79.7496L271.18 74.5319L274.618 78.8952L272.876 79.7496Z" fill="#003081"/>
<path d="M279.358 79.7495L281.053 74.5318L277.616 78.8952L279.358 79.7495Z" fill="#003081"/>
<path d="M270.545 81.3766L268.298 77.6144L271.75 80.402L270.545 81.3766Z" fill="#003081"/>
<path d="M281.271 81.3766L283.518 77.6144L280.067 80.402L281.271 81.3766Z" fill="#003081"/>
<rect x="296" y="114" width="4.33333" height="8" fill="#003081"/>
<rect x="296" y="126" width="4.33333" height="8" fill="#003081"/>
<rect x="296" y="138" width="4.33333" height="8" fill="#003081"/>
<rect x="296" y="150" width="4.33333" height="8" fill="#003081"/>
<rect x="296" y="162" width="4.33333" height="8" fill="#003081"/>
<rect x="296" y="174" width="4.33333" height="8" fill="#003081"/>
<rect x="296" y="186" width="4.33333" height="8" fill="#003081"/>
<rect x="302.333" y="114" width="4.33333" height="8" fill="#003081"/>
<rect x="302.333" y="126" width="4.33333" height="8" fill="#003081"/>
<rect x="302.333" y="138" width="4.33333" height="8" fill="#003081"/>
<rect x="302.333" y="150" width="4.33333" height="8" fill="#003081"/>
<rect x="302.333" y="162" width="4.33333" height="8" fill="#003081"/>
<rect x="302.333" y="174" width="4.33333" height="8" fill="#003081"/>
<rect x="302.333" y="186" width="4.33333" height="8" fill="#003081"/>
<rect x="308.667" y="114" width="4.33333" height="8" fill="#003081"/>
<rect x="308.667" y="126" width="4.33333" height="8" fill="#003081"/>
<rect x="308.667" y="138" width="4.33333" height="8" fill="#003081"/>
<rect x="308.667" y="150" width="4.33333" height="8" fill="#003081"/>
<rect x="308.667" y="162" width="4.33333" height="8" fill="#003081"/>
<rect x="308.667" y="174" width="4.33333" height="8" fill="#003081"/>
<rect x="308.667" y="186" width="4.33333" height="8" fill="#003081"/>
<path d="M300 95C300 93.8954 300.895 93 302 93H304V102H300V95Z" fill="#A5D5F2"/>
<path d="M309 95C309 93.8954 308.105 93 307 93H305V102H309V95Z" fill="#A5D5F2"/>
<rect x="94" y="193" width="166" height="6" fill="#003081"/>
<rect x="99" y="128" width="5" height="79" fill="#003081"/>
<rect x="104" y="136" width="4" height="4" fill="#003081"/>
<rect x="104" y="149" width="4" height="4" fill="#003081"/>
<rect x="108" y="128" width="5" height="79" fill="#003081"/>
<rect x="244" y="159" width="2" height="48" fill="#003081"/>
<path d="M223 163L218.5 167.5L223 172H244V163H223Z" fill="#003081"/>
<path d="M261.647 175L265 178.5L261.647 182H246V175H261.647Z" fill="#003081"/>
<rect x="117" y="144" width="1" height="49" fill="#003081"/>
<rect x="126" y="152" width="1" height="41" fill="#003081"/>
<rect x="134" y="159" width="1" height="34" fill="#003081"/>
<rect x="142" y="165" width="1" height="28" fill="#003081"/>
<rect x="150" y="170" width="1" height="23" fill="#003081"/>
<rect x="158" y="175" width="1" height="18" fill="#003081"/>
<rect x="166" y="178" width="1" height="15" fill="#003081"/>
<rect x="174" y="181" width="1" height="12" fill="#003081"/>
<rect x="182" y="184" width="1" height="9" fill="#003081"/>
<rect x="190" y="185" width="1" height="8" fill="#003081"/>
<rect x="198" y="186" width="1" height="7" fill="#003081"/>
<rect x="206" y="186" width="1" height="7" fill="#003081"/>
<rect x="214" y="185" width="1" height="8" fill="#003081"/>
<rect x="222" y="184" width="1" height="9" fill="#003081"/>
<rect x="230" y="182" width="1" height="11" fill="#003081"/>
<rect x="238" y="179" width="1" height="14" fill="#003081"/>
<rect x="247" y="175" width="1" height="18" fill="#003081"/>
<rect x="256" y="171" width="1" height="22" fill="#003081"/>
<path d="M112.5 139C162.292 189.441 206.5 199 260.5 168.5" stroke="#092E77"/>
<path d="M102 140C158.151 192.046 207 202.5 260.5 173M100 159.5C96.5525 179.907 92.5863 190.236 82.5 207" stroke="#092E77"/>
<path d="M108.5 159.5C105.095 178.992 95 207 95 207" stroke="#092E77"/>
<rect x="53" y="22" width="1" height="16" rx="0.5" fill="#003081"/>
<path d="M51 39C51 37.8954 51.8954 37 53 37H54C55.1046 37 56 37.8954 56 39V48H51V39Z" fill="#A5D5F2"/>
<path d="M41 50C41 48.8954 41.8954 48 43 48H64C65.1046 48 66 48.8954 66 50V67H41V50Z" fill="#A5D5F2"/>
<path d="M31 67C31 65.8954 31.8954 65 33 65H74C75.1046 65 76 65.8954 76 67V90H31V67Z" fill="#A5D5F2"/>
<path d="M24 92C24 90.8954 24.8954 90 26 90H81C82.1046 90 83 90.8954 83 92V178H24V92Z" fill="#A5D5F2"/>
<path d="M24 92C24 90.8954 24.8954 90 26 90H46V176H24V92Z" fill="#17BCFF"/>
<path d="M83 92C83 90.8954 82.1046 90 81 90H61V176H83V92Z" fill="#17BCFF"/>
<path d="M13 178C13 176.895 13.8954 176 15 176H92C93.1046 176 94 176.895 94 178V207H13V178Z" fill="#A5D5F2"/>
<rect x="18" y="182" width="2" height="19" fill="#003081"/>
<rect x="63" y="182" width="2" height="19" fill="#003081"/>
<rect x="22" y="182" width="2" height="19" fill="#003081"/>
<rect x="67" y="182" width="2" height="19" fill="#003081"/>
<rect x="26" y="182" width="2" height="19" fill="#003081"/>
<rect x="71" y="182" width="2" height="19" fill="#003081"/>
<rect x="30" y="182" width="2" height="19" fill="#003081"/>
<rect x="75" y="182" width="2" height="19" fill="#003081"/>
<rect x="34" y="182" width="2" height="19" fill="#003081"/>
<rect x="79" y="182" width="2" height="19" fill="#003081"/>
<rect x="38" y="182" width="2" height="19" fill="#003081"/>
<rect x="83" y="182" width="2" height="19" fill="#003081"/>
<rect x="42" y="182" width="2" height="19" fill="#003081"/>
<path d="M49 195.5C49 193.015 51.0147 191 53.5 191C55.9853 191 58 193.015 58 195.5V207H49V195.5Z" fill="#009CDC"/>
<path d="M51 195H56V207H51V195Z" fill="#003081"/>
<rect x="87" y="182" width="2" height="19" fill="#003081"/>
<rect x="43" y="51" width="1" height="11" fill="#003081"/>
<rect x="45" y="51" width="1" height="11" fill="#003081"/>
<rect x="47" y="51" width="1" height="11" fill="#003081"/>
<rect x="49" y="51" width="1" height="11" fill="#003081"/>
<rect x="51" y="51" width="1" height="11" fill="#003081"/>
<rect x="53" y="51" width="1" height="11" fill="#003081"/>
<rect x="55" y="51" width="1" height="11" fill="#003081"/>
<rect x="57" y="51" width="1" height="11" fill="#003081"/>
<rect x="59" y="51" width="1" height="11" fill="#003081"/>
<rect x="61" y="51" width="1" height="11" fill="#003081"/>
<rect x="63" y="51" width="1" height="11" fill="#003081"/>
<rect x="35" y="70" width="4.5" height="15" fill="#003081"/>
<rect x="41.5" y="70" width="4.5" height="15" fill="#003081"/>
<rect x="48" y="70" width="4.5" height="15" fill="#003081"/>
<rect x="54.5" y="70" width="4.5" height="15" fill="#003081"/>
<rect x="61" y="70" width="4.5" height="15" fill="#003081"/>
<rect x="67.5" y="70" width="4.5" height="15" fill="#003081"/>
<rect x="28" y="98" width="3.33333" height="70" fill="#003081"/>
<rect x="65" y="98" width="3.33333" height="70" fill="#003081"/>
<rect x="33.3333" y="98" width="3.33333" height="70" fill="#003081"/>
<rect x="70.3333" y="98" width="3.33333" height="70" fill="#003081"/>
<rect x="38.6667" y="98" width="3.33333" height="70" fill="#003081"/>
<rect x="75.6667" y="98" width="3.33333" height="70" fill="#003081"/>
<rect x="49.75" y="98" width="1.5" height="87" fill="#003081"/>
<rect x="52.75" y="98" width="1.5" height="87" fill="#003081"/>
<rect x="55.75" y="98" width="1.5" height="87" fill="#003081"/>
<rect x="317" y="175" width="42" height="32" fill="#003081"/>
<rect x="359" y="133" width="37" height="74" fill="#009CDC"/>
<path d="M359 130C359 128.343 360.343 127 362 127H393C394.657 127 396 128.343 396 130V133H359V130Z" fill="#003081"/>
<rect x="322" y="179" width="6.4" height="12" fill="#009CDC"/>
<rect x="328.4" y="179" width="6.4" height="12" fill="#A5D5F2"/>
<rect x="334.8" y="179" width="6.4" height="12" fill="#009CDC"/>
<rect x="341.2" y="179" width="6.4" height="12" fill="#A5D5F2"/>
<rect x="347.6" y="179" width="6.4" height="12" fill="#009CDC"/>
<rect x="322" y="191" width="6.4" height="3" fill="#A5D5F2"/>
<rect x="328.4" y="194" width="19.2" height="13" fill="white"/>
<rect x="328.4" y="191" width="6.4" height="3" fill="#009CDC"/>
<rect x="334.8" y="191" width="6.4" height="3" fill="#A5D5F2"/>
<rect x="341.2" y="191" width="6.4" height="3" fill="#009CDC"/>
<rect x="347.6" y="191" width="6.4" height="3" fill="#A5D5F2"/>
<rect x="326" y="194" width="2.4" height="13" fill="#A5D5F2"/>
<rect x="347.6" y="194" width="2.4" height="13" fill="#A5D5F2"/>
<path d="M324 171H351V173C351 174.105 350.105 175 349 175H326C324.895 175 324 174.105 324 173V171Z" fill="#A5D5F2"/>
<path d="M321 169C321 167.895 321.895 167 323 167H352C353.105 167 354 167.895 354 169C354 170.105 353.105 171 352 171H323C321.895 171 321 170.105 321 169Z" fill="#009CDC"/>
<path d="M351 167H324C324 167 324.5 158 337.5 158C350.5 158 351 167 351 167Z" fill="#A5D5F2"/>
<path d="M335.5 167H329C329 167 329.5 169.5 332.5 169C335.5 168.5 335.5 167 335.5 167Z" fill="#003081"/>
<path d="M341 167H347.5C347.5 167 347 169.5 344 169C341 168.5 341 167 341 167Z" fill="#003081"/>
<rect x="325" y="161" width="2" height="2" rx="1" fill="#003081"/>
<rect x="330" y="163" width="2" height="2" rx="1" fill="#003081"/>
<rect x="334" y="160" width="2" height="2" rx="1" fill="#003081"/>
<rect x="337" y="157" width="2" height="2" rx="1" fill="#003081"/>
<rect x="338" y="164" width="2" height="2" rx="1" fill="#003081"/>
<rect x="343" y="162" width="2" height="2" rx="1" fill="#003081"/>
<rect x="344" y="158" width="2" height="2" rx="1" fill="#003081"/>
<rect x="349" y="163" width="2" height="2" rx="1" fill="#003081"/>
<rect x="365" y="139" width="9" height="8" fill="#88C8F3"/>
<rect x="373" y="182" width="9" height="8" fill="#88C8F3"/>
<rect x="381" y="139" width="9" height="8" fill="#88C8F3"/>
<rect x="362" y="147" width="4" height="6" fill="#09408F"/>
<rect x="366" y="190" width="4" height="6" fill="#09408F"/>
<rect x="378" y="147" width="4" height="6" fill="#09408F"/>
<rect x="367" y="147" width="5" height="6" fill="#09408F"/>
<rect x="372" y="190" width="5" height="6" fill="#09408F"/>
<rect x="383" y="147" width="5" height="6" fill="#09408F"/>
<rect x="373" y="147" width="4" height="6" fill="#09408F"/>
<rect x="379" y="190" width="4" height="6" fill="#09408F"/>
<rect x="385" y="190" width="4" height="6" fill="#09408F"/>
<rect x="389" y="147" width="4" height="6" fill="#09408F"/>
<rect x="366.357" y="163" width="7.07143" height="6.28571" fill="#88C8F3"/>
<rect x="364" y="169.286" width="3.14286" height="4.71429" fill="#09408F"/>
<rect x="367.929" y="169.286" width="3.92857" height="4.71429" fill="#09408F"/>
<rect x="372.643" y="169.286" width="3.14286" height="4.71429" fill="#09408F"/>
<rect x="379.357" y="163" width="7.07143" height="6.28571" fill="#88C8F3"/>
<rect x="377" y="169.286" width="3.14286" height="4.71429" fill="#09408F"/>
<rect x="380.929" y="169.286" width="3.92857" height="4.71429" fill="#09408F"/>
<rect x="385.643" y="169.286" width="3.14286" height="4.71429" fill="#09408F"/>
<path d="M407 40C407 38.8954 407.895 38 409 38H424C425.105 38 426 38.8954 426 40V45H407V40Z" fill="#009CDC"/>
<path d="M390.5 152L365.5 172.5L388 192.5" stroke="#09408F"/>
<rect x="396" y="198" width="41" height="9" fill="#003081"/>
<path d="M400 46C400 44.8954 400.895 44 402 44H430C431.105 44 432 44.8954 432 46V198H400V46Z" fill="#A5D5F2"/>
<rect x="416" y="5" width="1" height="33" fill="#003081"/>
<rect x="402" y="47" width="28" height="2" fill="#003081"/>
<rect x="402" y="51" width="28" height="2" fill="#003081"/>
<rect x="402" y="55" width="28" height="2" fill="#003081"/>
<rect x="402" y="59" width="28" height="2" fill="#003081"/>
<rect x="402" y="63" width="28" height="2" fill="#003081"/>
<rect x="402" y="67" width="28" height="2" fill="#003081"/>
<rect x="402" y="71" width="28" height="2" fill="#003081"/>
<rect x="402" y="75" width="28" height="2" fill="#003081"/>
<rect x="402" y="79" width="28" height="2" fill="#003081"/>
<rect x="402" y="83" width="28" height="2" fill="#003081"/>
<rect x="402" y="87" width="28" height="2" fill="#003081"/>
<rect x="402" y="91" width="28" height="2" fill="#003081"/>
<rect x="402" y="95" width="28" height="2" fill="#003081"/>
<rect x="402" y="99" width="28" height="2" fill="#003081"/>
<rect x="402" y="103" width="28" height="2" fill="#003081"/>
<rect x="402" y="107" width="28" height="2" fill="#003081"/>
<rect x="402" y="111" width="28" height="2" fill="#003081"/>
<rect x="402" y="115" width="28" height="2" fill="#003081"/>
<rect x="402" y="119" width="28" height="2" fill="#003081"/>
<rect x="402" y="123" width="28" height="2" fill="#003081"/>
<rect x="402" y="127" width="28" height="2" fill="#003081"/>
<rect x="402" y="131" width="28" height="2" fill="#003081"/>
<rect x="402" y="135" width="28" height="2" fill="#003081"/>
<rect x="402" y="139" width="28" height="2" fill="#003081"/>
<rect x="402" y="143" width="28" height="2" fill="#003081"/>
<rect x="402" y="147" width="28" height="2" fill="#003081"/>
<rect x="402" y="151" width="28" height="2" fill="#003081"/>
<rect x="402" y="155" width="28" height="2" fill="#003081"/>
<rect x="402" y="159" width="28" height="2" fill="#003081"/>
<rect x="402" y="163" width="28" height="2" fill="#003081"/>
<rect x="402" y="167" width="28" height="2" fill="#003081"/>
<rect x="402" y="171" width="28" height="2" fill="#003081"/>
<rect x="402" y="175" width="28" height="2" fill="#003081"/>
<rect x="402" y="179" width="28" height="2" fill="#003081"/>
<rect x="402" y="183" width="28" height="2" fill="#003081"/>
<path d="M432.5 198H400L416.5 45L432.5 198Z" fill="#009CDC"/>
<defs>
<clipPath id="clip0_14_4816">
<rect width="80" height="187" fill="white" transform="translate(123 20)"/>
</clipPath>
</defs>
</svg>
