<svg width="218" height="100" viewBox="0 0 218 100" fill="none" xmlns="http://www.w3.org/2000/svg">
<path d="M214.142 99.9999H4.34082C4.34082 99.9999 10.8347 0 106.494 0C202.153 0 214.142 99.9999 214.142 99.9999Z" fill="#F3F8FA"/>
<rect y="99.5193" width="218" height="0.480769" fill="#A5D5F2"/>
<path d="M32.3143 27.0719C32.3147 26.5702 32.1922 26.0753 31.9565 25.6269C31.7209 25.1784 31.3786 24.7888 30.9571 24.4893C30.5356 24.1897 30.0465 23.9884 29.529 23.9015C29.0114 23.8147 28.4798 23.8446 27.9766 23.989C28.0281 23.662 28.0539 23.3317 28.0539 23.0011C28.0535 22.0003 27.8221 21.0118 27.3764 20.1061C26.9306 19.2003 26.2813 18.3994 25.4747 17.7604C24.668 17.1213 23.7238 16.6598 22.7093 16.4086C21.6947 16.1575 20.6346 16.1228 19.6044 16.3071C18.8984 15.2075 17.838 14.3562 16.5823 13.881C15.3266 13.4057 13.9434 13.3321 12.6402 13.6711C11.3369 14.0102 10.184 14.7437 9.35444 15.7616C8.52486 16.7794 8.06335 18.0267 8.03917 19.3163H7.93512C6.4505 19.3721 5.04616 19.9746 4.01645 20.9973C2.98675 22.02 2.41162 23.3836 2.41162 24.8023C2.41162 26.221 2.98675 27.5846 4.01645 28.6073C5.04616 29.63 6.4505 30.2325 7.93512 30.2883H29.0439C29.9204 30.2647 30.7526 29.9153 31.3634 29.3146C31.9743 28.7138 32.3154 27.9092 32.3143 27.0719Z" fill="white"/>
<path d="M99.3538 19.4289C99.3541 19.0848 99.2711 18.7455 99.1115 18.438C98.9518 18.1305 98.72 17.8633 98.4344 17.6579C98.1489 17.4525 97.8176 17.3144 97.467 17.2549C97.1164 17.1953 96.7563 17.2158 96.4154 17.3148C96.4503 17.0906 96.4678 16.8642 96.4677 16.6374C96.4674 15.9511 96.3107 15.2734 96.0088 14.6523C95.7068 14.0312 95.2669 13.482 94.7205 13.0438C94.1741 12.6056 93.5345 12.2891 92.8472 12.1169C92.1599 11.9447 91.4418 11.9209 90.7439 12.0473C90.2656 11.2933 89.5473 10.7095 88.6967 10.3836C87.8461 10.0577 86.909 10.0072 86.0262 10.2398C85.1434 10.4723 84.3623 10.9752 83.8004 11.6732C83.2384 12.3711 82.9258 13.2264 82.9094 14.1107H82.8389C81.8332 14.149 80.8819 14.5621 80.1843 15.2634C79.4868 15.9647 79.0972 16.8997 79.0972 17.8725C79.0972 18.8454 79.4868 19.7804 80.1843 20.4817C80.8819 21.183 81.8332 21.5961 82.8389 21.6344H97.1384C97.7322 21.6182 98.2959 21.3786 98.7097 20.9667C99.1235 20.5547 99.3546 20.003 99.3538 19.4289Z" fill="white"/>
<path d="M55.4648 36.8992C55.465 36.6555 55.4076 36.4151 55.2974 36.1973C55.1872 35.9794 55.0271 35.7902 54.8299 35.6447C54.6328 35.4992 54.404 35.4014 54.162 35.3592C53.9199 35.317 53.6712 35.3316 53.4358 35.4017C53.4599 35.2429 53.472 35.0825 53.472 34.9219C53.4718 34.4358 53.3636 33.9557 53.1551 33.5157C52.9466 33.0758 52.6429 32.6868 52.2656 32.3764C51.8883 32.066 51.4467 31.8418 50.9721 31.7198C50.4975 31.5978 50.0017 31.581 49.5198 31.6705C49.1896 31.1364 48.6936 30.723 48.1063 30.4921C47.5189 30.2613 46.8719 30.2255 46.2623 30.3902C45.6528 30.5549 45.1135 30.9112 44.7255 31.4055C44.3374 31.8999 44.1216 32.5058 44.1103 33.1321H44.0616C43.3672 33.1592 42.7103 33.4519 42.2287 33.9486C41.747 34.4454 41.478 35.1077 41.478 35.7968C41.478 36.4858 41.747 37.1482 42.2287 37.6449C42.7103 38.1417 43.3672 38.4343 44.0616 38.4614H53.9351C54.345 38.4499 54.7343 38.2802 55.02 37.9884C55.3057 37.6966 55.4653 37.3058 55.4648 36.8992Z" fill="white"/>
<path d="M208.836 18.6299C208.837 18.3862 208.779 18.1458 208.669 17.928C208.559 17.7102 208.399 17.5209 208.202 17.3754C208.004 17.2299 207.776 17.1321 207.534 17.09C207.291 17.0478 207.043 17.0623 206.807 17.1324C206.832 16.9736 206.844 16.8132 206.844 16.6526C206.843 16.1665 206.735 15.6864 206.527 15.2464C206.318 14.8065 206.014 14.4175 205.637 14.1071C205.26 13.7967 204.818 13.5725 204.344 13.4505C203.869 13.3285 203.373 13.3117 202.891 13.4012C202.561 12.8672 202.065 12.4537 201.478 12.2228C200.891 11.992 200.244 11.9562 199.634 12.1209C199.024 12.2856 198.485 12.6419 198.097 13.1363C197.709 13.6306 197.493 14.2365 197.482 14.8628H197.433C196.739 14.89 196.082 15.1826 195.6 15.6793C195.119 16.1761 194.85 16.8384 194.85 17.5275C194.85 18.2165 195.119 18.8789 195.6 19.3756C196.082 19.8724 196.739 20.165 197.433 20.1921H207.307C207.717 20.1806 208.106 20.0109 208.392 19.7191C208.677 19.4274 208.837 19.0365 208.836 18.6299Z" fill="white"/>
<path d="M151.443 35.0611C151.443 34.5307 151.319 34.0076 151.079 33.5335C150.84 33.0594 150.492 32.6475 150.063 32.3308C149.635 32.0141 149.138 31.8014 148.612 31.7095C148.086 31.6177 147.546 31.6494 147.035 31.802C147.087 31.4563 147.114 31.1072 147.113 30.7576C147.113 29.6996 146.878 28.6547 146.425 27.6972C145.972 26.7396 145.312 25.893 144.493 25.2174C143.673 24.5419 142.714 24.054 141.683 23.7885C140.652 23.5229 139.575 23.4863 138.528 23.6811C137.81 22.5187 136.733 21.6188 135.457 21.1164C134.181 20.6139 132.775 20.5361 131.451 20.8946C130.127 21.253 128.955 22.0284 128.112 23.1044C127.269 24.1805 126.801 25.499 126.776 26.8623H126.67C125.162 26.9213 123.735 27.5582 122.688 28.6393C121.642 29.7205 121.058 31.162 121.058 32.6618C121.058 34.1615 121.642 35.6031 122.688 36.6842C123.735 37.7654 125.162 38.4022 126.67 38.4613H148.119C149.01 38.4363 149.856 38.0669 150.476 37.4319C151.097 36.7968 151.444 35.9462 151.443 35.0611Z" fill="white"/>
<path d="M72.3773 29.8109C72.1023 30.7482 71.6898 30.5432 71.6898 30.5432C72.0542 29.4155 71.6898 28.9834 71.6898 28.9834C71.4836 29.7523 71.0573 29.7157 71.0573 29.7157C71.157 29.3978 71.1686 29.056 71.0905 28.7313C71.0125 28.4066 70.8482 28.1128 70.6174 27.885C70.6751 28.1268 70.6698 28.3807 70.6019 28.6195C70.5341 28.8582 70.4063 29.0727 70.2324 29.2397C70.0399 29.4448 69.8199 28.4635 69.8199 28.4635C69.5979 28.8781 69.4693 29.3419 69.4443 29.8185C69.4192 30.295 69.4984 30.7712 69.6755 31.2096C69.5544 31.0842 69.4636 30.9295 69.4109 30.7586C69.3583 30.5877 69.3452 30.4057 69.373 30.2283C69.0566 30.583 68.8151 31.0057 68.6645 31.4679C68.5139 31.9301 68.4578 32.4213 68.4999 32.9085C68.5881 33.4 68.838 33.8419 69.2047 34.1547C69.5714 34.4675 70.0309 34.6306 70.5005 34.6147C71.4973 34.6147 72.5629 34.0216 72.7348 32.9744C73.0717 30.8142 72.3773 29.8109 72.3773 29.8109Z" fill="#A5D5F2"/>
<path d="M86.3867 55.9882C86.0991 55.4185 85.4033 55.1135 84.6333 54.9924C83.3298 54.7816 82.314 51.9602 82.314 51.9602C82.75 54.4855 82.968 60.7383 82.968 60.7383C84.8513 61.6354 84.7353 60.8504 85.2873 59.3926C85.8393 57.9349 85.9553 58.3789 86.215 57.8586C86.3588 57.5805 86.6186 57.0019 86.6186 57.0019C86.6852 56.925 86.7327 56.8343 86.7574 56.7368C86.782 56.6394 86.7832 56.5378 86.7608 56.4398C86.7384 56.3418 86.693 56.2502 86.6281 56.1719C86.5632 56.0935 86.4806 56.0307 86.3867 55.9882Z" fill="#A5D5F2"/>
<path d="M86.3867 55.9882C86.0991 55.4185 85.4033 55.1135 84.6333 54.9924C83.3298 54.7816 82.314 51.9602 82.314 51.9602C82.75 54.4855 82.968 60.7383 82.968 60.7383C84.8513 61.6354 84.7353 60.8504 85.2873 59.3926C85.8393 57.9349 85.9553 58.3789 86.215 57.8586C86.3588 57.5805 86.6186 57.0019 86.6186 57.0019C86.6852 56.925 86.7327 56.8343 86.7574 56.7368C86.782 56.6394 86.7832 56.5378 86.7608 56.4398C86.7384 56.3418 86.693 56.2502 86.6281 56.1719C86.5632 56.0935 86.4806 56.0307 86.3867 55.9882Z" fill="black" fill-opacity="0.2"/>
<path d="M82.3711 52.885C82.4505 53.1357 82.5497 53.3802 82.668 53.6161C82.7795 53.8512 82.9147 54.075 83.0715 54.2845C83.2308 54.4904 83.4199 54.6732 83.6328 54.8272C83.8532 54.976 84.0978 55.0882 84.3564 55.1591C84.0814 55.1321 83.8165 55.0447 83.5818 54.9035C83.3485 54.7575 83.1442 54.5721 82.9788 54.3562C82.6515 53.9243 82.4468 53.4171 82.385 52.885H82.3711Z" fill="white"/>
<path d="M81.9912 53.5667C82.0446 53.7199 82.1082 53.8698 82.1814 54.0152C82.2488 54.1547 82.3312 54.287 82.4272 54.4099C82.52 54.534 82.6309 54.6443 82.7566 54.7374C82.8881 54.8301 83.0336 54.9027 83.188 54.9527C83.0239 54.9436 82.8647 54.8959 82.7241 54.8136C82.578 54.7274 82.4504 54.6147 82.3484 54.4817C82.2468 54.3445 82.167 54.1933 82.1118 54.0331C82.0467 53.8847 82.006 53.7273 81.9912 53.5667Z" fill="white"/>
<path d="M83.6084 60.7113C83.7227 60.7521 83.8438 60.7718 83.9656 60.7696C84.0758 60.7626 84.1804 60.72 84.2624 60.6485C84.3468 60.5708 84.4146 60.4778 84.4619 60.3749C84.5162 60.2669 84.5642 60.1561 84.6057 60.043C84.6107 60.1664 84.5918 60.2896 84.55 60.4063C84.5143 60.5315 84.4437 60.6447 84.3459 60.7337C84.2931 60.7791 84.2317 60.8141 84.165 60.8369C84.0988 60.8556 84.0298 60.8632 83.9609 60.8593C83.8305 60.8461 83.7075 60.7944 83.6084 60.7113Z" fill="#003081"/>
<path d="M84.7539 59.7464L81.8315 58.7013L84.6333 52.8433L87.384 53.9153L84.7539 59.7464Z" fill="#A5D5F2"/>
<path d="M80.2402 43.1282L83.3481 43.1955L80.3098 43.5902L80.2402 43.1282Z" fill="white"/>
<path d="M79.9253 42.4953L81.9709 40.7505L79.5635 42.0961L79.9253 42.4953Z" fill="white"/>
<path d="M78.9744 41.6792L80.3845 39.7505L78.4038 41.5133L78.9744 41.6792Z" fill="white"/>
<path d="M75.1567 43.1821L72.0488 43.2449L75.0871 43.6441L75.1567 43.1821Z" fill="white"/>
<path d="M75.3562 42.6974L73.0322 41.3203L75.6391 42.2443L75.3562 42.6974Z" fill="white"/>
<path d="M76.2375 41.8004L74.6001 40.051L76.7849 41.5716L76.2375 41.8004Z" fill="white"/>
<path d="M77.3833 41.4822L77.7266 39.0376L78.0327 41.4822H77.3833Z" fill="white"/>
<path d="M80.8809 47.5237C80.6908 47.259 80.5609 47.2187 80.816 46.4786C81.2427 45.2361 79.9671 44.0071 79.9671 44.0071L75.2868 43.9712C75.2868 43.9712 74.0714 45.2361 74.5353 46.4786C74.7904 47.2187 74.6652 47.259 74.4704 47.5237C74.2755 47.7883 74.0714 48.8155 74.5167 48.5867C74.5167 48.5867 75.129 48.1382 75.0455 48.6316C74.9621 49.125 74.3219 49.9414 74.5353 50.1028H80.7928C81.0062 49.9414 80.3939 49.1205 80.3289 48.6316C80.264 48.1427 80.8577 48.5867 80.8577 48.5867C81.2799 48.8155 81.0711 47.7883 80.8809 47.5237Z" fill="#A5D5F2"/>
<path d="M80.8809 47.5237C80.6908 47.259 80.5609 47.2187 80.816 46.4786C81.2427 45.2361 79.9671 44.0071 79.9671 44.0071L75.2868 43.9712C75.2868 43.9712 74.0714 45.2361 74.5353 46.4786C74.7904 47.2187 74.6652 47.259 74.4704 47.5237C74.2755 47.7883 74.0714 48.8155 74.5167 48.5867C74.5167 48.5867 75.129 48.1382 75.0455 48.6316C74.9621 49.125 74.3219 49.9414 74.5353 50.1028H80.7928C81.0062 49.9414 80.3939 49.1205 80.3289 48.6316C80.264 48.1427 80.8577 48.5867 80.8577 48.5867C81.2799 48.8155 81.0711 47.7883 80.8809 47.5237Z" fill="black" fill-opacity="0.2"/>
<path d="M75.3425 44.0294C75.3425 44.0294 75.1616 42.4461 77.7314 42.4954C77.7314 42.4954 79.9533 42.2756 79.944 44.016L80.3801 43.702C80.3801 43.702 80.4172 41.4593 77.7964 41.4009C77.7964 41.4009 75.1802 41.1946 75.0132 43.7558L75.3425 44.0294Z" fill="#A5D5F2"/>
<path d="M75.3425 44.0294C75.3425 44.0294 75.1616 42.4461 77.7314 42.4954C77.7314 42.4954 79.9533 42.2756 79.944 44.016L80.3801 43.702C80.3801 43.702 80.4172 41.4593 77.7964 41.4009C77.7964 41.4009 75.1802 41.1946 75.0132 43.7558L75.3425 44.0294Z" fill="black" fill-opacity="0.08"/>
<path d="M77.7824 42.4644C76.0058 42.4644 75.3703 43.1596 75.4306 43.7158C75.4678 44.0253 75.4631 44.8955 75.5049 46.0931C75.5204 46.4922 75.6337 46.882 75.8353 47.2305C76.0368 47.579 76.321 47.8764 76.6645 48.0981L76.5114 49.6635H78.5803L78.4597 48.143C78.8084 47.939 79.0967 47.6513 79.2966 47.3079C79.4965 46.9645 79.6013 46.5769 79.6008 46.1828C79.6982 44.8775 79.8884 44.6264 79.9255 44.0612C79.944 43.3928 79.5451 42.4644 77.7824 42.4644Z" fill="#C0E2F6"/>
<path d="M75.398 49.1433C76.5649 49.3593 77.746 49.4957 78.9327 49.5515C79.5171 49.5515 80.5515 49.5829 81.2288 50.1929C82.0684 50.9509 82.6435 52.4356 82.6992 53.9427C82.8059 56.6744 82.9914 60.5678 83.8125 62.362C84.6335 64.1562 84.3413 68.839 84.3413 68.839L83.9563 69.2247C83.9563 69.2247 84.5361 75.8812 83.7151 79.012C83.7151 79.012 84.3923 81.4387 84.1001 82.7484C84.28 83.4192 84.7115 84.0012 85.3108 84.3811C85.3108 84.3811 80.8391 85.6147 78.7889 83.9326C78.1116 83.3719 75.8433 85.4756 72.8468 84.6817C72.8468 84.6817 73.0694 84.3004 73.0416 81.9904C73.0416 81.2234 72.4247 80.1334 72.9952 78.9313C72.5772 77.478 72.6785 75.9308 73.2828 74.54C73.2828 74.54 73.6678 66.5783 73.088 65.6453C73.088 65.6453 71.8819 62.5593 72.9952 60.7876C72.9952 60.7876 71.1073 60.1776 71.9283 58.0963C71.9283 58.0963 72.8978 56.2752 72.754 55.7145C72.6102 55.1538 71.5943 54.9654 72.1232 52.162C72.1232 52.162 70.6759 50.5742 71.2557 47.7752C71.2557 47.7752 72.8978 45.6715 73.909 45.981C74.6884 46.8877 75.2026 47.9796 75.398 49.1433Z" fill="#A5D5F2"/>
<path d="M73.9464 45.981C74.1829 46.268 73.7562 46.9723 73.0186 47.5554C72.2811 48.1385 71.4647 48.3852 71.2235 48.1071C71.0426 47.8963 71.4925 47.1696 72.2533 46.5865C73.014 46.0034 73.7098 45.6984 73.9464 45.981Z" fill="#546D7B"/>
<path d="M71.2649 38.4278L70.2026 38.4368L69.9707 34.5882L71.4597 34.5837L71.2649 38.4278Z" fill="#91BBD5"/>
<path d="M72.5683 41.7777C72.2854 40.5218 71.7937 38.2207 71.6406 37.817C71.6406 37.5883 71.6777 37.4178 71.6777 37.4178C71.9839 36.0722 71.3994 35.5833 71.3994 35.5833L71.2881 38.427H70.4253C70.5134 39.36 70.5413 40.6429 70.6943 41.6745C71.0515 44.0742 71.956 48.1112 71.956 48.1112C72.624 47.9587 73.6074 46.936 73.6074 46.936C73.6074 46.936 72.8606 43.0336 72.5683 41.7777Z" fill="#C0E2F6"/>
<path d="M70.8242 35.6469C70.8248 35.6661 70.8214 35.6853 70.8143 35.7033C70.8071 35.7213 70.7963 35.7376 70.7824 35.7515C70.7686 35.7653 70.752 35.7763 70.7337 35.7838C70.7153 35.7913 70.6957 35.7952 70.6758 35.7952H69.8965C69.8567 35.794 69.8189 35.7779 69.7912 35.7502C69.7635 35.7225 69.748 35.6854 69.748 35.6469C69.748 35.6083 69.7635 35.5712 69.7912 35.5435C69.8189 35.5158 69.8567 35.4997 69.8965 35.4985H70.685C70.7049 35.4985 70.7246 35.5024 70.7429 35.5099C70.7613 35.5174 70.7778 35.5284 70.7917 35.5422C70.8055 35.5561 70.8164 35.5725 70.8235 35.5904C70.8307 35.6084 70.8341 35.6276 70.8335 35.6469H70.8242Z" fill="#C0E2F6"/>
<path d="M70.9681 35.9602C70.9681 36.0028 70.9513 36.0438 70.9211 36.0748C70.8909 36.1057 70.8496 36.1243 70.8057 36.1266H69.9429C69.8995 36.1242 69.8586 36.1055 69.8292 36.0745C69.7997 36.0434 69.784 36.0024 69.7852 35.9602C69.784 35.9181 69.7997 35.8771 69.8292 35.846C69.8586 35.815 69.8995 35.7963 69.9429 35.7939H70.8243C70.8682 35.7962 70.9095 35.8148 70.9397 35.8457C70.9699 35.8767 70.9867 35.9177 70.9866 35.9602H70.9681Z" fill="#C0E2F6"/>
<path d="M70.9358 36.2927C70.9371 36.3336 70.9218 36.3735 70.8932 36.4037C70.8646 36.4339 70.825 36.4522 70.7827 36.4545H69.971C69.9503 36.4533 69.93 36.4482 69.9113 36.4395C69.8926 36.4307 69.8759 36.4185 69.8621 36.4034C69.8483 36.3884 69.8377 36.3709 69.8309 36.3519C69.8241 36.3329 69.8213 36.3127 69.8226 36.2927C69.8213 36.2726 69.8241 36.2525 69.8309 36.2335C69.8377 36.2145 69.8483 36.1969 69.8621 36.1819C69.8759 36.1669 69.8926 36.1546 69.9113 36.1459C69.93 36.1371 69.9503 36.132 69.971 36.1309H70.7827C70.825 36.1332 70.8646 36.1514 70.8932 36.1816C70.9218 36.2118 70.9371 36.2517 70.9358 36.2927Z" fill="#C0E2F6"/>
<path d="M70.8241 36.6115C70.8269 36.6463 70.8161 36.681 70.7937 36.7084C70.7714 36.7359 70.7392 36.7542 70.7035 36.7598H70.0356C70.0163 36.7592 69.9973 36.7549 69.9798 36.7471C69.9622 36.7392 69.9465 36.7281 69.9335 36.7142C69.9205 36.7004 69.9106 36.6842 69.9042 36.6665C69.8978 36.6488 69.8952 36.6301 69.8964 36.6115C69.8936 36.5766 69.9045 36.542 69.9268 36.5145C69.9492 36.487 69.9814 36.4687 70.017 36.4631H70.685C70.7206 36.4687 70.7528 36.487 70.7752 36.5145C70.7975 36.542 70.8084 36.5766 70.8056 36.6115H70.8241Z" fill="#C0E2F6"/>
<path d="M79.6372 43.0737L80.1753 42.7866L79.7207 43.1903L79.6372 43.0737Z" fill="white"/>
<path d="M79.8325 43.4059L80.3381 43.2939L79.8882 43.5358L79.8325 43.4059Z" fill="white"/>
<path d="M79.2944 42.774L79.8789 42.2761L79.4011 42.8682L79.2944 42.774Z" fill="white"/>
<path d="M78.8862 42.599L79.4058 41.8364L79.0115 42.6662L78.8862 42.599Z" fill="white"/>
<path d="M78.2744 42.4873L78.5991 41.5005L78.4136 42.5232L78.2744 42.4873Z" fill="white"/>
<path d="M75.6484 43.1013L75.3052 42.6707L75.7505 43.0026L75.6484 43.1013Z" fill="white"/>
<path d="M75.449 43.4151L75.1104 43.1821L75.5139 43.2896L75.449 43.4151Z" fill="white"/>
<path d="M76.0193 42.8141L75.6528 42.1682L76.1399 42.7379L76.0193 42.8141Z" fill="white"/>
<path d="M76.4045 42.6349L76.1865 41.7512L76.5437 42.59L76.4045 42.6349Z" fill="white"/>
<path d="M76.9939 42.4869L76.9336 41.4731L77.1377 42.4689L76.9939 42.4869Z" fill="white"/>
<path d="M77.6523 42.4373L77.7266 41.4236L77.8008 42.4373H77.6523Z" fill="white"/>
<path d="M71.1262 49.0892C71.1262 49.0892 73.631 48.6406 74.0207 46.2319C74.0207 46.2319 72.4064 48.7034 71.2004 48.0889C71.1629 48.2512 71.1396 48.4163 71.1308 48.5823C71.1215 48.7079 71.1262 49.0892 71.1262 49.0892Z" fill="black" fill-opacity="0.12"/>
<path d="M79.948 44.0615C79.9804 43.5906 79.8274 42.5096 77.8513 42.4154C77.8513 42.4154 75.1655 42.227 75.3418 44.1154C75.3418 44.1154 75.416 45.3623 75.4578 45.7167C75.7584 45.2316 75.9614 44.6959 76.0562 44.1378C76.7719 44.0089 77.4239 43.6558 77.9116 43.133C78.2576 43.6289 78.7042 44.0517 79.2243 44.3755C79.1696 44.9056 79.2967 45.4383 79.5861 45.8916C79.7198 45.5173 79.7949 45.1257 79.8088 44.7299C79.8506 44.5191 79.9387 44.2006 79.948 44.0615Z" fill="#A5D5F2"/>
<path d="M79.948 44.0615C79.9804 43.5906 79.8274 42.5096 77.8513 42.4154C77.8513 42.4154 75.1655 42.227 75.3418 44.1154C75.3418 44.1154 75.416 45.3623 75.4578 45.7167C75.7584 45.2316 75.9614 44.6959 76.0562 44.1378C76.7719 44.0089 77.4239 43.6558 77.9116 43.133C78.2576 43.6289 78.7042 44.0517 79.2243 44.3755C79.1696 44.9056 79.2967 45.4383 79.5861 45.8916C79.7198 45.5173 79.7949 45.1257 79.8088 44.7299C79.8506 44.5191 79.9387 44.2006 79.948 44.0615Z" fill="black" fill-opacity="0.2"/>
<path d="M85.2329 53.3693C85.0056 53.3021 84.769 53.2258 84.5649 53.1451H84.616C84.5325 53.3215 84.4443 53.4964 84.3516 53.6699C84.2588 53.8403 84.1614 54.0108 84.0547 54.1767C84.1243 53.9928 84.2031 53.8134 84.2866 53.6385C84.3701 53.4635 84.4582 53.2841 84.5464 53.1137V53.0823H84.5789C84.8108 53.1675 85.0242 53.2617 85.2329 53.3693Z" fill="white"/>
<path d="M83.6514 59.0388C83.874 59.1061 84.1152 59.1824 84.3147 59.2631H84.2683C84.3518 59.0882 84.4399 58.9132 84.5327 58.7428C84.6255 58.5723 84.7229 58.3974 84.8296 58.2314C84.76 58.4153 84.6811 58.5948 84.5976 58.7697C84.5142 58.9446 84.426 59.1241 84.3332 59.299V59.3259H84.3008C84.0596 59.2407 83.8601 59.1285 83.6514 59.0388Z" fill="white"/>
<path d="M82.8813 56.886C82.9416 56.72 83.0066 56.563 83.0762 56.4015C83.1457 56.2401 83.2153 56.0831 83.2849 55.9261C83.3545 55.7691 83.438 55.6121 83.5168 55.4775L83.6374 55.2488L83.7627 55.02L83.6746 55.2622L83.5725 55.5044C83.5076 55.6614 83.4333 55.8184 83.3591 55.953C83.2849 56.0876 83.2107 56.267 83.1318 56.4015C83.053 56.5361 82.9695 56.72 82.8813 56.886Z" fill="white"/>
<path d="M85.5723 56.4372C85.6326 56.2758 85.6975 56.1143 85.7671 55.9573C85.8367 55.8003 85.9062 55.6388 85.9758 55.4818C86.0454 55.3248 86.1289 55.1679 86.2078 55.0333L86.3284 54.8L86.4536 54.5713C86.4258 54.6565 86.3933 54.7373 86.3655 54.818L86.2634 55.0557C86.1985 55.2172 86.1243 55.3742 86.05 55.5312C85.9758 55.6882 85.9016 55.8452 85.8228 55.9797C85.7439 56.1143 85.6604 56.2937 85.5723 56.4372Z" fill="white"/>
<path d="M86.4709 57.5806C86.4832 57.5594 86.491 57.5361 86.4939 57.512C86.4968 57.4879 86.4948 57.4634 86.4879 57.4401C86.481 57.4167 86.4694 57.3949 86.4537 57.3759C86.4381 57.3569 86.4187 57.3411 86.3966 57.3294L85.4968 56.8809C85.4742 56.8702 85.4497 56.8639 85.4247 56.8624C85.3997 56.8609 85.3746 56.8642 85.3509 56.8721C85.3271 56.8801 85.3053 56.8924 85.2865 56.9086C85.2678 56.9247 85.2525 56.9443 85.2416 56.9661C85.2293 56.9873 85.2215 57.0106 85.2186 57.0347C85.2157 57.0589 85.2177 57.0833 85.2246 57.1067C85.2315 57.13 85.2431 57.1518 85.2588 57.1708C85.2744 57.1898 85.2938 57.2056 85.3159 57.2173L86.2157 57.6658C86.2383 57.6765 86.2628 57.6828 86.2878 57.6843C86.3128 57.6858 86.3379 57.6825 86.3617 57.6746C86.3854 57.6667 86.4072 57.6543 86.426 57.6381C86.4447 57.622 86.46 57.6025 86.4709 57.5806Z" fill="#C0E2F6"/>
<path d="M86.8091 57.3024C86.8362 57.2552 86.843 57.1998 86.8283 57.1478C86.8136 57.0958 86.7784 57.0515 86.7303 57.0243L85.7562 56.5309C85.7063 56.5077 85.649 56.5047 85.5969 56.5223C85.5447 56.54 85.5019 56.5769 85.4779 56.6251C85.464 56.6479 85.455 56.6732 85.4514 56.6995C85.4479 56.7258 85.4498 56.7525 85.4572 56.7781C85.4646 56.8036 85.4772 56.8274 85.4943 56.8482C85.5114 56.8689 85.5326 56.8861 85.5567 56.8987L86.5308 57.3921C86.5807 57.4152 86.6379 57.4183 86.6901 57.4006C86.7423 57.383 86.7851 57.346 86.8091 57.2979V57.3024Z" fill="#C0E2F6"/>
<path d="M86.9759 56.9206C87.0032 56.8759 87.0112 56.8226 86.9982 56.7722C86.9852 56.7219 86.9522 56.6785 86.9063 56.6515L85.9786 56.2029C85.9545 56.1925 85.9286 56.1868 85.9022 56.1861C85.8759 56.1854 85.8497 56.1898 85.8251 56.199C85.8005 56.2081 85.778 56.2219 85.759 56.2396C85.74 56.2572 85.7247 56.2783 85.7142 56.3016C85.7007 56.3234 85.6919 56.3475 85.6881 56.3726C85.6843 56.3977 85.6857 56.4233 85.6922 56.4479C85.6986 56.4725 85.7101 56.4956 85.7258 56.5159C85.7415 56.5362 85.7612 56.5533 85.7837 56.5663L86.7115 57.0148C86.7351 57.026 86.7609 57.0325 86.7872 57.0338C86.8135 57.0351 86.8398 57.0312 86.8645 57.0224C86.8892 57.0136 86.9118 57 86.931 56.9825C86.9501 56.965 86.9654 56.944 86.9759 56.9206Z" fill="#C0E2F6"/>
<path d="M87.0084 56.4907C87.0338 56.4529 87.0432 56.4071 87.0346 56.3628C87.0259 56.3185 86.9999 56.2791 86.962 56.2529L86.2291 55.8851C86.1854 55.8691 86.137 55.8705 86.0943 55.889C86.0517 55.9075 86.0184 55.9416 86.0018 55.9838C85.9775 56.0219 85.9688 56.0674 85.9773 56.1114C85.9859 56.1553 86.0112 56.1946 86.0482 56.2215L86.7811 56.5893C86.8248 56.6042 86.8728 56.6022 86.9151 56.5839C86.9574 56.5655 86.9908 56.5321 87.0084 56.4907Z" fill="#C0E2F6"/>
<path d="M72.3449 34.1348H68.9688L69.2275 35.0963H72.097L72.3449 34.1348Z" fill="#91BBD5"/>
<path d="M72.0664 51.6695C72.1256 51.6046 72.1799 51.5357 72.2288 51.4632C72.3255 51.3202 72.4108 51.1702 72.4839 51.0146C72.6308 50.7081 72.7548 50.3918 72.855 50.0682C72.958 49.7454 73.0431 49.4175 73.1101 49.0859C73.1426 48.9199 73.1704 48.754 73.1936 48.5835C73.1936 48.4983 73.1936 48.4176 73.1936 48.3323C73.1936 48.2471 73.1936 48.2471 73.1936 48.2023C73.1913 48.1814 73.1913 48.1603 73.1936 48.1395C73.1936 48.1395 73.1936 48.0946 73.1936 48.0767C73.1957 48.0975 73.1957 48.1186 73.1936 48.1395V48.1978C73.1936 48.2381 73.1704 48.2785 73.1565 48.3189L73.0823 48.5611L72.9338 49.041L72.7808 49.521C72.7297 49.678 72.6833 49.8394 72.6277 49.9964C72.5256 50.3149 72.4282 50.6334 72.3123 50.9474C72.2566 51.1044 72.1963 51.2569 72.1267 51.3959C72.0943 51.4728 72.0571 51.5477 72.0154 51.6202C71.9754 51.692 71.9237 51.7571 71.8623 51.8131C71.9396 51.7789 72.009 51.7301 72.0664 51.6695Z" fill="white"/>
<path d="M72.7949 52.114C72.5073 52.3786 72.2012 52.6253 71.895 52.881C72.2576 52.7053 72.601 52.4949 72.9202 52.253C73.0779 52.1304 73.2325 52.0003 73.384 51.8628C73.5286 51.7207 73.6649 51.571 73.7922 51.4142C73.9188 51.258 74.0335 51.0931 74.1355 50.9208C74.2358 50.7445 74.3197 50.5599 74.386 50.3691C74.4499 50.1802 74.4889 49.9843 74.5019 49.786C74.5199 49.5894 74.4978 49.3913 74.437 49.2029C74.4519 49.3939 74.4363 49.5861 74.3906 49.7725C74.3515 49.9574 74.2924 50.1378 74.2143 50.3108C74.059 50.6579 73.8545 50.9825 73.6067 51.2752C73.4891 51.433 73.3605 51.5829 73.2217 51.7237C73.0825 51.8493 72.9387 51.9659 72.7949 52.114Z" fill="white"/>
<path d="M73.5093 55.1066C73.2389 55.2851 72.9496 55.4355 72.6465 55.5551C72.9729 55.4755 73.2854 55.3501 73.5742 55.1829C73.8678 55.0366 74.1446 54.8607 74.3999 54.6581C74.6535 54.4405 74.8835 54.1986 75.0864 53.9359C75.2925 53.6755 75.4741 53.3978 75.6291 53.1061C75.7866 52.8178 75.92 52.5178 76.028 52.209C76.1383 51.892 76.2266 51.5684 76.2924 51.2401C76.4243 50.604 76.4803 49.9554 76.4594 49.3069C76.3872 49.945 76.2694 50.5774 76.1069 51.1998C76.0259 51.5035 75.9283 51.803 75.8147 52.0968C75.7036 52.3958 75.5703 52.6867 75.4157 52.967C75.2673 53.2484 75.0967 53.5183 74.9055 53.7744C74.7141 54.0313 74.5016 54.2728 74.27 54.4966C74.0349 54.7205 73.7804 54.9246 73.5093 55.1066Z" fill="white"/>
<path d="M79.3544 53.1574C79.0947 53.6822 78.821 54.2025 78.5287 54.7093C78.2365 55.2162 77.9211 55.7141 77.5778 56.194C77.2394 56.6645 76.8707 57.114 76.4738 57.5397C76.0792 57.99 75.6412 58.403 75.1657 58.7732C74.6881 59.1211 74.1637 59.4048 73.6072 59.6164C73.3305 59.7256 73.0429 59.8068 72.749 59.8587C72.5959 59.8877 72.4409 59.9072 72.2852 59.917C72.1309 59.9313 71.9756 59.9313 71.8213 59.917C72.1284 59.9661 72.4419 59.9661 72.749 59.917C73.0515 59.8779 73.3497 59.8118 73.6396 59.7196C74.2182 59.5207 74.7636 59.2412 75.2585 58.8898C76.2455 58.1808 77.0991 57.3129 77.7819 56.3241C78.1784 55.7626 78.5393 55.1785 78.8627 54.5748C78.7885 55.1713 78.705 55.7724 78.589 56.369C78.4684 57.0328 78.3246 57.6922 78.1576 58.3471C77.9907 59.0019 77.8098 59.6523 77.601 60.2937C77.3923 60.9352 77.1789 61.5766 76.9377 62.209C76.6965 62.8415 76.4414 63.465 76.1677 64.0885C75.894 64.7119 75.611 65.322 75.3142 65.932C75.0173 66.542 74.7019 67.1431 74.3864 67.7262C74.071 68.3093 73.6953 68.9148 73.3288 69.4934C74.1275 68.3839 74.8407 67.219 75.4626 66.0082C76.098 64.8005 76.6588 63.5573 77.1418 62.2853C77.383 61.6439 77.6057 61.0024 77.8005 60.3521C77.9953 59.7017 78.1762 59.0468 78.3246 58.3829C78.6146 57.1199 78.7945 55.8355 78.8627 54.5434C79.0947 54.0948 79.3266 53.6732 79.5121 53.2291C79.9981 52.1551 80.4087 51.0507 80.7414 49.9233C80.528 50.4706 80.31 51.0178 80.0734 51.5561C79.8368 52.0943 79.6374 52.6281 79.3544 53.1574Z" fill="white"/>
<path d="M73.2734 74.5404C74.2475 74.2399 75.217 73.9438 76.1772 73.6209C76.4138 73.5446 76.6411 73.4594 76.8916 73.3742C77.142 73.289 77.3554 73.2082 77.6059 73.1185C78.0698 72.9391 78.5336 72.7597 78.9975 72.5489C79.4614 72.338 79.9252 72.1003 80.3613 71.885C80.7973 71.6697 81.2472 71.4096 81.6786 71.1449C82.1087 70.8833 82.5222 70.5973 82.9171 70.2882C83.1141 70.1329 83.3015 69.9667 83.4784 69.7903C83.5682 69.7034 83.6534 69.6121 83.7335 69.5167C83.8167 69.4234 83.8883 69.321 83.9469 69.2117C83.8948 69.3247 83.8295 69.4316 83.7521 69.5301C83.6784 69.6326 83.5995 69.7314 83.5155 69.8262C83.3439 70.0101 83.163 70.185 82.9728 70.3555C82.5904 70.6853 82.1877 70.9924 81.7668 71.275C80.9162 71.8296 80.0282 72.3285 79.1088 72.7686C78.645 72.9884 78.1811 73.2172 77.7172 73.3966C77.476 73.4908 77.2534 73.585 76.9983 73.6657C76.7431 73.7465 76.5112 73.8272 76.2653 73.9035C76.0195 73.9797 75.7783 74.047 75.5278 74.1098C75.2773 74.1726 75.0315 74.2354 74.781 74.2892C74.2841 74.4018 73.7807 74.4856 73.2734 74.5404Z" fill="white"/>
<path d="M73.292 74.3426C73.5007 74.1767 73.6956 73.9973 73.8904 73.8089C74.0852 73.6205 74.2707 73.4366 74.4516 73.2437C74.8181 72.858 75.1614 72.4543 75.4861 72.0371C76.1367 71.203 76.7243 70.3246 77.2441 69.4086C78.2787 67.5684 79.0689 65.6092 79.5959 63.5775C80.125 61.5506 80.4359 59.4763 80.5236 57.3876C80.6186 55.292 80.5457 53.1926 80.3056 51.1079H80.3844C80.7183 53.1847 80.8565 55.2866 80.7973 57.3876C80.7413 59.4979 80.4394 61.5954 79.8974 63.6403C79.3572 65.6821 78.5333 67.6436 77.4482 69.4714C76.9034 70.3857 76.2829 71.2557 75.5927 72.073C75.2449 72.4812 74.883 72.8759 74.5027 73.2482C74.1276 73.6414 73.7229 74.0072 73.292 74.3426Z" fill="white"/>
<path d="M83.9559 73.1272C83.8724 73.2393 83.789 73.3425 83.7008 73.4457C83.5292 73.6475 83.3436 73.8494 83.1535 74.0378C82.9633 74.2261 82.7638 74.4145 82.5597 74.594L81.9567 75.0874C81.5299 75.4193 81.0985 75.7422 80.644 76.0428C80.1894 76.3433 79.7162 76.6393 79.2524 76.9085C78.7781 77.1729 78.2869 77.4081 77.7819 77.6127C77.2837 77.8301 76.7725 78.0188 76.2512 78.1779C75.7302 78.3397 75.2007 78.4745 74.6648 78.5815C74.1252 78.693 73.5779 78.7665 73.0273 78.8013C73.4916 78.8248 73.957 78.8113 74.4189 78.761L74.5766 83.6546L74.7344 78.7206C75.2759 78.6501 75.812 78.5452 76.3393 78.4066C76.6084 78.3393 76.8728 78.2586 77.1325 78.1689L77.2856 83.6501L77.448 78.0612C77.6057 78.0029 77.7634 77.9446 77.9118 77.8773C78.4298 77.6715 78.9334 77.4332 79.4194 77.1641L79.8461 76.9085L79.9992 83.5649L80.1615 76.7156C80.3796 76.5765 80.5929 76.433 80.8063 76.267C81.2576 75.9517 81.6912 75.6133 82.1051 75.2533C82.2582 75.1188 82.4113 74.9842 82.569 74.8451L82.7267 83.5559L82.8844 74.5715C83.0282 74.4235 83.1674 74.271 83.3065 74.123C83.4457 73.975 83.6498 73.7013 83.8075 73.4771C83.9661 73.2576 84.1013 73.0232 84.2111 72.7773C84.1341 72.8993 84.0489 73.0162 83.9559 73.1272Z" fill="white"/>
<path d="M85.0558 86.1301H72.1743V88.8618H85.0558V86.1301Z" fill="#A5D5F2"/>
<path d="M85.0558 86.1301H72.1743V88.8618H85.0558V86.1301Z" fill="black" fill-opacity="0.08"/>
<path d="M85.0553 94.0508V88.8611H72.1738V94.0508H71.2832V96.7779H85.9459V94.0508H85.0553Z" fill="#A5D5F2"/>
<path d="M85.0553 94.0508V88.8611H72.1738V94.0508H71.2832V96.7779H85.9459V94.0508H85.0553Z" fill="black" fill-opacity="0.08"/>
<path d="M85.7835 82.8386H71.4409V84.9244H85.7835V82.8386Z" fill="#A5D5F2"/>
<path d="M85.7835 82.8386H71.4409V84.9244H85.7835V82.8386Z" fill="black" fill-opacity="0.08"/>
<path d="M85.7835 84.9238H71.4409V86.1304H85.7835V84.9238Z" fill="#C0E2F6"/>
<path d="M85.7835 88.2561H71.4409V89.4627H85.7835V88.2561Z" fill="#C0E2F6"/>
<path d="M74.8135 90.0688H73.9136V93.4733H74.8135V90.0688Z" fill="#C0E2F6"/>
<path d="M77.5967 90.0688H76.6968V93.4733H77.5967V90.0688Z" fill="#C0E2F6"/>
<path d="M80.3845 90.0688H79.48V93.4733H80.3845V90.0688Z" fill="#C0E2F6"/>
<path d="M83.1628 90.0688H82.2583V93.4733H83.1628V90.0688Z" fill="#C0E2F6"/>
<path d="M79.9533 88.3461V87.6598L78.6128 86.377L77.2769 87.6598V88.3461H79.9533Z" fill="#C0E2F6"/>
<path d="M79.4524 88.1136V87.683L78.6128 86.8801L77.7778 87.683V88.1136H79.4524Z" fill="white"/>
<path d="M80.6394 96.7787V95.7426L78.6123 93.7959L76.5898 95.7426V96.7787H80.6394Z" fill="#C0E2F6"/>
<path d="M79.8835 96.3977V95.7473L78.6125 94.5317L77.3462 95.7473V96.3977H79.8835Z" fill="white"/>
<path d="M87.0643 96.5283H70.1611V98.0848H87.0643V96.5283Z" fill="#C0E2F6"/>
<path d="M88.2608 97.9631H68.9688V99.5196H88.2608V97.9631Z" fill="#A5D5F2"/>
<path d="M88.2608 97.9631H68.9688V99.5196H88.2608V97.9631Z" fill="black" fill-opacity="0.08"/>
<path d="M102.248 52.4805C102.248 51.3759 103.143 50.4805 104.248 50.4805H125.398V99.5189H102.248V52.4805Z" fill="#DFE8EF"/>
<path d="M152.889 54.8835C152.889 53.779 151.994 52.8835 150.889 52.8835H142.832C141.727 52.8835 140.832 53.779 140.832 54.8835V99.5181H152.889V54.8835Z" fill="#DFE8EF"/>
<path d="M151.925 52.4805C151.925 51.3759 151.029 50.4805 149.925 50.4805H143.796C142.692 50.4805 141.796 51.3759 141.796 52.4805V52.8843H151.925V52.4805Z" fill="#C5D7E4"/>
<path d="M148.549 42.7878H145.173L146.861 32.6917L148.549 42.7878Z" fill="#DFE8EF"/>
<path d="M150.478 44.7881C150.478 43.6835 149.583 42.7881 148.478 42.7881H145.244C144.139 42.7881 143.244 43.6835 143.244 44.7881V50.4804H150.478V44.7881Z" fill="#DFE8EF"/>
<rect x="104.659" y="54.3262" width="3.85841" height="3.84615" fill="white"/>
<rect x="104.659" y="61.0576" width="3.85841" height="3.84615" fill="white"/>
<rect x="104.659" y="67.7881" width="3.85841" height="3.84615" fill="white"/>
<rect x="104.659" y="74.5188" width="3.85841" height="3.84615" fill="white"/>
<rect x="104.659" y="81.2493" width="3.85841" height="3.84615" fill="white"/>
<rect x="104.659" y="87.98" width="3.85841" height="3.84615" fill="white"/>
<rect x="109.482" y="54.3262" width="3.85841" height="3.84615" fill="white"/>
<rect x="109.482" y="61.0576" width="3.85841" height="3.84615" fill="white"/>
<rect x="109.482" y="67.7881" width="3.85841" height="3.84615" fill="white"/>
<rect x="109.482" y="74.5188" width="3.85841" height="3.84615" fill="white"/>
<rect x="109.482" y="81.2493" width="3.85841" height="3.84615" fill="white"/>
<rect x="109.482" y="87.98" width="3.85841" height="3.84615" fill="white"/>
<rect x="114.306" y="54.3262" width="3.85841" height="3.84615" fill="white"/>
<rect x="114.306" y="61.0576" width="3.85841" height="3.84615" fill="white"/>
<rect x="114.306" y="67.7881" width="3.85841" height="3.84615" fill="white"/>
<rect x="114.306" y="74.5188" width="3.85841" height="3.84615" fill="white"/>
<rect x="114.306" y="81.2493" width="3.85841" height="3.84615" fill="white"/>
<rect x="114.306" y="87.98" width="3.85841" height="3.84615" fill="white"/>
<rect x="119.128" y="54.3262" width="3.85841" height="3.84615" fill="white"/>
<rect x="119.128" y="61.0576" width="3.85841" height="3.84615" fill="white"/>
<rect x="119.128" y="67.7881" width="3.85841" height="3.84615" fill="white"/>
<rect x="119.128" y="74.5188" width="3.85841" height="3.84615" fill="white"/>
<rect x="119.128" y="81.2493" width="3.85841" height="3.84615" fill="white"/>
<rect x="119.128" y="87.98" width="3.85841" height="3.84615" fill="white"/>
<path d="M125.398 41.8269L127.81 43.75V99.5192H125.398V41.8269Z" fill="#C0E2F6"/>
<path d="M140.832 41.8269L138.421 43.75V99.5192H140.832V41.8269Z" fill="#C0E2F6"/>
<path fill-rule="evenodd" clip-rule="evenodd" d="M132.15 22.1179C132.15 21.5852 132.582 21.1533 133.115 21.1533C133.648 21.1533 134.08 21.5852 134.08 22.1179V24.7771C134.656 25.1107 135.044 25.7341 135.044 26.4481V28.3651H134.714C135.494 28.8834 136.009 29.7704 136.009 30.7776V31.7299H134.981C136.169 32.3876 136.973 33.6538 136.973 35.108V36.538H136.756C137.184 36.9048 137.455 37.4493 137.455 38.057V40.5801C138.42 42.0517 138.42 43.7493 138.42 43.7493H127.81C127.81 43.7493 127.81 42.0523 128.774 40.5809V38.0571C128.774 37.4493 129.045 36.9048 129.473 36.538H129.256V35.108C129.256 33.6538 130.061 32.3876 131.249 31.7299H130.221V30.7776C130.221 29.7704 130.736 28.8834 131.516 28.3651H131.186V26.4481C131.186 25.734 131.574 25.1105 132.15 24.7769V22.1179ZM127.81 99.5189V43.7497H138.42V99.5189H127.81Z" fill="#A5D5F2"/>
<rect x="129.256" y="45.1924" width="1.9292" height="1.92308" fill="#C0E2F6"/>
<rect x="132.15" y="45.1924" width="1.9292" height="1.92308" fill="#C0E2F6"/>
<rect x="135.044" y="45.1924" width="1.9292" height="1.92308" fill="#C0E2F6"/>
<rect x="129.256" y="48.5574" width="1.9292" height="1.92308" fill="#C0E2F6"/>
<rect x="132.15" y="48.5574" width="1.9292" height="1.92308" fill="#C0E2F6"/>
<rect x="135.044" y="48.5574" width="1.9292" height="1.92308" fill="#C0E2F6"/>
<rect x="129.256" y="51.9231" width="1.9292" height="1.92308" fill="#C0E2F6"/>
<rect x="132.15" y="51.9233" width="1.9292" height="1.92308" fill="#C0E2F6"/>
<rect x="135.044" y="51.9233" width="1.9292" height="1.92308" fill="#C0E2F6"/>
<rect x="129.256" y="55.2883" width="1.9292" height="1.92308" fill="#C0E2F6"/>
<rect x="132.15" y="55.2883" width="1.9292" height="1.92308" fill="#C0E2F6"/>
<rect x="135.044" y="55.2883" width="1.9292" height="1.92308" fill="#C0E2F6"/>
<rect x="129.256" y="58.6538" width="1.9292" height="1.92308" fill="#C0E2F6"/>
<rect x="132.15" y="58.6541" width="1.9292" height="1.92308" fill="#C0E2F6"/>
<rect x="135.044" y="58.6541" width="1.9292" height="1.92308" fill="#C0E2F6"/>
<rect x="129.256" y="62.0188" width="1.9292" height="1.92308" fill="#C0E2F6"/>
<rect x="132.15" y="62.0186" width="1.9292" height="1.92308" fill="#C0E2F6"/>
<rect x="135.044" y="62.0186" width="1.9292" height="1.92308" fill="#C0E2F6"/>
<rect x="129.256" y="65.3843" width="1.9292" height="1.92308" fill="#C0E2F6"/>
<rect x="132.15" y="65.3843" width="1.9292" height="1.92308" fill="#C0E2F6"/>
<rect x="135.044" y="65.3843" width="1.9292" height="1.92308" fill="#C0E2F6"/>
<rect x="129.256" y="68.75" width="1.9292" height="1.92308" fill="#C0E2F6"/>
<rect x="132.15" y="68.75" width="1.9292" height="1.92308" fill="#C0E2F6"/>
<rect x="135.044" y="68.75" width="1.9292" height="1.92308" fill="#C0E2F6"/>
<rect x="129.256" y="72.1143" width="1.9292" height="1.92308" fill="#C0E2F6"/>
<rect x="132.15" y="72.1143" width="1.9292" height="1.92308" fill="#C0E2F6"/>
<rect x="135.044" y="72.1143" width="1.9292" height="1.92308" fill="#C0E2F6"/>
<rect x="129.256" y="75.48" width="1.9292" height="1.92308" fill="#C0E2F6"/>
<rect x="132.15" y="75.48" width="1.9292" height="1.92308" fill="#C0E2F6"/>
<rect x="135.044" y="75.48" width="1.9292" height="1.92308" fill="#C0E2F6"/>
<rect x="129.256" y="78.8457" width="1.9292" height="1.92308" fill="#C0E2F6"/>
<rect x="132.15" y="78.8457" width="1.9292" height="1.92308" fill="#C0E2F6"/>
<rect x="135.044" y="78.8457" width="1.9292" height="1.92308" fill="#C0E2F6"/>
<rect x="129.256" y="82.2119" width="1.9292" height="1.92308" fill="#C0E2F6"/>
<rect x="132.15" y="82.2119" width="1.9292" height="1.92308" fill="#C0E2F6"/>
<rect x="135.044" y="82.2119" width="1.9292" height="1.92308" fill="#C0E2F6"/>
<rect x="129.256" y="85.5767" width="1.9292" height="1.92308" fill="#C0E2F6"/>
<rect x="132.15" y="85.5767" width="1.9292" height="1.92308" fill="#C0E2F6"/>
<rect x="135.044" y="85.5767" width="1.9292" height="1.92308" fill="#C0E2F6"/>
<rect x="129.256" y="88.9421" width="1.9292" height="1.92308" fill="#C0E2F6"/>
<rect x="132.15" y="88.9421" width="1.9292" height="1.92308" fill="#C0E2F6"/>
<rect x="135.044" y="88.9421" width="1.9292" height="1.92308" fill="#C0E2F6"/>
<rect x="129.256" y="92.3076" width="1.9292" height="1.92308" fill="#C0E2F6"/>
<rect x="132.15" y="92.3079" width="1.9292" height="1.92308" fill="#C0E2F6"/>
<rect x="135.044" y="92.3079" width="1.9292" height="1.92308" fill="#C0E2F6"/>
<rect x="129.256" y="95.6726" width="1.9292" height="1.92308" fill="#C0E2F6"/>
<rect x="132.15" y="95.6726" width="1.9292" height="1.92308" fill="#C0E2F6"/>
<rect x="135.044" y="95.6726" width="1.9292" height="1.92308" fill="#C0E2F6"/>
<path d="M132.633 21.6342L133.115 13.9419L133.597 21.6342H132.633Z" fill="#A5D5F2"/>
<path d="M132.633 24.5188L133.115 22.115L133.597 24.5188H132.633Z" fill="#C0E2F6"/>
<path d="M132.633 27.4035L133.115 25.4805L133.597 27.4035H132.633Z" fill="#C0E2F6"/>
<path d="M131.668 27.8843V26.442L132.15 27.6439L131.668 27.8843Z" fill="#C0E2F6"/>
<path d="M134.562 27.8843L134.079 27.6439L134.803 26.442L134.562 27.8843Z" fill="#C0E2F6"/>
<path d="M132.633 30.2881L133.115 28.365L133.598 30.2881H132.633Z" fill="#C0E2F6"/>
<path d="M131.186 31.0092V28.8458L132.151 30.7688L131.186 31.0092Z" fill="#C0E2F6"/>
<path d="M135.044 31.0092L134.08 30.7688L135.286 28.8458L135.044 31.0092Z" fill="#C0E2F6"/>
<path d="M132.632 34.1347L133.115 30.7693L133.597 34.1347H132.632Z" fill="#C0E2F6"/>
<path d="M132.15 34.1347L131.185 34.8558L130.944 31.9712L132.15 34.1347Z" fill="#C0E2F6"/>
<path d="M135.044 34.8558L134.079 34.1347L135.767 31.9712L135.044 34.8558Z" fill="#C0E2F6"/>
<path d="M132.633 42.3065L133.115 38.9412L133.839 42.3065H132.633Z" fill="#C0E2F6"/>
<path d="M131.28 42.9466L130.279 39.875L132.309 42.4436L131.28 42.9466Z" fill="#C0E2F6"/>
<path d="M135.108 42.9466L136.11 39.875L134.08 42.4436L135.108 42.9466Z" fill="#C0E2F6"/>
<path d="M129.904 43.9042L128.577 41.6894L130.615 43.3305L129.904 43.9042Z" fill="#C0E2F6"/>
<path d="M136.238 43.9042L137.565 41.6894L135.527 43.3305L136.238 43.9042Z" fill="#C0E2F6"/>
<path d="M132.712 37.8185L133.106 35.0701L133.697 37.8185H132.712Z" fill="#C0E2F6"/>
<path d="M131.608 38.341L130.791 35.8325L132.448 37.9303L131.608 38.341Z" fill="#C0E2F6"/>
<path d="M134.735 38.341L135.553 35.8325L133.895 37.9303L134.735 38.341Z" fill="#C0E2F6"/>
<path d="M130.484 39.123L129.4 37.3143L131.065 38.6545L130.484 39.123Z" fill="#C0E2F6"/>
<path d="M135.657 39.123L136.741 37.3143L135.076 38.6545L135.657 39.123Z" fill="#C0E2F6"/>
<rect x="142.761" y="54.8074" width="2.08997" height="3.84615" fill="white"/>
<rect x="142.761" y="60.5762" width="2.08997" height="3.84615" fill="white"/>
<rect x="142.761" y="66.3455" width="2.08997" height="3.84615" fill="white"/>
<rect x="142.761" y="72.1147" width="2.08997" height="3.84615" fill="white"/>
<rect x="142.761" y="77.8835" width="2.08997" height="3.84615" fill="white"/>
<rect x="142.761" y="83.6538" width="2.08997" height="3.84615" fill="white"/>
<rect x="142.761" y="89.4229" width="2.08997" height="3.84615" fill="white"/>
<rect x="145.815" y="54.8074" width="2.08997" height="3.84615" fill="white"/>
<rect x="145.815" y="60.5762" width="2.08997" height="3.84615" fill="white"/>
<rect x="145.815" y="66.3455" width="2.08997" height="3.84615" fill="white"/>
<rect x="145.815" y="72.1147" width="2.08997" height="3.84615" fill="white"/>
<rect x="145.815" y="77.8835" width="2.08997" height="3.84615" fill="white"/>
<rect x="145.815" y="83.6538" width="2.08997" height="3.84615" fill="white"/>
<rect x="145.815" y="89.4229" width="2.08997" height="3.84615" fill="white"/>
<rect x="148.87" y="54.8074" width="2.08997" height="3.84615" fill="white"/>
<rect x="148.87" y="60.5762" width="2.08997" height="3.84615" fill="white"/>
<rect x="148.87" y="66.3455" width="2.08997" height="3.84615" fill="white"/>
<rect x="148.87" y="72.1147" width="2.08997" height="3.84615" fill="white"/>
<rect x="148.87" y="77.8835" width="2.08997" height="3.84615" fill="white"/>
<rect x="148.87" y="83.6538" width="2.08997" height="3.84615" fill="white"/>
<rect x="148.87" y="89.4229" width="2.08997" height="3.84615" fill="white"/>
<path d="M144.69 46.6404C144.69 45.5749 145.554 44.7112 146.619 44.7112V49.0381H144.69V46.6404Z" fill="white"/>
<path d="M149.031 46.6404C149.031 45.5749 148.167 44.7112 147.102 44.7112V49.0381H149.031V46.6404Z" fill="white"/>
<rect x="45.3364" y="92.7886" width="80.062" height="2.88461" fill="#A5D5F2"/>
<rect x="47.7476" y="61.5386" width="2.4115" height="37.9807" fill="#A5D5F2"/>
<rect x="50.1592" y="65.385" width="1.9292" height="1.92308" fill="#A5D5F2"/>
<rect x="50.1592" y="71.635" width="1.9292" height="1.92308" fill="#A5D5F2"/>
<rect x="52.0884" y="61.5386" width="2.4115" height="37.9807" fill="#A5D5F2"/>
<rect x="56.4287" y="69.231" width="0.482301" height="23.5577" fill="#A5D5F2"/>
<rect x="60.77" y="73.0769" width="0.482301" height="19.7115" fill="#A5D5F2"/>
<rect x="64.6284" y="76.4426" width="0.482301" height="16.3461" fill="#A5D5F2"/>
<rect x="68.4868" y="79.3274" width="0.482301" height="13.4615" fill="#A5D5F2"/>
<rect x="72.3452" y="81.7307" width="0.482301" height="11.0577" fill="#A5D5F2"/>
<rect x="76.2036" y="84.135" width="0.482301" height="8.65384" fill="#A5D5F2"/>
<rect x="80.0615" y="85.5776" width="0.482301" height="7.21153" fill="#A5D5F2"/>
<rect x="83.9204" y="87.0198" width="0.482301" height="5.76923" fill="#A5D5F2"/>
<rect x="87.7788" y="88.4622" width="0.482301" height="4.32692" fill="#A5D5F2"/>
<rect x="91.6372" y="88.9429" width="0.482301" height="3.84615" fill="#A5D5F2"/>
<rect x="95.4956" y="89.4231" width="0.482301" height="3.36538" fill="#A5D5F2"/>
<rect x="99.354" y="89.4231" width="0.482301" height="3.36538" fill="#A5D5F2"/>
<rect x="103.212" y="88.9429" width="0.482301" height="3.84615" fill="#A5D5F2"/>
<rect x="107.071" y="88.4622" width="0.482301" height="4.32692" fill="#A5D5F2"/>
<rect x="110.929" y="87.5007" width="0.482301" height="5.28846" fill="#A5D5F2"/>
<rect x="114.788" y="86.0576" width="0.482301" height="6.73077" fill="#A5D5F2"/>
<rect x="119.128" y="84.135" width="0.482301" height="8.65384" fill="#A5D5F2"/>
<rect x="123.469" y="82.2119" width="0.482301" height="10.5769" fill="#A5D5F2"/>
<path d="M54.2588 66.8276C78.2735 91.0782 99.5951 95.6738 125.639 81.0103" stroke="#A5D5F2"/>
<path d="M49.1949 67.3081C76.2764 92.3304 99.8365 97.3562 125.64 83.1735M48.2303 76.6831C46.5676 86.494 44.6547 91.4598 39.79 99.5196" stroke="#A5D5F2"/>
<path d="M52.3299 76.6831C50.6879 86.0542 45.8188 99.5196 45.8188 99.5196" stroke="#A5D5F2"/>
<path fill-rule="evenodd" clip-rule="evenodd" d="M117.681 76.4421H118.646V99.519H117.681V82.6923H107.553L105.383 80.5289L107.553 78.3654H117.681V76.4421ZM127.81 85.8174L126.193 84.1347H118.646V87.5001H126.193L127.81 85.8174Z" fill="#A5D5F2"/>
<path fill-rule="evenodd" clip-rule="evenodd" d="M25.8029 10.5774C25.6697 10.5774 25.5617 10.6854 25.5617 10.8185V17.8125C25.0114 17.9243 24.5972 18.4108 24.5972 18.9941V23.0767H21.7739C20.6694 23.0767 19.7739 23.9721 19.7739 25.0766V31.2504H16.9512C15.8466 31.2504 14.9512 32.1459 14.9512 33.2504V43.2694H13.5752C12.4706 43.2694 11.5752 44.1649 11.5752 45.2694V84.6151H8.26953C7.16496 84.6151 6.26953 85.5105 6.26953 86.6151V99.5189H45.3359V86.6151C45.3359 85.5105 44.4405 84.6151 43.3359 84.6151H40.0309V45.2694C40.0309 44.1649 39.1355 43.2694 38.0309 43.2694H36.6547V33.2504C36.6547 32.1459 35.7593 31.2504 34.6547 31.2504H31.8314V25.0767C31.8314 23.9721 30.936 23.0767 29.8314 23.0767H27.0087V18.9941C27.0087 18.4107 26.5944 17.9241 26.044 17.8124V10.8185C26.044 10.6854 25.936 10.5774 25.8029 10.5774Z" fill="#A5D5F2"/>
<path d="M11.5752 45.2695C11.5752 44.165 12.4706 43.2695 13.5752 43.2695H22.1858V84.6157H11.5752V45.2695Z" fill="white" fill-opacity="0.3"/>
<path d="M40.0308 45.2695C40.0308 44.165 39.1353 43.2695 38.0308 43.2695H29.4201V84.6157H40.0308V45.2695Z" fill="white" fill-opacity="0.3"/>
<rect x="8.68115" y="87.5002" width="0.964602" height="9.13461" fill="white" fill-opacity="0.48"/>
<rect x="30.3848" y="87.5002" width="0.964602" height="9.13461" fill="white" fill-opacity="0.48"/>
<rect x="10.6104" y="87.5002" width="0.964602" height="9.13461" fill="white" fill-opacity="0.48"/>
<rect x="32.314" y="87.5002" width="0.964602" height="9.13461" fill="white" fill-opacity="0.48"/>
<rect x="12.5396" y="87.5002" width="0.964602" height="9.13461" fill="white" fill-opacity="0.48"/>
<rect x="34.2432" y="87.5002" width="0.964602" height="9.13461" fill="white" fill-opacity="0.48"/>
<rect x="14.4688" y="87.5002" width="0.964602" height="9.13461" fill="white" fill-opacity="0.48"/>
<rect x="36.1724" y="87.5002" width="0.964602" height="9.13461" fill="white" fill-opacity="0.48"/>
<rect x="16.3979" y="87.5002" width="0.964602" height="9.13461" fill="white" fill-opacity="0.48"/>
<rect x="38.1016" y="87.5002" width="0.964602" height="9.13461" fill="white" fill-opacity="0.48"/>
<rect x="18.3271" y="87.5002" width="0.964602" height="9.13461" fill="white" fill-opacity="0.48"/>
<rect x="40.0308" y="87.5002" width="0.964602" height="9.13461" fill="white" fill-opacity="0.48"/>
<rect x="20.2563" y="87.5002" width="0.964602" height="9.13461" fill="white" fill-opacity="0.48"/>
<path opacity="0.48" d="M23.6323 93.9975C23.6323 92.7988 24.604 91.8271 25.8027 91.8271C27.0013 91.8271 27.973 92.7988 27.973 93.9975V99.5195H23.6323V93.9975Z" fill="white"/>
<rect x="41.96" y="87.5002" width="0.964602" height="9.13461" fill="white" fill-opacity="0.48"/>
<rect x="20.7388" y="24.5188" width="0.482301" height="5.28846" fill="white" fill-opacity="0.48"/>
<rect x="21.7036" y="24.5188" width="0.482301" height="5.28846" fill="white" fill-opacity="0.48"/>
<rect x="22.668" y="24.5188" width="0.482301" height="5.28846" fill="white" fill-opacity="0.48"/>
<rect x="23.6323" y="24.5188" width="0.482301" height="5.28846" fill="white" fill-opacity="0.48"/>
<rect x="24.5972" y="24.5188" width="0.482301" height="5.28846" fill="white" fill-opacity="0.48"/>
<rect x="25.5615" y="24.5188" width="0.482301" height="5.28846" fill="white" fill-opacity="0.48"/>
<rect x="26.5264" y="24.5188" width="0.482301" height="5.28846" fill="white" fill-opacity="0.48"/>
<rect x="27.4912" y="24.5188" width="0.482301" height="5.28846" fill="white" fill-opacity="0.48"/>
<rect x="28.4556" y="24.5188" width="0.482301" height="5.28846" fill="white" fill-opacity="0.48"/>
<rect x="29.4204" y="24.5188" width="0.482301" height="5.28846" fill="white" fill-opacity="0.48"/>
<rect x="30.3848" y="24.5188" width="0.482301" height="5.28846" fill="white" fill-opacity="0.48"/>
<rect x="16.8804" y="33.6541" width="2.17035" height="7.21153" fill="white" fill-opacity="0.48"/>
<rect x="20.0151" y="33.6541" width="2.17035" height="7.21153" fill="white" fill-opacity="0.48"/>
<rect x="23.1504" y="33.6541" width="2.17035" height="7.21153" fill="white" fill-opacity="0.48"/>
<rect x="26.2852" y="33.6541" width="2.17035" height="7.21153" fill="white" fill-opacity="0.48"/>
<rect x="29.4204" y="33.6541" width="2.17035" height="7.21153" fill="white" fill-opacity="0.48"/>
<rect x="32.5552" y="33.6541" width="2.17035" height="7.21153" fill="white" fill-opacity="0.48"/>
<rect x="13.5039" y="47.1155" width="1.60767" height="33.6538" fill="white" fill-opacity="0.48"/>
<rect x="31.3491" y="47.1155" width="1.60767" height="33.6538" fill="white" fill-opacity="0.48"/>
<rect x="16.0762" y="47.1155" width="1.60767" height="33.6538" fill="white" fill-opacity="0.48"/>
<rect x="33.9214" y="47.1155" width="1.60767" height="33.6538" fill="white" fill-opacity="0.48"/>
<rect x="18.6489" y="47.1155" width="1.60767" height="33.6538" fill="white" fill-opacity="0.48"/>
<rect x="36.4941" y="47.1155" width="1.60767" height="33.6538" fill="white" fill-opacity="0.48"/>
<rect x="23.9941" y="47.115" width="0.723451" height="41.8269" fill="white" fill-opacity="0.48"/>
<rect x="25.4414" y="47.115" width="0.723451" height="41.8269" fill="white" fill-opacity="0.48"/>
<rect x="26.8882" y="47.115" width="0.723451" height="41.8269" fill="white" fill-opacity="0.48"/>
<rect x="152.889" y="84.1348" width="20.2566" height="15.3846" fill="#C0E2F6"/>
<rect x="173.146" y="63.9424" width="17.8451" height="35.5769" fill="#A5D5F2"/>
<rect x="173.146" y="63.9424" width="17.8451" height="35.5769" fill="white" fill-opacity="0.2"/>
<path d="M173.146 63.9427C173.146 62.3496 174.437 61.0581 176.031 61.0581H188.107C189.7 61.0581 190.991 62.3496 190.991 63.9427H173.146Z" fill="#A5D5F2"/>
<rect x="155.301" y="86.0581" width="3.08673" height="5.76923" fill="white"/>
<rect x="158.388" y="86.0581" width="3.08673" height="5.76923" fill="#A5D5F2"/>
<rect x="161.475" y="86.0581" width="3.08673" height="5.76923" fill="white"/>
<rect x="164.561" y="86.0581" width="3.08673" height="5.76923" fill="#A5D5F2"/>
<rect x="167.647" y="86.0581" width="3.08673" height="5.76923" fill="white"/>
<rect x="155.301" y="91.8274" width="3.08673" height="1.44231" fill="#A5D5F2"/>
<rect x="158.388" y="93.2693" width="9.26018" height="6.25" fill="white"/>
<rect x="158.388" y="91.8274" width="3.08673" height="1.44231" fill="white"/>
<rect x="161.475" y="91.8274" width="3.08673" height="1.44231" fill="#A5D5F2"/>
<rect x="164.561" y="91.8274" width="3.08673" height="1.44231" fill="white"/>
<rect x="167.647" y="91.8274" width="3.08673" height="1.44231" fill="#A5D5F2"/>
<rect x="157.23" y="93.2693" width="1.15752" height="6.25" fill="#A5D5F2"/>
<rect x="167.647" y="93.2693" width="1.15752" height="6.25" fill="#A5D5F2"/>
<path d="M156.265 82.2117H169.287C169.287 83.2738 168.426 84.1347 167.364 84.1347H158.188C157.126 84.1347 156.265 83.2738 156.265 82.2117Z" fill="#A5D5F2"/>
<path d="M154.818 81.2504C154.818 80.7193 155.249 80.2888 155.78 80.2888H169.773C170.304 80.2888 170.734 80.7193 170.734 81.2504C170.734 81.7814 170.304 82.2119 169.773 82.2119H155.78C155.249 82.2119 154.818 81.7814 154.818 81.2504Z" fill="white"/>
<path d="M169.287 80.2888H156.265C156.265 80.2888 156.506 75.9619 162.776 75.9619C169.046 75.9619 169.287 80.2888 169.287 80.2888Z" fill="#C0E2F6"/>
<path d="M161.812 80.2888H158.677C158.677 80.2888 158.918 81.4907 160.365 81.2504C161.812 81.01 161.812 80.2888 161.812 80.2888Z" fill="#A5D5F2"/>
<path d="M164.464 80.2888H167.599C167.599 80.2888 167.358 81.4907 165.911 81.2504C164.464 81.01 164.464 80.2888 164.464 80.2888Z" fill="#A5D5F2"/>
<rect x="156.748" y="77.4038" width="0.964602" height="0.961538" rx="0.480769" fill="white"/>
<rect x="159.159" y="78.3655" width="0.964602" height="0.961538" rx="0.480769" fill="white"/>
<rect x="161.088" y="76.9229" width="0.964602" height="0.961538" rx="0.480769" fill="white"/>
<rect x="162.535" y="75.4812" width="0.964602" height="0.961538" rx="0.480769" fill="white"/>
<rect x="163.018" y="78.8469" width="0.964602" height="0.961538" rx="0.480769" fill="white"/>
<rect x="165.429" y="77.8848" width="0.964602" height="0.961538" rx="0.480769" fill="white"/>
<rect x="165.911" y="75.9619" width="0.964602" height="0.961538" rx="0.480769" fill="white"/>
<rect x="168.323" y="78.3655" width="0.964602" height="0.961538" rx="0.480769" fill="white"/>
<rect x="176.04" y="66.8274" width="4.34071" height="3.84615" fill="white" fill-opacity="0.76"/>
<rect x="179.898" y="87.5005" width="4.34071" height="3.84615" fill="white" fill-opacity="0.76"/>
<rect x="183.756" y="66.8274" width="4.34071" height="3.84615" fill="white" fill-opacity="0.76"/>
<rect x="174.593" y="70.6738" width="1.9292" height="2.88461" fill="#D9F1FF"/>
<rect x="176.522" y="91.3462" width="1.9292" height="2.88461" fill="#D9F1FF"/>
<rect x="182.31" y="70.6738" width="1.9292" height="2.88461" fill="#D9F1FF"/>
<rect x="177.004" y="70.6738" width="2.4115" height="2.88461" fill="#D9F1FF"/>
<rect x="179.416" y="91.3462" width="2.4115" height="2.88461" fill="#D9F1FF"/>
<rect x="184.721" y="70.6738" width="2.4115" height="2.88461" fill="#D9F1FF"/>
<rect x="179.898" y="70.6738" width="1.9292" height="2.88461" fill="#D9F1FF"/>
<rect x="182.792" y="91.3462" width="1.9292" height="2.88461" fill="#D9F1FF"/>
<rect x="185.686" y="91.3462" width="1.9292" height="2.88461" fill="#D9F1FF"/>
<rect x="187.615" y="70.6738" width="1.9292" height="2.88461" fill="#D9F1FF"/>
<rect x="176.694" y="78.3655" width="3.41056" height="3.02198" fill="white" fill-opacity="0.76"/>
<rect x="175.557" y="81.3877" width="1.5158" height="2.26648" fill="#D9F1FF"/>
<rect x="177.452" y="81.3877" width="1.89475" height="2.26648" fill="#D9F1FF"/>
<rect x="179.726" y="81.3877" width="1.5158" height="2.26648" fill="#D9F1FF"/>
<rect x="182.964" y="78.3655" width="3.41056" height="3.02198" fill="white" fill-opacity="0.76"/>
<rect x="181.827" y="81.3877" width="1.5158" height="2.26648" fill="#D9F1FF"/>
<rect x="183.722" y="81.3877" width="1.89475" height="2.26648" fill="#D9F1FF"/>
<rect x="185.996" y="81.3877" width="1.5158" height="2.26648" fill="#D9F1FF"/>
<path d="M196.296 20.2695C196.296 19.165 197.192 18.2695 198.296 18.2695H203.46C204.565 18.2695 205.46 19.165 205.46 20.2695V21.6349H196.296V20.2695Z" fill="#A5D5F2"/>
<path d="M188.338 73.0771L176.281 82.9329L187.133 92.5483" stroke="#D9F1FF"/>
<rect x="190.991" y="95.1931" width="19.7743" height="4.32692" fill="#A5D5F2"/>
<path d="M192.92 23.1543C192.92 22.0497 193.816 21.1543 194.92 21.1543H206.354C207.459 21.1543 208.354 22.0497 208.354 23.1543V95.1927H192.92V23.1543Z" fill="#C0E2F6"/>
<rect x="200.637" y="2.4043" width="0.482301" height="15.8654" fill="#A5D5F2"/>
<rect x="193.885" y="22.5962" width="13.5044" height="0.961538" fill="#A5D5F2"/>
<rect x="193.885" y="22.5962" width="13.5044" height="0.961538" fill="white" fill-opacity="0.04"/>
<rect x="193.885" y="24.519" width="13.5044" height="0.961538" fill="#A5D5F2"/>
<rect x="193.885" y="24.519" width="13.5044" height="0.961538" fill="white" fill-opacity="0.04"/>
<rect x="193.885" y="26.4429" width="13.5044" height="0.961538" fill="#A5D5F2"/>
<rect x="193.885" y="26.4429" width="13.5044" height="0.961538" fill="white" fill-opacity="0.04"/>
<rect x="193.885" y="28.3655" width="13.5044" height="0.961538" fill="#A5D5F2"/>
<rect x="193.885" y="28.3655" width="13.5044" height="0.961538" fill="white" fill-opacity="0.04"/>
<rect x="193.885" y="30.2886" width="13.5044" height="0.961538" fill="#A5D5F2"/>
<rect x="193.885" y="30.2886" width="13.5044" height="0.961538" fill="white" fill-opacity="0.04"/>
<rect x="193.885" y="32.2117" width="13.5044" height="0.961538" fill="#A5D5F2"/>
<rect x="193.885" y="32.2117" width="13.5044" height="0.961538" fill="white" fill-opacity="0.04"/>
<rect x="193.885" y="34.1348" width="13.5044" height="0.961538" fill="#A5D5F2"/>
<rect x="193.885" y="34.1348" width="13.5044" height="0.961538" fill="white" fill-opacity="0.04"/>
<rect x="193.885" y="36.0579" width="13.5044" height="0.961538" fill="#A5D5F2"/>
<rect x="193.885" y="36.0579" width="13.5044" height="0.961538" fill="white" fill-opacity="0.04"/>
<rect x="193.885" y="37.981" width="13.5044" height="0.961538" fill="#A5D5F2"/>
<rect x="193.885" y="37.981" width="13.5044" height="0.961538" fill="white" fill-opacity="0.04"/>
<rect x="193.885" y="39.9033" width="13.5044" height="0.961538" fill="#A5D5F2"/>
<rect x="193.885" y="39.9033" width="13.5044" height="0.961538" fill="white" fill-opacity="0.04"/>
<rect x="193.885" y="41.8274" width="13.5044" height="0.961538" fill="#A5D5F2"/>
<rect x="193.885" y="41.8274" width="13.5044" height="0.961538" fill="white" fill-opacity="0.04"/>
<rect x="193.885" y="43.7507" width="13.5044" height="0.961538" fill="#A5D5F2"/>
<rect x="193.885" y="43.7507" width="13.5044" height="0.961538" fill="white" fill-opacity="0.04"/>
<rect x="193.885" y="45.6738" width="13.5044" height="0.961538" fill="#A5D5F2"/>
<rect x="193.885" y="45.6738" width="13.5044" height="0.961538" fill="white" fill-opacity="0.04"/>
<rect x="193.885" y="47.5962" width="13.5044" height="0.961538" fill="#A5D5F2"/>
<rect x="193.885" y="47.5962" width="13.5044" height="0.961538" fill="white" fill-opacity="0.04"/>
<rect x="193.885" y="49.5193" width="13.5044" height="0.961538" fill="#A5D5F2"/>
<rect x="193.885" y="49.5193" width="13.5044" height="0.961538" fill="white" fill-opacity="0.04"/>
<rect x="193.885" y="51.4429" width="13.5044" height="0.961538" fill="#A5D5F2"/>
<rect x="193.885" y="51.4429" width="13.5044" height="0.961538" fill="white" fill-opacity="0.04"/>
<rect x="193.885" y="53.3657" width="13.5044" height="0.961538" fill="#A5D5F2"/>
<rect x="193.885" y="53.3657" width="13.5044" height="0.961538" fill="white" fill-opacity="0.04"/>
<rect x="193.885" y="55.2888" width="13.5044" height="0.961538" fill="#A5D5F2"/>
<rect x="193.885" y="55.2888" width="13.5044" height="0.961538" fill="white" fill-opacity="0.04"/>
<rect x="193.885" y="57.2117" width="13.5044" height="0.961538" fill="#A5D5F2"/>
<rect x="193.885" y="57.2117" width="13.5044" height="0.961538" fill="white" fill-opacity="0.04"/>
<rect x="193.885" y="59.135" width="13.5044" height="0.961538" fill="#A5D5F2"/>
<rect x="193.885" y="59.135" width="13.5044" height="0.961538" fill="white" fill-opacity="0.04"/>
<rect x="193.885" y="61.0581" width="13.5044" height="0.961538" fill="#A5D5F2"/>
<rect x="193.885" y="61.0581" width="13.5044" height="0.961538" fill="white" fill-opacity="0.04"/>
<rect x="193.885" y="62.9814" width="13.5044" height="0.961538" fill="#A5D5F2"/>
<rect x="193.885" y="62.9814" width="13.5044" height="0.961538" fill="white" fill-opacity="0.04"/>
<rect x="193.885" y="64.9036" width="13.5044" height="0.961538" fill="#A5D5F2"/>
<rect x="193.885" y="64.9036" width="13.5044" height="0.961538" fill="white" fill-opacity="0.04"/>
<rect x="193.885" y="66.8274" width="13.5044" height="0.961538" fill="#A5D5F2"/>
<rect x="193.885" y="66.8274" width="13.5044" height="0.961538" fill="white" fill-opacity="0.04"/>
<rect x="193.885" y="68.7505" width="13.5044" height="0.961538" fill="#A5D5F2"/>
<rect x="193.885" y="68.7505" width="13.5044" height="0.961538" fill="white" fill-opacity="0.04"/>
<rect x="193.885" y="70.6738" width="13.5044" height="0.961538" fill="#A5D5F2"/>
<rect x="193.885" y="70.6738" width="13.5044" height="0.961538" fill="white" fill-opacity="0.04"/>
<rect x="193.885" y="72.5962" width="13.5044" height="0.961538" fill="#A5D5F2"/>
<rect x="193.885" y="72.5962" width="13.5044" height="0.961538" fill="white" fill-opacity="0.04"/>
<rect x="193.885" y="74.52" width="13.5044" height="0.961538" fill="#A5D5F2"/>
<rect x="193.885" y="74.52" width="13.5044" height="0.961538" fill="white" fill-opacity="0.04"/>
<rect x="193.885" y="76.4429" width="13.5044" height="0.961538" fill="#A5D5F2"/>
<rect x="193.885" y="76.4429" width="13.5044" height="0.961538" fill="white" fill-opacity="0.04"/>
<rect x="193.885" y="78.3655" width="13.5044" height="0.961538" fill="#A5D5F2"/>
<rect x="193.885" y="78.3655" width="13.5044" height="0.961538" fill="white" fill-opacity="0.04"/>
<rect x="193.885" y="80.2888" width="13.5044" height="0.961538" fill="#A5D5F2"/>
<rect x="193.885" y="80.2888" width="13.5044" height="0.961538" fill="white" fill-opacity="0.04"/>
<rect x="193.885" y="82.2117" width="13.5044" height="0.961538" fill="#A5D5F2"/>
<rect x="193.885" y="82.2117" width="13.5044" height="0.961538" fill="white" fill-opacity="0.04"/>
<rect x="193.885" y="84.1348" width="13.5044" height="0.961538" fill="#A5D5F2"/>
<rect x="193.885" y="84.1348" width="13.5044" height="0.961538" fill="white" fill-opacity="0.04"/>
<rect x="193.885" y="86.0581" width="13.5044" height="0.961538" fill="#D9F1FF"/>
<rect x="193.885" y="87.9814" width="13.5044" height="0.961538" fill="#D9F1FF"/>
<path d="M208.595 95.1924H192.92L200.878 21.6348L208.595 95.1924Z" fill="#B7DDF5"/>
<path d="M208.595 95.1924H192.92L200.878 21.6348L208.595 95.1924Z" fill="white" fill-opacity="0.6"/>
</svg>
