<svg width="18" height="18" viewBox="0 0 18 18" fill="none" xmlns="http://www.w3.org/2000/svg">
<path d="M3.55234 2.6942C5.06447 1.38391 6.99899 0.663904 8.99984 0.666695C13.6023 0.666695 17.3332 4.39753 17.3332 9.00003C17.3332 10.78 16.7748 12.43 15.8248 13.7834L13.1665 9.00003H15.6665C15.6666 7.69305 15.2825 6.41487 14.5621 5.32441C13.8416 4.23395 12.8164 3.37933 11.6142 2.8668C10.4119 2.35427 9.08543 2.20645 7.7998 2.44171C6.51417 2.67697 5.32605 3.28494 4.38317 4.19003L3.55234 2.6942ZM14.4473 15.3059C12.9352 16.6161 11.0007 17.3362 8.99984 17.3334C4.39734 17.3334 0.666504 13.6025 0.666504 9.00003C0.666504 7.22003 1.22484 5.57003 2.17484 4.2167L4.83317 9.00003H2.33317C2.33306 10.307 2.71713 11.5852 3.43762 12.6756C4.1581 13.7661 5.18323 14.6207 6.38552 15.1333C7.58782 15.6458 8.91424 15.7936 10.1999 15.5583C11.4855 15.3231 12.6736 14.7151 13.6165 13.81L14.4473 15.3059Z" fill="#CED6E0"/>
</svg>
