<svg width="28" height="28" viewBox="0 0 28 28" fill="none" xmlns="http://www.w3.org/2000/svg">
<rect width="28" height="28" rx="14" fill="#009CDC"/>
<path fill-rule="evenodd" clip-rule="evenodd" d="M13.3927 7.02587C13.0146 7.06203 12.9244 7.16065 12.8808 7.58612C12.8461 7.92533 12.7792 8.12383 12.6176 8.36674C12.3313 8.79735 11.8976 9.02864 11.382 9.02558C10.9488 9.02301 10.6209 8.9021 10.2933 8.6242C10.0525 8.41996 9.90191 8.3721 9.75147 8.45199C9.5984 8.53327 9.23552 8.86006 8.8571 9.25739C8.37562 9.76291 8.34993 9.90118 8.67275 10.2499C8.94427 10.5433 9.0763 10.8858 9.0763 11.2969C9.0763 12.1341 8.49569 12.7292 7.58149 12.8289C7.25745 12.8643 7.15091 12.9137 7.09142 13.0561C6.96596 13.3563 6.97096 14.7252 7.09823 14.9194C7.16333 15.0188 7.3912 15.1202 7.55007 15.1205C7.96101 15.1213 8.40699 15.3392 8.68834 15.6766C8.94714 15.9869 9.0652 16.3463 9.04036 16.748C9.01585 17.1444 8.91038 17.3927 8.6222 17.7323C8.35724 18.0446 8.36183 18.1621 8.6524 18.5086C8.86585 18.7631 9.30686 19.2052 9.52762 19.3859C9.7856 19.5971 9.95669 19.5905 10.2119 19.3595C10.4993 19.0992 10.8366 18.9543 11.2098 18.9307C11.6642 18.902 12.0368 19.0374 12.359 19.3485C12.6601 19.6391 12.8063 19.9695 12.8402 20.4355C12.8611 20.7234 12.8956 20.8091 13.0218 20.8871C13.2543 21.0308 14.6682 21.04 14.909 20.8993C15.0424 20.8214 15.0875 20.7169 15.1186 20.4128C15.1534 20.0736 15.2203 19.8751 15.3818 19.6322C15.6681 19.2016 16.1019 18.9703 16.6175 18.9733C17.0506 18.9759 17.3785 19.0968 17.7062 19.3747C17.947 19.579 18.0976 19.6268 18.248 19.5469C18.477 19.4253 19.3862 18.5354 19.4915 18.3298C19.5877 18.142 19.5423 17.9819 19.3267 17.749C19.0514 17.4515 18.9232 17.1136 18.9232 16.6854C18.9232 16.2479 19.0786 15.8921 19.4019 15.5897C19.6948 15.3158 19.9954 15.1907 20.4366 15.1592C20.8498 15.1297 20.9273 15.0494 20.973 14.6035C21.0298 14.0509 20.9923 13.2185 20.9047 13.0848C20.8317 12.9734 20.6814 12.904 20.4573 12.8783C19.955 12.8206 19.7151 12.7141 19.4124 12.4143C19.0721 12.0773 18.9305 11.714 18.9591 11.2509C18.9833 10.8595 19.0926 10.6021 19.3773 10.2666C19.6422 9.95435 19.6376 9.83683 19.3471 9.49032C19.1336 9.23578 18.6926 8.79371 18.4718 8.61299C18.218 8.40517 18.0356 8.40929 17.8016 8.62809C17.6364 8.78261 17.401 8.92261 17.176 9.00017C16.9333 9.08383 16.4429 9.08936 16.2168 9.01097C15.7439 8.84699 15.3657 8.44783 15.2208 7.95995C15.197 7.87976 15.1693 7.70131 15.1593 7.56339C15.1382 7.27385 15.104 7.18986 14.9743 7.10972C14.8156 7.01165 13.9961 6.96819 13.3927 7.02587ZM14.5605 10.0096C16.0969 10.206 17.4328 11.3598 17.8704 12.8684C18.0479 13.4803 18.0773 14.1887 17.9509 14.8118C17.8731 15.1959 17.664 15.7503 17.5061 15.9912C17.4647 16.0544 17.4572 16.0477 16.5828 15.1737L15.7012 14.2926L15.7525 14.1433C16.0499 13.2791 15.8494 12.3241 15.2327 11.668C14.62 11.0161 13.8201 10.7524 12.9467 10.9142C12.6558 10.9681 12.5774 11.0344 12.5774 11.2267C12.5774 11.3238 12.6104 11.3624 13.2065 11.962C13.9251 12.6848 13.8679 12.5754 13.7951 13.0876C13.7413 13.4663 13.7016 13.6121 13.648 13.6285C13.551 13.6582 13.1133 13.7256 12.9054 13.743L12.686 13.7613L12.0642 13.1436C11.7221 12.8039 11.4078 12.513 11.3658 12.4971C11.2049 12.4365 11.0537 12.5625 11.007 12.7961C10.8334 13.665 11.0898 14.5135 11.7066 15.1108C12.1461 15.5363 12.6672 15.7639 13.2749 15.7957C13.6162 15.8135 13.8701 15.7817 14.1838 15.6818L14.3963 15.6141L15.2785 16.4955C15.7637 16.9802 16.1566 17.389 16.1517 17.4038C16.1355 17.4522 15.5516 17.7332 15.2853 17.8208C13.7186 18.3359 12.0223 17.8728 10.9552 16.6388C9.49712 14.9525 9.6783 12.4092 11.3601 10.9553C12.2533 10.1832 13.3601 9.85614 14.5605 10.0096Z" fill="white"/>
</svg>
