<svg width="1440" height="128" viewBox="0 0 1440 128" fill="none" xmlns="http://www.w3.org/2000/svg">
<path d="M88 69.4125C88.0006 68.6969 87.8285 67.991 87.4975 67.3514C87.1665 66.7118 86.6858 66.1561 86.0938 65.7288C85.5017 65.3015 84.8148 65.0145 84.0879 64.8906C83.361 64.7667 82.6143 64.8094 81.9074 65.0153C81.9798 64.5489 82.0161 64.0779 82.016 63.6063C82.0154 62.1788 81.6905 60.769 81.0644 59.4771C80.4383 58.1853 79.5263 57.043 78.3934 56.1315C77.2604 55.22 75.9343 54.5618 74.5092 54.2036C73.0842 53.8453 71.5952 53.7959 70.1483 54.0588C69.1567 52.4905 67.6673 51.2763 65.9036 50.5984C64.1399 49.9205 62.197 49.8155 60.3666 50.2991C58.5361 50.7828 56.9168 51.8289 55.7516 53.2807C54.5864 54.7324 53.9382 56.5114 53.9042 58.3507H53.7581C51.6728 58.4304 49.7004 59.2896 48.2541 60.7483C46.8078 62.207 46 64.1519 46 66.1753C46 68.1988 46.8078 70.1437 48.2541 71.6024C49.7004 73.0611 51.6728 73.9203 53.7581 74H83.4066C84.6377 73.9662 85.8066 73.4679 86.6645 72.6111C87.5224 71.7543 88.0016 70.6067 88 69.4125Z" fill="#F6F8FA"/>
<path d="M1375 96.4125C1375 95.6969 1375.17 94.991 1375.5 94.3514C1375.83 93.7118 1376.31 93.1561 1376.91 92.7288C1377.5 92.3015 1378.19 92.0145 1378.91 91.8906C1379.64 91.7667 1380.39 91.8094 1381.09 92.0153C1381.02 91.5489 1380.98 91.0779 1380.98 90.6063C1380.98 89.1788 1381.31 87.769 1381.94 86.4771C1382.56 85.1853 1383.47 84.043 1384.61 83.1315C1385.74 82.22 1387.07 81.5618 1388.49 81.2036C1389.92 80.8453 1391.4 80.7959 1392.85 81.0588C1393.84 79.4905 1395.33 78.2763 1397.1 77.5984C1398.86 76.9205 1400.8 76.8155 1402.63 77.2991C1404.46 77.7828 1406.08 78.8289 1407.25 80.2807C1408.41 81.7324 1409.06 83.5114 1409.1 85.3507H1409.24C1411.33 85.4304 1413.3 86.2896 1414.75 87.7483C1416.19 89.207 1417 91.1519 1417 93.1753C1417 95.1988 1416.19 97.1437 1414.75 98.6024C1413.3 100.061 1411.33 100.92 1409.24 101H1379.59C1378.36 100.966 1377.19 100.468 1376.34 99.6111C1375.48 98.7543 1375 97.6067 1375 96.4125Z" fill="#F6F8FA"/>
<path d="M273 46.0161C273.001 44.6147 272.665 43.2325 272.019 41.9799C271.373 40.7273 270.434 39.6391 269.278 38.8023C268.122 37.9655 266.781 37.4034 265.362 37.1607C263.943 36.9181 262.485 37.0017 261.105 37.405C261.246 36.4916 261.317 35.5692 261.317 34.6456C261.316 31.8502 260.682 29.0894 259.459 26.5594C258.237 24.0295 256.456 21.7925 254.244 20.0075C252.032 18.2226 249.443 16.9335 246.661 16.232C243.879 15.5304 240.972 15.4336 238.147 15.9484C236.211 12.8771 233.303 10.4993 229.859 9.17182C226.416 7.8443 222.623 7.63867 219.049 8.58578C215.475 9.5329 212.314 11.5817 210.039 14.4247C207.764 17.2677 206.498 20.7515 206.432 24.3534H206.147C202.076 24.5095 198.225 26.1921 195.401 29.0487C192.577 31.9053 191 35.7141 191 39.6767C191 43.6393 192.577 47.4481 195.401 50.3047C198.225 53.1613 202.076 54.844 206.147 55H264.032C266.435 54.9339 268.718 53.958 270.393 52.2801C272.068 50.6022 273.003 48.3548 273 46.0161Z" fill="#F6F8FA"/>
<path d="M1257 51.0302C1257 50.255 1257.18 49.4903 1257.53 48.7974C1257.87 48.1045 1258.38 47.5025 1259 47.0396C1259.62 46.5767 1260.34 46.2657 1261.1 46.1315C1261.86 45.9972 1262.64 46.0435 1263.38 46.2666C1263.31 45.7613 1263.27 45.2511 1263.27 44.7401C1263.27 43.1937 1263.61 41.6665 1264.27 40.2669C1264.92 38.8674 1265.88 37.6299 1267.06 36.6425C1268.25 35.6551 1269.64 34.9419 1271.13 34.5538C1272.63 34.1658 1274.19 34.1122 1275.7 34.397C1276.74 32.698 1278.3 31.3826 1280.15 30.6482C1282 29.9139 1284.03 29.8001 1285.95 30.3241C1287.87 30.848 1289.56 31.9814 1290.78 33.5541C1292 35.1268 1292.68 37.054 1292.72 39.0466H1292.87C1295.06 39.1329 1297.12 40.0637 1298.64 41.644C1300.15 43.2242 1301 45.3312 1301 47.5233C1301 49.7154 1300.15 51.8223 1298.64 53.4026C1297.12 54.9828 1295.06 55.9137 1292.87 56H1261.81C1260.52 55.9634 1259.3 55.4236 1258.4 54.4954C1257.5 53.5672 1257 52.3239 1257 51.0302Z" fill="#F6F8FA"/>
<path d="M384 102.751C384 102.244 383.882 101.744 383.653 101.291C383.425 100.838 383.093 100.444 382.684 100.141C382.275 99.8386 381.801 99.6353 381.299 99.5475C380.797 99.4597 380.281 99.49 379.793 99.6358C379.843 99.3055 379.868 98.9719 379.868 98.6378C379.868 97.6267 379.643 96.6281 379.211 95.713C378.779 94.7979 378.149 93.9888 377.367 93.3432C376.585 92.6975 375.669 92.2313 374.685 91.9775C373.701 91.7238 372.673 91.6887 371.674 91.875C370.989 90.7641 369.961 89.904 368.743 89.4238C367.525 88.9437 366.184 88.8693 364.92 89.2119C363.656 89.5545 362.538 90.2955 361.733 91.3238C360.929 92.3521 360.481 93.6122 360.458 94.9151H360.357C358.917 94.9715 357.555 95.5801 356.556 96.6134C355.558 97.6466 355 99.0243 355 100.458C355 101.891 355.558 103.268 356.556 104.302C357.555 105.335 358.917 105.944 360.357 106H380.828C381.678 105.976 382.486 105.623 383.078 105.016C383.67 104.409 384.001 103.596 384 102.751Z" fill="#F6F8FA"/>
<path d="M1014 26.7505C1014 26.2436 1014.12 25.7437 1014.35 25.2906C1014.58 24.8375 1014.91 24.4439 1015.32 24.1413C1015.73 23.8386 1016.2 23.6353 1016.7 23.5475C1017.2 23.4597 1017.72 23.49 1018.21 23.6358C1018.16 23.3055 1018.13 22.9719 1018.13 22.6378C1018.13 21.6267 1018.36 20.6281 1018.79 19.713C1019.22 18.7979 1019.85 17.9888 1020.63 17.3432C1021.42 16.6975 1022.33 16.2313 1023.32 15.9775C1024.3 15.7238 1025.33 15.6887 1026.33 15.875C1027.01 14.7641 1028.04 13.904 1029.26 13.4238C1030.47 12.9437 1031.82 12.8693 1033.08 13.2119C1034.34 13.5545 1035.46 14.2955 1036.27 15.3238C1037.07 16.3521 1037.52 17.6122 1037.54 18.9151H1037.64C1039.08 18.9715 1040.44 19.5801 1041.44 20.6134C1042.44 21.6466 1043 23.0243 1043 24.4575C1043 25.8908 1042.44 27.2685 1041.44 28.3017C1040.44 29.3349 1039.08 29.9436 1037.64 30H1017.17C1016.32 29.9761 1015.51 29.6231 1014.92 29.0162C1014.33 28.4093 1014 27.5964 1014 26.7505Z" fill="#F6F8FA"/>
</svg>
