<svg width="16" height="16" viewBox="0 0 16 16" fill="none" xmlns="http://www.w3.org/2000/svg">
<g clip-path="url(#clip0_4199_43710)">
<path d="M13.3346 14.666H2.66797V13.3327C2.66797 12.4486 3.01916 11.6008 3.64428 10.9757C4.2694 10.3505 5.11725 9.99935 6.0013 9.99935H10.0013C10.8854 9.99935 11.7332 10.3505 12.3583 10.9757C12.9834 11.6008 13.3346 12.4486 13.3346 13.3327V14.666ZM8.0013 8.66602C7.47601 8.66602 6.95587 8.56255 6.47057 8.36153C5.98527 8.16051 5.54431 7.86588 5.17287 7.49444C4.80144 7.12301 4.5068 6.68205 4.30578 6.19675C4.10477 5.71145 4.0013 5.1913 4.0013 4.66602C4.0013 4.14073 4.10477 3.62058 4.30578 3.13528C4.5068 2.64998 4.80144 2.20902 5.17287 1.83759C5.54431 1.46615 5.98527 1.17152 6.47057 0.970497C6.95587 0.769479 7.47601 0.666016 8.0013 0.666016C9.06217 0.666016 10.0796 1.08744 10.8297 1.83759C11.5799 2.58773 12.0013 3.60515 12.0013 4.66602C12.0013 5.72688 11.5799 6.7443 10.8297 7.49444C10.0796 8.24459 9.06217 8.66602 8.0013 8.66602Z" fill="#4A5566"/>
</g>
<defs>
<clipPath id="clip0_4199_43710">
<rect width="16" height="16" fill="white"/>
</clipPath>
</defs>
</svg>
