<svg width="149" height="71" viewBox="0 0 149 71" fill="none" xmlns="http://www.w3.org/2000/svg">
<g clip-path="url(#clip0_218_6)">
<path d="M0 42.6H4.45693V64.5469H0V42.6Z" fill="white"/>
<path d="M7.05549 57.0367C7.04418 55.4596 7.50498 53.9153 8.3784 52.6031C9.02191 51.6138 9.8789 50.7818 10.8862 50.1685C11.8934 49.5553 13.0252 49.1764 14.1982 49.0598C15.3711 48.9432 16.5552 49.0918 17.6631 49.4948C18.771 49.8978 19.7745 50.5449 20.5995 51.3882C21.7176 52.4941 22.4753 53.9133 22.7729 55.4589C23.1103 57.136 22.8999 58.8774 22.1728 60.4254C21.4458 61.9735 20.2407 63.2459 18.7358 64.0546C17.2309 64.8633 15.5061 65.1652 13.8167 64.9158C12.1272 64.6663 10.5628 63.8786 9.35483 62.6693C8.61063 61.9346 8.02617 61.0537 7.6382 60.0818C7.24113 59.1165 7.04292 58.0807 7.05549 57.0367ZM18.4419 57.0367C18.4217 56.3547 18.204 55.6933 17.8154 55.133C17.4267 54.5728 16.8838 54.1378 16.2528 53.8811C15.6198 53.6405 14.9314 53.5858 14.2685 53.7233C13.6288 53.8885 13.0496 54.2334 12.5991 54.7173C12.1235 55.2005 11.8051 55.8165 11.6857 56.4844C11.556 57.1528 11.6273 57.8447 11.8904 58.4725C12.1532 59.1116 12.5966 59.6599 13.1661 60.0502C13.7297 60.4293 14.3928 60.6324 15.0717 60.634C15.5351 60.6374 15.9949 60.5517 16.4261 60.3816C16.8567 60.2028 17.2475 59.94 17.5757 59.6084C17.8955 59.2709 18.1469 58.8744 18.3159 58.4409C18.458 57.9873 18.501 57.5084 18.4419 57.0367Z" fill="white"/>
<path d="M40.9471 49.5264V63.7264C40.9471 68.7753 37.0099 70.9053 33.0727 70.9053C31.6694 71.0003 30.2664 70.717 29.0095 70.0849C27.7627 69.4323 26.7131 68.4571 25.9699 67.2607L29.8127 65.0518C30.1144 65.667 30.5984 66.174 31.1986 66.5033C31.7893 66.8457 32.4721 66.9946 33.1514 66.9293C33.5971 67.0319 34.0602 67.0319 34.5058 66.9293C34.9419 66.7975 35.341 66.5652 35.6712 66.2509C36.0082 65.9427 36.2673 65.5587 36.4272 65.1307C36.5859 64.7081 36.6452 64.2546 36.6004 63.8053V62.4169C36.0777 63.065 35.4082 63.5788 34.6476 63.9158C33.8899 64.2498 33.0646 64.4011 32.238 64.3575C30.2784 64.2682 28.4286 63.4255 27.0734 62.0047C25.7182 60.5838 24.9619 58.6942 24.9619 56.729C24.9619 54.7638 25.7182 52.8742 27.0734 51.4533C28.4286 50.0325 30.2784 49.1897 32.238 49.1004C33.0652 49.0703 33.8887 49.2266 34.6476 49.558C35.4055 49.8995 36.074 50.4126 36.6004 51.0569V49.5738L40.9471 49.5264ZM36.4744 56.8C36.503 56.0732 36.3168 55.3542 35.939 54.7331C35.5646 54.1189 35.0164 53.6302 34.3641 53.3289C33.6994 53.0439 32.9684 52.951 32.2537 53.0607C31.5421 53.1855 30.8839 53.5206 30.3639 54.0231C29.8436 54.5289 29.4823 55.176 29.3244 55.8849C29.2121 56.4147 29.219 56.9629 29.3447 57.4897C29.4704 58.0165 29.7118 58.5086 30.0512 58.9302C30.3905 59.3518 30.8195 59.6923 31.3067 59.927C31.794 60.1617 32.3273 60.2846 32.8679 60.2869C33.338 60.3193 33.8096 60.2548 34.2538 60.0975C34.6961 59.9286 35.1023 59.677 35.4507 59.356C35.7887 59.0242 36.0542 58.6256 36.2304 58.1857C36.4066 57.7457 36.4897 57.2738 36.4744 56.8Z" fill="white"/>
<path d="M43.4355 57.0367C43.3967 55.4459 43.839 53.8805 44.7044 52.5461C45.5697 51.2117 46.8177 50.1707 48.2843 49.5597C49.751 48.9488 51.3677 48.7965 52.9223 49.1228C54.477 49.4491 55.8967 50.2388 56.9952 51.3882C58.1042 52.5034 58.8602 53.9216 59.1683 55.4653C59.4765 57.0089 59.3232 58.6093 58.7276 60.066C58.1215 61.5168 57.1028 62.7568 55.7983 63.6318C54.4948 64.5094 52.9591 64.9764 51.3886 64.9729C50.3433 64.9831 49.3064 64.7847 48.3383 64.3892C47.3703 63.9937 46.4906 63.409 45.7505 62.6693C45.0354 61.9237 44.4735 61.0445 44.0969 60.0818C43.6805 59.1196 43.4558 58.0852 43.4355 57.0367ZM54.8376 57.0367C54.8209 56.3567 54.6015 55.6973 54.2077 55.1433C53.8177 54.5806 53.2695 54.1468 52.6328 53.8969C51.9944 53.6558 51.3009 53.6011 50.6327 53.7391C49.9712 53.8859 49.3682 54.2264 48.9003 54.7173C48.4198 55.199 48.0959 55.815 47.9711 56.4844C47.8464 57.1544 47.9232 57.8463 48.1916 58.4724C48.4533 59.1077 48.8903 59.655 49.4515 60.0502C50.02 60.4314 50.6888 60.6346 51.3729 60.634C51.8329 60.6398 52.2891 60.5484 52.7115 60.3658C53.1416 60.1946 53.5288 59.9307 53.8455 59.5927C54.1617 59.2584 54.4128 58.8677 54.5856 58.4409C54.739 58.0057 54.8085 57.5452 54.7904 57.084L54.8376 57.0367Z" fill="white"/>
<path d="M61.4205 45.5031C61.41 44.9766 61.5535 44.4585 61.8333 44.0127C62.1132 43.567 62.5171 43.213 62.9954 42.9944C63.4941 42.7905 64.0411 42.7357 64.5702 42.8367C65.0952 42.9412 65.5775 43.1993 65.9562 43.5782C66.3417 43.9544 66.6051 44.4382 66.7121 44.9667C66.8102 45.4969 66.7556 46.0442 66.5546 46.5444C66.3471 47.0411 65.9961 47.4642 65.5467 47.7593C65.105 48.0585 64.5837 48.2179 64.0505 48.2169C63.6956 48.2152 63.3446 48.1432 63.0176 48.0051C62.6905 47.867 62.394 47.6655 62.1449 47.4122C61.6659 46.8937 61.4063 46.2094 61.4205 45.5031ZM61.8772 49.5264H66.3499V64.5469H61.8457L61.8772 49.5264Z" fill="white"/>
<path d="M85.7683 57.0367C85.8173 58.0281 85.6728 59.0195 85.3431 59.9556C84.9986 60.902 84.4624 61.7669 83.7682 62.4958C83.1074 63.2352 82.306 63.8351 81.4109 64.2605C80.5158 64.6858 79.545 64.928 78.5553 64.9729C77.7197 65.0217 76.8842 64.8759 76.1143 64.5469C75.362 64.2168 74.6903 63.7269 74.1457 63.1111V70.5582H69.6887V49.5264H74.1457V50.9465C74.7111 50.33 75.4046 49.8453 76.1773 49.5264C76.9515 49.2122 77.7837 49.067 78.6183 49.1004C79.6068 49.1527 80.5754 49.3993 81.4689 49.8262C82.3623 50.251 83.1646 50.8458 83.8312 51.5776C85.1736 53.0681 85.8704 55.0317 85.7683 57.0367ZM81.3114 57.0367C81.285 56.3365 81.0611 55.6582 80.6657 55.0802C80.2656 54.5069 79.7054 54.0647 79.0553 53.8093C78.4053 53.5538 77.6944 53.4965 77.0119 53.6444C76.3308 53.7779 75.7053 54.1132 75.2166 54.6069C74.7184 55.1011 74.3784 55.7328 74.2401 56.4213C74.1009 57.1076 74.161 57.8194 74.4134 58.4725C74.6859 59.1058 75.1273 59.6516 75.689 60.0502C76.2661 60.444 76.944 60.6631 77.6419 60.6813C78.3757 60.7233 79.1038 60.5304 79.721 60.1305C80.3382 59.7306 80.8124 59.1444 81.0751 58.4567C81.2375 57.9963 81.3071 57.5083 81.2799 57.0209L81.3114 57.0367Z" fill="white"/>
<path d="M99.6588 60.0502C99.6588 63.5056 96.6823 64.9729 93.3593 64.9729C92.0518 65.0852 90.7407 64.8044 89.5933 64.1665C88.4459 63.5285 87.5145 62.5623 86.918 61.3913L90.8237 59.1824C90.9787 59.7235 91.3188 60.1926 91.7844 60.5078C92.2388 60.8408 92.7983 60.9977 93.3593 60.9496C94.4459 60.9496 94.9341 60.6024 94.9341 60.0187C94.9341 58.4409 87.5007 59.2456 87.5007 54.0547C87.5007 50.7729 90.2725 49.1162 93.4537 49.1162C94.6204 49.0834 95.7752 49.3575 96.8031 49.9112C97.8311 50.4648 98.6962 51.2788 99.3123 52.2718L95.3909 54.3387C95.2224 53.9463 94.9432 53.6118 94.5877 53.3762C94.2268 53.1408 93.8057 53.0148 93.375 53.0133C92.6033 53.0133 92.1308 53.2973 92.1308 53.8496C92.2726 55.6324 99.6588 54.4807 99.6588 60.0502Z" fill="white"/>
<path d="M116.069 49.5264V64.5469H111.612V63.1111C111.087 63.7278 110.431 64.2185 109.691 64.5469C108.946 64.866 108.136 65.0013 107.329 64.9413C104.352 64.9413 101.722 62.7798 101.722 58.6302V49.5264H106.179V58.0938C106.15 58.4562 106.192 58.8209 106.305 59.1667C106.502 59.6746 106.859 60.1039 107.323 60.3888C107.787 60.6737 108.331 60.7987 108.872 60.7444C110.447 60.7444 111.659 59.782 111.659 57.5889V49.3844L116.069 49.5264Z" fill="white"/>
<path d="M141.866 55.3327V64.5469H137.393V55.7271C137.393 54.1493 136.669 53.25 135.235 53.25C133.802 53.25 132.889 54.3071 132.889 56.0742V64.5469H128.432V55.7271C128.432 54.1493 127.723 53.25 126.274 53.25C124.825 53.25 123.943 54.3071 123.943 56.0742V64.5469H119.487V49.5265H123.943V50.9149C124.405 50.2963 125.018 49.8073 125.723 49.4949C126.425 49.1832 127.193 49.0479 127.959 49.1005C128.728 49.0664 129.492 49.2293 130.18 49.5738C130.878 49.9371 131.466 50.4821 131.881 51.1516C132.383 50.4836 133.043 49.9519 133.802 49.6047C134.561 49.2576 135.395 49.1059 136.228 49.1636C139.614 49.1005 141.866 51.5776 141.866 55.3327Z" fill="white"/>
<path d="M145.661 49.4318C146.323 49.4349 146.971 49.241 147.522 48.8746C148.073 48.5083 148.504 47.9861 148.758 47.3742C149.013 46.7624 149.081 46.0885 148.952 45.4382C148.824 44.7879 148.506 44.1905 148.038 43.7217C147.57 43.253 146.974 42.9341 146.324 42.8055C145.675 42.677 145.003 42.7446 144.392 42.9997C143.781 43.2548 143.26 43.686 142.894 44.2384C142.529 44.7909 142.335 45.4398 142.338 46.1027C142.342 46.9843 142.694 47.8287 143.316 48.4521C143.938 49.0756 144.781 49.4276 145.661 49.4318Z" fill="white"/>
<path d="M50.4909 31.2558C53.5784 31.2558 56.5965 30.3384 59.1634 28.6196C61.7303 26.9008 63.7307 24.4579 64.9115 21.5999C66.0923 18.7419 66.4005 15.5973 65.797 12.5638C65.1935 9.53034 63.7055 6.74434 61.5212 4.55826C59.337 2.37219 56.5546 0.884272 53.5261 0.282745C50.4975 -0.318782 47.359 -0.00688912 44.5074 1.17897C41.6559 2.36482 39.2195 4.37135 37.5064 6.94472C35.7934 9.51808 34.8807 12.5426 34.8838 15.6358C34.8838 17.6884 35.2876 19.7208 36.0721 21.6169C36.8567 23.5131 38.0065 25.2357 39.456 26.6864C40.9054 28.137 42.6261 29.2873 44.5195 30.0713C46.413 30.8554 48.4421 31.2579 50.4909 31.2558Z" fill="white"/>
<path d="M85.359 31.2558C88.4471 31.2589 91.4667 30.3441 94.0357 28.6272C96.6047 26.9104 98.6076 24.4686 99.7908 21.6108C100.974 18.7531 101.284 15.608 100.683 12.5735C100.081 9.53897 98.5942 6.7515 96.4106 4.56384C94.227 2.37619 91.4446 0.886705 88.4156 0.283898C85.3867 -0.318909 82.2473 -0.00793874 79.3948 1.17745C76.5424 2.36284 74.105 4.36936 72.3913 6.94307C70.6776 9.51678 69.7645 12.542 69.7676 15.6358C69.7718 19.7772 71.4158 23.7478 74.3388 26.6762C77.2618 29.6046 81.2252 31.2516 85.359 31.2558Z" fill="white"/>
<path d="M31.2142 0H0V31.24H31.1827L31.2142 0Z" fill="white"/>
</g>
<defs>
<clipPath id="clip0_218_6">
<rect width="149" height="71" fill="white"/>
</clipPath>
</defs>
</svg>
